<?xml version="1.0" encoding="UTF-8" standalone="no"?>
<!-- Created with Inkscape (http://www.inkscape.org/) -->

<svg
   xmlns:dc="http://purl.org/dc/elements/1.1/"
   xmlns:cc="http://creativecommons.org/ns#"
   xmlns:rdf="http://www.w3.org/1999/02/22-rdf-syntax-ns#"
   xmlns:svg="http://www.w3.org/2000/svg"
   xmlns="http://www.w3.org/2000/svg"
   xmlns:sodipodi="http://sodipodi.sourceforge.net/DTD/sodipodi-0.dtd"
   xmlns:inkscape="http://www.inkscape.org/namespaces/inkscape"
   width="24in"
   height="12in"
   id="svg2"
   version="1.1"
   inkscape:version="0.91 r13725"
   sodipodi:docname="Ouajdi.svg">
  <defs
     id="defs4">
    <circle
       style="fill:none;stroke:#00ffff;stroke-width:1;stroke-linecap:round;stroke-linejoin:round;stroke-miterlimit:4;stroke-dasharray:none;stroke-dashoffset:0;stroke-opacity:1"
       id="path3837-1"
       transform="translate(-22.5,-9)"
       cx="-499.5"
       cy="66.862183"
       r="76.5" />
    <ellipse
       style="fill:none;stroke:#00ffff;stroke-width:1;stroke-linecap:round;stroke-linejoin:round;stroke-miterlimit:4;stroke-dasharray:none;stroke-dashoffset:0;stroke-opacity:1"
       id="path3876-7"
       cx="-315"
       cy="21.862183"
       rx="63"
       ry="67.5" />
    <ellipse
       style="fill:none;stroke:#00ffff;stroke-width:1;stroke-linecap:round;stroke-linejoin:round;stroke-miterlimit:4;stroke-dasharray:none;stroke-dashoffset:0;stroke-opacity:1"
       id="path3876-1"
       cx="-315"
       cy="21.862183"
       rx="63"
       ry="67.5" />
    <circle
       style="fill:none;stroke:#00ffff;stroke-width:1;stroke-linecap:round;stroke-linejoin:round;stroke-miterlimit:4;stroke-dasharray:none;stroke-dashoffset:0;stroke-opacity:1"
       id="path3837-7"
       transform="translate(-22.5,-9)"
       cx="-499.5"
       cy="66.862183"
       r="76.5" />
    <circle
       style="fill:none;stroke:#00ffff;stroke-width:1;stroke-linecap:round;stroke-linejoin:round;stroke-miterlimit:4;stroke-dasharray:none;stroke-dashoffset:0;stroke-opacity:1"
       id="path3837-3"
       transform="translate(-22.5,-9)"
       cx="-499.5"
       cy="66.862183"
       r="76.5" />
    <circle
       style="fill:none;stroke:#00ffff;stroke-width:1;stroke-linecap:round;stroke-linejoin:round;stroke-miterlimit:4;stroke-dasharray:none;stroke-dashoffset:0;stroke-opacity:1"
       id="path3837-3-9"
       transform="translate(-22.5,-9)"
       cx="-499.5"
       cy="66.862183"
       r="76.5" />
    <path
       sodipodi:type="spiral"
       style="fill:none;stroke:#00ffff;stroke-width:1px;stroke-linecap:butt;stroke-linejoin:miter;stroke-opacity:1"
       id="path3733-0"
       sodipodi:cx="180"
       sodipodi:cy="782.36218"
       sodipodi:expansion="1"
       sodipodi:revolution="5"
       sodipodi:radius="99.408249"
       sodipodi:argument="-7.2669492"
       sodipodi:t0="0.1"
       d="m 174.49385,790.63879 c -6.94975,-1.98988 -9.38646,-10.29498 -6.90877,-16.53583 3.63612,-9.1587 14.88657,-12.20267 23.42722,-8.294 11.38335,5.20964 15.04593,19.49721 9.67923,30.3186 -6.75345,13.61762 -24.11676,17.90299 -37.20998,11.06446 -15.85765,-8.28239 -20.76802,-28.74129 -12.44969,-44.10137 9.80286,-18.10132 33.36891,-23.63802 50.99274,-13.83491 20.34742,11.31807 26.51137,37.9986 15.22015,57.88412 -12.82979,22.5952 -42.62975,29.38703 -64.7755,16.60538 -24.8442,-14.33908 -32.2644,-47.26196 -17.99061,-71.66689 15.8466,-27.09409 51.89497,-35.14302 78.55827,-19.37584 29.34469,17.35281 38.02262,56.5286 20.76107,85.44965 -18.85801,31.59583 -61.16272,40.903 -92.34104,22.1463 -33.84739,-20.3624 -43.783974,-65.79722 -23.53153,-99.23241 21.86617,-36.09931 70.43206,-46.66545 106.1238,-24.91676 38.3515,23.36942 49.54733,75.06715 26.30199,113.01518 -24.87225,40.60394 -79.70247,52.42956 -119.90656,27.68722 -42.856573,-26.37473 -55.312067,-84.33797 -29.07245,-126.79794 27.8769,-45.10937 88.97362,-58.19482 133.68932,-30.45769"
       transform="matrix(1.2960494,0,0,1.2960494,-56.378841,-226.80267)" />
    <circle
       style="fill:none;stroke:#00ffff;stroke-width:1;stroke-linecap:round;stroke-linejoin:round;stroke-miterlimit:4;stroke-dasharray:none;stroke-dashoffset:0;stroke-opacity:1"
       id="path3837-7-0"
       transform="translate(-22.5,-9)"
       cx="-499.5"
       cy="66.862183"
       r="76.5" />
    <pattern
       y="0"
       x="0"
       height="6"
       width="6"
       patternUnits="userSpaceOnUse"
       id="EMFhbasepattern" />
  </defs>
  <sodipodi:namedview
     id="base"
     pagecolor="#ffffff"
     bordercolor="#666666"
     borderopacity="1.0"
     inkscape:pageopacity="0.0"
     inkscape:pageshadow="2"
     inkscape:zoom="0.5"
     inkscape:cx="2054.2966"
     inkscape:cy="598.90547"
     inkscape:document-units="in"
     inkscape:current-layer="g4711"
     showgrid="true"
     objecttolerance="20"
     inkscape:window-width="1920"
     inkscape:window-height="1018"
     inkscape:window-x="-8"
     inkscape:window-y="-8"
     inkscape:window-maximized="1"
     units="in">
    <inkscape:grid
       type="xygrid"
       id="grid2985"
       units="in"
       empspacing="5"
       visible="true"
       enabled="true"
       snapvisiblegridlinesonly="true" />
  </sodipodi:namedview>
  <metadata
     id="metadata7">
    <rdf:RDF>
      <cc:Work
         rdf:about="">
        <dc:format>image/svg+xml</dc:format>
        <dc:type
           rdf:resource="http://purl.org/dc/dcmitype/StillImage" />
        <dc:title></dc:title>
      </cc:Work>
    </rdf:RDF>
  </metadata>
  <g
     inkscape:label="Layer 1"
     inkscape:groupmode="layer"
     id="layer1"
     transform="translate(0,27.637815)">
    <flowRoot
       xml:space="preserve"
       id="flowRoot3753"
       style="font-style:normal;font-weight:normal;font-size:24px;line-height:125%;font-family:Sans;letter-spacing:0px;word-spacing:0px;fill:#000000;fill-opacity:1;stroke:none;stroke-width:1px;stroke-linecap:butt;stroke-linejoin:miter;stroke-opacity:1"><flowRegion
         id="flowRegion3755"><rect
           id="rect3757"
           width="122.85714"
           height="82.85714"
           x="394.28571"
           y="735.2193" /></flowRegion><flowPara
         id="flowPara3759" /></flowRoot>    <flowRoot
       xml:space="preserve"
       id="flowRoot3767"
       style="font-style:normal;font-weight:normal;font-size:24px;line-height:125%;font-family:Sans;letter-spacing:0px;word-spacing:0px;fill:#000000;fill-opacity:1;stroke:none;stroke-width:1px;stroke-linecap:butt;stroke-linejoin:miter;stroke-opacity:1"><flowRegion
         id="flowRegion3769"><rect
           id="rect3771"
           width="97.85714"
           height="111.42857"
           x="-629.64288"
           y="157.36218" /></flowRegion><flowPara
         id="flowPara3773" /></flowRoot>    <text
       xml:space="preserve"
       style="font-style:normal;font-weight:normal;font-size:24px;line-height:125%;font-family:Sans;letter-spacing:0px;word-spacing:0px;fill:#000000;fill-opacity:1;stroke:none"
       x="-384.82144"
       y="21.112181"
       id="text3881"
       sodipodi:linespacing="125%"><tspan
         sodipodi:role="line"
         id="tspan3883"
         x="-384.82144"
         y="21.112181" /></text>
    <flowRoot
       xml:space="preserve"
       id="flowRoot3857-7"
       style="font-style:normal;font-weight:normal;font-size:24px;line-height:125%;font-family:Sans;letter-spacing:0px;word-spacing:0px;fill:#000000;fill-opacity:1;stroke:none"
       transform="matrix(1.2548699,0,0,1.2548699,401.30836,94.076471)"><flowRegion
         id="flowRegion3859-2"><rect
           id="rect3861-6"
           width="175.82764"
           height="154.49779"
           x="-778.82764"
           y="-191.1356" /></flowRegion><flowPara
         id="flowPara3863-0" /></flowRoot>    <flowRoot
       xml:space="preserve"
       id="flowRoot4294"
       style="fill:black;stroke:none;stroke-opacity:1;stroke-width:1px;stroke-linejoin:miter;stroke-linecap:butt;fill-opacity:1;font-family:sans-serif;font-style:normal;font-weight:normal;font-size:40px;line-height:125%;letter-spacing:0px;word-spacing:0px"><flowRegion
         id="flowRegion4296"><rect
           id="rect4298"
           width="100"
           height="110"
           x="400"
           y="750" /></flowRegion><flowPara
         id="flowPara4300" /></flowRoot>    <g
       id="g4711"
       transform="translate(1400.2375,624.06768)">
      <text
         xml:space="preserve"
         style="font-style:normal;font-weight:normal;font-size:40px;line-height:125%;font-family:sans-serif;text-align:center;letter-spacing:0px;word-spacing:0px;text-anchor:middle;fill:#000000;fill-opacity:1;stroke:none;stroke-width:1px;stroke-linecap:butt;stroke-linejoin:miter;stroke-opacity:1"
         x="664.08484"
         y="-563.64838"
         id="text4488-9"
         sodipodi:linespacing="125%"><tspan
           sodipodi:role="line"
           id="tspan4490-1"
           x="664.08484"
           y="-563.64838"
           style="font-style:normal;font-variant:normal;font-weight:normal;font-stretch:normal;font-size:17.5px;font-family:'Cambria Math';-inkscape-font-specification:'Cambria Math';text-align:center;text-anchor:middle">Felfoul's in</tspan><tspan
           sodipodi:role="line"
           x="664.08484"
           y="-541.77338"
           style="font-style:normal;font-variant:normal;font-weight:normal;font-stretch:normal;font-size:17.5px;font-family:'Cambria Math';-inkscape-font-specification:'Cambria Math';text-align:center;text-anchor:middle"
           id="tspan3425">Texas 2015</tspan></text>
      <path
         inkscape:connector-curvature="0"
         id="path1313-3-0"
         style="fill:none;stroke:#ff0000;stroke-width:0.08567681;stroke-linecap:butt;stroke-miterlimit:2;stroke-dasharray:none;stroke-dashoffset:0"
         d="m 579.1228,-562.26827 0,-0.008 m 3.33301,-0.005 -3.33301,0.0126 m -2.72203,0.91448 0.0177,-0.0676 0,0 m 0.0329,-0.13406 0.0492,-0.08 0,0 m 0,-0.0114 -0.0201,-0.0236 0,0 m -0.0984,0.0114 0.0644,-0.15708 0,0 m -0.20983,-0.20161 0.20971,-0.16541 2.67382,-0.0852 0,0 m -2.72417,0.91633 0,-0.004 m 1.05489,1.97142 0.0151,-0.0431 0,0 m -0.38928,-0.33478 -0.0857,0.0187 0,0 m -0.25225,-0.19249 -0.0151,-9.5e-4 0,0 m -0.0997,-0.26377 -0.0997,-0.0206 0,0 m -0.17564,-0.18586 -0.019,-0.0208 0,0 m -0.067,-0.0968 0,-0.0174 0,0 m 0.048,-0.11533 -0.0858,-0.16265 0,0 m -0.0732,-0.0795 0,-0.005 0,0 m 0.0151,-0.0159 0.21111,-0.17276 0.048,-0.0441 0,0 m 0.0466,-0.0264 0.0265,-0.0511 0,0 m -0.0858,-0.0453 -0.0252,-9.5e-4 0,0 m -0.048,-0.0265 0.0593,-0.0663 0,0 m 1.05678,1.96962 0,-0.004 m 132.90236,-24.54906 -0.20569,0.22684 -0.2096,0.064 0.0542,-0.28687 -0.21212,-0.009 -0.29047,0.15871 0.0555,-0.2079 0.12114,-0.24299 -0.2477,0.10739 -0.21968,0.0947 0.28315,-0.22144 -0.16341,-0.20938 -0.23773,0.19673 -0.16832,-0.22956 -0.20455,0.16483 -0.22043,0.1022 0.0757,-0.28593 0.048,-0.26467 -0.0858,0.20756 -0.22472,-0.0988 -0.35697,0.071 -0.0201,-0.24288 -0.21262,-0.11091 0.10346,0.26155 -0.21147,0.0484 -0.20619,-0.23037 0.23193,-0.15054 -0.20506,0.0859 0,-0.27514 -0.23507,0.0945 -0.0404,-0.2548 0.21666,-0.0873 -0.2116,-0.0445 -0.23054,0.25779 -0.21818,-0.0408 0.0151,-0.31713 -0.0732,0.2176 -0.28983,0.10512 -0.27976,-0.12677 0.0959,-0.21806 -0.21792,0.005 -0.20454,-0.10613 -0.19116,-0.22797 0.053,-0.24485 -0.0151,-0.2358 -0.0593,0.2388 -0.27141,0.005 0.0328,-0.23145 -0.21589,-0.14805 -0.0492,-0.31626 -0.21615,0.13128 -0.23961,-0.10222 -0.29805,-0.0202 -0.14764,-0.23893 -0.0921,-0.21902 -0.0593,-0.20265 -0.17212,0.30017 -0.20832,-0.0424 0.20921,-0.23709 -0.28051,-0.0114 -0.24504,0.0216 0.0618,-0.23743 -0.38865,-0.144 -0.45413,-0.22115 -0.20795,-0.12341 -0.26107,0.20443 -0.0757,0.41851 -0.0618,0.27447 -0.17097,-0.2146 -0.10601,0.27462 -0.1186,0.22864 -0.23623,-0.0524 -0.2164,-0.12304 -0.19646,0.20955 -0.23798,0.052 -0.39634,0.0264 -0.24795,-0.0779 -0.2867,-0.005 -0.0669,-0.20847 -0.26271,0.12959 -0.23673,0.0125 -9.6e-4,-0.2315 -0.30372,0.15734 -0.2053,-0.10839 0.024,-0.28884 -0.0555,-0.20417 -0.25514,-0.0788 -0.22297,-0.12454 -0.20782,0.19479 -0.12113,0.26235 -0.30814,-0.028 -0.26536,0.20582 -0.23572,0.11281 -0.2135,-0.0674 -0.27748,-0.0759 -0.19129,0.20577 0.0921,0.21041 -0.043,0.20759 -0.24215,-0.0235 -0.24605,-0.13548 -0.20655,0.0714 -0.0315,0.24839 -0.22334,-0.0114 -0.25666,-0.17329 -0.21679,-0.18062 -0.4222,-0.26475 -0.18437,0.30821 -0.36239,0.0819 -0.31205,-0.2401 0.0669,0.26083 -0.2231,0.16473 -0.0593,-0.20633 -0.29149,0.27232 -0.26308,-0.0857 -0.30284,-0.0667 0.029,0.20176 -0.28151,-0.0959 -0.28998,0.038 0,0.23687 -0.24895,0.0593 0.11609,0.24905 -0.0921,0.33744 -0.20568,0.18955 -0.36177,0.11534 -0.38157,-0.18855 -0.25603,-0.11874 -0.20681,0.0975 -0.10095,0.25417 0,0.27758 -0.0656,0.22183 -0.22827,0.174 -0.25073,0.0749 -0.11482,-0.23824 -0.106,-0.20362 -0.21577,-0.23199 -0.20278,-0.25564 -0.10977,-0.24776 -0.27055,-0.0609 -0.23533,0.0693 -0.34878,0.0396 -0.17236,-0.20491 -0.0151,-0.2459 -0.16189,-0.2118 -0.21174,0.0579 -0.23419,-0.008 -0.2207,-0.15641 -0.3335,-0.14014 0.12239,-0.36428 0.2414,-0.15412 -0.42145,-0.18284 -0.3301,-0.28279 -0.25085,0.25994 -0.0151,0.29557 -0.0946,0.31657 -0.23961,0.24258 -0.37099,0.0784 -0.22297,0.004 -0.11607,-0.21861 -0.0417,-0.23988 -0.3552,-0.1661 -0.21401,-0.029 -0.10347,0.29043 -0.20568,0.0424 -0.25123,-0.24264 -0.13981,-0.37585 -0.0151,-0.22376 -0.0492,-0.33709 -0.16896,-0.25169 -0.20468,0.0442 -0.34789,0.19747 -0.14284,-0.21755 -0.17375,0.31683 0.1123,0.35963 0,0.21464 -0.13678,0.23342 -0.26876,0.32613 -0.22512,0.1142 -0.16202,-0.24751 -0.28896,0.005 0.2255,0.23932 0.15595,0.2718 -0.3417,0.0681 -0.1764,0.26666 0.0946,0.28428 0.019,0.24314 -0.13047,0.3206 -0.2641,0.14418 -0.37161,-0.0912 -0.20897,-0.19714 -0.0757,-0.20526 -0.082,-0.20301 -0.0782,-0.20534 -0.11607,-0.21368 0,-0.2301 0.26069,-0.16553 0.16264,-0.21093 -0.11356,-0.38901 -0.0416,-0.24496 -0.27912,-0.25249 -0.21729,0.007 -0.2121,0.14059 -0.0404,0.25651 -0.0757,0.26654 -0.22045,0.0732 -0.29374,-0.34046 -0.13212,0.22375 -0.22474,0.12909 0.12493,-0.29039 -0.18007,0.24402 -0.0821,0.20675 -0.23748,0.31333 -0.24101,0.0345 -0.25515,-0.007 -0.3364,-0.0591 -0.21034,-0.24131 0.0807,-0.20706 0.0454,-0.317 -0.10599,-0.31285 -0.29021,-0.16252 -0.41452,0.076 -0.28997,0.18271 -0.22952,-0.0174 -0.2091,-0.14105 0,-0.26104 0.0265,-0.29438 -0.22359,-0.21459 -0.27243,-0.17425 -0.25907,-0.10017 -0.31734,0.0126 -0.20026,0.32502 -0.18144,0.25656 -0.2289,0.0869 -0.23646,0.0395 0.0379,0.20618 -0.20858,-0.0114 -0.0151,0.26986 -0.21236,0.009 -0.0719,0.28288 -0.22574,0.16802 -0.29098,0.1507 -0.25451,0.0445 -0.2366,-0.1094 -0.35142,-0.21449 -0.31432,-0.0607 -0.2294,-0.14633 -0.0151,-0.30077 0.23873,-0.0254 0.0416,-0.29109 -0.22814,-0.0511 0.1894,-0.24108 0.12241,-0.4148 -0.28619,-0.20643 -0.21198,0.0868 -0.26752,0.0627 -0.28706,0.009 -0.35483,-0.10006 -0.17981,-0.24165 -0.18347,-0.20671 0.24707,-0.0235 -0.33981,-0.33916 -0.0694,-0.25132 0.18462,-0.22415 0.13047,-0.24778 5.1e-4,-0.20162 -0.11987,-0.21402 -0.22297,-0.0823 -0.34184,0.421 -0.52277,0.0752 -0.24139,-0.10624 -0.26877,-0.0745 -0.27635,-0.0197 -0.23078,-0.0114 -0.34814,-0.23833 -0.44341,-0.0789 -0.20693,0.14138 0.048,0.20498 -0.2024,0.0315 6.3e-4,0.31622 -0.13981,0.21146 -0.32039,0.0566 -0.27633,0.14012 -0.23382,0.14729 -0.33716,-0.30957 -0.21413,-0.28278 -0.21502,-0.16926 -0.11988,-0.22906 -0.36618,-0.3062 -0.47925,-0.0524 -0.30574,0.20065 -0.21123,0.21468 -0.21955,0.0213 -0.26852,-0.0556 -0.25098,0.14728 -0.23218,-0.19673 -0.2906,-0.19109 -0.29477,-0.1089 -0.27003,0.008 -0.21274,0.079 -0.24013,-0.24937 -0.23949,-0.0972 -0.36367,-0.40184 -0.23545,0.12708 -0.17162,-0.2478 -0.27356,0.23981 -0.25603,-0.0491 -0.24088,0.0833 -0.23622,-0.14479 -0.22031,0.0224 -0.21956,0.10638 -0.0896,-0.21504 -0.23532,0.12289 -0.45327,-0.074 0,-0.20385 -0.0681,-0.25981 0,-0.22256 -0.11609,-0.22937 -0.0265,-0.20356 0.0341,-0.23901 -0.0466,-0.26297 -0.24075,-0.0271 -0.0492,-0.29416 -0.23671,-0.15301 -0.0656,-0.20449 0.0354,-0.20397 -0.20707,0.0377 -0.3224,-0.11975 -0.21464,-0.16781 -0.31117,-0.26077 -0.13198,-0.21681 -0.2241,0.1535 -0.0454,0.25481 0.0669,0.222 -0.10599,0.24056 -0.0404,0.23884 -0.22485,-0.0764 -0.22032,0.10083 -0.14449,-0.21032 -0.22081,-0.0886 -0.27811,-0.18296 -0.21969,-0.0677 -0.24972,0.014 -0.22826,-0.0539 -0.2458,0.1277 -6.4e-4,0.21798 -0.17086,0.21864 -0.26674,0.0155 -0.24643,-0.11873 -0.21477,0.11066 -0.31988,-0.055 -0.21931,-0.21433 -0.13514,-0.2122 -0.2169,-0.0907 -0.22676,-0.17351 -0.20807,-0.27264 -0.31142,-0.3323 -0.0821,-0.28651 -0.34435,-0.18184 -0.17566,-0.21218 -0.17538,-0.25597 -0.20581,-0.151 -0.20202,-0.15741 -0.25236,-0.1176 -0.23105,0.17594 -0.29577,0.0857 -0.0883,-25.68399 -10.77782,-0.003 -1.34587,0.0114 -11.29026,-0.0208 -9.71562,0.003 m 0,0 -0.43583,6.1e-4 0.0151,6.62255 0,2.14894 0,0.61037 -0.0151,8.64528 0,1.64432 -0.0151,9.30328 0,3.85155 -0.23345,13.50605 0,13.23144 -24.12512,0.004 -9.65656,-0.0298 -5.44014,0.0271 -0.23217,0.26676 0.22031,0.1161 -0.0605,0.22564 0.0329,0.24098 -0.0201,0.0579 m 133.9532,-22.58106 0.21855,0.0213 0.21199,-0.0519 -0.1475,0.20866 -0.10095,0.22637 0.20656,0.12353 0.22827,0.0908 0.19697,0.29671 0.28442,-0.17052 -0.019,0.21274 -0.0177,0.24856 0.21703,0.014 0.23104,-0.0357 0.053,-0.25765 0.25111,0.24877 0.2236,-0.31757 0.21842,-0.0686 -0.10725,0.24231 0.2087,-0.0214 0.12733,-0.25737 0.22423,-0.11356 -0.0466,0.21138 -0.0644,0.22259 0.26423,0.0501 0.22637,-0.18851 -0.0807,-0.21527 0.32114,-0.14822 0.23874,0.0766 0.22208,0.0994 -0.072,0.20773 0.21678,0.19407 0.0896,-0.212 0.25829,-0.0886 0.27181,0.0191 -9.6e-4,0.23334 0.23206,0.0269 0.0997,7.06081 m 0,0 0,13.16261 0,0.33844 0.21892,0.11672 0.17754,0.22528 0.1224,0.25536 0.20139,0.36692 0.23634,0.12442 0.20429,0.10334 0.0605,0.20585 0.21616,0.016 0.11988,0.23681 0.22056,0.0794 0,0.21526 0.10222,0.21203 0.0202,0.22395 0.19204,0.22205 0.19521,0.23021 0.11609,0.23887 -0.12744,0.22501 0.13526,0.20879 0.13351,0.25349 0.0997,0.36316 -0.0997,0.21064 -0.0972,0.20237 0.0543,0.22968 -0.0151,0.23015 -0.23079,0.19959 0.0252,0.2031 0.1918,0.27145 0,0.21335 0.21009,0.15684 0.13059,0.20692 0.30474,0.0452 0.21565,0.0766 0.28492,0.0526 -0.10347,0.23503 -0.23243,0.14245 -0.048,0.22436 0.30385,0.20176 0.31635,0.17696 -0.12619,0.28032 0.24921,0.27227 0.14448,0.35678 0.22916,0.008 -0.22259,0.23616 -0.0984,0.29823 -0.0745,0.20997 0.16594,0.22033 0.11356,0.21645 0.42322,0.14029 0.053,0.21044 -0.0151,0.24208 0.22083,0.0971 -0.0807,0.24936 0.0151,0.37238 0.14751,0.22041 0.21603,-0.15472 0.21589,-0.12 0.20606,0.0903 -0.0732,0.2168 -0.0883,0.26572 0.0896,0.22228 -0.0883,0.20336 -0.0946,0.21209 0.0265,0.21501 0.21616,0.058 0.12731,0.22872 0.0151,0.2038 -0.0265,0.28829 -0.29856,0.13173 -0.24378,0.008 -0.0202,0.23521 0.0454,0.207 0.21464,0.12012 0.21299,0.16601 0.0517,0.22598 -0.1937,0.22969 -0.11608,0.23006 -0.20921,0.20124 0.0934,0.25057 0.0795,0.21919 0.0404,0.22425 -0.11609,0.23296 -0.11609,0.21402 -0.0946,0.30148 -0.19142,0.21955 -0.0884,0.20712 -0.0151,0.21608 -0.0807,0.23366 -0.043,0.2415 -0.12114,0.21539 -0.22196,0.10496 -0.20845,0.15798 -0.1383,0.22179 -0.024,0.21245 0.0201,0.22439 -0.019,0.21394 -0.20794,0.0482 -0.26424,0.19024 -0.0391,0.28073 -0.0732,0.20586 0.21349,0.21785 0.0757,0.2265 0.0164,0.23148 -0.0265,0.21727 0.11608,0.2658 -0.0214,0.20392 -0.24239,0.0482 -0.029,0.2273 -0.18714,0.22472 -0.10599,0.23458 0.0466,0.25085 -0.0934,0.23263 0.0379,0.21601 0.16871,0.24851 0.24189,0.14542 0.15533,0.20409 -0.0341,0.21226 -0.0151,0.22165 -0.0265,0.21782 -0.1022,0.21326 0.0669,0.2393 0.0454,0.2322 0.0845,0.24659 0.10726,0.25592 -0.0821,0.24864 -0.16139,0.29898 -0.0934,0.23696 0.23053,0.21662 -0.37879,0.38358 -0.0404,0.20797 -0.28857,0.2408 -0.23571,0.19253 -0.16543,0.35112 -0.11231,0.35982 -0.0391,0.22113 -0.14447,0.31852 -0.27331,0.40054 -0.3431,0.24329 -0.30284,0.24523 -0.15811,0.23234 0.0177,0.2658 0.30941,0.23803 0.0555,0.22407 0.215,0.22343 0.40316,0.63385 0.0959,0.40174 0.15848,0.83337 m -141.36406,-30.91301 -0.0214,0.261 -0.21541,0.17947 0.16203,0.25123 0.029,0.2458 0.2424,0.19584 0.0151,0.24629 0.30952,0.22918 0.33225,0.0411 0.21779,0.22887 -0.0151,0.0909 m 140.30704,28.94341 -0.24442,-0.004 -0.23711,-0.10902 -0.18775,-0.21628 -0.34259,-0.0474 -1.40744,-2e-5 -1.01086,0.38973 -2.70575,1.26186 -0.53956,0.22208 -0.88517,0.41187 -1.38753,0.72372 -0.27734,0.19647 0.23974,0.32485 0.048,0.30551 -0.20151,0.46411 -0.26259,0.25268 -0.28807,0.0528 -0.2318,-0.0725 -0.30726,0.30362 -0.34789,0.36885 -0.7446,0.44173 -0.79459,0.51663 -0.56832,0.45107 -0.40315,0.27518 -0.95142,0.47934 -0.029,0.26731 -0.19293,0.43827 -0.21238,0.15814 -0.60782,0.71555 -0.28226,0.29439 -0.22966,0.21591 -0.28202,0.23533 -0.41969,0.27743 -0.21388,0.2737 -0.13212,0.21873 -0.34612,0.21946 -0.27066,0.1003 -0.25564,0.0571 -0.20871,0.005 -0.81452,0.53326 -0.44024,0.19966 -2.38879,1.48037 -0.30473,0.17412 -1.07471,0.56226 -1.37955,0.67134 -0.8366,0.4245 -1.17186,0.63492 -0.83824,0.58459 -0.0972,0.26002 -0.29906,0.26372 -0.2935,0.0721 -0.18953,0.2458 -0.0745,0.24236 -0.33703,0.46635 -0.22485,0.14866 -0.333,0.1434 -1.16089,0.62906 -0.96871,0.68358 -0.52265,0.42144 -0.88404,0.76857 -1.0809,1.05002 -0.34295,0.40207 -0.6983,0.90966 -0.23118,0.34282 -0.27343,0.94666 -0.27167,0.22494 -0.45603,0.4829 -0.82814,1.45225 -0.43975,0.95697 -0.38297,0.89987 -0.55698,1.42972 -0.0694,0.22487 -0.43962,1.65458 -0.14132,0.71763 -0.0466,0.3497 -0.0694,0.7898 -0.0214,0.40657 -0.0151,0.37278 0,0.54126 0.0279,0.34113 0.0757,0.94456 0.14915,1.03928 0.19521,0.94234 0.34246,1.34428 0.30095,0.84943 0.11483,0.27702 0.3253,1.3358 0.30978,1.33035 0.34485,1.68192 0.0883,0.6661 0.0732,0.69621 0.0265,0.54082 0.15558,0.21358 0.053,0.29465 -0.053,0.30541 0.0329,0.91603 -0.61288,0.0379 -0.0151,0.2021 -0.2164,-0.06 -0.22221,0.023 -0.20304,0.003 -0.2193,-0.0114 -0.21944,0.13064 -0.34724,-0.0387 0,0.22245 -0.21414,0.0253 -0.21048,0.026 -0.20366,0.0708 -0.23065,0.0791 -0.22134,0.15504 0.0871,0.22892 0.0821,0.24769 -0.18738,0.21772 0.0379,0.20986 -0.23003,0.0376 -0.159,-0.23093 -0.20618,0.17774 -0.2101,-0.13329 0.0151,-0.21269 -0.12113,-0.21855 -0.20405,0.0983 -0.20655,-0.0566 -0.0605,-0.24135 -0.25994,0.16647 -0.0618,-0.21377 -0.0315,-0.22821 -0.2159,-0.21662 -0.36555,-0.0216 0.0946,-0.21117 -0.21501,-0.10271 -0.2342,-0.22134 -0.21312,-0.15849 0.0821,-0.20782 -0.21869,-0.0217 0.0682,-0.22378 -0.30397,0.0674 0.0618,-0.24588 -0.25578,0.14883 -0.2101,-0.12366 -0.33324,0.0542 -0.27067,0.0778 -0.053,-0.23755 -0.20214,0.13485 -0.072,-0.20972 -0.20479,-0.11205 -0.20265,0.0307 -0.26095,0.0499 -0.13514,-0.2361 -0.27886,0.0449 -0.26713,0.13376 -0.22234,-0.0922 -0.21817,0.0195 -0.26334,0.0504 -0.20454,-0.014 -0.20329,0.0383 -0.2289,-0.0772 -0.072,0.276 -0.2419,-0.0658 -0.20795,0.0566 0.0542,-0.2371 -0.21376,0.0166 -0.27923,-0.0771 -0.2308,0.12555 -0.20517,0.0162 -0.14146,-0.23023 -0.22271,0.23406 -0.22613,-0.20784 -0.39658,-0.0383 -0.19887,-0.25827 -0.21451,-0.14339 0.22448,-0.19781 -0.27293,-0.0442 -0.0833,0.2071 -0.25061,-0.17508 -0.1581,-0.25654 -0.0315,-0.2052 -0.22057,-0.081 -0.24783,0.0321 -0.23961,-0.20325 -0.25351,-0.25633 -0.20858,-0.12405 0.0416,-0.24548 -0.23141,-0.0884 -0.22461,0.0892 0.0315,0.23175 -0.27495,-0.0915 -0.12241,-0.2438 -0.22511,0.0203 -0.10094,-0.23928 -0.1624,0.23136 -0.0896,-0.20317 -0.22246,-0.21434 -0.22966,0.0586 -0.26397,0.0164 -0.24467,0.21452 -0.24404,-0.0745 -0.0151,-0.20322 -0.25262,-0.12001 -0.20605,-0.0839 0.2154,-0.11319 -0.21035,-0.0977 -0.2612,-0.0787 0.0466,-0.25756 -0.12241,-0.2162 -0.24101,0.065 -0.20252,-0.0924 -0.0732,-0.2256 -0.0858,-0.23985 -0.2275,-0.0478 -0.21578,0.16019 -0.28858,-0.048 -0.20732,0.0697 -0.24278,-0.1942 -0.13981,-0.26848 -0.12618,0.25255 -0.23053,-0.0566 0.0177,-0.22655 -0.21704,-0.0896 -0.32694,0.10157 -0.31142,-0.25606 -0.24934,0.15302 -0.30232,0.0607 -0.19396,-0.2724 -0.15381,-0.20232 0.12491,-0.20453 0.0466,-0.20337 0.029,-0.24265 -0.10347,-0.24761 -0.15079,-0.21441 -0.27697,-0.15022 -0.25477,-0.10802 -0.0151,-0.31666 -0.11861,-0.80144 -0.24783,-0.47514 -0.10346,-0.49634 0.0151,-0.40797 -0.34335,-0.27919 -0.0265,-0.56138 -0.21806,-0.36277 -0.072,-0.36462 -0.29288,-0.29421 -0.23823,-0.005 -0.0555,-0.54291 -0.17085,-0.21065 -0.26296,-0.0815 -0.29931,-0.20247 -0.0605,-0.21859 0.18941,-0.22485 -0.29907,-0.25995 -0.13046,-0.26322 -0.25653,0.0345 -0.0555,-0.24643 -0.0732,-0.27834 0.17666,-0.32089 0.0466,-0.21649 -0.0341,-0.32226 0.0214,-0.24306 -0.0732,-0.21894 0.12744,-0.29309 -0.0694,-0.33859 -0.10978,-0.22423 0.0151,-0.23798 -0.12115,-0.36119 -0.31785,0.0558 -0.072,-0.39403 -0.14762,-0.21717 -0.22196,0.0289 -0.11356,-0.26453 0.24669,-0.13299 0.0151,-0.26989 0.0959,-0.25008 0.0719,-0.24906 0.0581,-0.25966 -0.0896,-0.36155 0.10977,-0.32673 0.048,-0.32958 -0.2342,-0.1579 -0.26069,0.0504 0.0151,-0.28995 0.0354,-0.21576 0.0379,-0.24357 0.0265,-0.25511 -0.21842,-0.25434 -0.20695,-0.30146 -0.26133,0.16108 0.0151,-0.21591 -0.18107,-0.26441 -0.24316,0.0126 -0.25223,0.14463 -0.21982,-0.0579 0.0151,-0.22325 -0.23029,-0.14526 -0.22536,0.047 -0.24453,-0.14215 -0.12114,-0.25507 -0.27811,-0.35328 -0.14448,-0.26501 -0.28252,-0.0457 -0.10221,-0.3058 -0.0821,-0.20266 -0.21992,0.14698 -0.12897,-0.21071 -0.27962,-0.20937 -0.0416,-0.2434 -0.0252,-0.33031 -0.19471,-0.24125 -0.11861,-0.25269 0.11357,-0.23387 -0.0669,-0.25402 -0.28643,-0.2031 -0.14296,-0.28908 0.0756,-0.24336 -0.19925,-0.20592 -0.29893,-0.0827 -0.2106,-0.1599 -0.10725,-0.22283 -0.0745,-0.24864 -0.0353,-0.21305 -0.0631,-0.20628 -0.26764,-0.13485 -0.10347,-0.29219 -0.17867,-0.26076 -0.13817,-0.31738 -0.38966,-0.14262 -0.23697,-0.16624 -0.21515,0 -0.27697,-0.23325 -0.24694,-0.0609 -0.0669,-0.20267 -0.0379,-0.28115 -0.31596,-0.0948 -0.23635,-0.21414 -0.17173,-0.26955 -0.048,-0.40322 -0.0151,-0.21024 -0.16783,-0.22783 -0.1475,-0.307 -0.27193,-0.36495 -0.0857,-0.23365 0.1383,-0.32493 -0.0151,-0.20924 -0.14285,-0.21559 -0.18737,-0.20881 0.26019,-0.14867 0.0618,-0.20628 -0.2607,-0.0868 -0.2882,-0.0856 -0.13212,-0.21487 -0.12239,-0.25957 0.15369,-0.32924 -0.35924,-0.27617 -0.2072,-0.27278 0.0341,-0.26598 -0.31962,-0.13144 -0.23583,-0.15223 -0.15671,-0.42561 0.0379,-0.34447 -9.5e-4,-0.20213 -0.0833,-0.2414 -0.20972,-0.1185 -0.0328,-0.24375 0.0328,-0.28671 -0.14132,-0.22089 -0.26776,-0.13329 -0.0265,-0.29348 -0.19748,-0.32417 -0.0201,-0.22173 -0.23974,-0.16242 -0.24695,-0.12956 -0.0252,-0.2133 -0.13981,-0.20928 0.0354,-0.228 0,-0.22193 0,-0.24969 -0.0516,-0.25245 -0.072,-0.21365 -0.0329,-0.219 -0.0151,-0.34577 -0.072,-0.2367 -0.14751,-0.24081 -0.28732,-0.12506 -0.30713,-0.25673 -0.24202,-0.2392 -0.17855,-0.21437 0.0984,-0.29043 -0.082,-0.20317 -0.12113,-0.23168 -0.13363,-0.24672 -0.20606,-0.0938 -0.25085,-0.12429 -0.28291,-0.16965 -0.19091,-0.30421 -0.25136,-0.17311 -0.26246,-0.19645 -0.22573,-0.26831 -0.25137,-0.0545 -0.26334,-0.15926 -0.20593,-0.14185 -0.0542,-0.22217 -0.2135,-0.26216 -0.053,-0.25373 -0.14915,-0.23453 -0.22461,-0.21963 -0.29249,-0.0842 -0.2906,-0.10423 -0.241,0.0187 -0.21843,-0.35666 -0.2323,-0.2162 -0.38297,-0.0275 -0.30321,0.0265 -0.0694,-0.21755 0.11988,-0.26268 -0.0201,-0.62935 0.0201,-0.2648 -0.20669,-0.0787 -0.0922,0.31152 0,0.20891 -0.14448,0.25513 -0.23204,-0.19229 -0.0151,-0.21437 0.13211,-0.42842 -0.0151,-0.20913 -0.48012,-0.15644 -0.23268,-0.1147 -0.0517,-0.29596 -0.27785,-0.27387 -6.3e-4,-0.26494 -0.2048,-0.1664 0.18309,-0.20702 -0.43217,0.14897 -0.18852,-0.27736 -0.0151,-0.21411 -0.25464,0.0524 -0.26877,0.25816 -0.2983,0.0663 -0.0833,-0.377 -0.043,-0.30069 -0.28543,0.15957 -0.048,0.33631 -0.34713,-0.014 -0.25628,0.0482 -0.19495,0.2188 -0.18915,-0.22006 -0.21766,0.13329 -0.30284,-0.0114 -0.21427,-0.1462 -0.22738,-0.0645 -0.2752,-0.14727 -0.28317,0.12518 -0.0782,-0.26579 -0.21059,-0.10271 0.0756,0.20587 -0.20859,-0.0248 -0.20151,-0.18338 -0.21981,0.17766 -0.39545,-0.0561 -0.19547,0.20471 -0.0694,-0.22484 -0.20416,0.05 -0.13981,-0.22398 -0.227,0.20989 -0.20645,-0.0616 -0.24719,-0.005 -0.23444,0.21978 -0.25969,-0.0166 -0.23709,-0.0624 -0.23206,-0.014 -0.21906,-0.1229 -0.22146,-0.13843 -0.26876,-0.18973 -0.0252,-0.25829 -0.26876,0.0356 -0.27748,-0.0668 -0.16189,-0.21019 -0.2029,-0.0445 -0.20379,0.0424 -0.31988,-0.16979 -0.21679,0.18922 -0.20201,0.0771 -0.13514,0.28266 -0.11861,0.36768 -0.043,0.23813 -0.0871,0.24016 -0.21527,0.0868 -0.23597,-0.10486 -0.23684,-0.0585 -0.24657,-0.0436 -0.31179,-0.008 -0.21678,-0.0281 0.0454,0.24014 -0.22866,0.13904 -0.22561,0.0822 -0.0883,-0.2486 -0.29224,0.24408 -0.22877,0.017 -0.21414,0.16514 -0.34094,-0.005 -0.2376,0.10006 -0.0934,0.27485 -0.10598,0.27825 -0.0997,0.2555 -0.15646,0.20597 -0.21111,0.24134 0.0353,0.32253 -0.0821,0.21415 -0.21022,-0.0676 0.0341,0.23834 -0.17111,0.24847 -0.0151,0.23016 -0.20757,0.1879 -0.11357,0.33815 0.0757,0.23318 -0.17375,0.20799 -0.0821,0.24368 -0.0757,0.23508 0.043,0.22044 0.14611,0.20351 -0.214,0.18848 -0.13514,0.30915 -0.30486,0.1651 -0.13047,0.34765 -0.0921,0.2262 0.0542,0.2058 -0.16442,0.22872 -0.0365,0.21175 0.20467,0.18911 0.21288,0.20425 -0.11357,0.22158 -0.22802,0.0551 -0.21476,0.1381 -0.21325,0.14339 -0.20972,0.12114 -0.26347,-0.0886 -0.16164,0.28762 -0.13665,0.20686 -0.0732,0.23519 -0.23016,0.21698 -0.0404,0.22738 -0.27444,0.0737 -0.14146,0.20462 -0.0933,0.21253 -0.21565,0.20509 0.0782,0.24096 -0.21174,0.34125 0,0.21268 -0.30447,0.092 -0.21565,0.0698 -0.30574,-0.15544 -0.2554,-0.0501 -0.23634,0.0411 -0.34347,-0.15162 -0.13199,0.25242 -0.0845,-0.32127 -0.23974,-0.0283 0.0214,-0.25612 -0.21678,0.0856 -0.0151,-0.21716 -0.22701,-0.0997 -0.0644,0.22988 -0.23293,-0.0114 -0.22473,-0.11749 -0.22561,-0.0702 -0.20178,-0.18952 -0.18661,-0.22135 -0.22877,0.029 0.0151,-0.24607 -0.24731,-0.25695 -0.22637,-0.21875 -0.13212,-0.21004 -0.21867,-0.10209 -0.22903,-0.12353 -0.29602,0.0542 -0.2207,-0.20252 -0.23647,0.0899 -0.20215,0.008 -0.19115,-0.20841 -0.21263,-0.0651 -0.20719,-0.0679 -0.23585,-0.12152 -0.15229,-0.21344 -0.13666,-0.21183 -0.24568,0.0597 -0.0379,-0.2075 0.0227,-0.20986 -0.23053,-0.0846 -0.15609,-0.20643 -0.24251,0.0179 -0.2077,-0.11634 -0.28493,-0.0486 -0.21161,-0.0298 -0.21615,0.0338 -0.27458,-0.13579 -0.23217,-0.0448 -0.29641,-0.0704 -0.27129,-0.11028 -0.23458,-0.10018 -0.21186,-0.17946 -0.21047,-0.15716 -0.24253,-0.21847 -0.22032,-0.11938 -0.22182,-0.15875 -0.20694,-0.14928 -0.18979,-0.21408 -0.0807,-0.21647 -0.32,-0.29626 -0.0252,-0.21291 0.0391,-0.20921 -0.24038,0.0275 -0.072,-0.25 -0.25968,-0.1205 -0.34498,-0.16922 -0.21565,-0.0497 -0.2125,0.008 -0.35065,-0.17512 -0.21036,-0.0989 -0.13678,-0.21609 -0.64139,-0.58018 -0.18183,-0.20572 -0.20858,-0.15689 -0.21553,-0.0806 -0.10598,-0.20398 -0.0984,-0.20416 -0.2063,-0.17008 0,-0.20657 -0.019,-0.23112 -0.0416,-0.22255 -0.1186,-0.22023 -0.067,-0.23724 -0.0946,-0.22048 -0.1788,-0.21611 -0.11357,-0.23918 -0.20391,-0.18575 0.0644,-0.21038 -0.17931,-0.24369 -0.18083,-0.25172 -0.13829,-0.23368 -0.23079,-0.26455 -0.0151,-0.22221 0.0884,-0.22511 -0.13678,-0.21011 0,-0.21576 -0.053,-0.21517 -0.029,-0.20822 -0.0845,-0.21861 -0.0315,-0.25695 0.13994,-0.20439 0.0416,-0.22509 -0.0492,-0.28094 -0.043,-0.22355 0.0669,-0.20287 0.0227,-0.24638 0,-0.22288 -0.0896,-0.25389 -0.0694,-0.22779 -0.0416,-0.29165 -0.19749,-0.24135 -0.29311,-0.12164 -0.0821,-0.25057 -0.0328,-0.2575 -0.20266,-0.0678 -0.10094,-0.21328 -0.21085,-0.15178 -0.16291,-0.22535 0.12367,-0.21658 -0.212,-0.0814 -0.25653,-0.16504 -0.0365,-0.31171 0,-0.20658 -0.0379,-0.20433 -0.10346,-0.25525 0,-0.25869 0.0278,-0.20861 -0.0593,-0.21963 -0.0946,-0.23607 -0.0782,-0.23564 -0.0896,-0.2058 -0.13199,-0.26517 -0.15533,-0.21387 -0.20467,-0.0566 -0.21527,-0.10397 -0.22498,-0.15038 -0.0404,-0.27594 -0.0265,-0.20226 -0.17501,-0.30179 -0.21223,-0.009 -0.21578,-0.0982 -0.21173,0.022 -0.0896,-0.21732 -0.21224,-0.0818 -0.17502,-0.21789 -0.0833,-0.22787 -0.20606,-0.0903 -0.24681,-0.014 -0.0618,-0.20329 -0.20996,-0.0155 -0.10348,-0.21941 -0.22688,-0.0237 -0.0946,-0.25875 -0.2149,0.0431 -0.25021,0.10966 -0.20569,-0.16742 -0.14914,-0.22206 -0.21628,0.16798 -0.1022,-0.22144 -0.20973,-0.0749 -0.24871,-0.16492 -0.22258,-0.0618 -0.22006,-0.0195 0.053,-0.25305 -0.0581,-0.24074 -0.2829,-0.14589 -0.20921,-0.17128 -0.2212,-0.16575 -0.23761,-0.22195 -0.17224,-0.33239 -0.20278,-0.0693 -0.25022,-0.15444 -0.22548,-0.16574 -0.0594,-0.23086 -0.11862,-0.27915 -0.0593,-0.28154 -0.14763,-0.22971 -0.3171,-0.31884 -0.21414,-0.19425 -0.70662,-0.31629 -0.3465,-0.36572 -0.23659,0.007 -0.18397,-0.24637 -0.15723,-0.25875 -0.266,-0.36876 -0.19861,-0.23265 -0.15381,-0.22829 -0.20947,-0.31751 -0.23987,-0.0155 -0.13515,-0.22097 -0.31204,-0.0794 -0.17831,-0.35488 -0.0669,-0.33303 -0.56442,-0.36675 -0.77678,-0.0681 -0.36758,-0.32776 -0.26132,-0.0357 -0.27205,-0.16254 -0.20617,-0.23621 -0.2703,-0.0954 -0.20908,-0.23652 -0.0643,-0.27333 -0.24063,-0.53918 -0.37767,-0.2705 -0.0883,-0.33171 -0.0871,-0.21647 -0.0745,-0.24729 -0.34222,-0.54751 -0.16693,-0.43891 -0.25174,-0.20989 -0.0618,-0.20836 -0.4154,-0.29894 -0.25287,-0.0792 -0.31962,-0.0309 -0.24265,0.14292 -0.22638,-0.1701 -0.20352,-0.26791 0,-0.022" />
      <circle
         id="path3427"
         cx="653.60388"
         cy="-553.5296"
         r="79.337189"
         style="fill:none;stroke:#0000ff;stroke-width:0.09;stroke-miterlimit:4;stroke-dasharray:none" />
      <circle
         id="path3427-6"
         cx="653.60388"
         cy="-553.5296"
         r="87.41993"
         style="fill:none;stroke:#00ffff;stroke-width:0.09;stroke-miterlimit:4;stroke-dasharray:none" />
    </g>
  </g>
</svg>
