<?xml version="1.0" encoding="UTF-8" standalone="no"?>
<svg
   xmlns:dc="http://purl.org/dc/elements/1.1/"
   xmlns:cc="http://creativecommons.org/ns#"
   xmlns:rdf="http://www.w3.org/1999/02/22-rdf-syntax-ns#"
   xmlns:svg="http://www.w3.org/2000/svg"
   xmlns="http://www.w3.org/2000/svg"
   xmlns:sodipodi="http://sodipodi.sourceforge.net/DTD/sodipodi-0.dtd"
   xmlns:inkscape="http://www.inkscape.org/namespaces/inkscape"
   color-interpolation="auto"
   color-rendering="auto"
   fill="black"
   fill-opacity="1"
   font-family="'Dialog'"
   font-size="12"
   font-style="normal"
   font-weight="normal"
   height="1484"
   image-rendering="auto"
   shape-rendering="auto"
   stroke="black"
   stroke-dasharray="none"
   stroke-dashoffset="0"
   stroke-linecap="square"
   stroke-linejoin="miter"
   stroke-miterlimit="10"
   stroke-opacity="1"
   stroke-width="1"
   text-rendering="auto"
   width="1500"
   id="svg2"
   sodipodi:version="0.32"
   inkscape:version="0.91 r13725"
   sodipodi:docname="USA_Texas_location_map.svg"
   inkscape:output_extension="org.inkscape.output.svg.inkscape"
   version="1.1">
  <metadata
     id="metadata2682">
    <rdf:RDF>
      <cc:Work
         rdf:about="">
        <dc:format>image/svg+xml</dc:format>
        <dc:type
           rdf:resource="http://purl.org/dc/dcmitype/StillImage" />
      </cc:Work>
    </rdf:RDF>
  </metadata>
  <sodipodi:namedview
     inkscape:window-height="968"
     inkscape:window-width="1280"
     inkscape:pageshadow="2"
     inkscape:pageopacity="0.0"
     guidetolerance="10.0"
     gridtolerance="10.0"
     objecttolerance="10.0"
     borderopacity="1.0"
     bordercolor="#666666"
     pagecolor="#ffffff"
     id="base"
     showgrid="false"
     inkscape:zoom="0.22013702"
     inkscape:cx="665.63731"
     inkscape:cy="1458.7304"
     inkscape:window-x="-4"
     inkscape:window-y="-4"
     inkscape:current-layer="svg2"
     inkscape:window-maximized="0" />
  <!--Generated by the Batik Graphics2D SVG Generator-->
  <defs
     id="genericDefs">
    <inkscape:perspective
       sodipodi:type="inkscape:persp3d"
       inkscape:vp_x="0 : 742 : 1"
       inkscape:vp_y="0 : 1000 : 0"
       inkscape:vp_z="1500 : 742 : 1"
       inkscape:persp3d-origin="750 : 494.66667 : 1"
       id="perspective2684" />
    <defs
       id="defs1">
      <clipPath
         id="clipPath1"
         clipPathUnits="userSpaceOnUse">
        <path
           id="path9"
           d="M0 0 L1500 0 L1500 1484 L0 1484 L0 0 Z" />
      </clipPath>
    </defs>
    <clipPath
       clipPathUnits="userSpaceOnUse"
       id="clipPath7780">
      <path
         d="M 0,0 L 1500,0 L 1500,1484 L 0,1484 L 0,0 z"
         id="path7782" />
    </clipPath>
  </defs>
  <path
     id="path1313"
     style="fill:none;stroke:#646464;stroke-linecap:butt;stroke-miterlimit:1;stroke-dasharray:1, 0"
     d="m 57.2447,630.2183 10e-5,-0.0735 m 33.0687,-0.0479 -33.0688,0.1214 m -27.0067,9.0729 0.1712,-0.6711 0,0 m 0.3303,-1.3305 0.4974,-0.794 0,0 m 0.0117,-0.1119 -0.1948,-0.2338 0,0 m -0.9671,0.1131 0.632,-1.5587 0,0 m -2.0831,-2.0003 2.0817,-1.6409 26.5274,-0.8448 0,0 m -27.0268,9.0911 0.0201,-0.0182 m 10.4654,19.5591 0.0437,-0.4278 0,0 m -3.8622,-3.3215 -0.8446,0.1853 0,0 m -2.5008,-1.9097 -0.039,-0.01 0,0 m -0.977,-2.6167 -0.9829,-0.2046 0,0 m -1.7417,-1.844 -0.1805,-0.2051 0,0 m -0.6621,-0.9603 0.0183,-0.1725 0,0 m 0.4677,-1.1433 -0.8415,-1.6136 0,0 m -0.7279,-0.7896 -0.0019,-0.0469 0,0 m 0.0398,-0.1577 2.0947,-1.714 0.472,-0.4379 0,0 m 0.4567,-0.2615 0.2695,-0.5048 0,0 m -0.8519,-0.4508 -0.2439,-0.0144 0,0 m -0.473,-0.264 0.583,-0.6559 0,0 m 10.4855,19.5413 -0.0619,-0.0163 m 1318.5689,-243.5589 -2.0416,2.2505 -2.0774,0.6342 0.5441,-2.846 -2.1045,-0.09 -2.8824,1.5747 0.5512,-2.0627 1.1968,-2.411 -2.4586,1.0643 -2.1801,0.9391 2.8112,-2.197 -1.6224,-2.0774 -2.3587,1.9518 -1.6703,-2.2775 -2.0277,1.6355 -2.1877,1.0144 0.7516,-2.837 0.4751,-2.6258 -0.8416,2.059 -2.2305,-0.9802 -3.5409,0.7042 -0.2092,-2.4096 -2.1099,-1.1004 1.024,2.5949 -2.0994,0.4799 -2.0456,-2.2856 2.3009,-1.4935 -2.0343,0.853 -0.05,-2.7298 -2.3323,0.9375 -0.4038,-2.528 2.1488,-0.8656 -2.1,-0.4427 -2.2873,2.5575 -2.1639,-0.4048 0.07,-3.1461 -0.7286,2.1588 -2.8765,1.0425 -2.7761,-1.2578 0.9569,-2.1633 -2.1622,0.0529 -2.0279,-1.0525 -1.8972,-2.2619 0.5232,-2.4292 -0.1382,-2.3394 -0.578,2.3692 -2.6917,0.0507 0.3324,-2.2961 -2.142,-1.4684 -0.4917,-3.1376 -2.1454,1.3018 -2.3757,-1.0153 -2.9587,-0.1995 -1.4633,-2.3703 -0.9046,-2.1731 -0.5913,-2.0106 -1.708,2.9781 -2.0665,-0.4208 2.0766,-2.3523 -2.7847,-0.1141 -2.4294,0.2151 0.6172,-2.3555 -3.8576,-1.4292 -4.5048,-2.1941 -2.0631,-1.2243 -2.5904,2.0284 -0.7655,4.152 -0.612,2.7231 -1.6981,-2.1291 -1.0365,2.7247 -1.1784,2.2684 -2.3423,-0.5204 -2.1479,-1.2215 -1.948,2.079 -2.3619,0.516 -3.9317,0.2625 -2.4607,-0.7727 -2.8435,-0.0529 -0.6651,-2.0683 -2.606,1.2852 -2.3497,0.1191 -0.011,-2.2967 -3.0143,1.5609 -2.0358,-1.0759 0.2301,-2.8657 -0.558,-2.0256 -2.5306,-0.7839 -2.2115,-1.2364 -2.0633,1.9326 -1.1991,2.6029 -3.0562,-0.2768 -2.633,2.0421 -2.3381,1.1188 -2.1182,-0.6697 -2.7536,-0.7546 -1.8982,2.0417 0.9127,2.0874 -0.4191,2.0596 -2.4005,-0.2318 -2.4416,-1.3436 -2.0505,0.7079 -0.3053,2.4645 -2.2155,-0.104 -2.5461,-1.7194 -2.1508,-1.7919 -4.1886,-2.6267 -1.8293,3.0579 -3.5948,0.8126 -3.0972,-2.3822 0.6662,2.5878 -2.2141,1.6342 -0.5862,-2.0471 -2.8933,2.702 -2.6086,-0.8496 -3.004,-0.6611 0.2898,2.0017 -2.792,-0.9502 -2.8772,0.3773 0.048,2.35 -2.4701,0.5873 1.1602,2.4709 -0.9125,3.348 -2.041,1.8806 -3.5902,1.1434 -3.785,-1.8706 -2.5412,-1.1772 -2.0506,0.9671 -0.9999,2.5217 -0.022,2.754 -0.6423,2.2008 -2.265,1.7264 -2.4872,0.7438 -1.1366,-2.3637 -1.0369,-2.0203 -2.1417,-2.3015 -2.0105,-2.5363 -1.1084,-2.4582 -2.684,-0.604 -2.3343,0.6881 -3.4619,0.3928 -1.7077,-2.0327 -0.1388,-2.4399 -1.6056,-2.1013 -2.1012,0.5754 -2.3248,-0.0816 -2.1886,-1.5519 -3.3088,-1.3896 1.2237,-3.6141 2.3932,-1.5298 -4.1805,-1.8139 -3.275,-2.8057 -2.4899,2.5789 -0.1382,2.9323 -0.9305,3.1409 -2.3775,2.4067 -3.6805,0.7793 -2.2113,0.0315 -1.1531,-2.1691 -0.4164,-2.3799 -3.5266,-1.6479 -2.1217,-0.2875 -1.0331,2.8815 -2.0425,0.4209 -2.4923,-2.4073 -1.3924,-3.729 -0.081,-2.22 -0.4956,-3.3443 -1.6757,-2.4971 -2.0299,0.4393 -3.451,1.959 -1.4158,-2.1581 -1.7225,3.1432 1.104,3.568 0.028,2.1295 -1.3582,2.3158 -2.6661,3.2357 -2.2329,1.1324 -1.6086,-2.4557 -2.8669,0.0506 2.2364,2.3744 1.5478,2.6966 -3.3897,0.6749 -1.7511,2.6456 0.934,2.8205 0.1777,2.4122 -1.2923,3.181 -2.6209,1.4308 -3.6877,-0.904 -2.0716,-1.956 -0.7507,-2.0365 -0.83,-2.014 -0.7733,-2.0373 -1.1654,-2.1201 0.048,-2.2827 2.5867,-1.6423 1.6139,-2.0928 -1.1327,-3.8595 -0.4237,-2.4302 -2.7696,-2.5052 -2.1542,0.0587 -2.1058,1.3943 -0.4035,2.545 -0.7561,2.6443 -2.1863,0.7268 -2.9142,-3.3778 -1.3172,2.2198 -2.2294,1.281 1.2346,-2.8812 -1.7848,2.4212 -0.8291,2.0514 -2.3559,3.1086 -2.3916,0.3419 -2.5311,-0.0611 -3.3395,-0.5868 -2.0857,-2.3943 0.8022,-2.0542 0.4532,-3.1452 -1.056,-3.1039 -2.8791,-1.6124 -4.1124,0.756 -2.8757,1.8129 -2.2783,-0.1728 -2.0736,-1.3999 0.01,-2.5899 0.2611,-2.9206 -2.2187,-2.1289 -2.7029,-1.7288 -2.5705,-0.9938 -3.149,0.1227 -1.9865,3.2246 -1.8006,2.5453 -2.2689,0.864 -2.3475,0.3913 0.3688,2.0456 -2.0695,-0.1063 -0.1514,2.6773 -2.1051,0.0927 -0.7131,2.8064 -2.2395,1.667 -2.8865,1.4949 -2.526,0.4426 -2.346,-1.0853 -3.4867,-2.1278 -3.1183,-0.6015 -2.277,-1.4522 -0.1033,-2.9841 2.3703,-0.2503 0.4117,-2.8881 -2.2628,-0.5048 1.8772,-2.3919 1.2248,-4.1154 -2.8401,-2.048 -2.1012,0.8616 -2.6541,0.6221 -2.8484,0.0893 -3.5201,-0.9928 -1.7833,-2.3973 -1.8202,-2.0509 2.4492,-0.2323 -3.3697,-3.3651 -0.7065,-2.4934 1.8318,-2.2239 1.3016,-2.4581 0.005,-2.0005 -1.183,-2.1233 -2.2115,-0.8171 -3.3917,4.177 -5.187,0.7454 -2.3947,-1.0552 -2.6665,-0.7386 -2.7416,-0.1965 -2.2891,-0.1059 -3.4537,-2.3646 -4.3988,-0.7838 -2.054,1.4021 0.4694,2.0337 -2.0089,0.3119 0.006,3.1374 -1.3865,2.0978 -3.1795,0.5623 -2.7417,1.3897 -2.3206,1.4618 -3.3446,-3.0713 -2.1221,-2.8055 -2.1339,-1.6793 -1.1893,-2.2727 -3.6329,-3.0378 -4.7555,-0.52 -3.0327,1.9906 -2.0968,2.1299 -2.1775,0.2109 -2.6635,-0.5527 -2.4909,1.461 -2.3035,-1.9518 -2.8837,-1.8958 -2.9235,-1.08 -2.6792,0.07 -2.1118,0.7833 -2.3807,-2.474 -2.3777,-0.9634 -3.6078,-3.9868 -2.3349,1.2605 -1.704,-2.4584 -2.7136,2.3792 -2.5394,-0.4869 -2.3897,0.8262 -2.3449,-1.4367 -2.1856,0.223 -2.1788,1.0562 -0.8912,-2.1335 -2.3351,1.2194 -4.4951,-0.7337 -0.023,-2.0224 -0.6802,-2.5778 -0.0529,-2.208 -1.1683,-2.2755 -0.2565,-2.0197 0.3406,-2.3712 -0.4638,-2.609 -2.3881,-0.2687 -0.4938,-2.9185 -2.3501,-1.5175 -0.639,-2.0288 0.3468,-2.0236 -2.0552,0.3746 -3.1983,-1.1884 -2.1286,-1.6651 -3.0882,-2.587 -1.317,-2.151 -2.2221,1.5231 -0.4466,2.5281 0.6706,2.2025 -1.0438,2.3869 -0.3963,2.3696 -2.2314,-0.7568 -2.1851,0.9997 -1.436,-2.0867 -2.19,-0.8782 -2.7602,-1.8153 -2.1784,-0.6719 -2.4784,0.1376 -2.2635,-0.5355 -2.4389,1.2668 -0.006,2.1627 -1.6965,2.1691 -2.6464,0.1459 -2.4432,-1.1772 -2.1329,1.0973 -3.1728,-0.5447 -2.1753,-2.1263 -1.335,-2.1052 -2.1521,-0.8984 -2.2497,-1.7213 -2.0636,-2.705 -3.091,-3.2969 -0.8241,-2.8425 -3.4176,-1.804 -1.7408,-2.1052 -1.7397,-2.5396 -2.0417,-1.4983 -2.0049,-1.5616 -2.5049,-1.1665 -2.2917,1.7455 -2.9339,0.8506 L 755.43,39.4374 648.4996,39.4079 635.1467,39.5141 523.1315,39.3084 426.7408,39.3461 m 0,0 -4.3236,0.0062 0.1203,65.7048 -0.0526,21.3201 0.0174,6.0556 -0.134,85.7725 -0.0166,16.3141 -0.1594,92.3007 0.0546,38.2125 -2.3169,133.9977 0.0238,131.2735 -239.3531,0.0313 -95.8052,-0.2961 -53.9728,0.2677 -2.3047,2.6465 2.1861,1.1512 -0.6081,2.2387 0.3291,2.391 -0.2072,0.5753 m 1328.9925,-224.0343 2.1683,0.2105 2.1026,-0.5143 -1.4675,2.0701 -1.0048,2.2456 2.0501,1.2253 2.2649,0.9012 1.954,2.9438 2.8228,-1.6918 -0.1775,2.1107 -0.1638,2.4662 2.152,0.1416 2.2916,-0.3542 0.539,-2.5564 2.4915,2.4682 2.2165,-3.1507 2.1686,-0.6816 -1.06,2.4039 2.0695,-0.2118 1.2584,-2.5534 2.2255,-1.1264 -0.4569,2.0972 -0.633,2.2085 2.6215,0.496 2.2469,-1.8705 -0.8038,-2.1357 3.1857,-1.4713 2.37,0.7589 2.2013,0.9871 -0.71,2.0608 2.1506,1.9255 0.8915,-2.1032 2.5641,-0.879 2.6951,0.1899 -0.013,2.3151 2.3025,0.2666 0.9803,70.0528 m -2e-4,0 0.02,130.5904 0.01,3.3577 2.1708,1.1575 1.7626,2.2351 1.2134,2.5333 1.9984,3.6406 2.3458,1.2341 2.0254,1.0243 0.5914,2.0421 2.1462,0.1581 1.1888,2.3496 2.1896,0.7875 -0.048,2.1356 1.0175,2.1037 0.2061,2.2218 1.9059,2.2031 1.9352,2.2839 1.1525,2.37 -1.2652,2.2324 1.3473,2.0715 1.3249,2.5151 0.9943,3.6028 -0.9985,2.0897 -0.9695,2.008 0.5476,2.2788 -0.086,2.2833 -2.2885,1.98 0.2466,2.0153 1.9018,2.693 -0.016,2.1167 2.0853,1.5561 1.2973,2.053 3.0246,0.4479 2.1387,0.7605 2.8276,0.5235 -1.0267,2.3318 -2.3071,1.4134 -0.4734,2.2258 3.0158,2.0018 3.1379,1.7557 -1.2488,2.7812 2.4724,2.7012 1.4321,3.5397 2.273,0.0688 -2.2097,2.3432 -0.9677,2.9587 -0.734,2.0831 1.6481,2.1861 1.1216,2.1474 4.198,1.3919 0.5152,2.0879 -0.07,2.4018 2.1898,0.9624 -0.7957,2.4738 0.1202,3.6945 1.4589,2.1868 2.1411,-1.5345 2.1436,-1.1889 2.0439,0.8957 -0.7305,2.1511 -0.8883,2.6361 0.9016,2.2054 -0.8833,2.0177 -0.951,2.1041 0.2645,2.1333 2.1435,0.5751 1.2569,2.2693 0.1322,2.0219 -0.2598,2.8601 -2.9631,1.3074 -2.4185,0.0714 -0.208,2.3338 0.4457,2.0536 2.13,1.1915 2.1139,1.6468 0.5085,2.2422 -1.9198,2.2788 -1.1574,2.2825 -2.0762,1.9965 0.9255,2.4861 0.7873,2.1746 0.4038,2.2248 -1.1538,2.3113 -1.1512,2.1233 -0.9293,2.9912 -1.8981,2.178 -0.8731,2.0549 -0.072,2.144 -0.7996,2.3181 -0.4385,2.3961 -1.1937,2.1368 -2.2039,1.0416 -2.0676,1.5672 -1.3811,2.2005 -0.2354,2.1078 0.1915,2.2263 -0.1854,2.1226 -2.063,0.4787 -2.6207,1.8873 -0.392,2.7853 -0.7258,2.0424 2.1196,2.1614 0.7535,2.2471 0.1713,2.2966 -0.2656,2.1555 1.1574,2.6372 -0.2246,2.0232 -2.4036,0.4771 -0.2863,2.2553 -1.8569,2.2295 -1.045,2.3274 0.4649,2.4886 -0.9365,2.3081 0.3651,2.1432 1.673,2.4655 2.4017,1.4425 1.5401,2.0246 -0.3435,2.1061 -0.1091,2.199 -0.2609,2.1611 -1.0135,2.1159 0.6498,2.374 0.4457,2.3038 0.8358,2.4467 1.0673,2.5388 -0.8288,2.467 -1.6008,2.966 -0.932,2.3512 2.2883,2.1491 -3.76,3.8056 -0.3976,2.0635 -2.8643,2.3889 -2.3388,1.9101 -1.6413,3.4837 -1.1108,3.5699 -0.3888,2.1937 -1.4329,3.1603 -2.7117,3.9738 -3.4024,2.4138 -3.0062,2.4331 -1.5679,2.3051 0.163,2.637 3.0693,2.3617 0.552,2.2231 2.1337,2.2166 3.9995,6.2887 0.953,3.9858 1.5721,8.2682 M 30.2179,639.3094 l -0.2124,2.5893 -2.1381,1.7805 1.6066,2.4925 0.2881,2.4387 2.4058,1.9429 0.0989,2.4435 3.0714,2.2738 3.2961,0.408 2.1611,2.2704 -0.092,0.9013 m 1392.032,287.1569 -2.4242,-0.0353 -2.3532,-1.0824 -1.8638,-2.1458 -3.3982,-0.4695 -13.9622,-2e-4 -10.0309,3.8667 -26.8435,12.5193 -5.3538,2.2035 -8.7814,4.0862 -13.7672,7.1804 -2.7502,1.9491 2.3788,3.2229 0.4835,3.0312 -1.9984,4.6046 -2.6057,2.5069 -2.8565,0.5248 -2.2995,-0.7184 -3.0498,3.0124 -3.4511,3.6594 -7.3867,4.3827 -7.8854,5.1255 -5.6376,4.4752 -4.0008,2.7302 -9.4375,4.7556 -0.2888,2.6521 -1.9152,4.3483 -2.1068,1.5688 -6.0291,7.0994 -2.8021,2.9205 -2.2773,2.1424 -2.799,2.3348 -4.1628,2.7523 -2.1227,2.7156 -1.3044,2.1699 -3.4334,2.1773 -2.6842,0.9959 -2.5371,0.5661 -2.0707,0.045 -8.0821,5.2906 -4.3682,1.9809 -23.6993,14.6873 -3.0227,1.7274 -10.6637,5.5785 -13.6864,6.6605 -8.2999,4.2116 -11.627,6.2992 -8.3156,5.7999 -0.972,2.5797 -2.9679,2.6166 -2.911,0.714 -1.8814,2.4384 -0.7429,2.4048 -3.3417,4.6266 -2.2329,1.4756 -3.3024,1.4231 -11.5174,6.2411 -9.6116,6.7821 -5.1844,4.1811 -8.7716,7.6252 -10.7239,10.4177 -3.4016,3.9891 -6.9287,9.025 -2.2937,3.401 -2.7138,9.3924 -2.6953,2.2317 -4.5244,4.791 -8.2166,14.4081 -4.3612,9.4946 -3.8012,8.9277 -5.5236,14.1848 -0.7075,2.2309 -4.3621,16.4156 -1.4011,7.1199 -0.4593,3.4696 -0.686,7.8358 -0.2223,4.0337 -0.1419,3.6985 -0.01,5.37 0.2731,3.3845 0.7496,9.3713 1.4733,10.311 1.9377,9.3491 3.3964,13.3373 2.9864,8.4275 1.1357,2.7484 3.2288,13.2528 3.0734,13.1989 3.4213,16.6868 0.8719,6.6085 0.7211,6.9075 0.2626,5.3656 1.5416,2.1189 0.5344,2.9235 -0.5259,3.0299 0.3308,9.0884 -6.0802,0.3769 -0.074,2.0051 -2.1479,-0.5941 -2.2039,0.2288 -2.0148,0.026 -2.1759,-0.1059 -2.1776,1.296 -3.4443,-0.3836 6e-4,2.2072 -2.1255,0.2515 -2.0878,0.2569 -2.0196,0.7034 -2.2896,0.7843 -2.197,1.5377 0.8781,2.2711 0.8089,2.4573 -1.8589,2.1603 0.3632,2.0819 -2.2836,0.3732 -1.5762,-2.2913 -2.0454,1.7636 -2.0871,-1.3228 0.131,-2.1101 -1.1988,-2.1681 -2.0257,0.9742 -2.0486,-0.5614 -0.5902,-2.3945 -2.578,1.6517 -0.6122,-2.121 -0.311,-2.2642 -2.1414,-2.1492 -3.6268,-0.2152 0.9261,-2.095 -2.133,-1.0197 -2.3246,-2.196 -2.115,-1.5722 0.8196,-2.0619 -2.1699,-0.2155 0.6779,-2.2202 -3.0167,0.6679 0.6166,-2.4395 -2.537,1.4774 -2.0845,-1.2274 -3.3057,0.5363 -2.6849,0.773 -0.5252,-2.357 -2.0045,1.3376 -0.7118,-2.0807 -2.0302,-1.112 -2.0113,0.3055 -2.5899,0.495 -1.3338,-2.3424 -2.7662,0.4454 -2.6501,1.3265 -2.2064,-0.915 -2.1655,0.1921 -2.6134,0.4987 -2.0265,-0.1361 -2.0173,0.3815 -2.2707,-0.7659 -0.7141,2.7381 -2.4011,-0.6519 -2.0621,0.5619 0.5398,-2.3522 -2.1196,0.1636 -2.7729,-0.7645 -2.2882,1.2451 -2.0371,0.1605 -1.4085,-2.2843 -2.2093,2.3224 -2.243,-2.0619 -3.9357,-0.3793 -1.9727,-2.5625 -2.1287,-1.4232 2.2262,-1.9623 -2.7078,-0.4365 -0.8304,2.0548 -2.4853,-1.7372 -1.5685,-2.5449 -0.3101,-2.036 -2.1881,-0.8026 -2.4597,0.3173 -2.3783,-2.0165 -2.5146,-2.5431 -2.0691,-1.2293 0.4184,-2.4356 -2.2954,-0.8771 -2.2299,0.8853 0.3001,2.2993 -2.729,-0.9099 -1.2132,-2.4189 -2.233,0.2024 -1.0114,-2.3739 -1.6098,2.2954 -0.899,-2.0158 -2.2065,-2.1264 -2.2792,0.5814 -2.6184,0.164 -2.4278,2.1284 -2.421,-0.7393 -0.1404,-2.0162 -2.5064,-1.1887 -2.0449,-0.8323 2.1367,-1.1234 -2.0861,-0.969 -2.5916,-0.7827 0.4559,-2.5553 -1.2057,-2.1451 -2.3926,0.6445 -2.0093,-0.9165 -0.7203,-2.2384 -0.8424,-2.3795 -2.2576,-0.4742 -2.1405,1.5895 -2.8653,-0.4774 -2.054,0.692 -2.4102,-1.9267 -1.3926,-2.6635 -1.2435,2.5054 -2.2867,-0.5626 0.1659,-2.2475 -2.1526,-0.8904 -3.2429,1.0076 -3.0906,-2.5405 -2.4748,1.5179 -2.9992,0.6035 -1.9235,-2.7028 -1.5298,-2.007 1.2249,-2.0292 0.4634,-2.0179 0.2899,-2.4074 -1.0261,-2.4564 -1.5017,-2.1275 -2.7473,-1.49 -2.5274,-1.0704 -0.0732,-3.1416 -1.1664,-7.9514 -2.459,-4.7141 -1.032,-4.9241 0.114,-4.0479 -3.4069,-2.7697 -0.2651,-5.5697 -2.1639,-3.5992 -0.7013,-3.6175 -2.905,-2.9189 -2.3658,-0.051 -0.5547,-5.3863 -1.6946,-2.0899 -2.611,-0.8092 -2.9682,-2.0088 -0.6016,-2.1686 1.8783,-2.2309 -2.9673,-2.5791 -1.29,-2.6113 -2.5451,0.3427 -0.5606,-2.4448 -0.7263,-2.7617 1.7524,-3.1836 0.4593,-2.1478 -0.3389,-3.1973 0.2207,-2.4115 -0.7223,-2.1722 1.2705,-2.9078 -0.7037,-3.3592 -1.0927,-2.2246 0.1476,-2.361 -1.2027,-3.5836 -3.1533,0.553 -0.7008,-3.9092 -1.4626,-2.1545 -2.203,0.2867 -1.1283,-2.6245 2.4482,-1.3198 0.1354,-2.6776 0.9529,-2.4811 0.6972,-2.4709 0.568,-2.5764 -0.8954,-3.5868 1.0963,-3.2419 0.4816,-3.2698 -2.3246,-1.5665 -2.586,0.5 0.0786,-2.8768 0.3503,-2.1405 0.3724,-2.4165 0.2643,-2.5311 -2.167,-2.5234 -2.0527,-2.9908 -2.5928,1.5982 0.1084,-2.1421 -1.7958,-2.6234 -2.4122,0.1171 -2.5029,1.4346 -2.1815,-0.5752 0.086,-2.2149 -2.2863,-1.4415 -2.2343,0.4678 -2.4266,-1.4102 -1.1966,-2.5306 -2.7589,-3.5048 -1.4337,-2.6294 -2.8031,-0.4534 -1.0213,-3.0339 -0.8155,-2.0105 -2.1828,1.4586 -1.2791,-2.0905 -2.7733,-2.0774 -0.4072,-2.4145 -0.2428,-3.2773 -1.9322,-2.3934 -1.1754,-2.5072 1.1271,-2.3201 -0.6557,-2.5204 -2.8418,-2.0149 -1.4149,-2.868 0.7442,-2.4147 -1.9761,-2.043 -2.9641,-0.8193 -2.092,-1.5861 -1.0686,-2.2111 -0.7326,-2.4668 -0.3535,-2.1136 -0.6341,-2.0466 -2.6548,-1.338 -1.0389,-2.8988 -1.7709,-2.5872 -1.375,-3.1488 -3.8649,-1.4143 -2.351,-1.6494 -2.1339,0 -2.7487,-2.3141 -2.4486,-0.6043 -0.6628,-2.0109 -0.3782,-2.7893 -3.1357,-0.94 -2.3428,-2.1246 -1.7052,-2.6744 -0.4792,-4.0004 -0.1189,-2.0857 -1.6653,-2.2604 -1.4667,-3.0459 -2.6963,-3.6208 -0.8449,-2.3181 1.3714,-3.2239 -0.0805,-2.0759 -1.4221,-2.1388 -1.859,-2.0716 2.5822,-1.4747 0.6201,-2.0466 -2.5873,-0.8623 -2.8592,-0.8489 -1.3081,-2.1317 -1.2109,-2.5753 1.5294,-3.2665 -3.5645,-2.74 -2.0549,-2.7064 0.3389,-2.6389 -3.1713,-1.3038 -2.3397,-1.51 -1.5539,-4.2226 0.3672,-3.4175 -0.01,-2.0054 -0.833,-2.395 -2.0813,-1.176 -0.3325,-2.4184 0.3332,-2.8446 -1.403,-2.1915 -2.6561,-1.322 -0.2631,-2.9115 -1.9588,-3.2163 -0.1901,-2.2 -2.3778,-1.6113 -2.4522,-1.2856 -0.2451,-2.1162 -1.3855,-2.0763 0.3532,-2.2621 -0.0404,-2.2018 -0.0558,-2.4772 -0.503,-2.5046 -0.7062,-2.1197 -0.3289,-2.1729 -0.0886,-3.4305 -0.7199,-2.3483 -1.4596,-2.3893 -2.8509,-1.2404 -3.047,-2.5471 -2.4012,-2.3732 -1.7714,-2.1267 0.9685,-2.8817 -0.8286,-2.0155 -1.1928,-2.2987 -1.3246,-2.4478 -2.0428,-0.9309 -2.4897,-1.2337 -2.8076,-1.6832 -1.8941,-3.0181 -2.4937,-1.7177 -2.6027,-1.9488 -2.2411,-2.6621 -2.4931,-0.5416 -2.6127,-1.5802 -2.0439,-1.4078 -0.5457,-2.2042 -2.1177,-2.6012 -0.5216,-2.5171 -1.4759,-2.3269 -2.227,-2.1789 -2.9031,-0.8352 -2.8838,-1.0336 -2.3912,0.1858 -2.1664,-3.5387 -2.305,-2.1451 -3.7993,-0.2712 -3.0086,0.2638 -0.6877,-2.1583 1.1815,-2.6062 -0.2094,-6.2441 0.2096,-2.6271 -2.0495,-0.7823 -0.9128,3.0908 -0.0481,2.0727 -1.4326,2.5311 -2.3031,-1.9077 -0.1506,-2.1269 1.3079,-4.2505 -0.1192,-2.075 -4.7629,-1.5519 -2.3089,-1.1369 -0.512,-2.9364 -2.7555,-2.7171 -0.007,-2.6286 -2.0338,-1.6509 1.8176,-2.0541 -4.2879,1.4781 -1.8698,-2.7518 -0.063,-2.1243 -2.5253,0.5206 -2.6671,2.5613 -2.9598,0.6564 -0.8391,-3.7404 -0.4359,-2.9832 -2.8301,1.583 -0.4898,3.3368 -3.4444,-0.1418 -2.5422,0.4776 -1.9343,2.1707 -1.8785,-2.1832 -2.1587,1.3229 -3.0036,-0.1127 -2.1259,-1.4502 -2.256,-0.6388 -2.7297,-1.4612 -2.8107,1.242 -0.7685,-2.6368 -2.0904,-1.0187 0.757,2.0425 -2.0695,-0.2448 -2,-1.8193 -2.1799,1.7626 -3.9223,-0.5574 -1.941,2.0309 -0.6879,-2.2306 -2.0238,0.4969 -1.3851,-2.2221 -2.2516,2.0823 -2.0477,-0.6103 -2.4544,-0.0513 -2.3242,2.1805 -2.5768,-0.1639 -2.3531,-0.62 -2.3023,-0.1387 -2.174,-1.2197 -2.1951,-1.3728 -2.6665,-1.8824 -0.2536,-2.5626 -2.6676,0.3529 -2.7532,-0.6631 -1.6059,-2.0852 -2.0128,-0.4422 -2.0215,0.4208 -3.1745,-1.6846 -2.1496,1.8773 -2.0052,0.7638 -1.3357,2.8043 -1.177,3.6478 -0.4385,2.3625 -0.8583,2.3829 -2.1348,0.8619 -2.3415,-1.0399 -2.3496,-0.5782 -2.4466,-0.4326 -3.0941,-0.0856 -2.1491,-0.28 0.4503,2.3825 -2.2699,1.379 -2.2373,0.8156 -0.8815,-2.4665 -2.9001,2.4217 -2.2702,0.1686 -2.1241,1.6383 -3.3835,-0.0419 -2.356,0.9923 -0.9201,2.727 -1.0408,2.7606 -0.9825,2.5347 -1.5528,2.0435 -2.0936,2.3946 0.3458,3.1998 -0.8255,2.1249 -2.085,-0.671 0.3406,2.3647 -1.6974,2.4651 -0.0675,2.2836 -2.0581,1.864 -1.1271,3.355 0.7446,2.3135 -1.7234,2.0635 -0.8256,2.4177 -0.7563,2.3323 0.431,2.187 1.4506,2.019 -2.1223,1.8701 -1.342,3.0671 -3.0235,1.638 -1.2926,3.4492 -0.9092,2.2441 0.5325,2.0419 -1.63,2.2691 -0.3634,2.1009 2.0328,1.8763 2.1119,2.0265 -1.1268,2.1982 -2.2632,0.5472 -2.129,1.3698 -2.1169,1.4225 -2.0807,1.2027 -2.6139,-0.8796 -1.6026,2.8537 -1.3492,2.0522 -0.7316,2.3334 -2.2846,2.1527 -0.4011,2.2559 -2.7219,0.7313 -1.4058,2.0301 -0.9293,2.1086 -2.1394,2.0347 0.7722,2.3907 -2.1019,3.3856 0.0412,2.1102 -3.0212,0.9126 -2.138,0.6912 -3.0333,-1.5421 -2.5339,-0.4964 -2.344,0.4076 -3.4098,-1.5036 -1.3143,2.5044 -0.8325,-3.1875 -2.3784,-0.2827 0.2139,-2.5411 -2.1513,0.8484 -0.0974,-2.1546 -2.2504,-0.9899 -0.6243,2.2808 -2.3095,-0.1066 -2.2319,-1.1651 -2.2371,-0.6968 -2.0029,-1.8802 -1.8511,-2.1961 -2.2704,0.288 0.1548,-2.4414 -2.4541,-2.5493 -2.2447,-2.1703 -1.312,-2.084 -2.1718,-1.013 -2.2715,-1.2247 -2.9369,0.5376 -2.1887,-2.0093 -2.3459,0.8916 -2.0056,0.088 -1.8977,-2.0678 -2.1089,-0.6459 -2.0558,-0.6754 -2.3409,-1.2045 -1.5131,-2.1177 -1.3504,-2.1016 -2.4382,0.5915 -0.3771,-2.0587 0.2315,-2.0821 -2.2869,-0.8402 -1.5496,-2.048 -2.4059,0.1766 -2.0602,-1.1537 -2.8262,-0.4829 -2.0991,-0.2969 -2.1455,0.337 -2.7248,-1.3468 -2.3028,-0.4451 -2.9401,-0.6985 -2.6911,-1.0942 -2.3276,-0.9939 -2.1016,-1.7805 -2.0899,-1.5591 -2.4061,-2.1676 -2.1855,-1.1845 -2.2,-1.5751 -2.054,-1.4815 -1.882,-2.1239 -0.8001,-2.1474 -3.1765,-2.9395 -0.2579,-2.1124 0.3843,-2.0755 -2.3842,0.2709 -0.7046,-2.4804 -2.5758,-1.197 -3.4237,-1.6789 -2.14,-0.4921 -2.1079,0.0717 -3.4786,-1.7373 -2.0874,-0.9828 -1.35,-2.144 -6.3648,-5.7562 -1.8033,-2.0411 -2.0689,-1.5564 -2.1386,-0.8001 -1.0574,-2.0237 -0.9653,-2.0254 -2.0476,-1.6876 0.0292,-2.0495 -0.1773,-2.2928 -0.4242,-2.208 -1.1727,-2.1852 -0.6702,-2.3535 -0.9368,-2.1875 -1.7739,-2.1442 -1.1226,-2.3729 -2.0221,-1.843 0.6292,-2.0871 -1.7775,-2.4178 -1.7951,-2.4974 -1.3673,-2.3185 -2.2898,-2.6246 -0.1482,-2.2045 0.8863,-2.2334 -1.3492,-2.0847 -0.0255,-2.1406 -0.5342,-2.1348 -0.289,-2.0658 -0.8371,-2.1689 -0.2988,-2.5493 1.3798,-2.0278 0.408,-2.2331 -0.4863,-2.7874 -0.4315,-2.2179 0.6629,-2.0128 0.2298,-2.4443 -0.0491,-2.2113 -0.8911,-2.5189 -0.6962,-2.26 -0.4138,-2.8935 -1.9589,-2.3946 -2.9087,-1.206 -0.8281,-2.4859 -0.3299,-2.5547 -2.0083,-0.6724 -1.0041,-2.116 -2.0929,-1.5064 -1.6155,-2.2358 1.2391,-2.1488 -2.1032,-0.808 -2.5456,-1.6374 -0.3688,-3.0927 0.0324,-2.0493 -0.365,-2.0274 -1.031,-2.5323 0.0529,-2.5665 0.276,-2.0698 -0.5828,-2.1789 -0.942,-2.3422 -0.7816,-2.3379 -0.8913,-2.0415 -1.3069,-2.6312 -1.5331,-2.1219 -2.0295,-0.563 -2.137,-1.03 -2.2316,-1.4915 -0.4029,-2.7376 -0.25,-2.0065 -1.7373,-2.9945 -2.1051,-0.0829 -2.1404,-0.9752 -2.1014,0.2167 -0.9001,-2.1561 -2.1055,-0.8109 -1.7356,-2.1617 -0.8348,-2.2608 -2.043,-0.8961 -2.4501,-0.1426 -0.612,-2.0168 -2.0842,-0.1519 -1.029,-2.1767 -2.2501,-0.2358 -0.927,-2.5671 -2.1321,0.4263 -2.4821,1.0891 -2.0408,-1.6612 -1.4736,-2.2031 -2.1464,1.6665 -1.0201,-2.1967 -2.0817,-0.744 -2.4666,-1.6364 -2.2084,-0.6138 -2.184,-0.1919 0.534,-2.5106 -0.5721,-2.3886 -2.8064,-1.4465 -2.0755,-1.6993 -2.1957,-1.6444 -2.3574,-2.2021 -1.7091,-3.2978 -2.0113,-0.6878 -2.4832,-1.5326 -2.2367,-1.6444 -0.5814,-2.2905 -1.1789,-2.7695 -0.5989,-2.7932 -1.4642,-2.2791 -3.1462,-3.1633 -2.1226,-1.9272 -7.0114,-3.1381 -3.4383,-3.6282 -2.3476,0.0624 -1.824,-2.4444 -1.561,-2.5669 -2.6381,-3.6588 -1.972,-2.3082 -1.5262,-2.2648 -2.0762,-3.1502 -2.3809,-0.1497 -1.3448,-2.1923 -3.0945,-0.787 -1.7701,-3.5207 -0.6606,-3.3042 -5.5987,-3.6386 -7.7065,-0.6775 -3.6469,-3.2517 -2.5923,-0.3554 -2.6981,-1.6126 -2.0465,-2.3436 -2.6818,-0.9462 -2.0754,-2.3467 -0.623,-2.7118 -2.3876,-5.3493 -3.7466,-2.6836 -0.8704,-3.2912 -0.8684,-2.1475 -0.7403,-2.4537 -3.3944,-5.4319 -1.6566,-4.3545 -2.4969,-2.0824 -0.6207,-2.0673 -4.1217,-2.9658 -2.5083,-0.7861 -3.1711,-0.3061 -2.4071,1.4187 -2.2466,-1.6877 -2.0188,-2.6579 0.028,-0.2168" />
</svg>
