  0
SECTION
  2
HEADER
  9
$ACADVER
  1
AC1014
  9
$HANDSEED
  5
FFFF
  9
$MEASUREMENT
 70
     1
  0
ENDSEC
  0
SECTION
  2
TABLES
  0
TABLE
  2
VPORT
  5
8
330
0
100
AcDbSymbolTable
 70
     4
  0
VPORT
  5
2E
330
8
100
AcDbSymbolTableRecord
100
AcDbViewportTableRecord
  2
*ACTIVE
 70
     0
 10
0.0
 20
0.0
 11
1.0
 21
1.0
 12
210.0
 22
148.5
 13
0.0
 23
0.0
 14
10.0
 24
10.0
 15
10.0
 25
10.0
 16
0.0
 26
0.0
 36
1.0
 17
0.0
 27
0.0
 37
0.0
 40
341.0
 41
1.24
 42
50.0
 43
0.0
 44
0.0
 50
0.0
 51
0.0
 71
     0
 72
   100
 73
     1
 74
     3
 75
     0
 76
     0
 77
     0
 78
     0
  0
ENDTAB
  0
TABLE
  2
LTYPE
  5
5
330
0
100
AcDbSymbolTable
 70
     1
  0
LTYPE
  5
14
330
5
100
AcDbSymbolTableRecord
100
AcDbLinetypeTableRecord
  2
BYBLOCK
 70
     0
  3

 72
    65
 73
     0
 40
0.0
  0
LTYPE
  5
15
330
5
100
AcDbSymbolTableRecord
100
AcDbLinetypeTableRecord
  2
BYLAYER
 70
     0
  3

 72
    65
 73
     0
 40
0.0
  0
LTYPE
  5
16
330
5
100
AcDbSymbolTableRecord
100
AcDbLinetypeTableRecord
  2
CONTINUOUS
 70
     0
  3
Solid line
 72
    65
 73
     0
 40
0.0
  0
ENDTAB
  0
TABLE
  2
LAYER
  5
2
100
AcDbSymbolTable
 70
2
  0
LAYER
  5
50
100
AcDbSymbolTableRecord
100
AcDbLayerTableRecord
  2
0
 70
0
  6
CONTINUOUS
  0
LAYER
  5
51
100
AcDbSymbolTableRecord
100
AcDbLayerTableRecord
  2
Layer_1
 70
0
  6
CONTINUOUS
  0
ENDTAB
  0
TABLE
  2
STYLE
  5
3
330
0
100
AcDbSymbolTable
 70
     1
  0
STYLE
  5
11
330
3
100
AcDbSymbolTableRecord
100
AcDbTextStyleTableRecord
  2
STANDARD
 70
     0
 40
0.0
 41
1.0
 50
0.0
 71
     0
 42
2.5
  3
txt
  4

  0
ENDTAB
  0
TABLE
  2
VIEW
  5
6
330
0
100
AcDbSymbolTable
 70
     0
  0
ENDTAB
  0
TABLE
  2
UCS
  5
7
330
0
100
AcDbSymbolTable
 70
     0
  0
ENDTAB
  0
TABLE
  2
APPID
  5
9
330
0
100
AcDbSymbolTable
 70
     2
  0
APPID
  5
12
330
9
100
AcDbSymbolTableRecord
100
AcDbRegAppTableRecord
  2
ACAD
 70
     0
  0
ENDTAB
  0
TABLE
  2
DIMSTYLE
  5
A
330
0
100
AcDbSymbolTable
 70
     1
  0
DIMSTYLE
105
27
330
A
100
AcDbSymbolTableRecord
100
AcDbDimStyleTableRecord
  2
ISO-25
 70
     0
  3

  4

  5

  6

  7

 40
1.0
 41
2.5
 42
0.625
 43
3.75
 44
1.25
 45
0.0
 46
0.0
 47
0.0
 48
0.0
140
2.5
141
2.5
142
0.0
143
0.03937007874016
144
1.0
145
0.0
146
1.0
147
0.625
 71
     0
 72
     0
 73
     0
 74
     0
 75
     0
 76
     0
 77
     1
 78
     8
170
     0
171
     3
172
     1
173
     0
174
     0
175
     0
176
     0
177
     0
178
     0
270
     2
271
     2
272
     2
273
     2
274
     3
340
11
275
     0
280
     0
281
     0
282
     0
283
     0
284
     8
285
     0
286
     0
287
     3
288
     0
  0
ENDTAB
  0
TABLE
  2
BLOCK_RECORD
  5
1
330
0
100
AcDbSymbolTable
 70
     1
  0
BLOCK_RECORD
  5
1F
330
1
100
AcDbSymbolTableRecord
100
AcDbBlockTableRecord
  2
*MODEL_SPACE
  0
BLOCK_RECORD
  5
1B
330
1
100
AcDbSymbolTableRecord
100
AcDbBlockTableRecord
  2
*PAPER_SPACE
  0
ENDTAB
  0
ENDSEC
  0
SECTION
  2
BLOCKS
  0
BLOCK
  5
20
330
1F
100
AcDbEntity
  8
0
100
AcDbBlockBegin
  2
*MODEL_SPACE
 70
     0
 10
0.0
 20
0.0
 30
0.0
  3
*MODEL_SPACE
  1

  0
ENDBLK
  5
21
330
1F
100
AcDbEntity
  8
0
100
AcDbBlockEnd
  0
BLOCK
  5
1C
330
1B
100
AcDbEntity
 67
     1
  8
0
100
AcDbBlockBegin
  2
*PAPER_SPACE
  1

  0
ENDBLK
  5
1D
330
1B
100
AcDbEntity
 67
     1
  8
0
100
AcDbBlockEnd
  0
ENDSEC
  0
SECTION
  2
ENTITIES
  0
LINE
  5
100
100
AcDbEntity
  8
Layer_1
 62
3
100
AcDbLine
 10
2.959311
 20
2.592620
 30
0.0
 11
2.989431
 21
2.592620
 31
0.0
  0
LINE
  5
101
100
AcDbEntity
  8
Layer_1
 62
3
100
AcDbLine
 10
2.989431
 20
2.592620
 30
0.0
 11
2.989431
 21
2.592620
 31
0.0
  0
LINE
  5
102
100
AcDbEntity
  8
Layer_1
 62
3
100
AcDbLine
 10
2.989431
 20
2.592620
 30
0.0
 11
2.959311
 21
2.592620
 31
0.0
  0
LINE
  5
103
100
AcDbEntity
  8
Layer_1
 62
3
100
AcDbLine
 10
2.959311
 20
2.592620
 30
0.0
 11
2.959311
 21
2.592620
 31
0.0
  0
SPLINE
  5
104
100
AcDbEntity
  8
Layer_1
 62
3
100
AcDbSpline
 70
8
 71
3
 72
8
 73
4
 74
0
 40
0
 40
0
 40
0
 40
0
 40
1
 40
1
 40
1
 40
1
 10
4.933051
 20
11.859093
 30
0.0
 10
4.797604
 20
11.860139
 30
0.0
 10
4.665378
 20
11.790230
 30
0.0
 10
4.545464
 20
11.650000
 30
0.0
  0
SPLINE
  5
105
100
AcDbEntity
  8
Layer_1
 62
3
100
AcDbSpline
 70
8
 71
3
 72
8
 73
4
 74
0
 40
0
 40
0
 40
0
 40
0
 40
1
 40
1
 40
1
 40
1
 10
4.545464
 20
11.650000
 30
0.0
 10
4.442553
 20
11.529652
 30
0.0
 10
4.368793
 20
11.275998
 30
0.0
 10
4.368793
 20
11.275998
 30
0.0
  0
LINE
  5
106
100
AcDbEntity
  8
Layer_1
 62
3
100
AcDbLine
 10
4.368793
 20
11.275998
 30
0.0
 11
4.410851
 21
10.800716
 31
0.0
  0
LINE
  5
107
100
AcDbEntity
  8
Layer_1
 62
3
100
AcDbLine
 10
4.410851
 20
10.800716
 30
0.0
 11
4.469184
 21
10.141819
 31
0.0
  0
LINE
  5
108
100
AcDbEntity
  8
Layer_1
 62
3
100
AcDbLine
 10
4.469184
 20
10.141819
 30
0.0
 11
5.074913
 21
3.298220
 31
0.0
  0
LINE
  5
109
100
AcDbEntity
  8
Layer_1
 62
3
100
AcDbLine
 10
5.074913
 20
3.298220
 30
0.0
 11
5.090039
 21
3.176215
 31
0.0
  0
SPLINE
  5
10a
100
AcDbEntity
  8
Layer_1
 62
3
100
AcDbSpline
 70
8
 71
3
 72
8
 73
4
 74
0
 40
0
 40
0
 40
0
 40
0
 40
1
 40
1
 40
1
 40
1
 10
5.090039
 20
3.176215
 30
0.0
 10
5.104496
 20
3.197324
 30
0.0
 10
5.158089
 20
3.205550
 30
0.0
 10
5.185612
 20
3.207010
 30
0.0
  0
SPLINE
  5
10b
100
AcDbEntity
  8
Layer_1
 62
3
100
AcDbSpline
 70
8
 71
3
 72
8
 73
4
 74
0
 40
0
 40
0
 40
0
 40
0
 40
1
 40
1
 40
1
 40
1
 10
5.185612
 20
3.207010
 30
0.0
 10
5.232552
 20
3.209498
 30
0.0
 10
5.272620
 20
3.173654
 30
0.0
 10
5.275109
 20
3.126714
 30
0.0
  0
LINE
  5
10c
100
AcDbEntity
  8
Layer_1
 62
3
100
AcDbLine
 10
5.275109
 20
3.126714
 30
0.0
 11
5.275760
 21
3.122635
 31
0.0
  0
LINE
  5
10d
100
AcDbEntity
  8
Layer_1
 62
3
100
AcDbLine
 10
5.275760
 20
3.122635
 30
0.0
 11
5.307248
 21
3.122635
 31
0.0
  0
LINE
  5
10e
100
AcDbEntity
  8
Layer_1
 62
3
100
AcDbLine
 10
5.307248
 20
3.122635
 30
0.0
 11
5.307248
 21
3.068859
 31
0.0
  0
LINE
  5
10f
100
AcDbEntity
  8
Layer_1
 62
3
100
AcDbLine
 10
5.307248
 20
3.068859
 30
0.0
 11
5.284375
 21
3.068859
 31
0.0
  0
LINE
  5
110
100
AcDbEntity
  8
Layer_1
 62
3
100
AcDbLine
 10
5.284375
 20
3.068859
 30
0.0
 11
5.327995
 21
2.796311
 31
0.0
  0
LINE
  5
111
100
AcDbEntity
  8
Layer_1
 62
3
100
AcDbLine
 10
5.327995
 20
2.796311
 30
0.0
 11
5.385221
 21
2.793056
 31
0.0
  0
LINE
  5
112
100
AcDbEntity
  8
Layer_1
 62
3
100
AcDbLine
 10
5.385221
 20
2.793056
 30
0.0
 11
5.382943
 21
3.314280
 31
0.0
  0
LINE
  5
113
100
AcDbEntity
  8
Layer_1
 62
3
100
AcDbLine
 10
5.382943
 20
3.314280
 30
0.0
 11
5.364627
 21
10.428971
 31
0.0
  0
LINE
  5
114
100
AcDbEntity
  8
Layer_1
 62
3
100
AcDbLine
 10
5.364627
 20
10.428971
 30
0.0
 11
5.266775
 21
10.428971
 31
0.0
  0
LINE
  5
115
100
AcDbEntity
  8
Layer_1
 62
3
100
AcDbLine
 10
5.266775
 20
10.428971
 30
0.0
 11
5.266775
 21
10.624089
 31
0.0
  0
LINE
  5
116
100
AcDbEntity
  8
Layer_1
 62
3
100
AcDbLine
 10
5.266775
 20
10.624089
 30
0.0
 11
5.364084
 21
10.624089
 31
0.0
  0
LINE
  5
117
100
AcDbEntity
  8
Layer_1
 62
3
100
AcDbLine
 10
5.364084
 20
10.624089
 30
0.0
 11
5.362283
 21
11.330490
 31
0.0
  0
SPLINE
  5
118
100
AcDbEntity
  8
Layer_1
 62
3
100
AcDbSpline
 70
8
 71
3
 72
8
 73
4
 74
0
 40
0
 40
0
 40
0
 40
0
 40
1
 40
1
 40
1
 40
1
 10
5.362283
 20
11.330490
 30
0.0
 10
5.362283
 20
11.330490
 30
0.0
 10
5.407512
 20
11.581760
 30
0.0
 10
5.292882
 20
11.690148
 30
0.0
  0
SPLINE
  5
119
100
AcDbEntity
  8
Layer_1
 62
3
100
AcDbSpline
 70
8
 71
3
 72
8
 73
4
 74
0
 40
0
 40
0
 40
0
 40
0
 40
1
 40
1
 40
1
 40
1
 10
5.292882
 20
11.690148
 30
0.0
 10
5.174587
 20
11.802000
 30
0.0
 10
5.052564
 20
11.858170
 30
0.0
 10
4.933051
 20
11.859093
 30
0.0
  0
LINE
  5
11a
100
AcDbEntity
  8
Layer_1
 62
3
100
AcDbLine
 10
4.933051
 20
11.859093
 30
0.0
 11
4.933051
 21
11.859093
 31
0.0
  0
SPLINE
  5
11b
100
AcDbEntity
  8
Layer_1
 62
3
100
AcDbSpline
 70
8
 71
3
 72
8
 73
4
 74
0
 40
0
 40
0
 40
0
 40
0
 40
1
 40
1
 40
1
 40
1
 10
1.217512
 20
3.536842
 30
0.0
 10
1.217512
 20
3.428746
 30
0.0
 10
1.891822
 20
2.791147
 30
0.0
 10
1.999918
 20
2.791147
 30
0.0
  0
LINE
  5
11c
100
AcDbEntity
  8
Layer_1
 62
3
100
AcDbLine
 10
1.999918
 20
2.791147
 30
0.0
 11
2.001065
 21
2.791147
 31
0.0
  0
LINE
  5
11d
100
AcDbEntity
  8
Layer_1
 62
3
100
AcDbLine
 10
2.001065
 20
2.791147
 30
0.0
 11
2.001065
 21
2.977571
 31
0.0
  0
LINE
  5
11e
100
AcDbEntity
  8
Layer_1
 62
3
100
AcDbLine
 10
2.001065
 20
2.977571
 30
0.0
 11
2.385384
 21
2.977571
 31
0.0
  0
LINE
  5
11f
100
AcDbEntity
  8
Layer_1
 62
3
100
AcDbLine
 10
2.385384
 20
2.977571
 30
0.0
 11
2.385384
 21
2.791147
 31
0.0
  0
LINE
  5
120
100
AcDbEntity
  8
Layer_1
 62
3
100
AcDbLine
 10
2.385384
 20
2.791147
 30
0.0
 11
2.973909
 21
2.791147
 31
0.0
  0
SPLINE
  5
121
100
AcDbEntity
  8
Layer_1
 62
3
100
AcDbSpline
 70
8
 71
3
 72
8
 73
4
 74
0
 40
0
 40
0
 40
0
 40
0
 40
1
 40
1
 40
1
 40
1
 10
2.973909
 20
2.791147
 30
0.0
 10
3.082005
 20
2.791147
 30
0.0
 10
3.405725
 20
2.880627
 30
0.0
 10
3.429058
 20
2.986175
 30
0.0
  0
LINE
  5
122
100
AcDbEntity
  8
Layer_1
 62
3
100
AcDbLine
 10
3.429058
 20
2.986175
 30
0.0
 11
3.429058
 21
3.574700
 31
0.0
  0
LINE
  5
123
100
AcDbEntity
  8
Layer_1
 62
3
100
AcDbLine
 10
3.429058
 20
3.574700
 30
0.0
 11
3.278198
 21
3.574700
 31
0.0
  0
LINE
  5
124
100
AcDbEntity
  8
Layer_1
 62
3
100
AcDbLine
 10
3.278198
 20
3.574700
 30
0.0
 11
3.278198
 21
3.959019
 31
0.0
  0
LINE
  5
125
100
AcDbEntity
  8
Layer_1
 62
3
100
AcDbLine
 10
3.278198
 20
3.959019
 30
0.0
 11
3.429058
 21
3.959019
 31
0.0
  0
LINE
  5
126
100
AcDbEntity
  8
Layer_1
 62
3
100
AcDbLine
 10
3.429058
 20
3.959019
 30
0.0
 11
3.429058
 21
4.547544
 31
0.0
  0
SPLINE
  5
127
100
AcDbEntity
  8
Layer_1
 62
3
100
AcDbSpline
 70
8
 71
3
 72
8
 73
4
 74
0
 40
0
 40
0
 40
0
 40
0
 40
1
 40
1
 40
1
 40
1
 10
3.429058
 20
4.547544
 30
0.0
 10
3.429058
 20
4.655640
 30
0.0
 10
3.082005
 20
4.742572
 30
0.0
 10
2.973909
 20
4.742572
 30
0.0
  0
LINE
  5
128
100
AcDbEntity
  8
Layer_1
 62
3
100
AcDbLine
 10
2.973909
 20
4.742572
 30
0.0
 11
2.385384
 21
4.742572
 31
0.0
  0
LINE
  5
129
100
AcDbEntity
  8
Layer_1
 62
3
100
AcDbLine
 10
2.385384
 20
4.742572
 30
0.0
 11
2.385384
 21
4.556148
 31
0.0
  0
LINE
  5
12a
100
AcDbEntity
  8
Layer_1
 62
3
100
AcDbLine
 10
2.385384
 20
4.556148
 30
0.0
 11
2.001065
 21
4.556148
 31
0.0
  0
LINE
  5
12b
100
AcDbEntity
  8
Layer_1
 62
3
100
AcDbLine
 10
2.001065
 20
4.556148
 30
0.0
 11
2.001065
 21
4.742572
 31
0.0
  0
LINE
  5
12c
100
AcDbEntity
  8
Layer_1
 62
3
100
AcDbLine
 10
2.001065
 20
4.742572
 30
0.0
 11
1.999918
 21
4.742572
 31
0.0
  0
SPLINE
  5
12d
100
AcDbEntity
  8
Layer_1
 62
3
100
AcDbSpline
 70
8
 71
3
 72
8
 73
4
 74
0
 40
0
 40
0
 40
0
 40
0
 40
1
 40
1
 40
1
 40
1
 10
1.999918
 20
4.742572
 30
0.0
 10
1.891822
 20
4.742572
 30
0.0
 10
1.217512
 20
4.104973
 30
0.0
 10
1.217512
 20
3.996878
 30
0.0
  0
LINE
  5
12e
100
AcDbEntity
  8
Layer_1
 62
3
100
AcDbLine
 10
1.217512
 20
3.996878
 30
0.0
 11
1.217512
 21
3.536842
 31
0.0
  0
SPLINE
  5
12f
100
AcDbEntity
  8
Layer_1
 62
3
100
AcDbSpline
 70
8
 71
3
 72
8
 73
4
 74
0
 40
0
 40
0
 40
0
 40
0
 40
1
 40
1
 40
1
 40
1
 10
3.429057
 20
8.438922
 30
0.0
 10
3.429057
 20
8.547018
 30
0.0
 10
2.754747
 20
9.184617
 30
0.0
 10
2.646652
 20
9.184617
 30
0.0
  0
LINE
  5
130
100
AcDbEntity
  8
Layer_1
 62
3
100
AcDbLine
 10
2.646652
 20
9.184617
 30
0.0
 11
2.645505
 21
9.184617
 31
0.0
  0
LINE
  5
131
100
AcDbEntity
  8
Layer_1
 62
3
100
AcDbLine
 10
2.645505
 20
9.184617
 30
0.0
 11
2.645505
 21
8.998193
 31
0.0
  0
LINE
  5
132
100
AcDbEntity
  8
Layer_1
 62
3
100
AcDbLine
 10
2.645505
 20
8.998193
 30
0.0
 11
2.261185
 21
8.998193
 31
0.0
  0
LINE
  5
133
100
AcDbEntity
  8
Layer_1
 62
3
100
AcDbLine
 10
2.261185
 20
8.998193
 30
0.0
 11
2.261185
 21
9.184617
 31
0.0
  0
LINE
  5
134
100
AcDbEntity
  8
Layer_1
 62
3
100
AcDbLine
 10
2.261185
 20
9.184617
 30
0.0
 11
1.672660
 21
9.184617
 31
0.0
  0
SPLINE
  5
135
100
AcDbEntity
  8
Layer_1
 62
3
100
AcDbSpline
 70
8
 71
3
 72
8
 73
4
 74
0
 40
0
 40
0
 40
0
 40
0
 40
1
 40
1
 40
1
 40
1
 10
1.672660
 20
9.184617
 30
0.0
 10
1.564565
 20
9.184617
 30
0.0
 10
1.240844
 20
9.095136
 30
0.0
 10
1.217512
 20
8.989589
 30
0.0
  0
LINE
  5
136
100
AcDbEntity
  8
Layer_1
 62
3
100
AcDbLine
 10
1.217512
 20
8.989589
 30
0.0
 11
1.217512
 21
8.401064
 31
0.0
  0
LINE
  5
137
100
AcDbEntity
  8
Layer_1
 62
3
100
AcDbLine
 10
1.217512
 20
8.401064
 30
0.0
 11
1.368372
 21
8.401064
 31
0.0
  0
LINE
  5
138
100
AcDbEntity
  8
Layer_1
 62
3
100
AcDbLine
 10
1.368372
 20
8.401064
 30
0.0
 11
1.368372
 21
8.016745
 31
0.0
  0
LINE
  5
139
100
AcDbEntity
  8
Layer_1
 62
3
100
AcDbLine
 10
1.368372
 20
8.016745
 30
0.0
 11
1.217512
 21
8.016745
 31
0.0
  0
LINE
  5
13a
100
AcDbEntity
  8
Layer_1
 62
3
100
AcDbLine
 10
1.217512
 20
8.016745
 30
0.0
 11
1.217512
 21
7.428220
 31
0.0
  0
SPLINE
  5
13b
100
AcDbEntity
  8
Layer_1
 62
3
100
AcDbSpline
 70
8
 71
3
 72
8
 73
4
 74
0
 40
0
 40
0
 40
0
 40
0
 40
1
 40
1
 40
1
 40
1
 10
1.217512
 20
7.428220
 30
0.0
 10
1.217512
 20
7.320124
 30
0.0
 10
1.564565
 20
7.233192
 30
0.0
 10
1.672660
 20
7.233192
 30
0.0
  0
LINE
  5
13c
100
AcDbEntity
  8
Layer_1
 62
3
100
AcDbLine
 10
1.672660
 20
7.233192
 30
0.0
 11
2.261185
 21
7.233192
 31
0.0
  0
LINE
  5
13d
100
AcDbEntity
  8
Layer_1
 62
3
100
AcDbLine
 10
2.261185
 20
7.233192
 30
0.0
 11
2.261185
 21
7.419615
 31
0.0
  0
LINE
  5
13e
100
AcDbEntity
  8
Layer_1
 62
3
100
AcDbLine
 10
2.261185
 20
7.419615
 30
0.0
 11
2.645505
 21
7.419615
 31
0.0
  0
LINE
  5
13f
100
AcDbEntity
  8
Layer_1
 62
3
100
AcDbLine
 10
2.645505
 20
7.419615
 30
0.0
 11
2.645505
 21
7.233192
 31
0.0
  0
LINE
  5
140
100
AcDbEntity
  8
Layer_1
 62
3
100
AcDbLine
 10
2.645505
 20
7.233192
 30
0.0
 11
2.646652
 21
7.233192
 31
0.0
  0
SPLINE
  5
141
100
AcDbEntity
  8
Layer_1
 62
3
100
AcDbSpline
 70
8
 71
3
 72
8
 73
4
 74
0
 40
0
 40
0
 40
0
 40
0
 40
1
 40
1
 40
1
 40
1
 10
2.646652
 20
7.233192
 30
0.0
 10
2.754747
 20
7.233192
 30
0.0
 10
3.429057
 20
7.870791
 30
0.0
 10
3.429057
 20
7.978886
 30
0.0
  0
LINE
  5
142
100
AcDbEntity
  8
Layer_1
 62
3
100
AcDbLine
 10
3.429057
 20
7.978886
 30
0.0
 11
3.429057
 21
8.438922
 31
0.0
  0
LINE
  5
143
100
AcDbEntity
  8
Layer_1
 62
3
100
AcDbLine
 10
5.433258
 20
4.753312
 30
0.0
 11
5.653284
 21
4.753312
 31
0.0
  0
LINE
  5
144
100
AcDbEntity
  8
Layer_1
 62
3
100
AcDbLine
 10
5.653284
 20
4.753312
 30
0.0
 11
5.653284
 21
4.558305
 31
0.0
  0
LINE
  5
145
100
AcDbEntity
  8
Layer_1
 62
3
100
AcDbLine
 10
5.653284
 20
4.558305
 30
0.0
 11
7.839350
 21
4.558305
 31
0.0
  0
LINE
  5
146
100
AcDbEntity
  8
Layer_1
 62
3
100
AcDbLine
 10
7.839350
 20
4.558305
 30
0.0
 11
7.839350
 21
4.753312
 31
0.0
  0
LINE
  5
147
100
AcDbEntity
  8
Layer_1
 62
3
100
AcDbLine
 10
7.839350
 20
4.753312
 30
0.0
 11
8.059376
 21
4.753312
 31
0.0
  0
LINE
  5
148
100
AcDbEntity
  8
Layer_1
 62
3
100
AcDbLine
 10
8.059376
 20
4.753312
 30
0.0
 11
8.059376
 21
5.137018
 31
0.0
  0
LINE
  5
149
100
AcDbEntity
  8
Layer_1
 62
3
100
AcDbLine
 10
8.059376
 20
5.137018
 30
0.0
 11
7.839350
 21
5.137018
 31
0.0
  0
LINE
  5
14a
100
AcDbEntity
  8
Layer_1
 62
3
100
AcDbLine
 10
7.839350
 20
5.137018
 30
0.0
 11
7.839350
 21
11.275164
 31
0.0
  0
LINE
  5
14b
100
AcDbEntity
  8
Layer_1
 62
3
100
AcDbLine
 10
7.839350
 20
11.275164
 30
0.0
 11
8.059376
 21
11.275164
 31
0.0
  0
LINE
  5
14c
100
AcDbEntity
  8
Layer_1
 62
3
100
AcDbLine
 10
8.059376
 20
11.275164
 30
0.0
 11
8.059376
 21
11.658870
 31
0.0
  0
LINE
  5
14d
100
AcDbEntity
  8
Layer_1
 62
3
100
AcDbLine
 10
8.059376
 20
11.658870
 30
0.0
 11
7.839350
 21
11.658870
 31
0.0
  0
LINE
  5
14e
100
AcDbEntity
  8
Layer_1
 62
3
100
AcDbLine
 10
7.839350
 20
11.658870
 30
0.0
 11
7.839350
 21
11.858465
 31
0.0
  0
LINE
  5
14f
100
AcDbEntity
  8
Layer_1
 62
3
100
AcDbLine
 10
7.839350
 20
11.858465
 30
0.0
 11
5.653284
 21
11.858465
 31
0.0
  0
LINE
  5
150
100
AcDbEntity
  8
Layer_1
 62
3
100
AcDbLine
 10
5.653284
 20
11.858465
 30
0.0
 11
5.653284
 21
11.658870
 31
0.0
  0
LINE
  5
151
100
AcDbEntity
  8
Layer_1
 62
3
100
AcDbLine
 10
5.653284
 20
11.658870
 30
0.0
 11
5.433258
 21
11.658870
 31
0.0
  0
LINE
  5
152
100
AcDbEntity
  8
Layer_1
 62
3
100
AcDbLine
 10
5.433258
 20
11.658870
 30
0.0
 11
5.433258
 21
11.275164
 31
0.0
  0
LINE
  5
153
100
AcDbEntity
  8
Layer_1
 62
3
100
AcDbLine
 10
5.433258
 20
11.275164
 30
0.0
 11
5.653284
 21
11.275164
 31
0.0
  0
LINE
  5
154
100
AcDbEntity
  8
Layer_1
 62
3
100
AcDbLine
 10
5.653284
 20
11.275164
 30
0.0
 11
5.653284
 21
5.137018
 31
0.0
  0
LINE
  5
155
100
AcDbEntity
  8
Layer_1
 62
3
100
AcDbLine
 10
5.653284
 20
5.137018
 30
0.0
 11
5.433258
 21
5.137018
 31
0.0
  0
LINE
  5
156
100
AcDbEntity
  8
Layer_1
 62
3
100
AcDbLine
 10
5.433258
 20
5.137018
 30
0.0
 11
5.433258
 21
4.753312
 31
0.0
  0
LINE
  5
157
100
AcDbEntity
  8
Layer_1
 62
3
100
AcDbLine
 10
5.433258
 20
4.753312
 30
0.0
 11
5.433258
 21
4.753312
 31
0.0
  0
LINE
  5
158
100
AcDbEntity
  8
Layer_1
 62
3
100
AcDbLine
 10
3.841186
 20
9.429627
 30
0.0
 11
3.841186
 21
10.178625
 31
0.0
  0
LINE
  5
159
100
AcDbEntity
  8
Layer_1
 62
3
100
AcDbLine
 10
3.841186
 20
10.178625
 30
0.0
 11
3.832016
 21
10.178625
 31
0.0
  0
LINE
  5
15a
100
AcDbEntity
  8
Layer_1
 62
3
100
AcDbLine
 10
3.832016
 20
10.178625
 30
0.0
 11
3.832016
 21
10.430514
 31
0.0
  0
LINE
  5
15b
100
AcDbEntity
  8
Layer_1
 62
3
100
AcDbLine
 10
3.832016
 20
10.430514
 30
0.0
 11
3.841186
 21
10.430514
 31
0.0
  0
LINE
  5
15c
100
AcDbEntity
  8
Layer_1
 62
3
100
AcDbLine
 10
3.841186
 20
10.430514
 30
0.0
 11
3.841186
 21
11.179513
 31
0.0
  0
LINE
  5
15d
100
AcDbEntity
  8
Layer_1
 62
3
100
AcDbLine
 10
3.841186
 20
11.179513
 30
0.0
 11
3.403875
 21
11.179513
 31
0.0
  0
LINE
  5
15e
100
AcDbEntity
  8
Layer_1
 62
3
100
AcDbLine
 10
3.403875
 20
11.179513
 30
0.0
 11
3.403875
 21
10.430514
 31
0.0
  0
LINE
  5
15f
100
AcDbEntity
  8
Layer_1
 62
3
100
AcDbLine
 10
3.403875
 20
10.430514
 30
0.0
 11
3.413045
 21
10.430514
 31
0.0
  0
LINE
  5
160
100
AcDbEntity
  8
Layer_1
 62
3
100
AcDbLine
 10
3.413045
 20
10.430514
 30
0.0
 11
3.413045
 21
10.178625
 31
0.0
  0
LINE
  5
161
100
AcDbEntity
  8
Layer_1
 62
3
100
AcDbLine
 10
3.413045
 20
10.178625
 30
0.0
 11
3.403875
 21
10.178625
 31
0.0
  0
LINE
  5
162
100
AcDbEntity
  8
Layer_1
 62
3
100
AcDbLine
 10
3.403875
 20
10.178625
 30
0.0
 11
3.403875
 21
9.429627
 31
0.0
  0
LINE
  5
163
100
AcDbEntity
  8
Layer_1
 62
3
100
AcDbLine
 10
3.403875
 20
9.429627
 30
0.0
 11
3.528248
 21
9.429627
 31
0.0
  0
LINE
  5
164
100
AcDbEntity
  8
Layer_1
 62
3
100
AcDbLine
 10
3.528248
 20
9.429627
 30
0.0
 11
3.528248
 21
10.302347
 31
0.0
  0
LINE
  5
165
100
AcDbEntity
  8
Layer_1
 62
3
100
AcDbLine
 10
3.528248
 20
10.302347
 30
0.0
 11
3.716240
 21
10.302347
 31
0.0
  0
LINE
  5
166
100
AcDbEntity
  8
Layer_1
 62
3
100
AcDbLine
 10
3.716240
 20
10.302347
 30
0.0
 11
3.716240
 21
9.429627
 31
0.0
  0
LINE
  5
167
100
AcDbEntity
  8
Layer_1
 62
3
100
AcDbLine
 10
3.716240
 20
9.429627
 30
0.0
 11
3.841186
 21
9.429627
 31
0.0
  0
LINE
  5
168
100
AcDbEntity
  8
Layer_1
 62
3
100
AcDbLine
 10
3.841186
 20
9.429627
 30
0.0
 11
3.841186
 21
9.429627
 31
0.0
  0
LINE
  5
169
100
AcDbEntity
  8
Layer_1
 62
3
100
AcDbLine
 10
4.318045
 20
9.429627
 30
0.0
 11
4.318045
 21
10.178625
 31
0.0
  0
LINE
  5
16a
100
AcDbEntity
  8
Layer_1
 62
3
100
AcDbLine
 10
4.318045
 20
10.178625
 30
0.0
 11
4.308874
 21
10.178625
 31
0.0
  0
LINE
  5
16b
100
AcDbEntity
  8
Layer_1
 62
3
100
AcDbLine
 10
4.308874
 20
10.178625
 30
0.0
 11
4.308874
 21
10.430514
 31
0.0
  0
LINE
  5
16c
100
AcDbEntity
  8
Layer_1
 62
3
100
AcDbLine
 10
4.308874
 20
10.430514
 30
0.0
 11
4.318045
 21
10.430514
 31
0.0
  0
LINE
  5
16d
100
AcDbEntity
  8
Layer_1
 62
3
100
AcDbLine
 10
4.318045
 20
10.430514
 30
0.0
 11
4.318045
 21
11.179513
 31
0.0
  0
LINE
  5
16e
100
AcDbEntity
  8
Layer_1
 62
3
100
AcDbLine
 10
4.318045
 20
11.179513
 30
0.0
 11
3.880733
 21
11.179513
 31
0.0
  0
LINE
  5
16f
100
AcDbEntity
  8
Layer_1
 62
3
100
AcDbLine
 10
3.880733
 20
11.179513
 30
0.0
 11
3.880733
 21
10.430514
 31
0.0
  0
LINE
  5
170
100
AcDbEntity
  8
Layer_1
 62
3
100
AcDbLine
 10
3.880733
 20
10.430514
 30
0.0
 11
3.889904
 21
10.430514
 31
0.0
  0
LINE
  5
171
100
AcDbEntity
  8
Layer_1
 62
3
100
AcDbLine
 10
3.889904
 20
10.430514
 30
0.0
 11
3.889904
 21
10.178625
 31
0.0
  0
LINE
  5
172
100
AcDbEntity
  8
Layer_1
 62
3
100
AcDbLine
 10
3.889904
 20
10.178625
 30
0.0
 11
3.880733
 21
10.178625
 31
0.0
  0
LINE
  5
173
100
AcDbEntity
  8
Layer_1
 62
3
100
AcDbLine
 10
3.880733
 20
10.178625
 30
0.0
 11
3.880733
 21
9.429627
 31
0.0
  0
LINE
  5
174
100
AcDbEntity
  8
Layer_1
 62
3
100
AcDbLine
 10
3.880733
 20
9.429627
 30
0.0
 11
4.005106
 21
9.429627
 31
0.0
  0
LINE
  5
175
100
AcDbEntity
  8
Layer_1
 62
3
100
AcDbLine
 10
4.005106
 20
9.429627
 30
0.0
 11
4.005106
 21
10.302347
 31
0.0
  0
LINE
  5
176
100
AcDbEntity
  8
Layer_1
 62
3
100
AcDbLine
 10
4.005106
 20
10.302347
 30
0.0
 11
4.193099
 21
10.302347
 31
0.0
  0
LINE
  5
177
100
AcDbEntity
  8
Layer_1
 62
3
100
AcDbLine
 10
4.193099
 20
10.302347
 30
0.0
 11
4.193099
 21
9.429627
 31
0.0
  0
LINE
  5
178
100
AcDbEntity
  8
Layer_1
 62
3
100
AcDbLine
 10
4.193099
 20
9.429627
 30
0.0
 11
4.318045
 21
9.429627
 31
0.0
  0
LINE
  5
179
100
AcDbEntity
  8
Layer_1
 62
3
100
AcDbLine
 10
4.318045
 20
9.429627
 30
0.0
 11
4.318045
 21
9.429627
 31
0.0
  0
LINE
  5
17a
100
AcDbEntity
  8
Layer_1
 62
3
100
AcDbLine
 10
0.717055
 20
5.342409
 30
0.0
 11
3.732456
 21
8.100790
 31
0.0
  0
SPLINE
  5
17b
100
AcDbEntity
  8
Layer_1
 62
3
100
AcDbSpline
 70
8
 71
3
 72
8
 73
4
 74
0
 40
0
 40
0
 40
0
 40
0
 40
1
 40
1
 40
1
 40
1
 10
3.732456
 20
8.100790
 30
0.0
 10
3.732456
 20
8.100790
 30
0.0
 10
3.743405
 20
8.110806
 30
0.0
 10
3.748879
 20
8.115814
 30
0.0
  0
SPLINE
  5
17c
100
AcDbEntity
  8
Layer_1
 62
3
100
AcDbSpline
 70
8
 71
3
 72
8
 73
4
 74
0
 40
0
 40
0
 40
0
 40
0
 40
1
 40
1
 40
1
 40
1
 10
3.748879
 20
8.115814
 30
0.0
 10
3.782746
 20
8.146794
 30
0.0
 10
3.782413
 20
8.208906
 30
0.0
 10
3.782413
 20
8.208906
 30
0.0
  0
SPLINE
  5
17d
100
AcDbEntity
  8
Layer_1
 62
3
100
AcDbSpline
 70
8
 71
3
 72
8
 73
4
 74
0
 40
0
 40
0
 40
0
 40
0
 40
1
 40
1
 40
1
 40
1
 10
3.782413
 20
8.208906
 30
0.0
 10
3.782413
 20
8.208906
 30
0.0
 10
3.782746
 20
8.271017
 30
0.0
 10
3.748879
 20
8.301998
 30
0.0
  0
SPLINE
  5
17e
100
AcDbEntity
  8
Layer_1
 62
3
100
AcDbSpline
 70
8
 71
3
 72
8
 73
4
 74
0
 40
0
 40
0
 40
0
 40
0
 40
1
 40
1
 40
1
 40
1
 10
3.748879
 20
8.301998
 30
0.0
 10
3.743405
 20
8.307005
 30
0.0
 10
3.732456
 20
8.317020
 30
0.0
 10
3.732456
 20
8.317020
 30
0.0
  0
LINE
  5
17f
100
AcDbEntity
  8
Layer_1
 62
3
100
AcDbLine
 10
3.732456
 20
8.317020
 30
0.0
 11
0.717055
 21
11.075401
 31
0.0
  0
LINE
  5
180
100
AcDbEntity
  8
Layer_1
 62
3
100
AcDbLine
 10
0.717055
 20
11.075401
 30
0.0
 11
0.717055
 21
8.208906
 31
0.0
  0
LINE
  5
181
100
AcDbEntity
  8
Layer_1
 62
3
100
AcDbLine
 10
0.717055
 20
8.208906
 30
0.0
 11
0.717055
 21
5.342409
 31
0.0
  0
LINE
  5
182
100
AcDbEntity
  8
Layer_1
 62
3
100
AcDbLine
 10
0.069435
 20
11.859099
 30
0.0
 11
0.297623
 21
11.859099
 31
0.0
  0
LINE
  5
183
100
AcDbEntity
  8
Layer_1
 62
3
100
AcDbLine
 10
0.297623
 20
11.859099
 30
0.0
 11
0.717055
 21
11.859099
 31
0.0
  0
LINE
  5
184
100
AcDbEntity
  8
Layer_1
 62
3
100
AcDbLine
 10
0.717055
 20
11.859099
 30
0.0
 11
4.342242
 21
8.541285
 31
0.0
  0
SPLINE
  5
185
100
AcDbEntity
  8
Layer_1
 62
3
100
AcDbSpline
 70
8
 71
3
 72
8
 73
4
 74
0
 40
0
 40
0
 40
0
 40
0
 40
1
 40
1
 40
1
 40
1
 10
4.342242
 20
8.541285
 30
0.0
 10
4.342242
 20
8.541285
 30
0.0
 10
4.449360
 20
8.443249
 30
0.0
 10
4.502919
 20
8.394231
 30
0.0
  0
SPLINE
  5
186
100
AcDbEntity
  8
Layer_1
 62
3
100
AcDbSpline
 70
8
 71
3
 72
8
 73
4
 74
0
 40
0
 40
0
 40
0
 40
0
 40
1
 40
1
 40
1
 40
1
 10
4.502919
 20
8.394231
 30
0.0
 10
4.570362
 20
8.332507
 30
0.0
 10
4.577135
 20
8.208906
 30
0.0
 10
4.577135
 20
8.208906
 30
0.0
  0
SPLINE
  5
187
100
AcDbEntity
  8
Layer_1
 62
3
100
AcDbSpline
 70
8
 71
3
 72
8
 73
4
 74
0
 40
0
 40
0
 40
0
 40
0
 40
1
 40
1
 40
1
 40
1
 10
4.577135
 20
8.208906
 30
0.0
 10
4.577135
 20
8.208906
 30
0.0
 10
4.570362
 20
8.085305
 30
0.0
 10
4.502919
 20
8.023579
 30
0.0
  0
SPLINE
  5
188
100
AcDbEntity
  8
Layer_1
 62
3
100
AcDbSpline
 70
8
 71
3
 72
8
 73
4
 74
0
 40
0
 40
0
 40
0
 40
0
 40
1
 40
1
 40
1
 40
1
 10
4.502919
 20
8.023579
 30
0.0
 10
4.449360
 20
7.974562
 30
0.0
 10
4.342242
 20
7.876527
 30
0.0
 10
4.342242
 20
7.876527
 30
0.0
  0
LINE
  5
189
100
AcDbEntity
  8
Layer_1
 62
3
100
AcDbLine
 10
4.342242
 20
7.876527
 30
0.0
 11
0.717055
 21
4.558711
 31
0.0
  0
LINE
  5
18a
100
AcDbEntity
  8
Layer_1
 62
3
100
AcDbLine
 10
0.717055
 20
4.558711
 30
0.0
 11
0.297623
 21
4.558711
 31
0.0
  0
LINE
  5
18b
100
AcDbEntity
  8
Layer_1
 62
3
100
AcDbLine
 10
0.297623
 20
4.558711
 30
0.0
 11
0.069435
 21
4.558711
 31
0.0
  0
LINE
  5
18c
100
AcDbEntity
  8
Layer_1
 62
3
100
AcDbLine
 10
0.069435
 20
4.558711
 30
0.0
 11
0.069435
 21
8.208906
 31
0.0
  0
LINE
  5
18d
100
AcDbEntity
  8
Layer_1
 62
3
100
AcDbLine
 10
0.069435
 20
8.208906
 30
0.0
 11
0.069435
 21
11.859099
 31
0.0
  0
LINE
  5
18e
100
AcDbEntity
  8
Layer_1
 62
3
100
AcDbLine
 10
1.834752
 20
3.667598
 30
0.0
 11
1.713723
 21
3.668443
 31
0.0
  0
LINE
  5
18f
100
AcDbEntity
  8
Layer_1
 62
3
100
AcDbLine
 10
1.713723
 20
3.668443
 30
0.0
 11
1.712881
 21
3.547988
 31
0.0
  0
LINE
  5
190
100
AcDbEntity
  8
Layer_1
 62
3
100
AcDbLine
 10
1.712881
 20
3.547988
 30
0.0
 11
1.517859
 21
3.549350
 31
0.0
  0
LINE
  5
191
100
AcDbEntity
  8
Layer_1
 62
3
100
AcDbLine
 10
1.517859
 20
3.549350
 30
0.0
 11
1.518700
 21
3.669804
 31
0.0
  0
LINE
  5
192
100
AcDbEntity
  8
Layer_1
 62
3
100
AcDbLine
 10
1.518700
 20
3.669804
 30
0.0
 11
1.397671
 21
3.670651
 31
0.0
  0
LINE
  5
193
100
AcDbEntity
  8
Layer_1
 62
3
100
AcDbLine
 10
1.397671
 20
3.670651
 30
0.0
 11
1.399033
 21
3.865674
 31
0.0
  0
LINE
  5
194
100
AcDbEntity
  8
Layer_1
 62
3
100
AcDbLine
 10
1.399033
 20
3.865674
 30
0.0
 11
1.520062
 21
3.864829
 31
0.0
  0
LINE
  5
195
100
AcDbEntity
  8
Layer_1
 62
3
100
AcDbLine
 10
1.520062
 20
3.864829
 30
0.0
 11
1.520907
 21
3.985858
 31
0.0
  0
LINE
  5
196
100
AcDbEntity
  8
Layer_1
 62
3
100
AcDbLine
 10
1.520907
 20
3.985858
 30
0.0
 11
1.715929
 21
3.984496
 31
0.0
  0
LINE
  5
197
100
AcDbEntity
  8
Layer_1
 62
3
100
AcDbLine
 10
1.715929
 20
3.984496
 30
0.0
 11
1.715085
 21
3.863467
 31
0.0
  0
LINE
  5
198
100
AcDbEntity
  8
Layer_1
 62
3
100
AcDbLine
 10
1.715085
 20
3.863467
 30
0.0
 11
1.836114
 21
3.862623
 31
0.0
  0
LINE
  5
199
100
AcDbEntity
  8
Layer_1
 62
3
100
AcDbLine
 10
1.836114
 20
3.862623
 30
0.0
 11
1.834752
 21
3.667600
 31
0.0
  0
LINE
  5
19a
100
AcDbEntity
  8
Layer_1
 62
3
100
AcDbLine
 10
1.834752
 20
3.667600
 30
0.0
 11
1.834752
 21
3.667598
 31
0.0
  0
LINE
  5
19b
100
AcDbEntity
  8
Layer_1
 62
3
100
AcDbLine
 10
2.811818
 20
8.308165
 30
0.0
 11
2.932847
 21
8.307321
 31
0.0
  0
LINE
  5
19c
100
AcDbEntity
  8
Layer_1
 62
3
100
AcDbLine
 10
2.932847
 20
8.307321
 30
0.0
 11
2.933688
 21
8.427776
 31
0.0
  0
LINE
  5
19d
100
AcDbEntity
  8
Layer_1
 62
3
100
AcDbLine
 10
2.933688
 20
8.427776
 30
0.0
 11
3.128711
 21
8.426414
 31
0.0
  0
LINE
  5
19e
100
AcDbEntity
  8
Layer_1
 62
3
100
AcDbLine
 10
3.128711
 20
8.426414
 30
0.0
 11
3.127870
 21
8.305960
 31
0.0
  0
LINE
  5
19f
100
AcDbEntity
  8
Layer_1
 62
3
100
AcDbLine
 10
3.127870
 20
8.305960
 30
0.0
 11
3.248899
 21
8.305113
 31
0.0
  0
LINE
  5
1a0
100
AcDbEntity
  8
Layer_1
 62
3
100
AcDbLine
 10
3.248899
 20
8.305113
 30
0.0
 11
3.247537
 21
8.110090
 31
0.0
  0
LINE
  5
1a1
100
AcDbEntity
  8
Layer_1
 62
3
100
AcDbLine
 10
3.247537
 20
8.110090
 30
0.0
 11
3.126507
 21
8.110935
 31
0.0
  0
LINE
  5
1a2
100
AcDbEntity
  8
Layer_1
 62
3
100
AcDbLine
 10
3.126507
 20
8.110935
 30
0.0
 11
3.125663
 21
7.989906
 31
0.0
  0
LINE
  5
1a3
100
AcDbEntity
  8
Layer_1
 62
3
100
AcDbLine
 10
3.125663
 20
7.989906
 30
0.0
 11
2.930641
 21
7.991268
 31
0.0
  0
LINE
  5
1a4
100
AcDbEntity
  8
Layer_1
 62
3
100
AcDbLine
 10
2.930641
 20
7.991268
 30
0.0
 11
2.931485
 21
8.112297
 31
0.0
  0
LINE
  5
1a5
100
AcDbEntity
  8
Layer_1
 62
3
100
AcDbLine
 10
2.931485
 20
8.112297
 30
0.0
 11
2.810455
 21
8.113141
 31
0.0
  0
LINE
  5
1a6
100
AcDbEntity
  8
Layer_1
 62
3
100
AcDbLine
 10
2.810455
 20
8.113141
 30
0.0
 11
2.811817
 21
8.308164
 31
0.0
  0
LINE
  5
1a7
100
AcDbEntity
  8
Layer_1
 62
3
100
AcDbLine
 10
2.811817
 20
8.308164
 30
0.0
 11
2.811818
 21
8.308165
 31
0.0
  0
LINE
  5
1a8
100
AcDbEntity
  8
Layer_1
 62
3
100
AcDbLine
 10
5.326289
 20
1.353737
 30
0.0
 11
5.205260
 21
1.354581
 31
0.0
  0
LINE
  5
1a9
100
AcDbEntity
  8
Layer_1
 62
3
100
AcDbLine
 10
5.205260
 20
1.354581
 30
0.0
 11
5.204418
 21
1.234126
 31
0.0
  0
LINE
  5
1aa
100
AcDbEntity
  8
Layer_1
 62
3
100
AcDbLine
 10
5.204418
 20
1.234126
 30
0.0
 11
5.009396
 21
1.235488
 31
0.0
  0
LINE
  5
1ab
100
AcDbEntity
  8
Layer_1
 62
3
100
AcDbLine
 10
5.009396
 20
1.235488
 30
0.0
 11
5.010237
 21
1.355943
 31
0.0
  0
LINE
  5
1ac
100
AcDbEntity
  8
Layer_1
 62
3
100
AcDbLine
 10
5.010237
 20
1.355943
 30
0.0
 11
4.889208
 21
1.356789
 31
0.0
  0
LINE
  5
1ad
100
AcDbEntity
  8
Layer_1
 62
3
100
AcDbLine
 10
4.889208
 20
1.356789
 30
0.0
 11
4.890570
 21
1.551812
 31
0.0
  0
LINE
  5
1ae
100
AcDbEntity
  8
Layer_1
 62
3
100
AcDbLine
 10
4.890570
 20
1.551812
 30
0.0
 11
5.011600
 21
1.550968
 31
0.0
  0
LINE
  5
1af
100
AcDbEntity
  8
Layer_1
 62
3
100
AcDbLine
 10
5.011600
 20
1.550968
 30
0.0
 11
5.012444
 21
1.671997
 31
0.0
  0
LINE
  5
1b0
100
AcDbEntity
  8
Layer_1
 62
3
100
AcDbLine
 10
5.012444
 20
1.671997
 30
0.0
 11
5.207466
 21
1.670635
 31
0.0
  0
LINE
  5
1b1
100
AcDbEntity
  8
Layer_1
 62
3
100
AcDbLine
 10
5.207466
 20
1.670635
 30
0.0
 11
5.206622
 21
1.549606
 31
0.0
  0
LINE
  5
1b2
100
AcDbEntity
  8
Layer_1
 62
3
100
AcDbLine
 10
5.206622
 20
1.549606
 30
0.0
 11
5.327652
 21
1.548761
 31
0.0
  0
LINE
  5
1b3
100
AcDbEntity
  8
Layer_1
 62
3
100
AcDbLine
 10
5.327652
 20
1.548761
 30
0.0
 11
5.326290
 21
1.353738
 31
0.0
  0
LINE
  5
1b4
100
AcDbEntity
  8
Layer_1
 62
3
100
AcDbLine
 10
5.326290
 20
1.353738
 30
0.0
 11
5.326289
 21
1.353737
 31
0.0
  0
LINE
  5
1b5
100
AcDbEntity
  8
Layer_1
 62
3
100
AcDbLine
 10
0.714479
 20
2.462816
 30
0.0
 11
0.593450
 21
2.463660
 31
0.0
  0
LINE
  5
1b6
100
AcDbEntity
  8
Layer_1
 62
3
100
AcDbLine
 10
0.593450
 20
2.463660
 30
0.0
 11
0.592608
 21
2.343205
 31
0.0
  0
LINE
  5
1b7
100
AcDbEntity
  8
Layer_1
 62
3
100
AcDbLine
 10
0.592608
 20
2.343205
 30
0.0
 11
0.397586
 21
2.344567
 31
0.0
  0
LINE
  5
1b8
100
AcDbEntity
  8
Layer_1
 62
3
100
AcDbLine
 10
0.397586
 20
2.344567
 30
0.0
 11
0.398427
 21
2.465021
 31
0.0
  0
LINE
  5
1b9
100
AcDbEntity
  8
Layer_1
 62
3
100
AcDbLine
 10
0.398427
 20
2.465021
 30
0.0
 11
0.277398
 21
2.465868
 31
0.0
  0
LINE
  5
1ba
100
AcDbEntity
  8
Layer_1
 62
3
100
AcDbLine
 10
0.277398
 20
2.465868
 30
0.0
 11
0.278760
 21
2.660891
 31
0.0
  0
LINE
  5
1bb
100
AcDbEntity
  8
Layer_1
 62
3
100
AcDbLine
 10
0.278760
 20
2.660891
 30
0.0
 11
0.399790
 21
2.660047
 31
0.0
  0
LINE
  5
1bc
100
AcDbEntity
  8
Layer_1
 62
3
100
AcDbLine
 10
0.399790
 20
2.660047
 30
0.0
 11
0.400634
 21
2.781075
 31
0.0
  0
LINE
  5
1bd
100
AcDbEntity
  8
Layer_1
 62
3
100
AcDbLine
 10
0.400634
 20
2.781075
 30
0.0
 11
0.595656
 21
2.779713
 31
0.0
  0
LINE
  5
1be
100
AcDbEntity
  8
Layer_1
 62
3
100
AcDbLine
 10
0.595656
 20
2.779713
 30
0.0
 11
0.594812
 21
2.658684
 31
0.0
  0
LINE
  5
1bf
100
AcDbEntity
  8
Layer_1
 62
3
100
AcDbLine
 10
0.594812
 20
2.658684
 30
0.0
 11
0.715842
 21
2.657840
 31
0.0
  0
LINE
  5
1c0
100
AcDbEntity
  8
Layer_1
 62
3
100
AcDbLine
 10
0.715842
 20
2.657840
 30
0.0
 11
0.714480
 21
2.462817
 31
0.0
  0
LINE
  5
1c1
100
AcDbEntity
  8
Layer_1
 62
3
100
AcDbLine
 10
0.714480
 20
2.462817
 30
0.0
 11
0.714479
 21
2.462816
 31
0.0
  0
LINE
  5
1c2
100
AcDbEntity
  8
Layer_1
 62
3
100
AcDbLine
 10
4.277929
 20
7.984773
 30
0.0
 11
4.192945
 21
8.070951
 31
0.0
  0
LINE
  5
1c3
100
AcDbEntity
  8
Layer_1
 62
3
100
AcDbLine
 10
4.192945
 20
8.070951
 30
0.0
 11
4.107176
 21
7.986371
 31
0.0
  0
LINE
  5
1c4
100
AcDbEntity
  8
Layer_1
 62
3
100
AcDbLine
 10
4.107176
 20
7.986371
 30
0.0
 11
3.970237
 21
8.125236
 31
0.0
  0
LINE
  5
1c5
100
AcDbEntity
  8
Layer_1
 62
3
100
AcDbLine
 10
3.970237
 20
8.125236
 30
0.0
 11
4.056006
 21
8.209815
 31
0.0
  0
LINE
  5
1c6
100
AcDbEntity
  8
Layer_1
 62
3
100
AcDbLine
 10
4.056006
 20
8.209815
 30
0.0
 11
3.971024
 21
8.295994
 31
0.0
  0
LINE
  5
1c7
100
AcDbEntity
  8
Layer_1
 62
3
100
AcDbLine
 10
3.971024
 20
8.295994
 30
0.0
 11
4.109889
 21
8.432933
 31
0.0
  0
LINE
  5
1c8
100
AcDbEntity
  8
Layer_1
 62
3
100
AcDbLine
 10
4.109889
 20
8.432933
 30
0.0
 11
4.194873
 21
8.346755
 31
0.0
  0
LINE
  5
1c9
100
AcDbEntity
  8
Layer_1
 62
3
100
AcDbLine
 10
4.194873
 20
8.346755
 30
0.0
 11
4.281050
 21
8.431738
 31
0.0
  0
LINE
  5
1ca
100
AcDbEntity
  8
Layer_1
 62
3
100
AcDbLine
 10
4.281050
 20
8.431738
 30
0.0
 11
4.417988
 21
8.292874
 31
0.0
  0
LINE
  5
1cb
100
AcDbEntity
  8
Layer_1
 62
3
100
AcDbLine
 10
4.417988
 20
8.292874
 30
0.0
 11
4.331811
 21
8.207890
 31
0.0
  0
LINE
  5
1cc
100
AcDbEntity
  8
Layer_1
 62
3
100
AcDbLine
 10
4.331811
 20
8.207890
 30
0.0
 11
4.416795
 21
8.121713
 31
0.0
  0
LINE
  5
1cd
100
AcDbEntity
  8
Layer_1
 62
3
100
AcDbLine
 10
4.416795
 20
8.121713
 30
0.0
 11
4.277929
 21
7.984774
 31
0.0
  0
LINE
  5
1ce
100
AcDbEntity
  8
Layer_1
 62
3
100
AcDbLine
 10
4.277929
 20
7.984774
 30
0.0
 11
4.277929
 21
7.984773
 31
0.0
  0
LINE
  5
1cf
100
AcDbEntity
  8
Layer_1
 62
3
100
AcDbLine
 10
0.485071
 20
11.656051
 30
0.0
 11
0.297622
 21
11.656051
 31
0.0
  0
LINE
  5
1d0
100
AcDbEntity
  8
Layer_1
 62
3
100
AcDbLine
 10
0.297622
 20
11.656051
 30
0.0
 11
0.297622
 21
11.271977
 31
0.0
  0
LINE
  5
1d1
100
AcDbEntity
  8
Layer_1
 62
3
100
AcDbLine
 10
0.297622
 20
11.271977
 30
0.0
 11
0.485071
 21
11.271977
 31
0.0
  0
LINE
  5
1d2
100
AcDbEntity
  8
Layer_1
 62
3
100
AcDbLine
 10
0.485071
 20
11.271977
 30
0.0
 11
0.485071
 21
11.656051
 31
0.0
  0
LINE
  5
1d3
100
AcDbEntity
  8
Layer_1
 62
3
100
AcDbLine
 10
0.485071
 20
4.761758
 30
0.0
 11
0.297622
 21
4.761758
 31
0.0
  0
LINE
  5
1d4
100
AcDbEntity
  8
Layer_1
 62
3
100
AcDbLine
 10
0.297622
 20
4.761758
 30
0.0
 11
0.297622
 21
5.145831
 31
0.0
  0
LINE
  5
1d5
100
AcDbEntity
  8
Layer_1
 62
3
100
AcDbLine
 10
0.297622
 20
5.145831
 30
0.0
 11
0.485071
 21
5.145831
 31
0.0
  0
LINE
  5
1d6
100
AcDbEntity
  8
Layer_1
 62
3
100
AcDbLine
 10
0.485071
 20
5.145831
 30
0.0
 11
0.485071
 21
4.761758
 31
0.0
  0
LINE
  5
1d7
100
AcDbEntity
  8
Layer_1
 62
3
100
AcDbLine
 10
0.368640
 20
3.542728
 30
0.0
 11
0.453624
 21
3.628906
 31
0.0
  0
LINE
  5
1d8
100
AcDbEntity
  8
Layer_1
 62
3
100
AcDbLine
 10
0.453624
 20
3.628906
 30
0.0
 11
0.539393
 21
3.544326
 31
0.0
  0
LINE
  5
1d9
100
AcDbEntity
  8
Layer_1
 62
3
100
AcDbLine
 10
0.539393
 20
3.544326
 30
0.0
 11
0.676332
 21
3.683190
 31
0.0
  0
LINE
  5
1da
100
AcDbEntity
  8
Layer_1
 62
3
100
AcDbLine
 10
0.676332
 20
3.683190
 30
0.0
 11
0.590563
 21
3.767770
 31
0.0
  0
LINE
  5
1db
100
AcDbEntity
  8
Layer_1
 62
3
100
AcDbLine
 10
0.590563
 20
3.767770
 30
0.0
 11
0.675545
 21
3.853949
 31
0.0
  0
LINE
  5
1dc
100
AcDbEntity
  8
Layer_1
 62
3
100
AcDbLine
 10
0.675545
 20
3.853949
 30
0.0
 11
0.536680
 21
3.990888
 31
0.0
  0
LINE
  5
1dd
100
AcDbEntity
  8
Layer_1
 62
3
100
AcDbLine
 10
0.536680
 20
3.990888
 30
0.0
 11
0.451697
 21
3.904710
 31
0.0
  0
LINE
  5
1de
100
AcDbEntity
  8
Layer_1
 62
3
100
AcDbLine
 10
0.451697
 20
3.904710
 30
0.0
 11
0.365519
 21
3.989693
 31
0.0
  0
LINE
  5
1df
100
AcDbEntity
  8
Layer_1
 62
3
100
AcDbLine
 10
0.365519
 20
3.989693
 30
0.0
 11
0.228581
 21
3.850829
 31
0.0
  0
LINE
  5
1e0
100
AcDbEntity
  8
Layer_1
 62
3
100
AcDbLine
 10
0.228581
 20
3.850829
 30
0.0
 11
0.314758
 21
3.765846
 31
0.0
  0
LINE
  5
1e1
100
AcDbEntity
  8
Layer_1
 62
3
100
AcDbLine
 10
0.314758
 20
3.765846
 30
0.0
 11
0.229774
 21
3.679668
 31
0.0
  0
LINE
  5
1e2
100
AcDbEntity
  8
Layer_1
 62
3
100
AcDbLine
 10
0.229774
 20
3.679668
 30
0.0
 11
0.368640
 21
3.542728
 31
0.0
  0
LINE
  5
1e3
100
AcDbEntity
  8
Layer_1
 62
3
100
AcDbLine
 10
0.368640
 20
3.542728
 30
0.0
 11
0.368640
 21
3.542728
 31
0.0
  0
LINE
  5
1e4
100
AcDbEntity
  8
Layer_1
 62
3
100
AcDbLine
 10
4.161498
 20
7.214005
 30
0.0
 11
4.348947
 21
7.214005
 31
0.0
  0
LINE
  5
1e5
100
AcDbEntity
  8
Layer_1
 62
3
100
AcDbLine
 10
4.348947
 20
7.214005
 30
0.0
 11
4.348947
 21
6.829932
 31
0.0
  0
LINE
  5
1e6
100
AcDbEntity
  8
Layer_1
 62
3
100
AcDbLine
 10
4.348947
 20
6.829932
 30
0.0
 11
4.161498
 21
6.829932
 31
0.0
  0
LINE
  5
1e7
100
AcDbEntity
  8
Layer_1
 62
3
100
AcDbLine
 10
4.161498
 20
6.829932
 30
0.0
 11
4.161498
 21
7.214005
 31
0.0
  0
LINE
  5
1e8
100
AcDbEntity
  8
Layer_1
 62
3
100
AcDbLine
 10
4.161498
 20
0.319713
 30
0.0
 11
4.348947
 21
0.319713
 31
0.0
  0
LINE
  5
1e9
100
AcDbEntity
  8
Layer_1
 62
3
100
AcDbLine
 10
4.348947
 20
0.319713
 30
0.0
 11
4.348947
 21
0.703786
 31
0.0
  0
LINE
  5
1ea
100
AcDbEntity
  8
Layer_1
 62
3
100
AcDbLine
 10
4.348947
 20
0.703786
 30
0.0
 11
4.161498
 21
0.703786
 31
0.0
  0
LINE
  5
1eb
100
AcDbEntity
  8
Layer_1
 62
3
100
AcDbLine
 10
4.161498
 20
0.703786
 30
0.0
 11
4.161498
 21
0.319713
 31
0.0
  0
LINE
  5
1ec
100
AcDbEntity
  8
Layer_1
 62
3
100
AcDbLine
 10
3.929514
 20
0.900363
 30
0.0
 11
0.914113
 21
3.658744
 31
0.0
  0
SPLINE
  5
1ed
100
AcDbEntity
  8
Layer_1
 62
3
100
AcDbSpline
 70
8
 71
3
 72
8
 73
4
 74
0
 40
0
 40
0
 40
0
 40
0
 40
1
 40
1
 40
1
 40
1
 10
0.914113
 20
3.658744
 30
0.0
 10
0.914113
 20
3.658744
 30
0.0
 10
0.903164
 20
3.668761
 30
0.0
 10
0.897690
 20
3.673768
 30
0.0
  0
SPLINE
  5
1ee
100
AcDbEntity
  8
Layer_1
 62
3
100
AcDbSpline
 70
8
 71
3
 72
8
 73
4
 74
0
 40
0
 40
0
 40
0
 40
0
 40
1
 40
1
 40
1
 40
1
 10
0.897690
 20
3.673768
 30
0.0
 10
0.863823
 20
3.704749
 30
0.0
 10
0.864155
 20
3.766860
 30
0.0
 10
0.864155
 20
3.766860
 30
0.0
  0
SPLINE
  5
1ef
100
AcDbEntity
  8
Layer_1
 62
3
100
AcDbSpline
 70
8
 71
3
 72
8
 73
4
 74
0
 40
0
 40
0
 40
0
 40
0
 40
1
 40
1
 40
1
 40
1
 10
0.864155
 20
3.766860
 30
0.0
 10
0.864155
 20
3.766860
 30
0.0
 10
0.863823
 20
3.828972
 30
0.0
 10
0.897690
 20
3.859952
 30
0.0
  0
SPLINE
  5
1f0
100
AcDbEntity
  8
Layer_1
 62
3
100
AcDbSpline
 70
8
 71
3
 72
8
 73
4
 74
0
 40
0
 40
0
 40
0
 40
0
 40
1
 40
1
 40
1
 40
1
 10
0.897690
 20
3.859952
 30
0.0
 10
0.903164
 20
3.864960
 30
0.0
 10
0.914113
 20
3.874974
 30
0.0
 10
0.914113
 20
3.874974
 30
0.0
  0
LINE
  5
1f1
100
AcDbEntity
  8
Layer_1
 62
3
100
AcDbLine
 10
0.914113
 20
3.874974
 30
0.0
 11
3.929514
 21
6.633356
 31
0.0
  0
LINE
  5
1f2
100
AcDbEntity
  8
Layer_1
 62
3
100
AcDbLine
 10
3.929514
 20
6.633356
 30
0.0
 11
3.929514
 21
3.766860
 31
0.0
  0
LINE
  5
1f3
100
AcDbEntity
  8
Layer_1
 62
3
100
AcDbLine
 10
3.929514
 20
3.766860
 30
0.0
 11
3.929514
 21
0.900363
 31
0.0
  0
LINE
  5
1f4
100
AcDbEntity
  8
Layer_1
 62
3
100
AcDbLine
 10
4.577134
 20
7.417053
 30
0.0
 11
4.348946
 21
7.417053
 31
0.0
  0
LINE
  5
1f5
100
AcDbEntity
  8
Layer_1
 62
3
100
AcDbLine
 10
4.348946
 20
7.417053
 30
0.0
 11
3.929514
 21
7.417053
 31
0.0
  0
LINE
  5
1f6
100
AcDbEntity
  8
Layer_1
 62
3
100
AcDbLine
 10
3.929514
 20
7.417053
 30
0.0
 11
0.304326
 21
4.099239
 31
0.0
  0
SPLINE
  5
1f7
100
AcDbEntity
  8
Layer_1
 62
3
100
AcDbSpline
 70
8
 71
3
 72
8
 73
4
 74
0
 40
0
 40
0
 40
0
 40
0
 40
1
 40
1
 40
1
 40
1
 10
0.304326
 20
4.099239
 30
0.0
 10
0.304326
 20
4.099239
 30
0.0
 10
0.197209
 20
4.001204
 30
0.0
 10
0.143650
 20
3.952185
 30
0.0
  0
SPLINE
  5
1f8
100
AcDbEntity
  8
Layer_1
 62
3
100
AcDbSpline
 70
8
 71
3
 72
8
 73
4
 74
0
 40
0
 40
0
 40
0
 40
0
 40
1
 40
1
 40
1
 40
1
 10
0.143650
 20
3.952185
 30
0.0
 10
0.076207
 20
3.890461
 30
0.0
 10
0.069434
 20
3.766860
 30
0.0
 10
0.069434
 20
3.766860
 30
0.0
  0
SPLINE
  5
1f9
100
AcDbEntity
  8
Layer_1
 62
3
100
AcDbSpline
 70
8
 71
3
 72
8
 73
4
 74
0
 40
0
 40
0
 40
0
 40
0
 40
1
 40
1
 40
1
 40
1
 10
0.069434
 20
3.766860
 30
0.0
 10
0.069434
 20
3.766860
 30
0.0
 10
0.076207
 20
3.643259
 30
0.0
 10
0.143650
 20
3.581533
 30
0.0
  0
SPLINE
  5
1fa
100
AcDbEntity
  8
Layer_1
 62
3
100
AcDbSpline
 70
8
 71
3
 72
8
 73
4
 74
0
 40
0
 40
0
 40
0
 40
0
 40
1
 40
1
 40
1
 40
1
 10
0.143650
 20
3.581533
 30
0.0
 10
0.197209
 20
3.532517
 30
0.0
 10
0.304326
 20
3.434482
 30
0.0
 10
0.304326
 20
3.434482
 30
0.0
  0
LINE
  5
1fb
100
AcDbEntity
  8
Layer_1
 62
3
100
AcDbLine
 10
0.304326
 20
3.434482
 30
0.0
 11
3.929514
 21
0.116665
 31
0.0
  0
LINE
  5
1fc
100
AcDbEntity
  8
Layer_1
 62
3
100
AcDbLine
 10
3.929514
 20
0.116665
 30
0.0
 11
4.348946
 21
0.116665
 31
0.0
  0
LINE
  5
1fd
100
AcDbEntity
  8
Layer_1
 62
3
100
AcDbLine
 10
4.348946
 20
0.116665
 30
0.0
 11
4.577134
 21
0.116665
 31
0.0
  0
LINE
  5
1fe
100
AcDbEntity
  8
Layer_1
 62
3
100
AcDbLine
 10
4.577134
 20
0.116665
 30
0.0
 11
4.577134
 21
3.766860
 31
0.0
  0
LINE
  5
1ff
100
AcDbEntity
  8
Layer_1
 62
3
100
AcDbLine
 10
4.577134
 20
3.766860
 30
0.0
 11
4.577134
 21
7.417053
 31
0.0
  0
LINE
  5
200
100
AcDbEntity
  8
Layer_1
 62
3
100
AcDbLine
 10
7.930523
 20
9.163321
 30
0.0
 11
7.947413
 21
9.163321
 31
0.0
  0
LINE
  5
201
100
AcDbEntity
  8
Layer_1
 62
3
100
AcDbLine
 10
7.947413
 20
9.163321
 30
0.0
 11
7.947413
 21
8.257590
 31
0.0
  0
LINE
  5
202
100
AcDbEntity
  8
Layer_1
 62
3
100
AcDbLine
 10
7.947413
 20
8.257590
 30
0.0
 11
8.383358
 21
8.257590
 31
0.0
  0
LINE
  5
203
100
AcDbEntity
  8
Layer_1
 62
3
100
AcDbLine
 10
8.383358
 20
8.257590
 30
0.0
 11
8.383358
 21
9.163321
 31
0.0
  0
LINE
  5
204
100
AcDbEntity
  8
Layer_1
 62
3
100
AcDbLine
 10
8.383358
 20
9.163321
 30
0.0
 11
8.399306
 21
9.163321
 31
0.0
  0
LINE
  5
205
100
AcDbEntity
  8
Layer_1
 62
3
100
AcDbLine
 10
8.399306
 20
9.163321
 30
0.0
 11
8.399306
 21
10.269244
 31
0.0
  0
LINE
  5
206
100
AcDbEntity
  8
Layer_1
 62
3
100
AcDbLine
 10
8.399306
 20
10.269244
 30
0.0
 11
8.383358
 21
10.269244
 31
0.0
  0
LINE
  5
207
100
AcDbEntity
  8
Layer_1
 62
3
100
AcDbLine
 10
8.383358
 20
10.269244
 30
0.0
 11
8.383358
 21
11.175549
 31
0.0
  0
LINE
  5
208
100
AcDbEntity
  8
Layer_1
 62
3
100
AcDbLine
 10
8.383358
 20
11.175549
 30
0.0
 11
8.258884
 21
11.175549
 31
0.0
  0
LINE
  5
209
100
AcDbEntity
  8
Layer_1
 62
3
100
AcDbLine
 10
8.258884
 20
11.175549
 30
0.0
 11
8.258884
 21
9.719724
 31
0.0
  0
LINE
  5
20a
100
AcDbEntity
  8
Layer_1
 62
3
100
AcDbLine
 10
8.258884
 20
9.719724
 30
0.0
 11
8.071887
 21
9.719724
 31
0.0
  0
LINE
  5
20b
100
AcDbEntity
  8
Layer_1
 62
3
100
AcDbLine
 10
8.071887
 20
9.719724
 30
0.0
 11
8.071887
 21
11.175549
 31
0.0
  0
LINE
  5
20c
100
AcDbEntity
  8
Layer_1
 62
3
100
AcDbLine
 10
8.071887
 20
11.175549
 30
0.0
 11
7.947413
 21
11.175549
 31
0.0
  0
LINE
  5
20d
100
AcDbEntity
  8
Layer_1
 62
3
100
AcDbLine
 10
7.947413
 20
11.175549
 30
0.0
 11
7.947413
 21
10.269244
 31
0.0
  0
LINE
  5
20e
100
AcDbEntity
  8
Layer_1
 62
3
100
AcDbLine
 10
7.947413
 20
10.269244
 30
0.0
 11
7.930523
 21
10.269244
 31
0.0
  0
LINE
  5
20f
100
AcDbEntity
  8
Layer_1
 62
3
100
AcDbLine
 10
7.930523
 20
10.269244
 30
0.0
 11
7.930523
 21
9.163321
 31
0.0
  0
LINE
  5
210
100
AcDbEntity
  8
Layer_1
 62
3
100
AcDbLine
 10
8.399306
 20
7.326189
 30
0.0
 11
8.382416
 21
7.326189
 31
0.0
  0
LINE
  5
211
100
AcDbEntity
  8
Layer_1
 62
3
100
AcDbLine
 10
8.382416
 20
7.326189
 30
0.0
 11
8.382416
 21
8.231921
 31
0.0
  0
LINE
  5
212
100
AcDbEntity
  8
Layer_1
 62
3
100
AcDbLine
 10
8.382416
 20
8.231921
 30
0.0
 11
7.946472
 21
8.231921
 31
0.0
  0
LINE
  5
213
100
AcDbEntity
  8
Layer_1
 62
3
100
AcDbLine
 10
7.946472
 20
8.231921
 30
0.0
 11
7.946472
 21
7.326189
 31
0.0
  0
LINE
  5
214
100
AcDbEntity
  8
Layer_1
 62
3
100
AcDbLine
 10
7.946472
 20
7.326189
 30
0.0
 11
7.930523
 21
7.326189
 31
0.0
  0
LINE
  5
215
100
AcDbEntity
  8
Layer_1
 62
3
100
AcDbLine
 10
7.930523
 20
7.326189
 30
0.0
 11
7.930523
 21
6.220267
 31
0.0
  0
LINE
  5
216
100
AcDbEntity
  8
Layer_1
 62
3
100
AcDbLine
 10
7.930523
 20
6.220267
 30
0.0
 11
7.946472
 21
6.220267
 31
0.0
  0
LINE
  5
217
100
AcDbEntity
  8
Layer_1
 62
3
100
AcDbLine
 10
7.946472
 20
6.220267
 30
0.0
 11
7.946472
 21
5.313962
 31
0.0
  0
LINE
  5
218
100
AcDbEntity
  8
Layer_1
 62
3
100
AcDbLine
 10
7.946472
 20
5.313962
 30
0.0
 11
8.070945
 21
5.313962
 31
0.0
  0
LINE
  5
219
100
AcDbEntity
  8
Layer_1
 62
3
100
AcDbLine
 10
8.070945
 20
5.313962
 30
0.0
 11
8.070945
 21
6.769787
 31
0.0
  0
LINE
  5
21a
100
AcDbEntity
  8
Layer_1
 62
3
100
AcDbLine
 10
8.070945
 20
6.769787
 30
0.0
 11
8.257943
 21
6.769787
 31
0.0
  0
LINE
  5
21b
100
AcDbEntity
  8
Layer_1
 62
3
100
AcDbLine
 10
8.257943
 20
6.769787
 30
0.0
 11
8.257943
 21
5.313962
 31
0.0
  0
LINE
  5
21c
100
AcDbEntity
  8
Layer_1
 62
3
100
AcDbLine
 10
8.257943
 20
5.313962
 30
0.0
 11
8.382416
 21
5.313962
 31
0.0
  0
LINE
  5
21d
100
AcDbEntity
  8
Layer_1
 62
3
100
AcDbLine
 10
8.382416
 20
5.313962
 30
0.0
 11
8.382416
 21
6.220267
 31
0.0
  0
LINE
  5
21e
100
AcDbEntity
  8
Layer_1
 62
3
100
AcDbLine
 10
8.382416
 20
6.220267
 30
0.0
 11
8.399306
 21
6.220267
 31
0.0
  0
LINE
  5
21f
100
AcDbEntity
  8
Layer_1
 62
3
100
AcDbLine
 10
8.399306
 20
6.220267
 30
0.0
 11
8.399306
 21
7.326189
 31
0.0
  0
LINE
  5
220
100
AcDbEntity
  8
Layer_1
 62
3
100
AcDbLine
 10
6.138981
 20
1.768937
 30
0.0
 11
5.611011
 21
1.768859
 31
0.0
  0
LINE
  5
221
100
AcDbEntity
  8
Layer_1
 62
3
100
AcDbLine
 10
6.138981
 20
1.679219
 30
0.0
 11
5.611011
 21
1.679163
 31
0.0
  0
LINE
  5
222
100
AcDbEntity
  8
Layer_1
 62
3
100
AcDbLine
 10
6.138981
 20
1.589931
 30
0.0
 11
5.611011
 21
1.589876
 31
0.0
  0
LINE
  5
223
100
AcDbEntity
  8
Layer_1
 62
3
100
AcDbLine
 10
6.138981
 20
1.500644
 30
0.0
 11
5.611011
 21
1.500588
 31
0.0
  0
LINE
  5
224
100
AcDbEntity
  8
Layer_1
 62
3
100
AcDbLine
 10
6.138981
 20
1.411357
 30
0.0
 11
5.611011
 21
1.411301
 31
0.0
  0
LINE
  5
225
100
AcDbEntity
  8
Layer_1
 62
3
100
AcDbLine
 10
6.138981
 20
1.322070
 30
0.0
 11
5.611011
 21
1.322014
 31
0.0
  0
LINE
  5
226
100
AcDbEntity
  8
Layer_1
 62
3
100
AcDbLine
 10
6.973758
 20
1.322336
 30
0.0
 11
6.382631
 21
1.322259
 31
0.0
  0
LINE
  5
227
100
AcDbEntity
  8
Layer_1
 62
3
100
AcDbLine
 10
6.973758
 20
1.411627
 30
0.0
 11
6.382631
 21
1.411549
 31
0.0
  0
LINE
  5
228
100
AcDbEntity
  8
Layer_1
 62
3
100
AcDbLine
 10
6.973758
 20
1.500917
 30
0.0
 11
6.382631
 21
1.500908
 31
0.0
  0
LINE
  5
229
100
AcDbEntity
  8
Layer_1
 62
3
100
AcDbLine
 10
6.973758
 20
1.590208
 30
0.0
 11
6.382631
 21
1.590130
 31
0.0
  0
LINE
  5
22a
100
AcDbEntity
  8
Layer_1
 62
3
100
AcDbLine
 10
6.973758
 20
1.679499
 30
0.0
 11
6.382631
 21
1.679421
 31
0.0
  0
LINE
  5
22b
100
AcDbEntity
  8
Layer_1
 62
3
100
AcDbLine
 10
6.973758
 20
1.769811
 30
0.0
 11
6.382631
 21
1.768957
 31
0.0
  0
LINE
  5
22c
100
AcDbEntity
  8
Layer_1
 62
3
100
AcDbLine
 10
6.861359
 20
1.723572
 30
0.0
 11
5.734653
 21
1.723605
 31
0.0
  0
LINE
  5
22d
100
AcDbEntity
  8
Layer_1
 62
3
100
AcDbLine
 10
6.861359
 20
1.634284
 30
0.0
 11
5.734653
 21
1.634318
 31
0.0
  0
LINE
  5
22e
100
AcDbEntity
  8
Layer_1
 62
3
100
AcDbLine
 10
6.861359
 20
1.277125
 30
0.0
 11
5.734653
 21
1.277158
 31
0.0
  0
LINE
  5
22f
100
AcDbEntity
  8
Layer_1
 62
3
100
AcDbLine
 10
6.861359
 20
1.366419
 30
0.0
 11
5.734653
 21
1.366452
 31
0.0
  0
LINE
  5
230
100
AcDbEntity
  8
Layer_1
 62
3
100
AcDbLine
 10
6.861359
 20
1.455713
 30
0.0
 11
5.734653
 21
1.455746
 31
0.0
  0
LINE
  5
231
100
AcDbEntity
  8
Layer_1
 62
3
100
AcDbLine
 10
6.861359
 20
1.545007
 30
0.0
 11
5.734653
 21
1.545040
 31
0.0
  0
LINE
  5
232
100
AcDbEntity
  8
Layer_1
 62
3
100
AcDbLine
 10
6.975703
 20
3.629693
 30
0.0
 11
7.165571
 21
3.629693
 31
0.0
  0
LINE
  5
233
100
AcDbEntity
  8
Layer_1
 62
3
100
AcDbLine
 10
7.165571
 20
3.629693
 30
0.0
 11
7.165571
 21
4.013443
 31
0.0
  0
LINE
  5
234
100
AcDbEntity
  8
Layer_1
 62
3
100
AcDbLine
 10
7.165571
 20
4.013443
 30
0.0
 11
6.975703
 21
4.013443
 31
0.0
  0
LINE
  5
235
100
AcDbEntity
  8
Layer_1
 62
3
100
AcDbLine
 10
6.975703
 20
4.013443
 30
0.0
 11
5.610217
 21
4.013421
 31
0.0
  0
LINE
  5
236
100
AcDbEntity
  8
Layer_1
 62
3
100
AcDbLine
 10
5.610217
 20
4.013421
 30
0.0
 11
5.415761
 21
4.013421
 31
0.0
  0
LINE
  5
237
100
AcDbEntity
  8
Layer_1
 62
3
100
AcDbLine
 10
5.415761
 20
4.013421
 30
0.0
 11
5.415761
 21
3.629671
 31
0.0
  0
LINE
  5
238
100
AcDbEntity
  8
Layer_1
 62
3
100
AcDbLine
 10
5.415761
 20
3.629671
 30
0.0
 11
5.610217
 21
3.629671
 31
0.0
  0
LINE
  5
239
100
AcDbEntity
  8
Layer_1
 62
3
100
AcDbLine
 10
5.610217
 20
3.629671
 30
0.0
 11
5.610217
 21
2.276767
 31
0.0
  0
LINE
  5
23a
100
AcDbEntity
  8
Layer_1
 62
3
100
AcDbLine
 10
5.610217
 20
2.276767
 30
0.0
 11
5.412509
 21
2.276745
 31
0.0
  0
LINE
  5
23b
100
AcDbEntity
  8
Layer_1
 62
3
100
AcDbLine
 10
5.412509
 20
2.276745
 30
0.0
 11
5.412509
 21
1.892563
 31
0.0
  0
LINE
  5
23c
100
AcDbEntity
  8
Layer_1
 62
3
100
AcDbLine
 10
5.412509
 20
1.892563
 30
0.0
 11
5.610217
 21
1.892563
 31
0.0
  0
LINE
  5
23d
100
AcDbEntity
  8
Layer_1
 62
3
100
AcDbLine
 10
5.610217
 20
1.892563
 30
0.0
 11
5.610217
 21
0.541681
 31
0.0
  0
LINE
  5
23e
100
AcDbEntity
  8
Layer_1
 62
3
100
AcDbLine
 10
5.610217
 20
0.541681
 30
0.0
 11
5.415761
 21
0.541681
 31
0.0
  0
LINE
  5
23f
100
AcDbEntity
  8
Layer_1
 62
3
100
AcDbLine
 10
5.415761
 20
0.541681
 30
0.0
 11
5.415761
 21
0.157932
 31
0.0
  0
LINE
  5
240
100
AcDbEntity
  8
Layer_1
 62
3
100
AcDbLine
 10
5.415761
 20
0.157932
 30
0.0
 11
5.610217
 21
0.157932
 31
0.0
  0
LINE
  5
241
100
AcDbEntity
  8
Layer_1
 62
3
100
AcDbLine
 10
5.610217
 20
0.157932
 30
0.0
 11
6.975703
 21
0.157954
 31
0.0
  0
LINE
  5
242
100
AcDbEntity
  8
Layer_1
 62
3
100
AcDbLine
 10
6.975703
 20
0.157954
 30
0.0
 11
7.165571
 21
0.157954
 31
0.0
  0
LINE
  5
243
100
AcDbEntity
  8
Layer_1
 62
3
100
AcDbLine
 10
7.165571
 20
0.157954
 30
0.0
 11
7.165571
 21
0.541703
 31
0.0
  0
LINE
  5
244
100
AcDbEntity
  8
Layer_1
 62
3
100
AcDbLine
 10
7.165571
 20
0.541703
 30
0.0
 11
6.975703
 21
0.541703
 31
0.0
  0
LINE
  5
245
100
AcDbEntity
  8
Layer_1
 62
3
100
AcDbLine
 10
6.975703
 20
0.541703
 30
0.0
 11
6.975703
 21
1.892586
 31
0.0
  0
LINE
  5
246
100
AcDbEntity
  8
Layer_1
 62
3
100
AcDbLine
 10
6.975703
 20
1.892586
 30
0.0
 11
7.165571
 21
1.892585
 31
0.0
  0
LINE
  5
247
100
AcDbEntity
  8
Layer_1
 62
3
100
AcDbLine
 10
7.165571
 20
1.892585
 30
0.0
 11
7.165571
 21
2.276787
 31
0.0
  0
LINE
  5
248
100
AcDbEntity
  8
Layer_1
 62
3
100
AcDbLine
 10
7.165571
 20
2.276787
 30
0.0
 11
6.975703
 21
2.275172
 31
0.0
  0
LINE
  5
249
100
AcDbEntity
  8
Layer_1
 62
3
100
AcDbLine
 10
6.975703
 20
2.275172
 30
0.0
 11
6.975703
 21
3.629693
 31
0.0
  0
LINE
  5
24a
100
AcDbEntity
  8
Layer_1
 62
3
100
AcDbLine
 10
6.135026
 20
1.231063
 30
0.0
 11
5.607056
 21
1.230986
 31
0.0
  0
LINE
  5
24b
100
AcDbEntity
  8
Layer_1
 62
3
100
AcDbLine
 10
6.135026
 20
1.141345
 30
0.0
 11
5.607056
 21
1.141289
 31
0.0
  0
LINE
  5
24c
100
AcDbEntity
  8
Layer_1
 62
3
100
AcDbLine
 10
6.135026
 20
1.052057
 30
0.0
 11
5.607056
 21
1.052002
 31
0.0
  0
LINE
  5
24d
100
AcDbEntity
  8
Layer_1
 62
3
100
AcDbLine
 10
6.135026
 20
0.962770
 30
0.0
 11
5.607056
 21
0.962715
 31
0.0
  0
LINE
  5
24e
100
AcDbEntity
  8
Layer_1
 62
3
100
AcDbLine
 10
6.135026
 20
0.873483
 30
0.0
 11
5.607056
 21
0.873427
 31
0.0
  0
LINE
  5
24f
100
AcDbEntity
  8
Layer_1
 62
3
100
AcDbLine
 10
6.969803
 20
0.873753
 30
0.0
 11
6.378675
 21
0.873675
 31
0.0
  0
LINE
  5
250
100
AcDbEntity
  8
Layer_1
 62
3
100
AcDbLine
 10
6.969803
 20
0.963043
 30
0.0
 11
6.378675
 21
0.963033
 31
0.0
  0
LINE
  5
251
100
AcDbEntity
  8
Layer_1
 62
3
100
AcDbLine
 10
6.969803
 20
1.052334
 30
0.0
 11
6.378675
 21
1.052256
 31
0.0
  0
LINE
  5
252
100
AcDbEntity
  8
Layer_1
 62
3
100
AcDbLine
 10
6.969803
 20
1.141625
 30
0.0
 11
6.378675
 21
1.141547
 31
0.0
  0
LINE
  5
253
100
AcDbEntity
  8
Layer_1
 62
3
100
AcDbLine
 10
6.969803
 20
1.231937
 30
0.0
 11
6.378675
 21
1.231083
 31
0.0
  0
LINE
  5
254
100
AcDbEntity
  8
Layer_1
 62
3
100
AcDbLine
 10
6.857404
 20
1.185698
 30
0.0
 11
5.730698
 21
1.185731
 31
0.0
  0
LINE
  5
255
100
AcDbEntity
  8
Layer_1
 62
3
100
AcDbLine
 10
6.857404
 20
1.096410
 30
0.0
 11
5.730698
 21
1.096444
 31
0.0
  0
LINE
  5
256
100
AcDbEntity
  8
Layer_1
 62
3
100
AcDbLine
 10
6.857404
 20
0.917839
 30
0.0
 11
5.730698
 21
0.917872
 31
0.0
  0
LINE
  5
257
100
AcDbEntity
  8
Layer_1
 62
3
100
AcDbLine
 10
6.857404
 20
1.007133
 30
0.0
 11
5.730698
 21
1.007166
 31
0.0
  0
LINE
  5
258
100
AcDbEntity
  8
Layer_1
 62
3
100
AcDbLine
 10
6.138355
 20
3.274825
 30
0.0
 11
5.610385
 21
3.274747
 31
0.0
  0
LINE
  5
259
100
AcDbEntity
  8
Layer_1
 62
3
100
AcDbLine
 10
6.138355
 20
3.185106
 30
0.0
 11
5.610385
 21
3.185051
 31
0.0
  0
LINE
  5
25a
100
AcDbEntity
  8
Layer_1
 62
3
100
AcDbLine
 10
6.138355
 20
3.095819
 30
0.0
 11
5.610385
 21
3.095764
 31
0.0
  0
LINE
  5
25b
100
AcDbEntity
  8
Layer_1
 62
3
100
AcDbLine
 10
6.138355
 20
3.006532
 30
0.0
 11
5.610385
 21
3.006476
 31
0.0
  0
LINE
  5
25c
100
AcDbEntity
  8
Layer_1
 62
3
100
AcDbLine
 10
6.138355
 20
2.917244
 30
0.0
 11
5.610385
 21
2.917189
 31
0.0
  0
LINE
  5
25d
100
AcDbEntity
  8
Layer_1
 62
3
100
AcDbLine
 10
6.138355
 20
2.827957
 30
0.0
 11
5.610385
 21
2.827902
 31
0.0
  0
LINE
  5
25e
100
AcDbEntity
  8
Layer_1
 62
3
100
AcDbLine
 10
6.973133
 20
2.828224
 30
0.0
 11
6.382005
 21
2.828146
 31
0.0
  0
LINE
  5
25f
100
AcDbEntity
  8
Layer_1
 62
3
100
AcDbLine
 10
6.973133
 20
2.917514
 30
0.0
 11
6.382005
 21
2.917437
 31
0.0
  0
LINE
  5
260
100
AcDbEntity
  8
Layer_1
 62
3
100
AcDbLine
 10
6.973133
 20
3.006805
 30
0.0
 11
6.382005
 21
3.006795
 31
0.0
  0
LINE
  5
261
100
AcDbEntity
  8
Layer_1
 62
3
100
AcDbLine
 10
6.973133
 20
3.096096
 30
0.0
 11
6.382005
 21
3.096018
 31
0.0
  0
LINE
  5
262
100
AcDbEntity
  8
Layer_1
 62
3
100
AcDbLine
 10
6.973133
 20
3.185387
 30
0.0
 11
6.382005
 21
3.185309
 31
0.0
  0
LINE
  5
263
100
AcDbEntity
  8
Layer_1
 62
3
100
AcDbLine
 10
6.973133
 20
3.275699
 30
0.0
 11
6.382005
 21
3.274845
 31
0.0
  0
LINE
  5
264
100
AcDbEntity
  8
Layer_1
 62
3
100
AcDbLine
 10
6.860734
 20
3.229460
 30
0.0
 11
5.734027
 21
3.229493
 31
0.0
  0
LINE
  5
265
100
AcDbEntity
  8
Layer_1
 62
3
100
AcDbLine
 10
6.860734
 20
3.140172
 30
0.0
 11
5.734027
 21
3.140206
 31
0.0
  0
LINE
  5
266
100
AcDbEntity
  8
Layer_1
 62
3
100
AcDbLine
 10
6.860734
 20
2.783013
 30
0.0
 11
5.734027
 21
2.783046
 31
0.0
  0
LINE
  5
267
100
AcDbEntity
  8
Layer_1
 62
3
100
AcDbLine
 10
6.860734
 20
2.872307
 30
0.0
 11
5.734027
 21
2.872340
 31
0.0
  0
LINE
  5
268
100
AcDbEntity
  8
Layer_1
 62
3
100
AcDbLine
 10
6.860734
 20
2.961601
 30
0.0
 11
5.734027
 21
2.961634
 31
0.0
  0
LINE
  5
269
100
AcDbEntity
  8
Layer_1
 62
3
100
AcDbLine
 10
6.860734
 20
3.050895
 30
0.0
 11
5.734027
 21
3.050928
 31
0.0
  0
LINE
  5
26a
100
AcDbEntity
  8
Layer_1
 62
3
100
AcDbLine
 10
6.134399
 20
2.736951
 30
0.0
 11
5.606430
 21
2.736873
 31
0.0
  0
LINE
  5
26b
100
AcDbEntity
  8
Layer_1
 62
3
100
AcDbLine
 10
6.134401
 20
2.647232
 30
0.0
 11
5.606430
 21
2.647177
 31
0.0
  0
LINE
  5
26c
100
AcDbEntity
  8
Layer_1
 62
3
100
AcDbLine
 10
6.134401
 20
2.557945
 30
0.0
 11
5.606430
 21
2.557890
 31
0.0
  0
LINE
  5
26d
100
AcDbEntity
  8
Layer_1
 62
3
100
AcDbLine
 10
6.134401
 20
2.468658
 30
0.0
 11
5.606430
 21
2.468603
 31
0.0
  0
LINE
  5
26e
100
AcDbEntity
  8
Layer_1
 62
3
100
AcDbLine
 10
6.134401
 20
2.379370
 30
0.0
 11
5.606430
 21
2.379315
 31
0.0
  0
LINE
  5
26f
100
AcDbEntity
  8
Layer_1
 62
3
100
AcDbLine
 10
6.969177
 20
2.379640
 30
0.0
 11
6.378049
 21
2.379563
 31
0.0
  0
LINE
  5
270
100
AcDbEntity
  8
Layer_1
 62
3
100
AcDbLine
 10
6.969177
 20
2.468931
 30
0.0
 11
6.378049
 21
2.468921
 31
0.0
  0
LINE
  5
271
100
AcDbEntity
  8
Layer_1
 62
3
100
AcDbLine
 10
6.969177
 20
2.558222
 30
0.0
 11
6.378049
 21
2.558144
 31
0.0
  0
LINE
  5
272
100
AcDbEntity
  8
Layer_1
 62
3
100
AcDbLine
 10
6.969177
 20
2.647513
 30
0.0
 11
6.378049
 21
2.647435
 31
0.0
  0
LINE
  5
273
100
AcDbEntity
  8
Layer_1
 62
3
100
AcDbLine
 10
6.969177
 20
2.737824
 30
0.0
 11
6.378049
 21
2.736971
 31
0.0
  0
LINE
  5
274
100
AcDbEntity
  8
Layer_1
 62
3
100
AcDbLine
 10
6.856778
 20
2.691586
 30
0.0
 11
5.730072
 21
2.691619
 31
0.0
  0
LINE
  5
275
100
AcDbEntity
  8
Layer_1
 62
3
100
AcDbLine
 10
6.856778
 20
2.602298
 30
0.0
 11
5.730072
 21
2.602332
 31
0.0
  0
LINE
  5
276
100
AcDbEntity
  8
Layer_1
 62
3
100
AcDbLine
 10
6.856778
 20
2.423727
 30
0.0
 11
5.730072
 21
2.423760
 31
0.0
  0
LINE
  5
277
100
AcDbEntity
  8
Layer_1
 62
3
100
AcDbLine
 10
6.856778
 20
2.513021
 30
0.0
 11
5.730072
 21
2.513054
 31
0.0
  0
LINE
  5
278
100
AcDbEntity
  8
Layer_1
 62
3
100
AcDbLine
 10
7.758674
 20
2.239034
 30
0.0
 11
7.230704
 21
2.238956
 31
0.0
  0
LINE
  5
279
100
AcDbEntity
  8
Layer_1
 62
3
100
AcDbLine
 10
7.758674
 20
2.149316
 30
0.0
 11
7.230704
 21
2.149260
 31
0.0
  0
LINE
  5
27a
100
AcDbEntity
  8
Layer_1
 62
3
100
AcDbLine
 10
7.758674
 20
2.060029
 30
0.0
 11
7.230704
 21
2.059973
 31
0.0
  0
LINE
  5
27b
100
AcDbEntity
  8
Layer_1
 62
3
100
AcDbLine
 10
7.758674
 20
1.970741
 30
0.0
 11
7.230704
 21
1.970685
 31
0.0
  0
LINE
  5
27c
100
AcDbEntity
  8
Layer_1
 62
3
100
AcDbLine
 10
7.758674
 20
1.881454
 30
0.0
 11
7.230704
 21
1.881398
 31
0.0
  0
LINE
  5
27d
100
AcDbEntity
  8
Layer_1
 62
3
100
AcDbLine
 10
7.758674
 20
1.792167
 30
0.0
 11
7.230704
 21
1.792111
 31
0.0
  0
LINE
  5
27e
100
AcDbEntity
  8
Layer_1
 62
3
100
AcDbLine
 10
8.593452
 20
1.792433
 30
0.0
 11
8.002324
 21
1.792356
 31
0.0
  0
LINE
  5
27f
100
AcDbEntity
  8
Layer_1
 62
3
100
AcDbLine
 10
8.593452
 20
1.881724
 30
0.0
 11
8.002324
 21
1.881646
 31
0.0
  0
LINE
  5
280
100
AcDbEntity
  8
Layer_1
 62
3
100
AcDbLine
 10
8.593452
 20
1.971014
 30
0.0
 11
8.002324
 21
1.971005
 31
0.0
  0
LINE
  5
281
100
AcDbEntity
  8
Layer_1
 62
3
100
AcDbLine
 10
8.593452
 20
2.060305
 30
0.0
 11
8.002324
 21
2.060227
 31
0.0
  0
LINE
  5
282
100
AcDbEntity
  8
Layer_1
 62
3
100
AcDbLine
 10
8.593452
 20
2.149596
 30
0.0
 11
8.002324
 21
2.149518
 31
0.0
  0
LINE
  5
283
100
AcDbEntity
  8
Layer_1
 62
3
100
AcDbLine
 10
8.593452
 20
2.239908
 30
0.0
 11
8.002324
 21
2.239054
 31
0.0
  0
LINE
  5
284
100
AcDbEntity
  8
Layer_1
 62
3
100
AcDbLine
 10
8.481053
 20
2.193669
 30
0.0
 11
7.354346
 21
2.193702
 31
0.0
  0
LINE
  5
285
100
AcDbEntity
  8
Layer_1
 62
3
100
AcDbLine
 10
8.481053
 20
2.104382
 30
0.0
 11
7.354346
 21
2.104415
 31
0.0
  0
LINE
  5
286
100
AcDbEntity
  8
Layer_1
 62
3
100
AcDbLine
 10
8.481053
 20
1.747222
 30
0.0
 11
7.354346
 21
1.747255
 31
0.0
  0
LINE
  5
287
100
AcDbEntity
  8
Layer_1
 62
3
100
AcDbLine
 10
8.481053
 20
1.836516
 30
0.0
 11
7.354346
 21
1.836549
 31
0.0
  0
LINE
  5
288
100
AcDbEntity
  8
Layer_1
 62
3
100
AcDbLine
 10
8.481053
 20
1.925810
 30
0.0
 11
7.354346
 21
1.925843
 31
0.0
  0
LINE
  5
289
100
AcDbEntity
  8
Layer_1
 62
3
100
AcDbLine
 10
8.481053
 20
2.015104
 30
0.0
 11
7.354346
 21
2.015137
 31
0.0
  0
LINE
  5
28a
100
AcDbEntity
  8
Layer_1
 62
3
100
AcDbLine
 10
8.595397
 20
4.099791
 30
0.0
 11
8.785264
 21
4.099791
 31
0.0
  0
LINE
  5
28b
100
AcDbEntity
  8
Layer_1
 62
3
100
AcDbLine
 10
8.785264
 20
4.099791
 30
0.0
 11
8.785264
 21
4.483540
 31
0.0
  0
LINE
  5
28c
100
AcDbEntity
  8
Layer_1
 62
3
100
AcDbLine
 10
8.785264
 20
4.483540
 30
0.0
 11
8.595397
 21
4.483540
 31
0.0
  0
LINE
  5
28d
100
AcDbEntity
  8
Layer_1
 62
3
100
AcDbLine
 10
8.595397
 20
4.483540
 30
0.0
 11
7.229911
 21
4.483518
 31
0.0
  0
LINE
  5
28e
100
AcDbEntity
  8
Layer_1
 62
3
100
AcDbLine
 10
7.229911
 20
4.483518
 30
0.0
 11
7.035455
 21
4.483518
 31
0.0
  0
LINE
  5
28f
100
AcDbEntity
  8
Layer_1
 62
3
100
AcDbLine
 10
7.035455
 20
4.483518
 30
0.0
 11
7.035455
 21
4.099768
 31
0.0
  0
LINE
  5
290
100
AcDbEntity
  8
Layer_1
 62
3
100
AcDbLine
 10
7.035455
 20
4.099768
 30
0.0
 11
7.229911
 21
4.099768
 31
0.0
  0
LINE
  5
291
100
AcDbEntity
  8
Layer_1
 62
3
100
AcDbLine
 10
7.229911
 20
4.099768
 30
0.0
 11
7.229911
 21
2.746864
 31
0.0
  0
LINE
  5
292
100
AcDbEntity
  8
Layer_1
 62
3
100
AcDbLine
 10
7.229911
 20
2.746864
 30
0.0
 11
7.032203
 21
2.746842
 31
0.0
  0
LINE
  5
293
100
AcDbEntity
  8
Layer_1
 62
3
100
AcDbLine
 10
7.032203
 20
2.746842
 30
0.0
 11
7.032203
 21
2.362660
 31
0.0
  0
LINE
  5
294
100
AcDbEntity
  8
Layer_1
 62
3
100
AcDbLine
 10
7.032203
 20
2.362660
 30
0.0
 11
7.229911
 21
2.362660
 31
0.0
  0
LINE
  5
295
100
AcDbEntity
  8
Layer_1
 62
3
100
AcDbLine
 10
7.229911
 20
2.362660
 30
0.0
 11
7.229911
 21
1.011778
 31
0.0
  0
LINE
  5
296
100
AcDbEntity
  8
Layer_1
 62
3
100
AcDbLine
 10
7.229911
 20
1.011778
 30
0.0
 11
7.035455
 21
1.011778
 31
0.0
  0
LINE
  5
297
100
AcDbEntity
  8
Layer_1
 62
3
100
AcDbLine
 10
7.035455
 20
1.011778
 30
0.0
 11
7.035455
 21
0.628029
 31
0.0
  0
LINE
  5
298
100
AcDbEntity
  8
Layer_1
 62
3
100
AcDbLine
 10
7.035455
 20
0.628029
 30
0.0
 11
7.229911
 21
0.628029
 31
0.0
  0
LINE
  5
299
100
AcDbEntity
  8
Layer_1
 62
3
100
AcDbLine
 10
7.229911
 20
0.628029
 30
0.0
 11
8.595397
 21
0.628051
 31
0.0
  0
LINE
  5
29a
100
AcDbEntity
  8
Layer_1
 62
3
100
AcDbLine
 10
8.595397
 20
0.628051
 30
0.0
 11
8.785264
 21
0.628051
 31
0.0
  0
LINE
  5
29b
100
AcDbEntity
  8
Layer_1
 62
3
100
AcDbLine
 10
8.785264
 20
0.628051
 30
0.0
 11
8.785264
 21
1.011801
 31
0.0
  0
LINE
  5
29c
100
AcDbEntity
  8
Layer_1
 62
3
100
AcDbLine
 10
8.785264
 20
1.011801
 30
0.0
 11
8.595397
 21
1.011801
 31
0.0
  0
LINE
  5
29d
100
AcDbEntity
  8
Layer_1
 62
3
100
AcDbLine
 10
8.595397
 20
1.011801
 30
0.0
 11
8.595397
 21
2.362683
 31
0.0
  0
LINE
  5
29e
100
AcDbEntity
  8
Layer_1
 62
3
100
AcDbLine
 10
8.595397
 20
2.362683
 30
0.0
 11
8.785264
 21
2.362682
 31
0.0
  0
LINE
  5
29f
100
AcDbEntity
  8
Layer_1
 62
3
100
AcDbLine
 10
8.785264
 20
2.362682
 30
0.0
 11
8.785264
 21
2.746885
 31
0.0
  0
LINE
  5
2a0
100
AcDbEntity
  8
Layer_1
 62
3
100
AcDbLine
 10
8.785264
 20
2.746885
 30
0.0
 11
8.595396
 21
2.745269
 31
0.0
  0
LINE
  5
2a1
100
AcDbEntity
  8
Layer_1
 62
3
100
AcDbLine
 10
8.595396
 20
2.745269
 30
0.0
 11
8.595397
 21
4.099791
 31
0.0
  0
LINE
  5
2a2
100
AcDbEntity
  8
Layer_1
 62
3
100
AcDbLine
 10
7.754719
 20
1.701160
 30
0.0
 11
7.226749
 21
1.701083
 31
0.0
  0
LINE
  5
2a3
100
AcDbEntity
  8
Layer_1
 62
3
100
AcDbLine
 10
7.754719
 20
1.611442
 30
0.0
 11
7.226749
 21
1.611386
 31
0.0
  0
LINE
  5
2a4
100
AcDbEntity
  8
Layer_1
 62
3
100
AcDbLine
 10
7.754719
 20
1.522155
 30
0.0
 11
7.226749
 21
1.522099
 31
0.0
  0
LINE
  5
2a5
100
AcDbEntity
  8
Layer_1
 62
3
100
AcDbLine
 10
7.754719
 20
1.432867
 30
0.0
 11
7.226749
 21
1.432812
 31
0.0
  0
LINE
  5
2a6
100
AcDbEntity
  8
Layer_1
 62
3
100
AcDbLine
 10
7.754719
 20
1.343580
 30
0.0
 11
7.226749
 21
1.343524
 31
0.0
  0
LINE
  5
2a7
100
AcDbEntity
  8
Layer_1
 62
3
100
AcDbLine
 10
8.589496
 20
1.343850
 30
0.0
 11
7.998369
 21
1.343772
 31
0.0
  0
LINE
  5
2a8
100
AcDbEntity
  8
Layer_1
 62
3
100
AcDbLine
 10
8.589496
 20
1.433140
 30
0.0
 11
7.998369
 21
1.433131
 31
0.0
  0
LINE
  5
2a9
100
AcDbEntity
  8
Layer_1
 62
3
100
AcDbLine
 10
8.589496
 20
1.522431
 30
0.0
 11
7.998369
 21
1.522353
 31
0.0
  0
LINE
  5
2aa
100
AcDbEntity
  8
Layer_1
 62
3
100
AcDbLine
 10
8.589496
 20
1.611722
 30
0.0
 11
7.998369
 21
1.611644
 31
0.0
  0
LINE
  5
2ab
100
AcDbEntity
  8
Layer_1
 62
3
100
AcDbLine
 10
8.589496
 20
1.702034
 30
0.0
 11
7.998369
 21
1.701180
 31
0.0
  0
LINE
  5
2ac
100
AcDbEntity
  8
Layer_1
 62
3
100
AcDbLine
 10
8.477098
 20
1.655795
 30
0.0
 11
7.350391
 21
1.655828
 31
0.0
  0
LINE
  5
2ad
100
AcDbEntity
  8
Layer_1
 62
3
100
AcDbLine
 10
8.477098
 20
1.566508
 30
0.0
 11
7.350391
 21
1.566541
 31
0.0
  0
LINE
  5
2ae
100
AcDbEntity
  8
Layer_1
 62
3
100
AcDbLine
 10
8.477098
 20
1.387936
 30
0.0
 11
7.350391
 21
1.387970
 31
0.0
  0
LINE
  5
2af
100
AcDbEntity
  8
Layer_1
 62
3
100
AcDbLine
 10
8.477098
 20
1.477230
 30
0.0
 11
7.350391
 21
1.477264
 31
0.0
  0
LINE
  5
2b0
100
AcDbEntity
  8
Layer_1
 62
3
100
AcDbLine
 10
7.758048
 20
3.744922
 30
0.0
 11
7.230079
 21
3.744844
 31
0.0
  0
LINE
  5
2b1
100
AcDbEntity
  8
Layer_1
 62
3
100
AcDbLine
 10
7.758049
 20
3.655204
 30
0.0
 11
7.230079
 21
3.655148
 31
0.0
  0
LINE
  5
2b2
100
AcDbEntity
  8
Layer_1
 62
3
100
AcDbLine
 10
7.758049
 20
3.565916
 30
0.0
 11
7.230079
 21
3.565861
 31
0.0
  0
LINE
  5
2b3
100
AcDbEntity
  8
Layer_1
 62
3
100
AcDbLine
 10
7.758049
 20
3.476629
 30
0.0
 11
7.230079
 21
3.476573
 31
0.0
  0
LINE
  5
2b4
100
AcDbEntity
  8
Layer_1
 62
3
100
AcDbLine
 10
7.758049
 20
3.387342
 30
0.0
 11
7.230079
 21
3.387286
 31
0.0
  0
LINE
  5
2b5
100
AcDbEntity
  8
Layer_1
 62
3
100
AcDbLine
 10
7.758049
 20
3.298055
 30
0.0
 11
7.230079
 21
3.297999
 31
0.0
  0
LINE
  5
2b6
100
AcDbEntity
  8
Layer_1
 62
3
100
AcDbLine
 10
8.592826
 20
3.298321
 30
0.0
 11
8.001698
 21
3.298243
 31
0.0
  0
LINE
  5
2b7
100
AcDbEntity
  8
Layer_1
 62
3
100
AcDbLine
 10
8.592826
 20
3.387612
 30
0.0
 11
8.001698
 21
3.387534
 31
0.0
  0
LINE
  5
2b8
100
AcDbEntity
  8
Layer_1
 62
3
100
AcDbLine
 10
8.592826
 20
3.476902
 30
0.0
 11
8.001698
 21
3.476893
 31
0.0
  0
LINE
  5
2b9
100
AcDbEntity
  8
Layer_1
 62
3
100
AcDbLine
 10
8.592826
 20
3.566193
 30
0.0
 11
8.001698
 21
3.566115
 31
0.0
  0
LINE
  5
2ba
100
AcDbEntity
  8
Layer_1
 62
3
100
AcDbLine
 10
8.592826
 20
3.655484
 30
0.0
 11
8.001698
 21
3.655406
 31
0.0
  0
LINE
  5
2bb
100
AcDbEntity
  8
Layer_1
 62
3
100
AcDbLine
 10
8.592826
 20
3.745796
 30
0.0
 11
8.001698
 21
3.744942
 31
0.0
  0
LINE
  5
2bc
100
AcDbEntity
  8
Layer_1
 62
3
100
AcDbLine
 10
8.480427
 20
3.699557
 30
0.0
 11
7.353721
 21
3.699590
 31
0.0
  0
LINE
  5
2bd
100
AcDbEntity
  8
Layer_1
 62
3
100
AcDbLine
 10
8.480427
 20
3.610269
 30
0.0
 11
7.353721
 21
3.610303
 31
0.0
  0
LINE
  5
2be
100
AcDbEntity
  8
Layer_1
 62
3
100
AcDbLine
 10
8.480427
 20
3.253110
 30
0.0
 11
7.353721
 21
3.253143
 31
0.0
  0
LINE
  5
2bf
100
AcDbEntity
  8
Layer_1
 62
3
100
AcDbLine
 10
8.480427
 20
3.342404
 30
0.0
 11
7.353721
 21
3.342437
 31
0.0
  0
LINE
  5
2c0
100
AcDbEntity
  8
Layer_1
 62
3
100
AcDbLine
 10
8.480427
 20
3.431698
 30
0.0
 11
7.353721
 21
3.431731
 31
0.0
  0
LINE
  5
2c1
100
AcDbEntity
  8
Layer_1
 62
3
100
AcDbLine
 10
8.480427
 20
3.520992
 30
0.0
 11
7.353721
 21
3.521025
 31
0.0
  0
LINE
  5
2c2
100
AcDbEntity
  8
Layer_1
 62
3
100
AcDbLine
 10
7.754093
 20
3.207048
 30
0.0
 11
7.226123
 21
3.206970
 31
0.0
  0
LINE
  5
2c3
100
AcDbEntity
  8
Layer_1
 62
3
100
AcDbLine
 10
7.754093
 20
3.117329
 30
0.0
 11
7.226123
 21
3.117274
 31
0.0
  0
LINE
  5
2c4
100
AcDbEntity
  8
Layer_1
 62
3
100
AcDbLine
 10
7.754093
 20
3.028042
 30
0.0
 11
7.226123
 21
3.027987
 31
0.0
  0
LINE
  5
2c5
100
AcDbEntity
  8
Layer_1
 62
3
100
AcDbLine
 10
7.754093
 20
2.938755
 30
0.0
 11
7.226123
 21
2.938700
 31
0.0
  0
LINE
  5
2c6
100
AcDbEntity
  8
Layer_1
 62
3
100
AcDbLine
 10
7.754093
 20
2.849468
 30
0.0
 11
7.226123
 21
2.849412
 31
0.0
  0
LINE
  5
2c7
100
AcDbEntity
  8
Layer_1
 62
3
100
AcDbLine
 10
8.588871
 20
2.849738
 30
0.0
 11
7.997743
 21
2.849660
 31
0.0
  0
LINE
  5
2c8
100
AcDbEntity
  8
Layer_1
 62
3
100
AcDbLine
 10
8.588871
 20
2.939028
 30
0.0
 11
7.997743
 21
2.939018
 31
0.0
  0
LINE
  5
2c9
100
AcDbEntity
  8
Layer_1
 62
3
100
AcDbLine
 10
8.588871
 20
3.028319
 30
0.0
 11
7.997743
 21
3.028241
 31
0.0
  0
LINE
  5
2ca
100
AcDbEntity
  8
Layer_1
 62
3
100
AcDbLine
 10
8.588871
 20
3.117610
 30
0.0
 11
7.997743
 21
3.117532
 31
0.0
  0
LINE
  5
2cb
100
AcDbEntity
  8
Layer_1
 62
3
100
AcDbLine
 10
8.588871
 20
3.207921
 30
0.0
 11
7.997743
 21
3.207068
 31
0.0
  0
LINE
  5
2cc
100
AcDbEntity
  8
Layer_1
 62
3
100
AcDbLine
 10
8.476472
 20
3.161683
 30
0.0
 11
7.349765
 21
3.161716
 31
0.0
  0
LINE
  5
2cd
100
AcDbEntity
  8
Layer_1
 62
3
100
AcDbLine
 10
8.476472
 20
3.072395
 30
0.0
 11
7.349765
 21
3.072429
 31
0.0
  0
LINE
  5
2ce
100
AcDbEntity
  8
Layer_1
 62
3
100
AcDbLine
 10
8.476472
 20
2.893824
 30
0.0
 11
7.349765
 21
2.893857
 31
0.0
  0
LINE
  5
2cf
100
AcDbEntity
  8
Layer_1
 62
3
100
AcDbLine
 10
8.476472
 20
2.983118
 30
0.0
 11
7.349765
 21
2.983151
 31
0.0
  0
LINE
  5
2d0
100
AcDbEntity
  8
Layer_1
 62
3
100
AcDbLine
 10
0.721749
 20
1.493598
 30
0.0
 11
0.600719
 21
1.494443
 31
0.0
  0
LINE
  5
2d1
100
AcDbEntity
  8
Layer_1
 62
3
100
AcDbLine
 10
0.600719
 20
1.494443
 30
0.0
 11
0.599878
 21
1.373988
 31
0.0
  0
LINE
  5
2d2
100
AcDbEntity
  8
Layer_1
 62
3
100
AcDbLine
 10
0.599878
 20
1.373988
 30
0.0
 11
0.404856
 21
1.375350
 31
0.0
  0
LINE
  5
2d3
100
AcDbEntity
  8
Layer_1
 62
3
100
AcDbLine
 10
0.404856
 20
1.375350
 30
0.0
 11
0.405697
 21
1.495804
 31
0.0
  0
LINE
  5
2d4
100
AcDbEntity
  8
Layer_1
 62
3
100
AcDbLine
 10
0.405697
 20
1.495804
 30
0.0
 11
0.284668
 21
1.496651
 31
0.0
  0
LINE
  5
2d5
100
AcDbEntity
  8
Layer_1
 62
3
100
AcDbLine
 10
0.284668
 20
1.496651
 30
0.0
 11
0.286030
 21
1.691674
 31
0.0
  0
LINE
  5
2d6
100
AcDbEntity
  8
Layer_1
 62
3
100
AcDbLine
 10
0.286030
 20
1.691674
 30
0.0
 11
0.407059
 21
1.690829
 31
0.0
  0
LINE
  5
2d7
100
AcDbEntity
  8
Layer_1
 62
3
100
AcDbLine
 10
0.407059
 20
1.690829
 30
0.0
 11
0.407904
 21
1.811858
 31
0.0
  0
LINE
  5
2d8
100
AcDbEntity
  8
Layer_1
 62
3
100
AcDbLine
 10
0.407904
 20
1.811858
 30
0.0
 11
0.602926
 21
1.810496
 31
0.0
  0
LINE
  5
2d9
100
AcDbEntity
  8
Layer_1
 62
3
100
AcDbLine
 10
0.602926
 20
1.810496
 30
0.0
 11
0.602082
 21
1.689467
 31
0.0
  0
LINE
  5
2da
100
AcDbEntity
  8
Layer_1
 62
3
100
AcDbLine
 10
0.602082
 20
1.689467
 30
0.0
 11
0.723111
 21
1.688623
 31
0.0
  0
LINE
  5
2db
100
AcDbEntity
  8
Layer_1
 62
3
100
AcDbLine
 10
0.723111
 20
1.688623
 30
0.0
 11
0.721749
 21
1.493599
 31
0.0
  0
LINE
  5
2dc
100
AcDbEntity
  8
Layer_1
 62
3
100
AcDbLine
 10
0.721749
 20
1.493599
 30
0.0
 11
0.721749
 21
1.493598
 31
0.0
  0
LINE
  5
2dd
100
AcDbEntity
  8
Layer_1
 62
3
100
AcDbLine
 10
0.739411
 20
0.538930
 30
0.0
 11
0.618382
 21
0.539774
 31
0.0
  0
LINE
  5
2de
100
AcDbEntity
  8
Layer_1
 62
3
100
AcDbLine
 10
0.618382
 20
0.539774
 30
0.0
 11
0.617540
 21
0.419319
 31
0.0
  0
LINE
  5
2df
100
AcDbEntity
  8
Layer_1
 62
3
100
AcDbLine
 10
0.617540
 20
0.419319
 30
0.0
 11
0.422518
 21
0.420681
 31
0.0
  0
LINE
  5
2e0
100
AcDbEntity
  8
Layer_1
 62
3
100
AcDbLine
 10
0.422518
 20
0.420681
 30
0.0
 11
0.423359
 21
0.541136
 31
0.0
  0
LINE
  5
2e1
100
AcDbEntity
  8
Layer_1
 62
3
100
AcDbLine
 10
0.423359
 20
0.541136
 30
0.0
 11
0.302330
 21
0.541982
 31
0.0
  0
LINE
  5
2e2
100
AcDbEntity
  8
Layer_1
 62
3
100
AcDbLine
 10
0.302330
 20
0.541982
 30
0.0
 11
0.303692
 21
0.737005
 31
0.0
  0
LINE
  5
2e3
100
AcDbEntity
  8
Layer_1
 62
3
100
AcDbLine
 10
0.303692
 20
0.737005
 30
0.0
 11
0.424722
 21
0.736161
 31
0.0
  0
LINE
  5
2e4
100
AcDbEntity
  8
Layer_1
 62
3
100
AcDbLine
 10
0.424722
 20
0.736161
 30
0.0
 11
0.425566
 21
0.857190
 31
0.0
  0
LINE
  5
2e5
100
AcDbEntity
  8
Layer_1
 62
3
100
AcDbLine
 10
0.425566
 20
0.857190
 30
0.0
 11
0.620588
 21
0.855828
 31
0.0
  0
LINE
  5
2e6
100
AcDbEntity
  8
Layer_1
 62
3
100
AcDbLine
 10
0.620588
 20
0.855828
 30
0.0
 11
0.619744
 21
0.734799
 31
0.0
  0
LINE
  5
2e7
100
AcDbEntity
  8
Layer_1
 62
3
100
AcDbLine
 10
0.619744
 20
0.734799
 30
0.0
 11
0.740774
 21
0.733954
 31
0.0
  0
LINE
  5
2e8
100
AcDbEntity
  8
Layer_1
 62
3
100
AcDbLine
 10
0.740774
 20
0.733954
 30
0.0
 11
0.739412
 21
0.538931
 31
0.0
  0
LINE
  5
2e9
100
AcDbEntity
  8
Layer_1
 62
3
100
AcDbLine
 10
0.739412
 20
0.538931
 30
0.0
 11
0.739411
 21
0.538930
 31
0.0
  0
ENDSEC
  0
SECTION
  2
OBJECTS
  0
DICTIONARY
  5
C
330
0
100
AcDbDictionary
  3
ACAD_GROUP
350
D
  3
ACAD_MLINESTYLE
350
17
  0
DICTIONARY
  5
D
330
C
100
AcDbDictionary
  0
DICTIONARY
  5
1A
330
C
100
AcDbDictionary
  0
DICTIONARY
  5
17
330
C
100
AcDbDictionary
  3
STANDARD
350
18
  0
DICTIONARY
  5
19
330
C
100
AcDbDictionary
  0
ENDSEC
  0
EOF
