  0
SECTION
  2
HEADER
  9
$ACADVER
  1
AC1014
  9
$HANDSEED
  5
FFFF
  9
$MEASUREMENT
 70
     1
  0
ENDSEC
  0
SECTION
  2
TABLES
  0
TABLE
  2
VPORT
  5
8
330
0
100
AcDbSymbolTable
 70
     4
  0
VPORT
  5
2E
330
8
100
AcDbSymbolTableRecord
100
AcDbViewportTableRecord
  2
*ACTIVE
 70
     0
 10
0.0
 20
0.0
 11
1.0
 21
1.0
 12
210.0
 22
148.5
 13
0.0
 23
0.0
 14
10.0
 24
10.0
 15
10.0
 25
10.0
 16
0.0
 26
0.0
 36
1.0
 17
0.0
 27
0.0
 37
0.0
 40
341.0
 41
1.24
 42
50.0
 43
0.0
 44
0.0
 50
0.0
 51
0.0
 71
     0
 72
   100
 73
     1
 74
     3
 75
     0
 76
     0
 77
     0
 78
     0
  0
ENDTAB
  0
TABLE
  2
LTYPE
  5
5
330
0
100
AcDbSymbolTable
 70
     1
  0
LTYPE
  5
14
330
5
100
AcDbSymbolTableRecord
100
AcDbLinetypeTableRecord
  2
BYBLOCK
 70
     0
  3

 72
    65
 73
     0
 40
0.0
  0
LTYPE
  5
15
330
5
100
AcDbSymbolTableRecord
100
AcDbLinetypeTableRecord
  2
BYLAYER
 70
     0
  3

 72
    65
 73
     0
 40
0.0
  0
LTYPE
  5
16
330
5
100
AcDbSymbolTableRecord
100
AcDbLinetypeTableRecord
  2
CONTINUOUS
 70
     0
  3
Solid line
 72
    65
 73
     0
 40
0.0
  0
ENDTAB
  0
TABLE
  2
LAYER
  5
2
100
AcDbSymbolTable
 70
2
  0
LAYER
  5
50
100
AcDbSymbolTableRecord
100
AcDbLayerTableRecord
  2
0
 70
0
  6
CONTINUOUS
  0
LAYER
  5
51
100
AcDbSymbolTableRecord
100
AcDbLayerTableRecord
  2
Layer_1
 70
0
  6
CONTINUOUS
  0
ENDTAB
  0
TABLE
  2
STYLE
  5
3
330
0
100
AcDbSymbolTable
 70
     1
  0
STYLE
  5
11
330
3
100
AcDbSymbolTableRecord
100
AcDbTextStyleTableRecord
  2
STANDARD
 70
     0
 40
0.0
 41
1.0
 50
0.0
 71
     0
 42
2.5
  3
txt
  4

  0
ENDTAB
  0
TABLE
  2
VIEW
  5
6
330
0
100
AcDbSymbolTable
 70
     0
  0
ENDTAB
  0
TABLE
  2
UCS
  5
7
330
0
100
AcDbSymbolTable
 70
     0
  0
ENDTAB
  0
TABLE
  2
APPID
  5
9
330
0
100
AcDbSymbolTable
 70
     2
  0
APPID
  5
12
330
9
100
AcDbSymbolTableRecord
100
AcDbRegAppTableRecord
  2
ACAD
 70
     0
  0
ENDTAB
  0
TABLE
  2
DIMSTYLE
  5
A
330
0
100
AcDbSymbolTable
 70
     1
  0
DIMSTYLE
105
27
330
A
100
AcDbSymbolTableRecord
100
AcDbDimStyleTableRecord
  2
ISO-25
 70
     0
  3

  4

  5

  6

  7

 40
1.0
 41
2.5
 42
0.625
 43
3.75
 44
1.25
 45
0.0
 46
0.0
 47
0.0
 48
0.0
140
2.5
141
2.5
142
0.0
143
0.03937007874016
144
1.0
145
0.0
146
1.0
147
0.625
 71
     0
 72
     0
 73
     0
 74
     0
 75
     0
 76
     0
 77
     1
 78
     8
170
     0
171
     3
172
     1
173
     0
174
     0
175
     0
176
     0
177
     0
178
     0
270
     2
271
     2
272
     2
273
     2
274
     3
340
11
275
     0
280
     0
281
     0
282
     0
283
     0
284
     8
285
     0
286
     0
287
     3
288
     0
  0
ENDTAB
  0
TABLE
  2
BLOCK_RECORD
  5
1
330
0
100
AcDbSymbolTable
 70
     1
  0
BLOCK_RECORD
  5
1F
330
1
100
AcDbSymbolTableRecord
100
AcDbBlockTableRecord
  2
*MODEL_SPACE
  0
BLOCK_RECORD
  5
1B
330
1
100
AcDbSymbolTableRecord
100
AcDbBlockTableRecord
  2
*PAPER_SPACE
  0
ENDTAB
  0
ENDSEC
  0
SECTION
  2
BLOCKS
  0
BLOCK
  5
20
330
1F
100
AcDbEntity
  8
0
100
AcDbBlockBegin
  2
*MODEL_SPACE
 70
     0
 10
0.0
 20
0.0
 30
0.0
  3
*MODEL_SPACE
  1

  0
ENDBLK
  5
21
330
1F
100
AcDbEntity
  8
0
100
AcDbBlockEnd
  0
BLOCK
  5
1C
330
1B
100
AcDbEntity
 67
     1
  8
0
100
AcDbBlockBegin
  2
*PAPER_SPACE
  1

  0
ENDBLK
  5
1D
330
1B
100
AcDbEntity
 67
     1
  8
0
100
AcDbBlockEnd
  0
ENDSEC
  0
SECTION
  2
ENTITIES
  0
LWPOLYLINE
  5
100
100
AcDbEntity
  8
Layer_1
 62
1
100
AcDbPolyline
 90
5
 70
1
 10
2.959311
 20
2.592620
 30
0.0
 10
2.989431
 20
2.592620
 30
0.0
 10
2.989431
 20
2.592620
 30
0.0
 10
2.959311
 20
2.592620
 30
0.0
 10
2.959311
 20
2.592620
 30
0.0
  0
SPLINE
  5
101
100
AcDbEntity
  8
Layer_1
 62
3
100
AcDbSpline
 70
0
 71
3
 72
13
 73
9
 74
7
 40
0.000000
 40
0.000000
 40
0.000000
 40
0.000000
 40
0.135926
 40
0.283338
 40
0.453430
 40
0.629542
 40
0.795007
 40
0.868877
 40
0.868877
 40
0.868877
 40
0.868877
 10
4.933051
 20
11.859093
 30
0.0
 10
4.887464
 20
11.854629
 30
0.0
 10
4.792438
 20
11.845325
 30
0.0
 10
4.659308
 20
11.766522
 30
0.0
 10
4.537300
 20
11.654066
 30
0.0
 10
4.451706
 20
11.504204
 30
0.0
 10
4.400497
 20
11.375494
 30
0.0
 10
4.376271
 20
11.299464
 30
0.0
 10
4.368793
 20
11.275998
 30
0.0
 11
4.933051
 21
11.859093
 31
0.0
 11
4.799014
 21
11.836511
 31
0.0
 11
4.669145
 21
11.766766
 31
0.0
 11
4.545464
 21
11.650000
 31
0.0
 11
4.453922
 21
11.499549
 31
0.0
 11
4.391728
 21
11.346218
 31
0.0
 11
4.368793
 21
11.275998
 31
0.0
  0
LWPOLYLINE
  5
102
100
AcDbEntity
  8
Layer_1
 62
3
100
AcDbPolyline
 90
5
 70
1
 10
4.368793
 20
11.275998
 30
0.0
 10
4.410851
 20
10.800716
 30
0.0
 10
4.469184
 20
10.141819
 30
0.0
 10
5.074913
 20
3.298220
 30
0.0
 10
5.090039
 20
3.176215
 30
0.0
  0
SPLINE
  5
103
100
AcDbEntity
  8
Layer_1
 62
3
100
AcDbSpline
 70
0
 71
3
 72
13
 73
9
 74
7
 40
0.000000
 40
0.000000
 40
0.000000
 40
0.000000
 40
0.030328
 40
0.068305
 40
0.102332
 40
0.146822
 40
0.189942
 40
0.234396
 40
0.234396
 40
0.234396
 40
0.234396
 10
5.090039
 20
3.176215
 30
0.0
 10
5.098079
 20
3.182572
 30
0.0
 10
5.116187
 20
3.196890
 30
0.0
 10
5.150665
 20
3.202913
 30
0.0
 10
5.188856
 20
3.209321
 30
0.0
 10
5.230270
 20
3.201695
 30
0.0
 10
5.265807
 20
3.170736
 30
0.0
 10
5.271977
 20
3.141536
 30
0.0
 10
5.275109
 20
3.126714
 30
0.0
 11
5.090039
 21
3.176215
 31
0.0
 11
5.115126
 21
3.193257
 31
0.0
 11
5.151814
 21
3.203068
 31
0.0
 11
5.185612
 21
3.207010
 31
0.0
 11
5.229124
 21
3.197729
 31
0.0
 11
5.261231
 21
3.168947
 31
0.0
 11
5.275109
 21
3.126714
 31
0.0
  0
LWPOLYLINE
  5
104
100
AcDbEntity
  8
Layer_1
 62
3
100
AcDbPolyline
 90
13
 70
1
 10
5.275109
 20
3.126714
 30
0.0
 10
5.275760
 20
3.122635
 30
0.0
 10
5.307248
 20
3.122635
 30
0.0
 10
5.307248
 20
3.068859
 30
0.0
 10
5.284375
 20
3.068859
 30
0.0
 10
5.327995
 20
2.796311
 30
0.0
 10
5.385221
 20
2.793056
 30
0.0
 10
5.382943
 20
3.314280
 30
0.0
 10
5.364627
 20
10.428971
 30
0.0
 10
5.266775
 20
10.428971
 30
0.0
 10
5.266775
 20
10.624089
 30
0.0
 10
5.364084
 20
10.624089
 30
0.0
 10
5.362283
 20
11.330490
 30
0.0
  0
SPLINE
  5
105
100
AcDbEntity
  8
Layer_1
 62
3
100
AcDbSpline
 70
0
 71
3
 72
13
 73
9
 74
7
 40
0.000000
 40
0.000000
 40
0.000000
 40
0.000000
 40
0.069562
 40
0.218855
 40
0.376181
 40
0.527642
 40
0.660553
 40
0.782220
 40
0.782220
 40
0.782220
 40
0.782220
 10
5.362283
 20
11.330490
 30
0.0
 10
5.365112
 20
11.353492
 30
0.0
 10
5.374014
 20
11.425858
 30
0.0
 10
5.372171
 20
11.552875
 30
0.0
 10
5.304461
 20
11.698521
 30
0.0
 10
5.180146
 20
11.782544
 30
0.0
 10
5.059073
 20
11.846611
 30
0.0
 10
4.973803
 20
11.855057
 30
0.0
 10
4.933051
 20
11.859093
 30
0.0
 11
5.362283
 21
11.330490
 31
0.0
 11
5.369764
 21
11.399649
 31
0.0
 11
5.361822
 21
11.548731
 31
0.0
 11
5.292882
 21
11.690148
 31
0.0
 11
5.173575
 21
11.783455
 31
0.0
 11
5.053170
 21
11.839738
 31
0.0
 11
4.933051
 21
11.859093
 31
0.0
  0
LWPOLYLINE
  5
106
100
AcDbEntity
  8
Layer_1
 62
3
100
AcDbPolyline
 90
2
 70
1
 10
4.933051
 20
11.859093
 30
0.0
 10
4.933051
 20
11.859093
 30
0.0
  0
SPLINE
  5
107
100
AcDbEntity
  8
Layer_1
 62
3
100
AcDbSpline
 70
0
 71
3
 72
10
 73
6
 74
4
 40
0.000000
 40
0.000000
 40
0.000000
 40
0.000000
 40
0.300397
 40
0.786841
 40
1.089512
 40
1.089512
 40
1.089512
 40
1.089512
 10
1.217512
 20
3.536842
 30
0.0
 10
1.275056
 20
3.454801
 30
0.0
 10
1.425782
 20
3.239910
 30
0.0
 10
1.693333
 20
2.987481
 30
0.0
 10
1.914925
 20
2.845576
 30
0.0
 10
1.999918
 20
2.791147
 30
0.0
 11
1.217512
 21
3.536842
 31
0.0
 11
1.396337
 21
3.295471
 31
0.0
 11
1.749029
 21
2.960454
 31
0.0
 11
1.999918
 21
2.791147
 31
0.0
  0
LWPOLYLINE
  5
108
100
AcDbEntity
  8
Layer_1
 62
3
100
AcDbPolyline
 90
6
 70
1
 10
1.999918
 20
2.791147
 30
0.0
 10
2.001065
 20
2.791147
 30
0.0
 10
2.001065
 20
2.977571
 30
0.0
 10
2.385384
 20
2.977571
 30
0.0
 10
2.385384
 20
2.791147
 30
0.0
 10
2.973909
 20
2.791147
 30
0.0
  0
SPLINE
  5
109
100
AcDbEntity
  8
Layer_1
 62
3
100
AcDbSpline
 70
0
 71
3
 72
10
 73
6
 74
4
 40
0.000000
 40
0.000000
 40
0.000000
 40
0.000000
 40
0.163127
 40
0.365710
 40
0.508503
 40
0.508503
 40
0.508503
 40
0.508503
 10
2.973909
 20
2.791147
 30
0.0
 10
3.027369
 20
2.799083
 30
0.0
 10
3.147218
 20
2.816873
 30
0.0
 10
3.317223
 20
2.864679
 30
0.0
 10
3.396345
 20
2.950636
 30
0.0
 10
3.429058
 20
2.986175
 30
0.0
 11
2.973909
 21
2.791147
 31
0.0
 11
3.134768
 21
2.818255
 31
0.0
 11
3.324708
 21
2.888702
 31
0.0
 11
3.429058
 21
2.986175
 31
0.0
  0
LWPOLYLINE
  5
10a
100
AcDbEntity
  8
Layer_1
 62
3
100
AcDbPolyline
 90
6
 70
1
 10
3.429058
 20
2.986175
 30
0.0
 10
3.429058
 20
3.574700
 30
0.0
 10
3.278198
 20
3.574700
 30
0.0
 10
3.278198
 20
3.959019
 30
0.0
 10
3.429058
 20
3.959019
 30
0.0
 10
3.429058
 20
4.547544
 30
0.0
  0
SPLINE
  5
10b
100
AcDbEntity
  8
Layer_1
 62
3
100
AcDbSpline
 70
0
 71
3
 72
10
 73
6
 74
4
 40
0.000000
 40
0.000000
 40
0.000000
 40
0.000000
 40
0.136218
 40
0.343478
 40
0.511630
 40
0.511630
 40
0.511630
 40
0.511630
 10
3.429058
 20
4.547544
 30
0.0
 10
3.400076
 20
4.583725
 30
0.0
 10
3.326999
 20
4.674955
 30
0.0
 10
3.151504
 20
4.716746
 30
0.0
 10
3.028848
 20
4.734583
 30
0.0
 10
2.973909
 20
4.742572
 30
0.0
 11
3.429058
 21
4.547544
 31
0.0
 11
3.335077
 21
4.646150
 31
0.0
 11
3.139953
 21
4.716031
 31
0.0
 11
2.973909
 21
4.742572
 31
0.0
  0
LWPOLYLINE
  5
10c
100
AcDbEntity
  8
Layer_1
 62
3
100
AcDbPolyline
 90
6
 70
1
 10
2.973909
 20
4.742572
 30
0.0
 10
2.385384
 20
4.742572
 30
0.0
 10
2.385384
 20
4.556148
 30
0.0
 10
2.001065
 20
4.556148
 30
0.0
 10
2.001065
 20
4.742572
 30
0.0
 10
1.999918
 20
4.742572
 30
0.0
  0
SPLINE
  5
10d
100
AcDbEntity
  8
Layer_1
 62
3
100
AcDbSpline
 70
0
 71
3
 72
10
 73
6
 74
4
 40
0.000000
 40
0.000000
 40
0.000000
 40
0.000000
 40
0.302671
 40
0.789116
 40
1.089512
 40
1.089512
 40
1.089512
 40
1.089512
 10
1.999918
 20
4.742572
 30
0.0
 10
1.914925
 20
4.688143
 30
0.0
 10
1.693333
 20
4.546238
 30
0.0
 10
1.425782
 20
4.293809
 30
0.0
 10
1.275056
 20
4.078918
 30
0.0
 10
1.217512
 20
3.996878
 30
0.0
 11
1.999918
 21
4.742572
 31
0.0
 11
1.749029
 21
4.573265
 31
0.0
 11
1.396337
 21
4.238248
 31
0.0
 11
1.217512
 21
3.996878
 31
0.0
  0
LWPOLYLINE
  5
10e
100
AcDbEntity
  8
Layer_1
 62
3
100
AcDbPolyline
 90
2
 70
1
 10
1.217512
 20
3.996878
 30
0.0
 10
1.217512
 20
3.536842
 30
0.0
  0
SPLINE
  5
10f
100
AcDbEntity
  8
Layer_1
 62
3
100
AcDbSpline
 70
0
 71
3
 72
10
 73
6
 74
4
 40
0.000000
 40
0.000000
 40
0.000000
 40
0.000000
 40
0.300397
 40
0.786841
 40
1.089512
 40
1.089512
 40
1.089512
 40
1.089512
 10
3.429057
 20
8.438922
 30
0.0
 10
3.371514
 20
8.520962
 30
0.0
 10
3.220788
 20
8.735854
 30
0.0
 10
2.953237
 20
8.988283
 30
0.0
 10
2.731645
 20
9.130188
 30
0.0
 10
2.646652
 20
9.184617
 30
0.0
 11
3.429057
 21
8.438922
 31
0.0
 11
3.250233
 21
8.680293
 31
0.0
 11
2.897540
 21
9.015310
 31
0.0
 11
2.646652
 21
9.184617
 31
0.0
  0
LWPOLYLINE
  5
110
100
AcDbEntity
  8
Layer_1
 62
3
100
AcDbPolyline
 90
6
 70
1
 10
2.646652
 20
9.184617
 30
0.0
 10
2.645505
 20
9.184617
 30
0.0
 10
2.645505
 20
8.998193
 30
0.0
 10
2.261185
 20
8.998193
 30
0.0
 10
2.261185
 20
9.184617
 30
0.0
 10
1.672660
 20
9.184617
 30
0.0
  0
SPLINE
  5
111
100
AcDbEntity
  8
Layer_1
 62
3
100
AcDbSpline
 70
0
 71
3
 72
10
 73
6
 74
4
 40
0.000000
 40
0.000000
 40
0.000000
 40
0.000000
 40
0.163127
 40
0.365710
 40
0.508503
 40
0.508503
 40
0.508503
 40
0.508503
 10
1.672660
 20
9.184617
 30
0.0
 10
1.619201
 20
9.176681
 30
0.0
 10
1.499352
 20
9.158891
 30
0.0
 10
1.329346
 20
9.111085
 30
0.0
 10
1.250224
 20
9.025128
 30
0.0
 10
1.217512
 20
8.989589
 30
0.0
 11
1.672660
 21
9.184617
 31
0.0
 11
1.511801
 21
9.157509
 31
0.0
 11
1.321862
 21
9.087062
 31
0.0
 11
1.217512
 21
8.989589
 31
0.0
  0
LWPOLYLINE
  5
112
100
AcDbEntity
  8
Layer_1
 62
3
100
AcDbPolyline
 90
6
 70
1
 10
1.217512
 20
8.989589
 30
0.0
 10
1.217512
 20
8.401064
 30
0.0
 10
1.368372
 20
8.401064
 30
0.0
 10
1.368372
 20
8.016745
 30
0.0
 10
1.217512
 20
8.016745
 30
0.0
 10
1.217512
 20
7.428220
 30
0.0
  0
SPLINE
  5
113
100
AcDbEntity
  8
Layer_1
 62
3
100
AcDbSpline
 70
0
 71
3
 72
10
 73
6
 74
4
 40
0.000000
 40
0.000000
 40
0.000000
 40
0.000000
 40
0.136218
 40
0.343478
 40
0.511630
 40
0.511630
 40
0.511630
 40
0.511630
 10
1.217512
 20
7.428220
 30
0.0
 10
1.246493
 20
7.392039
 30
0.0
 10
1.319570
 20
7.300809
 30
0.0
 10
1.495066
 20
7.259018
 30
0.0
 10
1.617721
 20
7.241181
 30
0.0
 10
1.672660
 20
7.233192
 30
0.0
 11
1.217512
 21
7.428220
 31
0.0
 11
1.311492
 21
7.329614
 31
0.0
 11
1.506616
 21
7.259733
 31
0.0
 11
1.672660
 21
7.233192
 31
0.0
  0
LWPOLYLINE
  5
114
100
AcDbEntity
  8
Layer_1
 62
3
100
AcDbPolyline
 90
6
 70
1
 10
1.672660
 20
7.233192
 30
0.0
 10
2.261185
 20
7.233192
 30
0.0
 10
2.261185
 20
7.419615
 30
0.0
 10
2.645505
 20
7.419615
 30
0.0
 10
2.645505
 20
7.233192
 30
0.0
 10
2.646652
 20
7.233192
 30
0.0
  0
LWPOLYLINE
  5
115
100
AcDbEntity
  8
Layer_1
 62
3
100
AcDbPolyline
 90
2
 70
1
 10
3.429057
 20
7.978886
 30
0.0
 10
3.429057
 20
8.438922
 30
0.0
  0
LWPOLYLINE
  5
116
100
AcDbEntity
  8
Layer_1
 62
3
100
AcDbPolyline
 90
22
 70
1
 10
5.433258
 20
4.753312
 30
0.0
 10
5.653284
 20
4.753312
 30
0.0
 10
5.653284
 20
4.558305
 30
0.0
 10
7.839350
 20
4.558305
 30
0.0
 10
7.839350
 20
4.753312
 30
0.0
 10
8.059376
 20
4.753312
 30
0.0
 10
8.059376
 20
5.137018
 30
0.0
 10
7.839350
 20
5.137018
 30
0.0
 10
7.839350
 20
11.275164
 30
0.0
 10
8.059376
 20
11.275164
 30
0.0
 10
8.059376
 20
11.658870
 30
0.0
 10
7.839350
 20
11.658870
 30
0.0
 10
7.839350
 20
11.858465
 30
0.0
 10
5.653284
 20
11.858465
 30
0.0
 10
5.653284
 20
11.658870
 30
0.0
 10
5.433258
 20
11.658870
 30
0.0
 10
5.433258
 20
11.275164
 30
0.0
 10
5.653284
 20
11.275164
 30
0.0
 10
5.653284
 20
5.137018
 30
0.0
 10
5.433258
 20
5.137018
 30
0.0
 10
5.433258
 20
4.753312
 30
0.0
 10
5.433258
 20
4.753312
 30
0.0
  0
LWPOLYLINE
  5
117
100
AcDbEntity
  8
Layer_1
 62
3
100
AcDbPolyline
 90
18
 70
1
 10
3.841186
 20
9.429627
 30
0.0
 10
3.841186
 20
10.178625
 30
0.0
 10
3.832016
 20
10.178625
 30
0.0
 10
3.832016
 20
10.430514
 30
0.0
 10
3.841186
 20
10.430514
 30
0.0
 10
3.841186
 20
11.179513
 30
0.0
 10
3.403875
 20
11.179513
 30
0.0
 10
3.403875
 20
10.430514
 30
0.0
 10
3.413045
 20
10.430514
 30
0.0
 10
3.413045
 20
10.178625
 30
0.0
 10
3.403875
 20
10.178625
 30
0.0
 10
3.403875
 20
9.429627
 30
0.0
 10
3.528248
 20
9.429627
 30
0.0
 10
3.528248
 20
10.302347
 30
0.0
 10
3.716240
 20
10.302347
 30
0.0
 10
3.716240
 20
9.429627
 30
0.0
 10
3.841186
 20
9.429627
 30
0.0
 10
3.841186
 20
9.429627
 30
0.0
  0
LWPOLYLINE
  5
118
100
AcDbEntity
  8
Layer_1
 62
3
100
AcDbPolyline
 90
18
 70
1
 10
4.318045
 20
9.429627
 30
0.0
 10
4.318045
 20
10.178625
 30
0.0
 10
4.308874
 20
10.178625
 30
0.0
 10
4.308874
 20
10.430514
 30
0.0
 10
4.318045
 20
10.430514
 30
0.0
 10
4.318045
 20
11.179513
 30
0.0
 10
3.880733
 20
11.179513
 30
0.0
 10
3.880733
 20
10.430514
 30
0.0
 10
3.889904
 20
10.430514
 30
0.0
 10
3.889904
 20
10.178625
 30
0.0
 10
3.880733
 20
10.178625
 30
0.0
 10
3.880733
 20
9.429627
 30
0.0
 10
4.005106
 20
9.429627
 30
0.0
 10
4.005106
 20
10.302347
 30
0.0
 10
4.193099
 20
10.302347
 30
0.0
 10
4.193099
 20
9.429627
 30
0.0
 10
4.318045
 20
9.429627
 30
0.0
 10
4.318045
 20
9.429627
 30
0.0
  0
SPLINE
  5
119
100
AcDbEntity
  8
Layer_1
 62
3
100
AcDbSpline
 70
0
 71
3
 72
10
 73
6
 74
4
 40
0.000000
 40
0.000000
 40
0.000000
 40
0.000000
 40
0.302671
 40
0.789116
 40
1.089512
 40
1.089512
 40
1.089512
 40
1.089512
 10
2.646652
 20
7.233192
 30
0.0
 10
2.731645
 20
7.287621
 30
0.0
 10
2.953237
 20
7.429526
 30
0.0
 10
3.220788
 20
7.681955
 30
0.0
 10
3.371514
 20
7.896846
 30
0.0
 10
3.429057
 20
7.978886
 30
0.0
 11
2.646652
 21
7.233192
 31
0.0
 11
2.897540
 21
7.402499
 31
0.0
 11
3.250233
 21
7.737516
 31
0.0
 11
3.429057
 21
7.978886
 31
0.0
  0
LWPOLYLINE
  5
11a
100
AcDbEntity
  8
Layer_1
 62
3
100
AcDbPolyline
 90
2
 70
1
 10
0.717055
 20
5.342409
 30
0.0
 10
3.732456
 20
8.100790
 30
0.0
  0
LWPOLYLINE
  5
11b
100
AcDbEntity
  8
Layer_1
 62
3
100
AcDbPolyline
 90
4
 70
1
 10
3.732456
 20
8.317020
 30
0.0
 10
0.717055
 20
11.075401
 30
0.0
 10
0.717055
 20
8.208906
 30
0.0
 10
0.717055
 20
5.342409
 30
0.0
  0
SPLINE
  5
11c
100
AcDbEntity
  8
Layer_1
 62
3
100
AcDbSpline
 70
0
 71
3
 72
19
 73
15
 74
13
 40
0.000000
 40
0.000000
 40
0.000000
 40
0.000000
 40
0.004122
 40
0.013190
 40
0.022258
 40
0.066986
 40
0.105891
 40
0.123181
 40
0.140471
 40
0.179375
 40
0.224103
 40
0.233171
 40
0.242239
 40
0.246360
 40
0.246360
 40
0.246360
 40
0.246360
 10
3.732456
 20
8.100790
 30
0.0
 10
3.733471
 20
8.101716
 30
0.0
 10
3.736717
 20
8.104682
 30
0.0
 10
3.742156
 20
8.109727
 30
0.0
 10
3.757959
 20
8.123509
 30
0.0
 10
3.774239
 20
8.151283
 30
0.0
 10
3.780838
 20
8.184433
 30
0.0
 10
3.782898
 20
8.208906
 30
0.0
 10
3.780838
 20
8.233379
 30
0.0
 10
3.774239
 20
8.266529
 30
0.0
 10
3.757959
 20
8.294303
 30
0.0
 10
3.742156
 20
8.308084
 30
0.0
 10
3.736717
 20
8.313129
 30
0.0
 10
3.733471
 20
8.316094
 30
0.0
 10
3.732456
 20
8.317020
 30
0.0
 11
3.732456
 21
8.100790
 31
0.0
 11
3.735497
 21
8.103572
 31
0.0
 11
3.742188
 21
8.109693
 31
0.0
 11
3.748879
 21
8.115814
 31
0.0
 11
3.772625
 21
8.153718
 31
0.0
 11
3.781245
 21
8.191655
 31
0.0
 11
3.782413
 21
8.208906
 31
0.0
 11
3.781245
 21
8.226156
 31
0.0
 11
3.772625
 21
8.264094
 31
0.0
 11
3.748879
 21
8.301998
 31
0.0
 11
3.742188
 21
8.308118
 31
0.0
 11
3.735497
 21
8.314238
 31
0.0
 11
3.732456
 21
8.317020
 31
0.0
  0
LWPOLYLINE
  5
11d
100
AcDbEntity
  8
Layer_1
 62
3
100
AcDbPolyline
 90
4
 70
1
 10
0.069435
 20
11.859099
 30
0.0
 10
0.297623
 20
11.859099
 30
0.0
 10
0.717055
 20
11.859099
 30
0.0
 10
4.342242
 20
8.541285
 30
0.0
  0
LWPOLYLINE
  5
11e
100
AcDbEntity
  8
Layer_1
 62
3
100
AcDbPolyline
 90
6
 70
1
 10
4.342242
 20
7.876527
 30
0.0
 10
0.717055
 20
4.558711
 30
0.0
 10
0.297623
 20
4.558711
 30
0.0
 10
0.069435
 20
4.558711
 30
0.0
 10
0.069435
 20
8.208906
 30
0.0
 10
0.069435
 20
11.859099
 30
0.0
  0
LWPOLYLINE
  5
11f
100
AcDbEntity
  8
Layer_1
 62
1
100
AcDbPolyline
 90
14
 70
1
 10
1.834752
 20
3.667598
 30
0.0
 10
1.713723
 20
3.668443
 30
0.0
 10
1.712881
 20
3.547988
 30
0.0
 10
1.517859
 20
3.549350
 30
0.0
 10
1.518700
 20
3.669804
 30
0.0
 10
1.397671
 20
3.670651
 30
0.0
 10
1.399033
 20
3.865674
 30
0.0
 10
1.520062
 20
3.864829
 30
0.0
 10
1.520907
 20
3.985858
 30
0.0
 10
1.715929
 20
3.984496
 30
0.0
 10
1.715085
 20
3.863467
 30
0.0
 10
1.836114
 20
3.862623
 30
0.0
 10
1.834752
 20
3.667600
 30
0.0
 10
1.834752
 20
3.667598
 30
0.0
  0
LWPOLYLINE
  5
120
100
AcDbEntity
  8
Layer_1
 62
1
100
AcDbPolyline
 90
14
 70
1
 10
2.811818
 20
8.308165
 30
0.0
 10
2.932847
 20
8.307321
 30
0.0
 10
2.933688
 20
8.427776
 30
0.0
 10
3.128711
 20
8.426414
 30
0.0
 10
3.127870
 20
8.305960
 30
0.0
 10
3.248899
 20
8.305113
 30
0.0
 10
3.247537
 20
8.110090
 30
0.0
 10
3.126507
 20
8.110935
 30
0.0
 10
3.125663
 20
7.989906
 30
0.0
 10
2.930641
 20
7.991268
 30
0.0
 10
2.931485
 20
8.112297
 30
0.0
 10
2.810455
 20
8.113141
 30
0.0
 10
2.811817
 20
8.308164
 30
0.0
 10
2.811818
 20
8.308165
 30
0.0
  0
LWPOLYLINE
  5
121
100
AcDbEntity
  8
Layer_1
 62
1
100
AcDbPolyline
 90
14
 70
1
 10
5.326289
 20
1.353737
 30
0.0
 10
5.205260
 20
1.354581
 30
0.0
 10
5.204418
 20
1.234126
 30
0.0
 10
5.009396
 20
1.235488
 30
0.0
 10
5.010237
 20
1.355943
 30
0.0
 10
4.889208
 20
1.356789
 30
0.0
 10
4.890570
 20
1.551812
 30
0.0
 10
5.011600
 20
1.550968
 30
0.0
 10
5.012444
 20
1.671997
 30
0.0
 10
5.207466
 20
1.670635
 30
0.0
 10
5.206622
 20
1.549606
 30
0.0
 10
5.327652
 20
1.548761
 30
0.0
 10
5.326290
 20
1.353738
 30
0.0
 10
5.326289
 20
1.353737
 30
0.0
  0
LWPOLYLINE
  5
122
100
AcDbEntity
  8
Layer_1
 62
1
100
AcDbPolyline
 90
14
 70
1
 10
0.714479
 20
2.462816
 30
0.0
 10
0.593450
 20
2.463660
 30
0.0
 10
0.592608
 20
2.343205
 30
0.0
 10
0.397586
 20
2.344567
 30
0.0
 10
0.398427
 20
2.465021
 30
0.0
 10
0.277398
 20
2.465868
 30
0.0
 10
0.278760
 20
2.660891
 30
0.0
 10
0.399790
 20
2.660047
 30
0.0
 10
0.400634
 20
2.781075
 30
0.0
 10
0.595656
 20
2.779713
 30
0.0
 10
0.594812
 20
2.658684
 30
0.0
 10
0.715842
 20
2.657840
 30
0.0
 10
0.714480
 20
2.462817
 30
0.0
 10
0.714479
 20
2.462816
 30
0.0
  0
LWPOLYLINE
  5
123
100
AcDbEntity
  8
Layer_1
 62
1
100
AcDbPolyline
 90
14
 70
1
 10
4.277929
 20
7.984773
 30
0.0
 10
4.192945
 20
8.070951
 30
0.0
 10
4.107176
 20
7.986371
 30
0.0
 10
3.970237
 20
8.125236
 30
0.0
 10
4.056006
 20
8.209815
 30
0.0
 10
3.971024
 20
8.295994
 30
0.0
 10
4.109889
 20
8.432933
 30
0.0
 10
4.194873
 20
8.346755
 30
0.0
 10
4.281050
 20
8.431738
 30
0.0
 10
4.417988
 20
8.292874
 30
0.0
 10
4.331811
 20
8.207890
 30
0.0
 10
4.416795
 20
8.121713
 30
0.0
 10
4.277929
 20
7.984774
 30
0.0
 10
4.277929
 20
7.984773
 30
0.0
  0
LWPOLYLINE
  5
124
100
AcDbEntity
  8
Layer_1
 62
1
100
AcDbPolyline
 90
5
 70
1
 10
0.485071
 20
11.656051
 30
0.0
 10
0.297622
 20
11.656051
 30
0.0
 10
0.297622
 20
11.271977
 30
0.0
 10
0.485071
 20
11.271977
 30
0.0
 10
0.485071
 20
11.656051
 30
0.0
  0
LWPOLYLINE
  5
125
100
AcDbEntity
  8
Layer_1
 62
1
100
AcDbPolyline
 90
5
 70
1
 10
0.485071
 20
4.761758
 30
0.0
 10
0.297622
 20
4.761758
 30
0.0
 10
0.297622
 20
5.145831
 30
0.0
 10
0.485071
 20
5.145831
 30
0.0
 10
0.485071
 20
4.761758
 30
0.0
  0
LWPOLYLINE
  5
126
100
AcDbEntity
  8
Layer_1
 62
1
100
AcDbPolyline
 90
14
 70
1
 10
0.368640
 20
3.542728
 30
0.0
 10
0.453624
 20
3.628906
 30
0.0
 10
0.539393
 20
3.544326
 30
0.0
 10
0.676332
 20
3.683190
 30
0.0
 10
0.590563
 20
3.767770
 30
0.0
 10
0.675545
 20
3.853949
 30
0.0
 10
0.536680
 20
3.990888
 30
0.0
 10
0.451697
 20
3.904710
 30
0.0
 10
0.365519
 20
3.989693
 30
0.0
 10
0.228581
 20
3.850829
 30
0.0
 10
0.314758
 20
3.765846
 30
0.0
 10
0.229774
 20
3.679668
 30
0.0
 10
0.368640
 20
3.542728
 30
0.0
 10
0.368640
 20
3.542728
 30
0.0
  0
LWPOLYLINE
  5
127
100
AcDbEntity
  8
Layer_1
 62
1
100
AcDbPolyline
 90
5
 70
1
 10
4.161498
 20
7.214005
 30
0.0
 10
4.348947
 20
7.214005
 30
0.0
 10
4.348947
 20
6.829932
 30
0.0
 10
4.161498
 20
6.829932
 30
0.0
 10
4.161498
 20
7.214005
 30
0.0
  0
LWPOLYLINE
  5
128
100
AcDbEntity
  8
Layer_1
 62
1
100
AcDbPolyline
 90
5
 70
1
 10
4.161498
 20
0.319713
 30
0.0
 10
4.348947
 20
0.319713
 30
0.0
 10
4.348947
 20
0.703786
 30
0.0
 10
4.161498
 20
0.703786
 30
0.0
 10
4.161498
 20
0.319713
 30
0.0
  0
SPLINE
  5
129
100
AcDbEntity
  8
Layer_1
 62
3
100
AcDbSpline
 70
0
 71
3
 72
19
 73
15
 74
13
 40
0.000000
 40
0.000000
 40
0.000000
 40
0.000000
 40
0.040335
 40
0.129073
 40
0.217811
 40
0.307919
 40
0.386231
 40
0.420825
 40
0.455418
 40
0.533731
 40
0.623840
 40
0.712577
 40
0.801314
 40
0.841650
 40
0.841650
 40
0.841650
 40
0.841650
 10
4.342242
 20
8.541285
 30
0.0
 10
4.352180
 20
8.532229
 30
0.0
 10
4.383981
 20
8.503249
 30
0.0
 10
4.436631
 20
8.453241
 30
0.0
 10
4.506300
 20
8.397238
 30
0.0
 10
4.555590
 20
8.324177
 30
0.0
 10
4.570430
 20
8.257760
 30
0.0
 10
4.579189
 20
8.208906
 30
0.0
 10
4.570430
 20
8.160051
 30
0.0
 10
4.555590
 20
8.093634
 30
0.0
 10
4.506301
 20
8.020571
 30
0.0
 10
4.436631
 20
7.964570
 30
0.0
 10
4.383981
 20
7.914562
 30
0.0
 10
4.352180
 20
7.885583
 30
0.0
 10
4.342242
 20
7.876527
 30
0.0
 11
4.342242
 21
8.541285
 31
0.0
 11
4.371997
 21
8.514053
 31
0.0
 11
4.437458
 21
8.454142
 31
0.0
 11
4.502919
 21
8.394231
 31
0.0
 11
4.552135
 21
8.318751
 31
0.0
 11
4.572881
 21
8.243237
 31
0.0
 11
4.577135
 21
8.208906
 31
0.0
 11
4.572881
 21
8.174575
 31
0.0
 11
4.552135
 21
8.099060
 31
0.0
 11
4.502919
 21
8.023579
 31
0.0
 11
4.437458
 21
7.963669
 31
0.0
 11
4.371997
 21
7.903759
 31
0.0
 11
4.342242
 21
7.876527
 31
0.0
  0
LWPOLYLINE
  5
12a
100
AcDbEntity
  8
Layer_1
 62
3
100
AcDbPolyline
 90
2
 70
1
 10
3.929514
 20
0.900363
 30
0.0
 10
0.914113
 20
3.658744
 30
0.0
  0
LWPOLYLINE
  5
12b
100
AcDbEntity
  8
Layer_1
 62
3
100
AcDbPolyline
 90
4
 70
1
 10
0.914113
 20
3.874974
 30
0.0
 10
3.929514
 20
6.633356
 30
0.0
 10
3.929514
 20
3.766860
 30
0.0
 10
3.929514
 20
0.900363
 30
0.0
  0
SPLINE
  5
12c
100
AcDbEntity
  8
Layer_1
 62
3
100
AcDbSpline
 70
0
 71
3
 72
19
 73
15
 74
13
 40
0.000000
 40
0.000000
 40
0.000000
 40
0.000000
 40
0.004122
 40
0.013190
 40
0.022258
 40
0.066986
 40
0.105891
 40
0.123181
 40
0.140471
 40
0.179375
 40
0.224103
 40
0.233171
 40
0.242239
 40
0.246360
 40
0.246360
 40
0.246360
 40
0.246360
 10
0.914113
 20
3.658744
 30
0.0
 10
0.913098
 20
3.659671
 30
0.0
 10
0.909852
 20
3.662636
 30
0.0
 10
0.904412
 20
3.667681
 30
0.0
 10
0.888610
 20
3.681463
 30
0.0
 10
0.872329
 20
3.709237
 30
0.0
 10
0.865731
 20
3.742387
 30
0.0
 10
0.863671
 20
3.766860
 30
0.0
 10
0.865731
 20
3.791334
 30
0.0
 10
0.872330
 20
3.824483
 30
0.0
 10
0.888610
 20
3.852258
 30
0.0
 10
0.904412
 20
3.866039
 30
0.0
 10
0.909852
 20
3.871083
 30
0.0
 10
0.913098
 20
3.874048
 30
0.0
 10
0.914113
 20
3.874974
 30
0.0
 11
0.914113
 21
3.658744
 31
0.0
 11
0.911071
 21
3.661527
 31
0.0
 11
0.904381
 21
3.667648
 31
0.0
 11
0.897690
 21
3.673768
 31
0.0
 11
0.873944
 21
3.711672
 31
0.0
 11
0.865324
 21
3.749610
 31
0.0
 11
0.864155
 21
3.766860
 31
0.0
 11
0.865324
 21
3.784111
 31
0.0
 11
0.873944
 21
3.822048
 31
0.0
 11
0.897690
 21
3.859952
 31
0.0
 11
0.904381
 21
3.866072
 31
0.0
 11
0.911071
 21
3.872193
 31
0.0
 11
0.914113
 21
3.874974
 31
0.0
  0
LWPOLYLINE
  5
12d
100
AcDbEntity
  8
Layer_1
 62
3
100
AcDbPolyline
 90
4
 70
1
 10
4.577134
 20
7.417053
 30
0.0
 10
4.348946
 20
7.417053
 30
0.0
 10
3.929514
 20
7.417053
 30
0.0
 10
0.304326
 20
4.099239
 30
0.0
  0
LWPOLYLINE
  5
12e
100
AcDbEntity
  8
Layer_1
 62
3
100
AcDbPolyline
 90
6
 70
1
 10
0.304326
 20
3.434482
 30
0.0
 10
3.929514
 20
0.116665
 30
0.0
 10
4.348946
 20
0.116665
 30
0.0
 10
4.577134
 20
0.116665
 30
0.0
 10
4.577134
 20
3.766860
 30
0.0
 10
4.577134
 20
7.417053
 30
0.0
  0
LWPOLYLINE
  5
12f
100
AcDbEntity
  8
Layer_1
 62
3
100
AcDbPolyline
 90
17
 70
1
 10
7.930523
 20
9.163321
 30
0.0
 10
7.947413
 20
9.163321
 30
0.0
 10
7.947413
 20
8.257590
 30
0.0
 10
8.383358
 20
8.257590
 30
0.0
 10
8.383358
 20
9.163321
 30
0.0
 10
8.399306
 20
9.163321
 30
0.0
 10
8.399306
 20
10.269244
 30
0.0
 10
8.383358
 20
10.269244
 30
0.0
 10
8.383358
 20
11.175549
 30
0.0
 10
8.258884
 20
11.175549
 30
0.0
 10
8.258884
 20
9.719724
 30
0.0
 10
8.071887
 20
9.719724
 30
0.0
 10
8.071887
 20
11.175549
 30
0.0
 10
7.947413
 20
11.175549
 30
0.0
 10
7.947413
 20
10.269244
 30
0.0
 10
7.930523
 20
10.269244
 30
0.0
 10
7.930523
 20
9.163321
 30
0.0
  0
LWPOLYLINE
  5
130
100
AcDbEntity
  8
Layer_1
 62
3
100
AcDbPolyline
 90
17
 70
1
 10
8.399306
 20
7.326189
 30
0.0
 10
8.382416
 20
7.326189
 30
0.0
 10
8.382416
 20
8.231921
 30
0.0
 10
7.946472
 20
8.231921
 30
0.0
 10
7.946472
 20
7.326189
 30
0.0
 10
7.930523
 20
7.326189
 30
0.0
 10
7.930523
 20
6.220267
 30
0.0
 10
7.946472
 20
6.220267
 30
0.0
 10
7.946472
 20
5.313962
 30
0.0
 10
8.070945
 20
5.313962
 30
0.0
 10
8.070945
 20
6.769787
 30
0.0
 10
8.257943
 20
6.769787
 30
0.0
 10
8.257943
 20
5.313962
 30
0.0
 10
8.382416
 20
5.313962
 30
0.0
 10
8.382416
 20
6.220267
 30
0.0
 10
8.399306
 20
6.220267
 30
0.0
 10
8.399306
 20
7.326189
 30
0.0
  0
LWPOLYLINE
  5
131
100
AcDbEntity
  8
Layer_1
 62
3
100
AcDbPolyline
 90
2
 70
0
 10
6.138981
 20
1.768937
 30
0.0
 10
5.611011
 20
1.768859
 30
0.0
  0
LWPOLYLINE
  5
132
100
AcDbEntity
  8
Layer_1
 62
3
100
AcDbPolyline
 90
2
 70
0
 10
6.138981
 20
1.679219
 30
0.0
 10
5.611011
 20
1.679163
 30
0.0
  0
LWPOLYLINE
  5
133
100
AcDbEntity
  8
Layer_1
 62
3
100
AcDbPolyline
 90
2
 70
0
 10
6.138981
 20
1.589931
 30
0.0
 10
5.611011
 20
1.589876
 30
0.0
  0
LWPOLYLINE
  5
134
100
AcDbEntity
  8
Layer_1
 62
3
100
AcDbPolyline
 90
2
 70
0
 10
6.138981
 20
1.500644
 30
0.0
 10
5.611011
 20
1.500588
 30
0.0
  0
LWPOLYLINE
  5
135
100
AcDbEntity
  8
Layer_1
 62
3
100
AcDbPolyline
 90
2
 70
0
 10
6.138981
 20
1.411357
 30
0.0
 10
5.611011
 20
1.411301
 30
0.0
  0
LWPOLYLINE
  5
136
100
AcDbEntity
  8
Layer_1
 62
3
100
AcDbPolyline
 90
2
 70
0
 10
6.138981
 20
1.322070
 30
0.0
 10
5.611011
 20
1.322014
 30
0.0
  0
LWPOLYLINE
  5
137
100
AcDbEntity
  8
Layer_1
 62
3
100
AcDbPolyline
 90
2
 70
0
 10
6.973758
 20
1.322336
 30
0.0
 10
6.382631
 20
1.322259
 30
0.0
  0
LWPOLYLINE
  5
138
100
AcDbEntity
  8
Layer_1
 62
3
100
AcDbPolyline
 90
2
 70
0
 10
6.973758
 20
1.411627
 30
0.0
 10
6.382631
 20
1.411549
 30
0.0
  0
LWPOLYLINE
  5
139
100
AcDbEntity
  8
Layer_1
 62
3
100
AcDbPolyline
 90
2
 70
0
 10
6.973758
 20
1.500917
 30
0.0
 10
6.382631
 20
1.500908
 30
0.0
  0
LWPOLYLINE
  5
13a
100
AcDbEntity
  8
Layer_1
 62
3
100
AcDbPolyline
 90
2
 70
0
 10
6.973758
 20
1.590208
 30
0.0
 10
6.382631
 20
1.590130
 30
0.0
  0
LWPOLYLINE
  5
13b
100
AcDbEntity
  8
Layer_1
 62
3
100
AcDbPolyline
 90
2
 70
0
 10
6.973758
 20
1.679499
 30
0.0
 10
6.382631
 20
1.679421
 30
0.0
  0
LWPOLYLINE
  5
13c
100
AcDbEntity
  8
Layer_1
 62
3
100
AcDbPolyline
 90
2
 70
0
 10
6.973758
 20
1.769811
 30
0.0
 10
6.382631
 20
1.768957
 30
0.0
  0
LWPOLYLINE
  5
13d
100
AcDbEntity
  8
Layer_1
 62
3
100
AcDbPolyline
 90
2
 70
0
 10
6.861359
 20
1.723572
 30
0.0
 10
5.734653
 20
1.723605
 30
0.0
  0
LWPOLYLINE
  5
13e
100
AcDbEntity
  8
Layer_1
 62
3
100
AcDbPolyline
 90
2
 70
0
 10
6.861359
 20
1.634284
 30
0.0
 10
5.734653
 20
1.634318
 30
0.0
  0
LWPOLYLINE
  5
13f
100
AcDbEntity
  8
Layer_1
 62
3
100
AcDbPolyline
 90
2
 70
0
 10
6.861359
 20
1.277125
 30
0.0
 10
5.734653
 20
1.277158
 30
0.0
  0
LWPOLYLINE
  5
140
100
AcDbEntity
  8
Layer_1
 62
3
100
AcDbPolyline
 90
2
 70
0
 10
6.861359
 20
1.366419
 30
0.0
 10
5.734653
 20
1.366452
 30
0.0
  0
LWPOLYLINE
  5
141
100
AcDbEntity
  8
Layer_1
 62
3
100
AcDbPolyline
 90
2
 70
0
 10
6.861359
 20
1.455713
 30
0.0
 10
5.734653
 20
1.455746
 30
0.0
  0
LWPOLYLINE
  5
142
100
AcDbEntity
  8
Layer_1
 62
3
100
AcDbPolyline
 90
2
 70
0
 10
6.861359
 20
1.545007
 30
0.0
 10
5.734653
 20
1.545040
 30
0.0
  0
LWPOLYLINE
  5
143
100
AcDbEntity
  8
Layer_1
 62
3
100
AcDbPolyline
 90
25
 70
1
 10
6.975703
 20
3.629693
 30
0.0
 10
7.165571
 20
3.629693
 30
0.0
 10
7.165571
 20
4.013443
 30
0.0
 10
6.975703
 20
4.013443
 30
0.0
 10
5.610217
 20
4.013421
 30
0.0
 10
5.415761
 20
4.013421
 30
0.0
 10
5.415761
 20
3.629671
 30
0.0
 10
5.610217
 20
3.629671
 30
0.0
 10
5.610217
 20
2.276767
 30
0.0
 10
5.412509
 20
2.276745
 30
0.0
 10
5.412509
 20
1.892563
 30
0.0
 10
5.610217
 20
1.892563
 30
0.0
 10
5.610217
 20
0.541681
 30
0.0
 10
5.415761
 20
0.541681
 30
0.0
 10
5.415761
 20
0.157932
 30
0.0
 10
5.610217
 20
0.157932
 30
0.0
 10
6.975703
 20
0.157954
 30
0.0
 10
7.165571
 20
0.157954
 30
0.0
 10
7.165571
 20
0.541703
 30
0.0
 10
6.975703
 20
0.541703
 30
0.0
 10
6.975703
 20
1.892586
 30
0.0
 10
7.165571
 20
1.892585
 30
0.0
 10
7.165571
 20
2.276787
 30
0.0
 10
6.975703
 20
2.275172
 30
0.0
 10
6.975703
 20
3.629693
 30
0.0
  0
LWPOLYLINE
  5
144
100
AcDbEntity
  8
Layer_1
 62
3
100
AcDbPolyline
 90
2
 70
0
 10
6.135026
 20
1.231063
 30
0.0
 10
5.607056
 20
1.230986
 30
0.0
  0
LWPOLYLINE
  5
145
100
AcDbEntity
  8
Layer_1
 62
3
100
AcDbPolyline
 90
2
 70
0
 10
6.135026
 20
1.141345
 30
0.0
 10
5.607056
 20
1.141289
 30
0.0
  0
LWPOLYLINE
  5
146
100
AcDbEntity
  8
Layer_1
 62
3
100
AcDbPolyline
 90
2
 70
0
 10
6.135026
 20
1.052057
 30
0.0
 10
5.607056
 20
1.052002
 30
0.0
  0
LWPOLYLINE
  5
147
100
AcDbEntity
  8
Layer_1
 62
3
100
AcDbPolyline
 90
2
 70
0
 10
6.135026
 20
0.962770
 30
0.0
 10
5.607056
 20
0.962715
 30
0.0
  0
LWPOLYLINE
  5
148
100
AcDbEntity
  8
Layer_1
 62
3
100
AcDbPolyline
 90
2
 70
0
 10
6.135026
 20
0.873483
 30
0.0
 10
5.607056
 20
0.873427
 30
0.0
  0
LWPOLYLINE
  5
149
100
AcDbEntity
  8
Layer_1
 62
3
100
AcDbPolyline
 90
2
 70
0
 10
6.969803
 20
0.873753
 30
0.0
 10
6.378675
 20
0.873675
 30
0.0
  0
LWPOLYLINE
  5
14a
100
AcDbEntity
  8
Layer_1
 62
3
100
AcDbPolyline
 90
2
 70
0
 10
6.969803
 20
0.963043
 30
0.0
 10
6.378675
 20
0.963033
 30
0.0
  0
LWPOLYLINE
  5
14b
100
AcDbEntity
  8
Layer_1
 62
3
100
AcDbPolyline
 90
2
 70
0
 10
6.969803
 20
1.052334
 30
0.0
 10
6.378675
 20
1.052256
 30
0.0
  0
LWPOLYLINE
  5
14c
100
AcDbEntity
  8
Layer_1
 62
3
100
AcDbPolyline
 90
2
 70
0
 10
6.969803
 20
1.141625
 30
0.0
 10
6.378675
 20
1.141547
 30
0.0
  0
LWPOLYLINE
  5
14d
100
AcDbEntity
  8
Layer_1
 62
3
100
AcDbPolyline
 90
2
 70
0
 10
6.969803
 20
1.231937
 30
0.0
 10
6.378675
 20
1.231083
 30
0.0
  0
LWPOLYLINE
  5
14e
100
AcDbEntity
  8
Layer_1
 62
3
100
AcDbPolyline
 90
2
 70
0
 10
6.857404
 20
1.185698
 30
0.0
 10
5.730698
 20
1.185731
 30
0.0
  0
LWPOLYLINE
  5
14f
100
AcDbEntity
  8
Layer_1
 62
3
100
AcDbPolyline
 90
2
 70
0
 10
6.857404
 20
1.096410
 30
0.0
 10
5.730698
 20
1.096444
 30
0.0
  0
LWPOLYLINE
  5
150
100
AcDbEntity
  8
Layer_1
 62
3
100
AcDbPolyline
 90
2
 70
0
 10
6.857404
 20
0.917839
 30
0.0
 10
5.730698
 20
0.917872
 30
0.0
  0
LWPOLYLINE
  5
151
100
AcDbEntity
  8
Layer_1
 62
3
100
AcDbPolyline
 90
2
 70
0
 10
6.857404
 20
1.007133
 30
0.0
 10
5.730698
 20
1.007166
 30
0.0
  0
LWPOLYLINE
  5
152
100
AcDbEntity
  8
Layer_1
 62
3
100
AcDbPolyline
 90
2
 70
0
 10
6.138355
 20
3.274825
 30
0.0
 10
5.610385
 20
3.274747
 30
0.0
  0
LWPOLYLINE
  5
153
100
AcDbEntity
  8
Layer_1
 62
3
100
AcDbPolyline
 90
2
 70
0
 10
6.138355
 20
3.185106
 30
0.0
 10
5.610385
 20
3.185051
 30
0.0
  0
LWPOLYLINE
  5
154
100
AcDbEntity
  8
Layer_1
 62
3
100
AcDbPolyline
 90
2
 70
0
 10
6.138355
 20
3.095819
 30
0.0
 10
5.610385
 20
3.095764
 30
0.0
  0
LWPOLYLINE
  5
155
100
AcDbEntity
  8
Layer_1
 62
3
100
AcDbPolyline
 90
2
 70
0
 10
6.138355
 20
3.006532
 30
0.0
 10
5.610385
 20
3.006476
 30
0.0
  0
LWPOLYLINE
  5
156
100
AcDbEntity
  8
Layer_1
 62
3
100
AcDbPolyline
 90
2
 70
0
 10
6.138355
 20
2.917244
 30
0.0
 10
5.610385
 20
2.917189
 30
0.0
  0
LWPOLYLINE
  5
157
100
AcDbEntity
  8
Layer_1
 62
3
100
AcDbPolyline
 90
2
 70
0
 10
6.138355
 20
2.827957
 30
0.0
 10
5.610385
 20
2.827902
 30
0.0
  0
LWPOLYLINE
  5
158
100
AcDbEntity
  8
Layer_1
 62
3
100
AcDbPolyline
 90
2
 70
0
 10
6.973133
 20
2.828224
 30
0.0
 10
6.382005
 20
2.828146
 30
0.0
  0
LWPOLYLINE
  5
159
100
AcDbEntity
  8
Layer_1
 62
3
100
AcDbPolyline
 90
2
 70
0
 10
6.973133
 20
2.917514
 30
0.0
 10
6.382005
 20
2.917437
 30
0.0
  0
LWPOLYLINE
  5
15a
100
AcDbEntity
  8
Layer_1
 62
3
100
AcDbPolyline
 90
2
 70
0
 10
6.973133
 20
3.006805
 30
0.0
 10
6.382005
 20
3.006795
 30
0.0
  0
LWPOLYLINE
  5
15b
100
AcDbEntity
  8
Layer_1
 62
3
100
AcDbPolyline
 90
2
 70
0
 10
6.973133
 20
3.096096
 30
0.0
 10
6.382005
 20
3.096018
 30
0.0
  0
LWPOLYLINE
  5
15c
100
AcDbEntity
  8
Layer_1
 62
3
100
AcDbPolyline
 90
2
 70
0
 10
6.973133
 20
3.185387
 30
0.0
 10
6.382005
 20
3.185309
 30
0.0
  0
LWPOLYLINE
  5
15d
100
AcDbEntity
  8
Layer_1
 62
3
100
AcDbPolyline
 90
2
 70
0
 10
6.973133
 20
3.275699
 30
0.0
 10
6.382005
 20
3.274845
 30
0.0
  0
LWPOLYLINE
  5
15e
100
AcDbEntity
  8
Layer_1
 62
3
100
AcDbPolyline
 90
2
 70
0
 10
6.860734
 20
3.229460
 30
0.0
 10
5.734027
 20
3.229493
 30
0.0
  0
LWPOLYLINE
  5
15f
100
AcDbEntity
  8
Layer_1
 62
3
100
AcDbPolyline
 90
2
 70
0
 10
6.860734
 20
3.140172
 30
0.0
 10
5.734027
 20
3.140206
 30
0.0
  0
LWPOLYLINE
  5
160
100
AcDbEntity
  8
Layer_1
 62
3
100
AcDbPolyline
 90
2
 70
0
 10
6.860734
 20
2.783013
 30
0.0
 10
5.734027
 20
2.783046
 30
0.0
  0
LWPOLYLINE
  5
161
100
AcDbEntity
  8
Layer_1
 62
3
100
AcDbPolyline
 90
2
 70
0
 10
6.860734
 20
2.872307
 30
0.0
 10
5.734027
 20
2.872340
 30
0.0
  0
LWPOLYLINE
  5
162
100
AcDbEntity
  8
Layer_1
 62
3
100
AcDbPolyline
 90
2
 70
0
 10
6.860734
 20
2.961601
 30
0.0
 10
5.734027
 20
2.961634
 30
0.0
  0
LWPOLYLINE
  5
163
100
AcDbEntity
  8
Layer_1
 62
3
100
AcDbPolyline
 90
2
 70
0
 10
6.860734
 20
3.050895
 30
0.0
 10
5.734027
 20
3.050928
 30
0.0
  0
LWPOLYLINE
  5
164
100
AcDbEntity
  8
Layer_1
 62
3
100
AcDbPolyline
 90
2
 70
0
 10
6.134399
 20
2.736951
 30
0.0
 10
5.606430
 20
2.736873
 30
0.0
  0
LWPOLYLINE
  5
165
100
AcDbEntity
  8
Layer_1
 62
3
100
AcDbPolyline
 90
2
 70
0
 10
6.134401
 20
2.647232
 30
0.0
 10
5.606430
 20
2.647177
 30
0.0
  0
LWPOLYLINE
  5
166
100
AcDbEntity
  8
Layer_1
 62
3
100
AcDbPolyline
 90
2
 70
0
 10
6.134401
 20
2.557945
 30
0.0
 10
5.606430
 20
2.557890
 30
0.0
  0
LWPOLYLINE
  5
167
100
AcDbEntity
  8
Layer_1
 62
3
100
AcDbPolyline
 90
2
 70
0
 10
6.134401
 20
2.468658
 30
0.0
 10
5.606430
 20
2.468603
 30
0.0
  0
LWPOLYLINE
  5
168
100
AcDbEntity
  8
Layer_1
 62
3
100
AcDbPolyline
 90
2
 70
0
 10
6.134401
 20
2.379370
 30
0.0
 10
5.606430
 20
2.379315
 30
0.0
  0
LWPOLYLINE
  5
169
100
AcDbEntity
  8
Layer_1
 62
3
100
AcDbPolyline
 90
2
 70
0
 10
6.969177
 20
2.379640
 30
0.0
 10
6.378049
 20
2.379563
 30
0.0
  0
LWPOLYLINE
  5
16a
100
AcDbEntity
  8
Layer_1
 62
3
100
AcDbPolyline
 90
2
 70
0
 10
6.969177
 20
2.468931
 30
0.0
 10
6.378049
 20
2.468921
 30
0.0
  0
LWPOLYLINE
  5
16b
100
AcDbEntity
  8
Layer_1
 62
3
100
AcDbPolyline
 90
2
 70
0
 10
6.969177
 20
2.558222
 30
0.0
 10
6.378049
 20
2.558144
 30
0.0
  0
LWPOLYLINE
  5
16c
100
AcDbEntity
  8
Layer_1
 62
3
100
AcDbPolyline
 90
2
 70
0
 10
6.969177
 20
2.647513
 30
0.0
 10
6.378049
 20
2.647435
 30
0.0
  0
LWPOLYLINE
  5
16d
100
AcDbEntity
  8
Layer_1
 62
3
100
AcDbPolyline
 90
2
 70
0
 10
6.969177
 20
2.737824
 30
0.0
 10
6.378049
 20
2.736971
 30
0.0
  0
LWPOLYLINE
  5
16e
100
AcDbEntity
  8
Layer_1
 62
3
100
AcDbPolyline
 90
2
 70
0
 10
6.856778
 20
2.691586
 30
0.0
 10
5.730072
 20
2.691619
 30
0.0
  0
LWPOLYLINE
  5
16f
100
AcDbEntity
  8
Layer_1
 62
3
100
AcDbPolyline
 90
2
 70
0
 10
6.856778
 20
2.602298
 30
0.0
 10
5.730072
 20
2.602332
 30
0.0
  0
LWPOLYLINE
  5
170
100
AcDbEntity
  8
Layer_1
 62
3
100
AcDbPolyline
 90
2
 70
0
 10
6.856778
 20
2.423727
 30
0.0
 10
5.730072
 20
2.423760
 30
0.0
  0
LWPOLYLINE
  5
171
100
AcDbEntity
  8
Layer_1
 62
3
100
AcDbPolyline
 90
2
 70
0
 10
6.856778
 20
2.513021
 30
0.0
 10
5.730072
 20
2.513054
 30
0.0
  0
LWPOLYLINE
  5
172
100
AcDbEntity
  8
Layer_1
 62
3
100
AcDbPolyline
 90
2
 70
0
 10
7.758674
 20
2.239034
 30
0.0
 10
7.230704
 20
2.238956
 30
0.0
  0
LWPOLYLINE
  5
173
100
AcDbEntity
  8
Layer_1
 62
3
100
AcDbPolyline
 90
2
 70
0
 10
7.758674
 20
2.149316
 30
0.0
 10
7.230704
 20
2.149260
 30
0.0
  0
LWPOLYLINE
  5
174
100
AcDbEntity
  8
Layer_1
 62
3
100
AcDbPolyline
 90
2
 70
0
 10
7.758674
 20
2.060029
 30
0.0
 10
7.230704
 20
2.059973
 30
0.0
  0
LWPOLYLINE
  5
175
100
AcDbEntity
  8
Layer_1
 62
3
100
AcDbPolyline
 90
2
 70
0
 10
7.758674
 20
1.970741
 30
0.0
 10
7.230704
 20
1.970685
 30
0.0
  0
LWPOLYLINE
  5
176
100
AcDbEntity
  8
Layer_1
 62
3
100
AcDbPolyline
 90
2
 70
0
 10
7.758674
 20
1.881454
 30
0.0
 10
7.230704
 20
1.881398
 30
0.0
  0
LWPOLYLINE
  5
177
100
AcDbEntity
  8
Layer_1
 62
3
100
AcDbPolyline
 90
2
 70
0
 10
7.758674
 20
1.792167
 30
0.0
 10
7.230704
 20
1.792111
 30
0.0
  0
LWPOLYLINE
  5
178
100
AcDbEntity
  8
Layer_1
 62
3
100
AcDbPolyline
 90
2
 70
0
 10
8.593452
 20
1.792433
 30
0.0
 10
8.002324
 20
1.792356
 30
0.0
  0
LWPOLYLINE
  5
179
100
AcDbEntity
  8
Layer_1
 62
3
100
AcDbPolyline
 90
2
 70
0
 10
8.593452
 20
1.881724
 30
0.0
 10
8.002324
 20
1.881646
 30
0.0
  0
LWPOLYLINE
  5
17a
100
AcDbEntity
  8
Layer_1
 62
3
100
AcDbPolyline
 90
2
 70
0
 10
8.593452
 20
1.971014
 30
0.0
 10
8.002324
 20
1.971005
 30
0.0
  0
LWPOLYLINE
  5
17b
100
AcDbEntity
  8
Layer_1
 62
3
100
AcDbPolyline
 90
2
 70
0
 10
8.593452
 20
2.060305
 30
0.0
 10
8.002324
 20
2.060227
 30
0.0
  0
LWPOLYLINE
  5
17c
100
AcDbEntity
  8
Layer_1
 62
3
100
AcDbPolyline
 90
2
 70
0
 10
8.593452
 20
2.149596
 30
0.0
 10
8.002324
 20
2.149518
 30
0.0
  0
LWPOLYLINE
  5
17d
100
AcDbEntity
  8
Layer_1
 62
3
100
AcDbPolyline
 90
2
 70
0
 10
8.593452
 20
2.239908
 30
0.0
 10
8.002324
 20
2.239054
 30
0.0
  0
LWPOLYLINE
  5
17e
100
AcDbEntity
  8
Layer_1
 62
3
100
AcDbPolyline
 90
2
 70
0
 10
8.481053
 20
2.193669
 30
0.0
 10
7.354346
 20
2.193702
 30
0.0
  0
LWPOLYLINE
  5
17f
100
AcDbEntity
  8
Layer_1
 62
3
100
AcDbPolyline
 90
2
 70
0
 10
8.481053
 20
2.104382
 30
0.0
 10
7.354346
 20
2.104415
 30
0.0
  0
LWPOLYLINE
  5
180
100
AcDbEntity
  8
Layer_1
 62
3
100
AcDbPolyline
 90
2
 70
0
 10
8.481053
 20
1.747222
 30
0.0
 10
7.354346
 20
1.747255
 30
0.0
  0
LWPOLYLINE
  5
181
100
AcDbEntity
  8
Layer_1
 62
3
100
AcDbPolyline
 90
2
 70
0
 10
8.481053
 20
1.836516
 30
0.0
 10
7.354346
 20
1.836549
 30
0.0
  0
LWPOLYLINE
  5
182
100
AcDbEntity
  8
Layer_1
 62
3
100
AcDbPolyline
 90
2
 70
0
 10
8.481053
 20
1.925810
 30
0.0
 10
7.354346
 20
1.925843
 30
0.0
  0
LWPOLYLINE
  5
183
100
AcDbEntity
  8
Layer_1
 62
3
100
AcDbPolyline
 90
2
 70
0
 10
8.481053
 20
2.015104
 30
0.0
 10
7.354346
 20
2.015137
 30
0.0
  0
LWPOLYLINE
  5
184
100
AcDbEntity
  8
Layer_1
 62
3
100
AcDbPolyline
 90
25
 70
1
 10
8.595397
 20
4.099791
 30
0.0
 10
8.785264
 20
4.099791
 30
0.0
 10
8.785264
 20
4.483540
 30
0.0
 10
8.595397
 20
4.483540
 30
0.0
 10
7.229911
 20
4.483518
 30
0.0
 10
7.035455
 20
4.483518
 30
0.0
 10
7.035455
 20
4.099768
 30
0.0
 10
7.229911
 20
4.099768
 30
0.0
 10
7.229911
 20
2.746864
 30
0.0
 10
7.032203
 20
2.746842
 30
0.0
 10
7.032203
 20
2.362660
 30
0.0
 10
7.229911
 20
2.362660
 30
0.0
 10
7.229911
 20
1.011778
 30
0.0
 10
7.035455
 20
1.011778
 30
0.0
 10
7.035455
 20
0.628029
 30
0.0
 10
7.229911
 20
0.628029
 30
0.0
 10
8.595397
 20
0.628051
 30
0.0
 10
8.785264
 20
0.628051
 30
0.0
 10
8.785264
 20
1.011801
 30
0.0
 10
8.595397
 20
1.011801
 30
0.0
 10
8.595397
 20
2.362683
 30
0.0
 10
8.785264
 20
2.362682
 30
0.0
 10
8.785264
 20
2.746885
 30
0.0
 10
8.595396
 20
2.745269
 30
0.0
 10
8.595397
 20
4.099791
 30
0.0
  0
LWPOLYLINE
  5
185
100
AcDbEntity
  8
Layer_1
 62
3
100
AcDbPolyline
 90
2
 70
0
 10
7.754719
 20
1.701160
 30
0.0
 10
7.226749
 20
1.701083
 30
0.0
  0
LWPOLYLINE
  5
186
100
AcDbEntity
  8
Layer_1
 62
3
100
AcDbPolyline
 90
2
 70
0
 10
7.754719
 20
1.611442
 30
0.0
 10
7.226749
 20
1.611386
 30
0.0
  0
LWPOLYLINE
  5
187
100
AcDbEntity
  8
Layer_1
 62
3
100
AcDbPolyline
 90
2
 70
0
 10
7.754719
 20
1.522155
 30
0.0
 10
7.226749
 20
1.522099
 30
0.0
  0
LWPOLYLINE
  5
188
100
AcDbEntity
  8
Layer_1
 62
3
100
AcDbPolyline
 90
2
 70
0
 10
7.754719
 20
1.432867
 30
0.0
 10
7.226749
 20
1.432812
 30
0.0
  0
LWPOLYLINE
  5
189
100
AcDbEntity
  8
Layer_1
 62
3
100
AcDbPolyline
 90
2
 70
0
 10
7.754719
 20
1.343580
 30
0.0
 10
7.226749
 20
1.343524
 30
0.0
  0
LWPOLYLINE
  5
18a
100
AcDbEntity
  8
Layer_1
 62
3
100
AcDbPolyline
 90
2
 70
0
 10
8.589496
 20
1.343850
 30
0.0
 10
7.998369
 20
1.343772
 30
0.0
  0
LWPOLYLINE
  5
18b
100
AcDbEntity
  8
Layer_1
 62
3
100
AcDbPolyline
 90
2
 70
0
 10
8.589496
 20
1.433140
 30
0.0
 10
7.998369
 20
1.433131
 30
0.0
  0
LWPOLYLINE
  5
18c
100
AcDbEntity
  8
Layer_1
 62
3
100
AcDbPolyline
 90
2
 70
0
 10
8.589496
 20
1.522431
 30
0.0
 10
7.998369
 20
1.522353
 30
0.0
  0
LWPOLYLINE
  5
18d
100
AcDbEntity
  8
Layer_1
 62
3
100
AcDbPolyline
 90
2
 70
0
 10
8.589496
 20
1.611722
 30
0.0
 10
7.998369
 20
1.611644
 30
0.0
  0
LWPOLYLINE
  5
18e
100
AcDbEntity
  8
Layer_1
 62
3
100
AcDbPolyline
 90
2
 70
0
 10
8.589496
 20
1.702034
 30
0.0
 10
7.998369
 20
1.701180
 30
0.0
  0
LWPOLYLINE
  5
18f
100
AcDbEntity
  8
Layer_1
 62
3
100
AcDbPolyline
 90
2
 70
0
 10
8.477098
 20
1.655795
 30
0.0
 10
7.350391
 20
1.655828
 30
0.0
  0
LWPOLYLINE
  5
190
100
AcDbEntity
  8
Layer_1
 62
3
100
AcDbPolyline
 90
2
 70
0
 10
8.477098
 20
1.566508
 30
0.0
 10
7.350391
 20
1.566541
 30
0.0
  0
LWPOLYLINE
  5
191
100
AcDbEntity
  8
Layer_1
 62
3
100
AcDbPolyline
 90
2
 70
0
 10
8.477098
 20
1.387936
 30
0.0
 10
7.350391
 20
1.387970
 30
0.0
  0
LWPOLYLINE
  5
192
100
AcDbEntity
  8
Layer_1
 62
3
100
AcDbPolyline
 90
2
 70
0
 10
8.477098
 20
1.477230
 30
0.0
 10
7.350391
 20
1.477264
 30
0.0
  0
LWPOLYLINE
  5
193
100
AcDbEntity
  8
Layer_1
 62
3
100
AcDbPolyline
 90
2
 70
0
 10
7.758048
 20
3.744922
 30
0.0
 10
7.230079
 20
3.744844
 30
0.0
  0
LWPOLYLINE
  5
194
100
AcDbEntity
  8
Layer_1
 62
3
100
AcDbPolyline
 90
2
 70
0
 10
7.758049
 20
3.655204
 30
0.0
 10
7.230079
 20
3.655148
 30
0.0
  0
LWPOLYLINE
  5
195
100
AcDbEntity
  8
Layer_1
 62
3
100
AcDbPolyline
 90
2
 70
0
 10
7.758049
 20
3.565916
 30
0.0
 10
7.230079
 20
3.565861
 30
0.0
  0
LWPOLYLINE
  5
196
100
AcDbEntity
  8
Layer_1
 62
3
100
AcDbPolyline
 90
2
 70
0
 10
7.758049
 20
3.476629
 30
0.0
 10
7.230079
 20
3.476573
 30
0.0
  0
LWPOLYLINE
  5
197
100
AcDbEntity
  8
Layer_1
 62
3
100
AcDbPolyline
 90
2
 70
0
 10
7.758049
 20
3.387342
 30
0.0
 10
7.230079
 20
3.387286
 30
0.0
  0
LWPOLYLINE
  5
198
100
AcDbEntity
  8
Layer_1
 62
3
100
AcDbPolyline
 90
2
 70
0
 10
7.758049
 20
3.298055
 30
0.0
 10
7.230079
 20
3.297999
 30
0.0
  0
LWPOLYLINE
  5
199
100
AcDbEntity
  8
Layer_1
 62
3
100
AcDbPolyline
 90
2
 70
0
 10
8.592826
 20
3.298321
 30
0.0
 10
8.001698
 20
3.298243
 30
0.0
  0
LWPOLYLINE
  5
19a
100
AcDbEntity
  8
Layer_1
 62
3
100
AcDbPolyline
 90
2
 70
0
 10
8.592826
 20
3.387612
 30
0.0
 10
8.001698
 20
3.387534
 30
0.0
  0
LWPOLYLINE
  5
19b
100
AcDbEntity
  8
Layer_1
 62
3
100
AcDbPolyline
 90
2
 70
0
 10
8.592826
 20
3.476902
 30
0.0
 10
8.001698
 20
3.476893
 30
0.0
  0
LWPOLYLINE
  5
19c
100
AcDbEntity
  8
Layer_1
 62
3
100
AcDbPolyline
 90
2
 70
0
 10
8.592826
 20
3.566193
 30
0.0
 10
8.001698
 20
3.566115
 30
0.0
  0
LWPOLYLINE
  5
19d
100
AcDbEntity
  8
Layer_1
 62
3
100
AcDbPolyline
 90
2
 70
0
 10
8.592826
 20
3.655484
 30
0.0
 10
8.001698
 20
3.655406
 30
0.0
  0
LWPOLYLINE
  5
19e
100
AcDbEntity
  8
Layer_1
 62
3
100
AcDbPolyline
 90
2
 70
0
 10
8.592826
 20
3.745796
 30
0.0
 10
8.001698
 20
3.744942
 30
0.0
  0
LWPOLYLINE
  5
19f
100
AcDbEntity
  8
Layer_1
 62
3
100
AcDbPolyline
 90
2
 70
0
 10
8.480427
 20
3.699557
 30
0.0
 10
7.353721
 20
3.699590
 30
0.0
  0
LWPOLYLINE
  5
1a0
100
AcDbEntity
  8
Layer_1
 62
3
100
AcDbPolyline
 90
2
 70
0
 10
8.480427
 20
3.610269
 30
0.0
 10
7.353721
 20
3.610303
 30
0.0
  0
LWPOLYLINE
  5
1a1
100
AcDbEntity
  8
Layer_1
 62
3
100
AcDbPolyline
 90
2
 70
0
 10
8.480427
 20
3.253110
 30
0.0
 10
7.353721
 20
3.253143
 30
0.0
  0
LWPOLYLINE
  5
1a2
100
AcDbEntity
  8
Layer_1
 62
3
100
AcDbPolyline
 90
2
 70
0
 10
8.480427
 20
3.342404
 30
0.0
 10
7.353721
 20
3.342437
 30
0.0
  0
LWPOLYLINE
  5
1a3
100
AcDbEntity
  8
Layer_1
 62
3
100
AcDbPolyline
 90
2
 70
0
 10
8.480427
 20
3.431698
 30
0.0
 10
7.353721
 20
3.431731
 30
0.0
  0
LWPOLYLINE
  5
1a4
100
AcDbEntity
  8
Layer_1
 62
3
100
AcDbPolyline
 90
2
 70
0
 10
8.480427
 20
3.520992
 30
0.0
 10
7.353721
 20
3.521025
 30
0.0
  0
LWPOLYLINE
  5
1a5
100
AcDbEntity
  8
Layer_1
 62
3
100
AcDbPolyline
 90
2
 70
0
 10
7.754093
 20
3.207048
 30
0.0
 10
7.226123
 20
3.206970
 30
0.0
  0
LWPOLYLINE
  5
1a6
100
AcDbEntity
  8
Layer_1
 62
3
100
AcDbPolyline
 90
2
 70
0
 10
7.754093
 20
3.117329
 30
0.0
 10
7.226123
 20
3.117274
 30
0.0
  0
LWPOLYLINE
  5
1a7
100
AcDbEntity
  8
Layer_1
 62
3
100
AcDbPolyline
 90
2
 70
0
 10
7.754093
 20
3.028042
 30
0.0
 10
7.226123
 20
3.027987
 30
0.0
  0
LWPOLYLINE
  5
1a8
100
AcDbEntity
  8
Layer_1
 62
3
100
AcDbPolyline
 90
2
 70
0
 10
7.754093
 20
2.938755
 30
0.0
 10
7.226123
 20
2.938700
 30
0.0
  0
LWPOLYLINE
  5
1a9
100
AcDbEntity
  8
Layer_1
 62
3
100
AcDbPolyline
 90
2
 70
0
 10
7.754093
 20
2.849468
 30
0.0
 10
7.226123
 20
2.849412
 30
0.0
  0
LWPOLYLINE
  5
1aa
100
AcDbEntity
  8
Layer_1
 62
3
100
AcDbPolyline
 90
2
 70
0
 10
8.588871
 20
2.849738
 30
0.0
 10
7.997743
 20
2.849660
 30
0.0
  0
LWPOLYLINE
  5
1ab
100
AcDbEntity
  8
Layer_1
 62
3
100
AcDbPolyline
 90
2
 70
0
 10
8.588871
 20
2.939028
 30
0.0
 10
7.997743
 20
2.939018
 30
0.0
  0
LWPOLYLINE
  5
1ac
100
AcDbEntity
  8
Layer_1
 62
3
100
AcDbPolyline
 90
2
 70
0
 10
8.588871
 20
3.028319
 30
0.0
 10
7.997743
 20
3.028241
 30
0.0
  0
LWPOLYLINE
  5
1ad
100
AcDbEntity
  8
Layer_1
 62
3
100
AcDbPolyline
 90
2
 70
0
 10
8.588871
 20
3.117610
 30
0.0
 10
7.997743
 20
3.117532
 30
0.0
  0
LWPOLYLINE
  5
1ae
100
AcDbEntity
  8
Layer_1
 62
3
100
AcDbPolyline
 90
2
 70
0
 10
8.588871
 20
3.207921
 30
0.0
 10
7.997743
 20
3.207068
 30
0.0
  0
LWPOLYLINE
  5
1af
100
AcDbEntity
  8
Layer_1
 62
3
100
AcDbPolyline
 90
2
 70
0
 10
8.476472
 20
3.161683
 30
0.0
 10
7.349765
 20
3.161716
 30
0.0
  0
LWPOLYLINE
  5
1b0
100
AcDbEntity
  8
Layer_1
 62
3
100
AcDbPolyline
 90
2
 70
0
 10
8.476472
 20
3.072395
 30
0.0
 10
7.349765
 20
3.072429
 30
0.0
  0
LWPOLYLINE
  5
1b1
100
AcDbEntity
  8
Layer_1
 62
3
100
AcDbPolyline
 90
2
 70
0
 10
8.476472
 20
2.893824
 30
0.0
 10
7.349765
 20
2.893857
 30
0.0
  0
LWPOLYLINE
  5
1b2
100
AcDbEntity
  8
Layer_1
 62
3
100
AcDbPolyline
 90
2
 70
0
 10
8.476472
 20
2.983118
 30
0.0
 10
7.349765
 20
2.983151
 30
0.0
  0
LWPOLYLINE
  5
1b3
100
AcDbEntity
  8
Layer_1
 62
1
100
AcDbPolyline
 90
14
 70
1
 10
0.721749
 20
1.493598
 30
0.0
 10
0.600719
 20
1.494443
 30
0.0
 10
0.599878
 20
1.373988
 30
0.0
 10
0.404856
 20
1.375350
 30
0.0
 10
0.405697
 20
1.495804
 30
0.0
 10
0.284668
 20
1.496651
 30
0.0
 10
0.286030
 20
1.691674
 30
0.0
 10
0.407059
 20
1.690829
 30
0.0
 10
0.407904
 20
1.811858
 30
0.0
 10
0.602926
 20
1.810496
 30
0.0
 10
0.602082
 20
1.689467
 30
0.0
 10
0.723111
 20
1.688623
 30
0.0
 10
0.721749
 20
1.493599
 30
0.0
 10
0.721749
 20
1.493598
 30
0.0
  0
SPLINE
  5
1b4
100
AcDbEntity
  8
Layer_1
 62
3
100
AcDbSpline
 70
0
 71
3
 72
19
 73
15
 74
13
 40
0.000000
 40
0.000000
 40
0.000000
 40
0.000000
 40
0.040335
 40
0.129073
 40
0.217811
 40
0.307919
 40
0.386231
 40
0.420825
 40
0.455418
 40
0.533731
 40
0.623840
 40
0.712577
 40
0.801314
 40
0.841650
 40
0.841650
 40
0.841650
 40
0.841650
 10
0.304326
 20
4.099239
 30
0.0
 10
0.294389
 20
4.090183
 30
0.0
 10
0.262587
 20
4.061204
 30
0.0
 10
0.209938
 20
4.011195
 30
0.0
 10
0.140269
 20
3.955193
 30
0.0
 10
0.090979
 20
3.882132
 30
0.0
 10
0.076139
 20
3.815715
 30
0.0
 10
0.067380
 20
3.766860
 30
0.0
 10
0.076139
 20
3.718006
 30
0.0
 10
0.090979
 20
3.651588
 30
0.0
 10
0.140268
 20
3.578526
 30
0.0
 10
0.209938
 20
3.522525
 30
0.0
 10
0.262587
 20
3.472517
 30
0.0
 10
0.294389
 20
3.443538
 30
0.0
 10
0.304326
 20
3.434482
 30
0.0
 11
0.304326
 21
4.099239
 31
0.0
 11
0.274572
 21
4.072007
 31
0.0
 11
0.209111
 21
4.012096
 31
0.0
 11
0.143650
 21
3.952185
 31
0.0
 11
0.094434
 21
3.876705
 31
0.0
 11
0.073688
 21
3.801191
 31
0.0
 11
0.069434
 21
3.766860
 31
0.0
 11
0.073688
 21
3.732529
 31
0.0
 11
0.094434
 21
3.657015
 31
0.0
 11
0.143650
 21
3.581533
 31
0.0
 11
0.209111
 21
3.521624
 31
0.0
 11
0.274572
 21
3.461713
 31
0.0
 11
0.304326
 21
3.434482
 31
0.0
  0
LWPOLYLINE
  5
1b5
100
AcDbEntity
  8
Layer_1
 62
1
100
AcDbPolyline
 90
14
 70
1
 10
0.739411
 20
0.538930
 30
0.0
 10
0.618382
 20
0.539774
 30
0.0
 10
0.617540
 20
0.419319
 30
0.0
 10
0.422518
 20
0.420681
 30
0.0
 10
0.423359
 20
0.541136
 30
0.0
 10
0.302330
 20
0.541982
 30
0.0
 10
0.303692
 20
0.737005
 30
0.0
 10
0.424722
 20
0.736161
 30
0.0
 10
0.425566
 20
0.857190
 30
0.0
 10
0.620588
 20
0.855828
 30
0.0
 10
0.619744
 20
0.734799
 30
0.0
 10
0.740774
 20
0.733954
 30
0.0
 10
0.739412
 20
0.538931
 30
0.0
 10
0.739411
 20
0.538930
 30
0.0
  0
SPLINE
  5
1b6
100
AcDbEntity
  8
Layer_1
 62
3
100
AcDbSpline
 70
0
 71
3
 72
10
 73
6
 74
4
 40
0.000000
 40
0.000000
 40
0.000000
 40
0.000000
 40
0.300396
 40
0.786841
 40
1.089512
 40
1.089512
 40
1.089512
 40
1.089512
 10
0.685520
 20
8.786489
 30
0.0
 10
0.743064
 20
8.704449
 30
0.0
 10
0.893790
 20
8.489558
 30
0.0
 10
1.161341
 20
8.237128
 30
0.0
 10
1.382932
 20
8.095223
 30
0.0
 10
1.467926
 20
8.040794
 30
0.0
 11
0.685520
 21
8.786489
 31
0.0
 11
0.864345
 21
8.545118
 31
0.0
 11
1.217037
 21
8.210101
 31
0.0
 11
1.467926
 21
8.040794
 31
0.0
  0
LWPOLYLINE
  5
1b7
100
AcDbEntity
  8
Layer_1
 62
3
100
AcDbPolyline
 90
6
 70
1
 10
1.467926
 20
8.040794
 30
0.0
 10
1.469073
 20
8.040794
 30
0.0
 10
1.469073
 20
8.227218
 30
0.0
 10
1.853392
 20
8.227218
 30
0.0
 10
1.853392
 20
8.040794
 30
0.0
 10
2.441917
 20
8.040794
 30
0.0
  0
SPLINE
  5
1b8
100
AcDbEntity
  8
Layer_1
 62
3
100
AcDbSpline
 70
0
 71
3
 72
10
 73
6
 74
4
 40
0.000000
 40
0.000000
 40
0.000000
 40
0.000000
 40
0.163127
 40
0.365710
 40
0.508503
 40
0.508503
 40
0.508503
 40
0.508503
 10
2.441917
 20
8.040794
 30
0.0
 10
2.495377
 20
8.048730
 30
0.0
 10
2.615225
 20
8.066521
 30
0.0
 10
2.785231
 20
8.114326
 30
0.0
 10
2.864353
 20
8.200284
 30
0.0
 10
2.897065
 20
8.235822
 30
0.0
 11
2.441917
 21
8.040794
 31
0.0
 11
2.602776
 21
8.067902
 31
0.0
 11
2.792715
 21
8.138349
 31
0.0
 11
2.897065
 21
8.235822
 31
0.0
  0
LWPOLYLINE
  5
1b9
100
AcDbEntity
  8
Layer_1
 62
3
100
AcDbPolyline
 90
6
 70
1
 10
2.897065
 20
8.235822
 30
0.0
 10
2.897065
 20
8.824347
 30
0.0
 10
2.746206
 20
8.824347
 30
0.0
 10
2.746206
 20
9.208667
 30
0.0
 10
2.897065
 20
9.208667
 30
0.0
 10
2.897065
 20
9.797192
 30
0.0
  0
SPLINE
  5
1ba
100
AcDbEntity
  8
Layer_1
 62
3
100
AcDbSpline
 70
0
 71
3
 72
10
 73
6
 74
4
 40
0.000000
 40
0.000000
 40
0.000000
 40
0.000000
 40
0.136218
 40
0.343478
 40
0.511630
 40
0.511630
 40
0.511630
 40
0.511630
 10
2.897065
 20
9.797192
 30
0.0
 10
2.868084
 20
9.833372
 30
0.0
 10
2.795007
 20
9.924602
 30
0.0
 10
2.619512
 20
9.966393
 30
0.0
 10
2.496856
 20
9.984230
 30
0.0
 10
2.441917
 20
9.992219
 30
0.0
 11
2.897065
 21
9.797192
 31
0.0
 11
2.803085
 21
9.895797
 31
0.0
 11
2.607961
 21
9.965678
 31
0.0
 11
2.441917
 21
9.992219
 31
0.0
  0
LWPOLYLINE
  5
1bb
100
AcDbEntity
  8
Layer_1
 62
3
100
AcDbPolyline
 90
6
 70
1
 10
2.441917
 20
9.992219
 30
0.0
 10
1.853392
 20
9.992219
 30
0.0
 10
1.853392
 20
9.805796
 30
0.0
 10
1.469073
 20
9.805796
 30
0.0
 10
1.469073
 20
9.992219
 30
0.0
 10
1.467926
 20
9.992219
 30
0.0
  0
SPLINE
  5
1bc
100
AcDbEntity
  8
Layer_1
 62
3
100
AcDbSpline
 70
0
 71
3
 72
10
 73
6
 74
4
 40
0.000000
 40
0.000000
 40
0.000000
 40
0.000000
 40
0.302671
 40
0.789116
 40
1.089512
 40
1.089512
 40
1.089512
 40
1.089512
 10
1.467926
 20
9.992219
 30
0.0
 10
1.382932
 20
9.937791
 30
0.0
 10
1.161341
 20
9.795886
 30
0.0
 10
0.893790
 20
9.543456
 30
0.0
 10
0.743064
 20
9.328565
 30
0.0
 10
0.685520
 20
9.246525
 30
0.0
 11
1.467926
 21
9.992219
 31
0.0
 11
1.217037
 21
9.822912
 31
0.0
 11
0.864345
 21
9.487896
 31
0.0
 11
0.685520
 21
9.246525
 31
0.0
  0
LWPOLYLINE
  5
1bd
100
AcDbEntity
  8
Layer_1
 62
3
100
AcDbPolyline
 90
2
 70
1
 10
0.685520
 20
9.246525
 30
0.0
 10
0.685520
 20
8.786489
 30
0.0
  0
ENDSEC
  0
SECTION
  2
OBJECTS
  0
DICTIONARY
  5
C
330
0
100
AcDbDictionary
  3
ACAD_GROUP
350
D
  3
ACAD_MLINESTYLE
350
17
  0
DICTIONARY
  5
D
330
C
100
AcDbDictionary
  0
DICTIONARY
  5
1A
330
C
100
AcDbDictionary
  0
DICTIONARY
  5
17
330
C
100
AcDbDictionary
  3
STANDARD
350
18
  0
DICTIONARY
  5
19
330
C
100
AcDbDictionary
  0
ENDSEC
  0
EOF
