<?xml version="1.0" encoding="UTF-8" standalone="no"?>
<!-- Created with Inkscape (http://www.inkscape.org/) -->

<svg
   xmlns:dc="http://purl.org/dc/elements/1.1/"
   xmlns:cc="http://creativecommons.org/ns#"
   xmlns:rdf="http://www.w3.org/1999/02/22-rdf-syntax-ns#"
   xmlns:svg="http://www.w3.org/2000/svg"
   xmlns="http://www.w3.org/2000/svg"
   xmlns:sodipodi="http://sodipodi.sourceforge.net/DTD/sodipodi-0.dtd"
   xmlns:inkscape="http://www.inkscape.org/namespaces/inkscape"
   width="24in"
   height="12in"
   id="svg8661"
   version="1.1"
   inkscape:version="0.91 r13725"
   sodipodi:docname="Trebuchet_Scaledv5.svg">
  <sodipodi:namedview
     inkscape:document-units="mm"
     pagecolor="#ffffff"
     bordercolor="#666666"
     borderopacity="1.0"
     inkscape:pageopacity="0.0"
     inkscape:pageshadow="2"
     inkscape:zoom="1.28"
     inkscape:cx="432.9859"
     inkscape:cy="815.9144"
     inkscape:current-layer="layer1"
     id="namedview8665"
     showgrid="true"
     inkscape:object-paths="true"
     inkscape:snap-center="true"
     showguides="true"
     inkscape:guide-bbox="true"
     inkscape:window-width="1920"
     inkscape:window-height="1018"
     inkscape:window-x="-8"
     inkscape:window-y="-8"
     inkscape:window-maximized="1"
     inkscape:snap-global="true"
     units="in"
     fit-margin-top="0"
     fit-margin-left="0"
     fit-margin-right="0"
     fit-margin-bottom="0">
    <inkscape:grid
       type="xygrid"
       id="grid4268"
       units="in"
       spacingx="45"
       spacingy="45"
       snapvisiblegridlinesonly="false"
       enabled="false" />
  </sodipodi:namedview>
  <defs
     id="defs8663" />
  <metadata
     id="metadata8667">
    <rdf:RDF>
      <cc:Work
         rdf:about="">
        <dc:format>image/svg+xml</dc:format>
        <dc:type
           rdf:resource="http://purl.org/dc/dcmitype/StillImage" />
        <dc:title></dc:title>
      </cc:Work>
    </rdf:RDF>
  </metadata>
  <g
     transform="translate(0.01831,335.88785)"
     id="layer1"
     inkscape:groupmode="layer"
     inkscape:label="Layer 1">
    <rect
       height="0"
       y="510.77637"
       x="266.31967"
       width="2.7108188"
       id="rect4211"
       style="fill:none;stroke:#ff0000;stroke-width:0.9;stroke-miterlimit:4;stroke-dasharray:none;stroke-opacity:1" />
    <text
       sodipodi:linespacing="125%"
       id="text4210"
       y="-458.60907"
       x="52.77615"
       style="font-style:normal;font-weight:normal;font-size:40px;line-height:125%;font-family:sans-serif;letter-spacing:0px;word-spacing:0px;fill:#000000;fill-opacity:1;stroke:#ff0000;stroke-width:0.9;stroke-linecap:butt;stroke-linejoin:miter;stroke-opacity:1;stroke-miterlimit:4;stroke-dasharray:none"
       xml:space="preserve"><tspan
         y="-458.60907"
         x="52.77615"
         id="tspan4212"
         sodipodi:role="line">Plywood in lab is 4.66mm</tspan></text>
    <g
       id="g4830"
       style="stroke-width:0.09;stroke-miterlimit:4;stroke-dasharray:none"
       transform="matrix(0,-1,1,0,342.18984,249.74503)">
      <path
         id="path3440-2-3-2-6"
         style="color:#000000;display:inline;overflow:visible;visibility:visible;fill:none;stroke:#00ff00;stroke-width:0.09;stroke-linecap:butt;stroke-linejoin:miter;stroke-miterlimit:4;stroke-dasharray:none;stroke-dashoffset:0;stroke-opacity:1;marker:none;enable-background:accumulate"
         d="M 80.784701,-256.44788 428.1123,-8.19356 c 0,0 1.26112,0.90149 1.89167,1.35216 3.90093,2.78825 3.86264,8.37828 3.86264,8.37828 0,0 0.0382,5.59004 -3.86264,8.37829 -0.63055,0.45066 -1.89167,1.35199 -1.89167,1.35199 l -347.327599,248.2543 0,-257.98458 z m -74.5958012,586.50214 26.2837532,0 48.312048,0 L 498.35025,31.45097 c 0,0 12.33829,-8.82317 18.50743,-13.23483 7.7684,-5.55518 8.54855,-16.67926 8.54855,-16.67926 0,0 -0.78015,-11.12407 -8.54855,-16.67942 -6.16914,-4.4115 -18.50743,-13.23466 -18.50743,-13.23466 l -417.565549,-298.60348 -48.312048,0 -26.2837532,0 0,328.51756 z"
         inkscape:connector-curvature="0"
         sodipodi:nodetypes="cccccccccccccscccccccc" />
      <path
         inkscape:connector-curvature="0"
         id="rect6104-8-2-17-6"
         d="m 479.7912,21.351248 7.64855,-7.756 7.7192,7.6122 12.32448,-12.4978 -7.71917,-7.6122 7.64837,-7.7561 -12.49785,-12.3245 -7.64853,7.756 -7.75595,-7.6485 -12.32447,12.4978 7.75596,7.6485 -7.64853,7.756 12.49788,12.3246 z"
         style="fill:none;stroke:#ff0000;stroke-width:0.09;stroke-miterlimit:4;stroke-dasharray:none;stroke-dashoffset:0;stroke-opacity:1" />
      <rect
         style="fill:none;stroke:#ff0000;stroke-width:0.09;stroke-miterlimit:4;stroke-dasharray:none;stroke-dashoffset:0;stroke-opacity:1"
         id="rect5024-94-2-6-6"
         width="16.87035"
         height="34.566589"
         x="-88.435127"
         y="-309.99805"
         transform="scale(-1,1)" />
      <rect
         style="fill:none;stroke:#ff0000;stroke-width:0.09;stroke-miterlimit:4;stroke-dasharray:none;stroke-dashoffset:0;stroke-opacity:1"
         id="rect5024-94-2-6-5-2"
         width="16.87035"
         height="34.566589"
         x="-88.435127"
         y="-310.48828"
         transform="scale(-1,-1)" />
      <ellipse
         ry="25.398001"
         rx="26.744692"
         id="path8250-2-7-9"
         style="fill:none;stroke:#00ff00;stroke-width:0.09;stroke-miterlimit:4;stroke-dasharray:none;stroke-dashoffset:0;stroke-opacity:1"
         cx="115.65541"
         cy="-189.21819" />
      <path
         inkscape:connector-curvature="0"
         id="rect6104-8-2-1-0"
         d="m 135.26273,-180.27898 -10.89266,-0.076 -0.0757,10.84096 -17.55202,-0.12258 0.0757,-10.8409 -10.89259,-0.0762 0.12258,-17.55206 10.89264,0.076 0.076,-10.8926 17.55201,0.12258 -0.076,10.89261 10.89267,0.076 -0.12258,17.55209 z"
         style="fill:none;stroke:#ff0000;stroke-width:0.09;stroke-miterlimit:4;stroke-dasharray:none;stroke-dashoffset:0;stroke-opacity:1" />
      <ellipse
         ry="25.101561"
         rx="26.044161"
         id="path8250-2-7-9-1"
         style="fill:none;stroke:#00ff00;stroke-width:0.09;stroke-miterlimit:4;stroke-dasharray:none;stroke-dashoffset:0;stroke-opacity:1"
         cx="118.84357"
         cy="193.09558" />
      <path
         inkscape:connector-curvature="0"
         id="rect6104-8-2-1-0-0"
         d="m 139.15142,202.33125 -10.89266,-0.076 -0.0757,10.84096 -17.55202,-0.12258 0.0757,-10.8409 -10.89259,-0.0762 0.12258,-17.55206 10.89264,0.076 0.076,-10.8926 17.55201,0.12258 -0.076,10.89261 10.89267,0.076 -0.12258,17.55209 z"
         style="fill:none;stroke:#ff0000;stroke-width:0.09;stroke-miterlimit:4;stroke-dasharray:none;stroke-dashoffset:0;stroke-opacity:1" />
      <circle
         id="path8250-2-7-9-3"
         style="fill:none;stroke:#00ff00;stroke-width:0.09;stroke-miterlimit:4;stroke-dasharray:none;stroke-dashoffset:0;stroke-opacity:1"
         cx="127.23169"
         cy="-118.5441"
         r="41.310154" />
      <path
         inkscape:connector-curvature="0"
         id="rect6104-8-2-1-0-3"
         d="m 146.83904,-109.6049 -10.89266,-0.076 -0.0757,10.840956 -17.55202,-0.12258 0.0757,-10.840896 -10.89259,-0.0762 0.12258,-17.55206 10.89264,0.076 0.076,-10.8926 17.55201,0.12258 -0.076,10.89261 10.89267,0.076 -0.12258,17.55209 z"
         style="fill:none;stroke:#ff0000;stroke-width:0.09;stroke-miterlimit:4;stroke-dasharray:none;stroke-dashoffset:0;stroke-opacity:1" />
      <circle
         id="path8250-2-7-9-4"
         style="fill:none;stroke:#00ff00;stroke-width:0.09;stroke-miterlimit:4;stroke-dasharray:none;stroke-dashoffset:0;stroke-opacity:1"
         cx="125.73169"
         cy="120.67465"
         r="41.310154" />
      <path
         inkscape:connector-curvature="0"
         id="rect6104-8-2-1-0-7"
         d="m 145.33904,129.61385 -10.89266,-0.076 -0.0757,10.84096 -17.55202,-0.12258 0.0757,-10.8409 -10.89259,-0.0762 0.12258,-17.55206 10.89264,0.076 0.076,-10.8926 17.55201,0.12258 -0.076,10.89261 10.89267,0.076 -0.12258,17.55209 z"
         style="fill:none;stroke:#ff0000;stroke-width:0.09;stroke-miterlimit:4;stroke-dasharray:none;stroke-dashoffset:0;stroke-opacity:1" />
      <circle
         transform="matrix(0.99806438,0.06218914,-0.06218914,0.99806438,0,0)"
         id="path3098"
         style="fill:none;stroke:#ff0000;stroke-width:0.09;stroke-miterlimit:4;stroke-dasharray:none;stroke-dashoffset:0;stroke-opacity:1"
         cx="21.485058"
         cy="-294.07446"
         r="23.389738" />
      <circle
         transform="matrix(0.99806438,0.06218914,-0.06218914,0.99806438,0,0)"
         id="path3098-0"
         style="fill:none;stroke:#ff0000;stroke-width:0.09;stroke-miterlimit:4;stroke-dasharray:none;stroke-dashoffset:0;stroke-opacity:1"
         cx="58.670681"
         cy="290.14978"
         r="23.389738" />
      <circle
         r="70.102501"
         id="path8250-2-7-9-4-6"
         style="fill:none;stroke:#00ff00;stroke-width:0.09;stroke-miterlimit:4;stroke-dasharray:none;stroke-dashoffset:0;stroke-opacity:1"
         cx="156.77658"
         cy="3.9137249" />
      <circle
         r="70.102501"
         id="path8250-2-7-9-4-6-7"
         style="fill:none;stroke:#00ff00;stroke-width:0.09;stroke-miterlimit:4;stroke-dasharray:none;stroke-dashoffset:0;stroke-opacity:1"
         cx="309.07321"
         cy="1.4268627" />
      <path
         inkscape:connector-curvature="0"
         id="rect6104-8-2-1-0-7-4"
         d="m 176.3839,12.852935 -10.89266,-0.076 -0.0757,10.84096 -17.55202,-0.12258 0.0757,-10.8409 -10.89259,-0.0762 0.12258,-17.5520601 10.89264,0.076 0.076,-10.8925999 17.55201,0.12258 -0.076,10.8926099 10.89267,0.076 -0.12258,17.5520901 z"
         style="fill:none;stroke:#ff0000;stroke-width:0.09;stroke-miterlimit:4;stroke-dasharray:none;stroke-dashoffset:0;stroke-opacity:1" />
      <path
         inkscape:connector-curvature="0"
         id="rect6104-8-2-1-0-7-2"
         d="m 328.68053,10.366073 -10.89266,-0.076 -0.0757,10.84096 -17.55202,-0.12258 0.0757,-10.8409 -10.89259,-0.0762 0.12258,-17.5520603 10.89264,0.076 0.076,-10.8925997 17.55201,0.12258 -0.076,10.8926097 10.89267,0.076 -0.12258,17.5520903 z"
         style="fill:none;stroke:#ff0000;stroke-width:0.09;stroke-miterlimit:4;stroke-dasharray:none;stroke-dashoffset:0;stroke-opacity:1" />
      <path
         id="path3440-2-3-2-6-4"
         style="color:#000000;display:inline;overflow:visible;visibility:visible;fill:none;stroke:#00ff00;stroke-width:0.09;stroke-linecap:butt;stroke-linejoin:miter;stroke-miterlimit:4;stroke-dasharray:none;stroke-dashoffset:0;stroke-opacity:1;marker:none;enable-background:accumulate"
         d="M 450.05642,663.84682 102.72882,415.5925 c 0,0 -1.26112,-0.90149 -1.89167,-1.35216 -3.90093,-2.78825 -3.86264,-8.37828 -3.86264,-8.37828 0,0 -0.0382,-5.59004 3.86264,-8.37829 0.63055,-0.45066 1.89167,-1.35199 1.89167,-1.35199 l 347.3276,-248.2543 0,257.98458 z m 74.5958,-586.50214 -26.28375,0 -48.31205,0 -417.56555,298.60329 c 0,0 -12.33829,8.82317 -18.50743,13.23483 -7.7684,5.55518 -8.54855,16.67926 -8.54855,16.67926 0,0 0.78015,11.12407 8.54855,16.67942 6.16914,4.4115 18.50743,13.23466 18.50743,13.23466 l 417.56555,298.60348 48.31205,0 26.28375,0 0,-328.51756 z"
         inkscape:connector-curvature="0"
         sodipodi:nodetypes="cccccccccccccscccccccc" />
      <path
         inkscape:connector-curvature="0"
         id="rect6104-8-2-17-6-0"
         d="m 51.04992,386.04769 -7.64855,7.756 -7.7192,-7.6122 -12.32448,12.4978 7.71917,7.6122 -7.64837,7.7561 12.49785,12.3245 7.64853,-7.756 7.75595,7.6485 12.32447,-12.4978 -7.75596,-7.6485 7.64853,-7.756 -12.49788,-12.3246 z"
         style="fill:none;stroke:#ff0000;stroke-width:0.09;stroke-miterlimit:4;stroke-dasharray:none;stroke-dashoffset:0;stroke-opacity:1" />
      <rect
         style="fill:none;stroke:#ff0000;stroke-width:0.09;stroke-miterlimit:4;stroke-dasharray:none;stroke-dashoffset:0;stroke-opacity:1"
         id="rect5024-94-2-6-6-0"
         width="16.87035"
         height="34.566589"
         x="442.40601"
         y="-717.39697"
         transform="scale(1,-1)" />
      <rect
         style="fill:none;stroke:#ff0000;stroke-width:0.09;stroke-miterlimit:4;stroke-dasharray:none;stroke-dashoffset:0;stroke-opacity:1"
         id="rect5024-94-2-6-5-2-2"
         width="16.87035"
         height="34.566589"
         x="442.40601"
         y="96.91066" />
      <circle
         transform="matrix(-0.99806438,-0.06218914,0.06218914,-0.99806438,0,0)"
         id="path3098-8"
         style="fill:none;stroke:#ff0000;stroke-width:0.09;stroke-miterlimit:4;stroke-dasharray:none;stroke-dashoffset:0;stroke-opacity:1"
         cx="-533.66437"
         cy="-667.6723"
         r="23.389738" />
      <circle
         transform="matrix(-0.99806438,-0.06218914,0.06218914,-0.99806438,0,0)"
         id="path3098-0-9"
         style="fill:none;stroke:#ff0000;stroke-width:0.09;stroke-miterlimit:4;stroke-dasharray:none;stroke-dashoffset:0;stroke-opacity:1"
         cx="-496.47873"
         cy="-83.448036"
         r="23.389738" />
      <circle
         transform="scale(-1,-1)"
         r="70.102501"
         id="path8250-2-7-9-4-6-6"
         style="fill:none;stroke:#00ff00;stroke-width:0.09;stroke-miterlimit:4;stroke-dasharray:none;stroke-dashoffset:0;stroke-opacity:1"
         cx="-374.06454"
         cy="-403.48523" />
      <circle
         transform="scale(-1,-1)"
         r="70.102501"
         id="path8250-2-7-9-4-6-7-8"
         style="fill:none;stroke:#00ff00;stroke-width:0.09;stroke-miterlimit:4;stroke-dasharray:none;stroke-dashoffset:0;stroke-opacity:1"
         cx="-221.76791"
         cy="-405.97208" />
      <path
         inkscape:connector-curvature="0"
         id="rect6104-8-2-1-0-7-4-7"
         d="m 354.45722,394.546 10.89266,0.076 0.0757,-10.84096 17.55202,0.12258 -0.0757,10.8409 10.89259,0.0762 -0.12258,17.55207 -10.89264,-0.076 -0.076,10.89259 -17.55201,-0.12258 0.076,-10.8926 -10.89267,-0.076 0.12258,-17.5521 z"
         style="fill:none;stroke:#ff0000;stroke-width:0.09;stroke-miterlimit:4;stroke-dasharray:none;stroke-dashoffset:0;stroke-opacity:1" />
      <path
         inkscape:connector-curvature="0"
         id="rect6104-8-2-1-0-7-2-1"
         d="m 202.16059,397.03287 10.89266,0.076 0.0757,-10.84096 17.55202,0.12258 -0.0757,10.8409 10.89259,0.0762 -0.12258,17.55206 -10.89264,-0.076 -0.076,10.8926 -17.55201,-0.12258 0.076,-10.89261 -10.89267,-0.076 0.12258,-17.55209 z"
         style="fill:none;stroke:#ff0000;stroke-width:0.09;stroke-miterlimit:4;stroke-dasharray:none;stroke-dashoffset:0;stroke-opacity:1" />
      <path
         sodipodi:nodetypes="ccccccccccccccccc"
         inkscape:connector-curvature="0"
         style="fill:none;stroke:#00ff00;stroke-width:0.09;stroke-miterlimit:4;stroke-dasharray:none;stroke-dashoffset:0;stroke-opacity:1"
         d="m 239.66346,-283.25204 0,-1.51893 -87.69749,0 0,-39.20417 87.69749,0 0,-1.43424 107.08091,0 0,1.43424 87.75303,0 0,11.19383 -140.96024,0 0,16.81653 140.96024,0 0,11.19381 -87.75302,0 0,1.51893 z"
         id="rect5925" />
      <path
         sodipodi:nodetypes="ccccccccccccccccc"
         inkscape:connector-curvature="0"
         style="fill:none;stroke:#00ff00;stroke-width:0.09;stroke-miterlimit:4;stroke-dasharray:none;stroke-dashoffset:0;stroke-opacity:1"
         d="m 413.98741,-233.52794 0,-1.51893 87.69749,0 0,-39.20416 -87.69749,0 0,-1.43424 -107.08091,0 0,1.43424 -87.75303,0 0,11.19383 140.96025,0 0,16.81653 -140.96025,0 0,11.1938 87.75303,0 0,1.51893 z"
         id="rect5925-7" />
      <path
         sodipodi:nodetypes="ccccccccccccccccc"
         inkscape:connector-curvature="0"
         style="fill:none;stroke:#00ff00;stroke-width:0.09;stroke-miterlimit:4;stroke-dasharray:none;stroke-dashoffset:0;stroke-opacity:1"
         d="m 103.13222,687.53348 0,1.51893 -87.697495,0 0,39.20417 87.697495,0 0,1.43424 107.0809,0 0,-1.43424 87.75303,0 0,-11.19383 -140.96024,0 0,-16.81653 140.96024,0 0,-11.19381 -87.75303,0 0,-1.51893 z"
         id="rect5925-9" />
      <path
         sodipodi:nodetypes="ccccccccccccccccc"
         inkscape:connector-curvature="0"
         style="fill:none;stroke:#00ff00;stroke-width:0.09;stroke-miterlimit:4;stroke-dasharray:none;stroke-dashoffset:0;stroke-opacity:1"
         d="m 208.08116,677.94082 0,-1.51894 87.6975,0 0,-39.20417 -87.6975,0 0,-1.43423 -107.0809,0 0,1.43423 -87.753035,0 0,11.19384 140.960245,0 0,16.81652 -140.960245,0 0,11.19381 87.753035,0 0,1.51894 z"
         id="rect5925-1" />
    </g>
  </g>
</svg>
