<?xml version="1.0" encoding="UTF-8" standalone="no"?>
<!-- Created with Inkscape (http://www.inkscape.org/) -->

<svg
   xmlns:dc="http://purl.org/dc/elements/1.1/"
   xmlns:cc="http://creativecommons.org/ns#"
   xmlns:rdf="http://www.w3.org/1999/02/22-rdf-syntax-ns#"
   xmlns:svg="http://www.w3.org/2000/svg"
   xmlns="http://www.w3.org/2000/svg"
   xmlns:sodipodi="http://sodipodi.sourceforge.net/DTD/sodipodi-0.dtd"
   xmlns:inkscape="http://www.inkscape.org/namespaces/inkscape"
   width="24in"
   height="12in"
   id="svg8661"
   version="1.1"
   inkscape:version="0.91 r13725"
   sodipodi:docname="Trebuchet_Scaled.svg">
  <sodipodi:namedview
     inkscape:document-units="mm"
     pagecolor="#ffffff"
     bordercolor="#666666"
     borderopacity="1.0"
     inkscape:pageopacity="0.0"
     inkscape:pageshadow="2"
     inkscape:zoom="0.90028971"
     inkscape:cx="895.52405"
     inkscape:cy="803.32569"
     inkscape:current-layer="layer1"
     id="namedview8665"
     showgrid="false"
     inkscape:object-paths="true"
     inkscape:snap-center="true"
     showguides="true"
     inkscape:guide-bbox="true"
     inkscape:window-width="944"
     inkscape:window-height="1002"
     inkscape:window-x="0"
     inkscape:window-y="0"
     inkscape:window-maximized="0"
     inkscape:snap-global="true"
     units="in"
     fit-margin-top="0"
     fit-margin-left="0"
     fit-margin-right="0"
     fit-margin-bottom="0" />
  <defs
     id="defs8663" />
  <metadata
     id="metadata8667">
    <rdf:RDF>
      <cc:Work
         rdf:about="">
        <dc:format>image/svg+xml</dc:format>
        <dc:type
           rdf:resource="http://purl.org/dc/dcmitype/StillImage" />
        <dc:title />
      </cc:Work>
    </rdf:RDF>
  </metadata>
  <g
     transform="translate(0.01831,335.88785)"
     id="layer1"
     inkscape:groupmode="layer"
     inkscape:label="Layer 1">
    <rect
       height="0"
       y="510.77637"
       x="266.31967"
       width="2.7108188"
       id="rect4211"
       style="fill:none;stroke:#ff0000;stroke-width:0.9;stroke-miterlimit:4;stroke-dasharray:none;stroke-opacity:1" />
    <text
       sodipodi:linespacing="125%"
       id="text4210"
       y="-458.60907"
       x="52.77615"
       style="font-style:normal;font-weight:normal;font-size:40px;line-height:125%;font-family:sans-serif;letter-spacing:0px;word-spacing:0px;fill:#000000;fill-opacity:1;stroke:#ff0000;stroke-width:0.9;stroke-linecap:butt;stroke-linejoin:miter;stroke-opacity:1;stroke-miterlimit:4;stroke-dasharray:none"
       xml:space="preserve"><tspan
         y="-458.60907"
         x="52.77615"
         id="tspan4212"
         sodipodi:role="line">Plywood in lab is 4.66mm</tspan></text>
    <circle
       r="41.310154"
       cy="260.31351"
       cx="303.55099"
       style="fill:none;stroke:#00ff00;stroke-width:0.89999998;stroke-miterlimit:4;stroke-dasharray:none;stroke-dashoffset:0;stroke-opacity:1"
       id="path8250-2" />
    <path
       id="rect4945-5-5"
       d="m 484.65249,492.73788 -0.2065,-46.91034 -1.64728,-640.32201 -8.8073,0 0,-17.56062 8.75774,0 -0.16156,-63.57674 c 0,0 4.07006,-22.61398 -6.24663,-32.36888 -22.71265,-21.47573 -46.95255,-20.1429 -67.26737,3.61375 -9.26207,10.83131 -15.9005,33.6595 -15.9005,33.6595 l 3.786,42.77461 5.24894,59.30221 54.51548,615.9231 1.3618,10.97939 c 1.30114,-1.89983 6.12475,-2.63969 8.60183,-2.77101 4.22456,-0.22395 7.82955,3.00294 8.0535,7.2275 l 4.76063,29.736 z"
       style="fill:none;stroke:#00ff00;stroke-width:0.89999998;stroke-miterlimit:4;stroke-dasharray:none;stroke-dashoffset:0;stroke-opacity:1"
       inkscape:connector-curvature="0"
       sodipodi:nodetypes="cccccccsscccccsccc" />
    <path
       sodipodi:nodetypes="ssccccssccccssccccsss"
       inkscape:connector-curvature="0"
       id="rect7157"
       d="m 109.55779,425.79641 c 0,9.7286 60.68791,67.1125 70.4165,67.1125 l 0.10325,0 0,-16.77812 34.58875,0 0,16.77812 52.96725,0 c 9.7286,0 38.86344,-8.05323 40.96333,-17.5525 l 0,-52.96725 -13.57738,0 0,-34.58875 13.57738,0 0,-52.96725 c 0,-9.72859 -31.23473,-17.5525 -40.96333,-17.5525 l -52.96725,0 0,16.77813 -34.58875,0 0,-16.77813 -0.10325,0 c -9.72859,0 -70.4165,57.38391 -70.4165,67.1125 z"
       style="fill:none;stroke:#00ff00;stroke-width:0.89999998;stroke-miterlimit:4;stroke-dasharray:none;stroke-dashoffset:0;stroke-opacity:1" />
    <path
       sodipodi:nodetypes="ssccccssccccssccccsss"
       inkscape:connector-curvature="0"
       id="rect7157-0"
       d="m 308.59686,-15.39086 c 0,-9.7286 -60.68791,-67.1125 -70.4165,-67.1125 l -0.10325,0 0,16.77812 -34.58875,0 0,-16.77812 -52.96725,0 c -9.7286,0 -38.86344,8.05323 -40.96333,17.5525 l 0,52.96725 13.57738,0 0,34.58875 -13.57738,0 0,52.96725 c 0,9.72859 31.23473,17.5525 40.96333,17.5525 l 52.96725,0 0,-16.77813 34.58875,0 0,16.77813 0.10325,0 c 9.72859,0 70.4165,-57.38391 70.4165,-67.1125 z"
       style="fill:none;stroke:#00ff00;stroke-width:0.89999998;stroke-miterlimit:4;stroke-dasharray:none;stroke-dashoffset:0;stroke-opacity:1" />
    <circle
       r="41.310154"
       cy="-134.55171"
       cx="114.92242"
       id="path3094"
       style="fill:none;stroke:#00ff00;stroke-width:0.89999998;stroke-miterlimit:4;stroke-dasharray:none;stroke-dashoffset:0;stroke-opacity:1" />
    <circle
       r="41.310154"
       cy="546.4187"
       cx="306.57864"
       id="path3100"
       style="fill:none;stroke:#00ff00;stroke-width:0.89999998;stroke-miterlimit:4;stroke-dasharray:none;stroke-dashoffset:0;stroke-opacity:1" />
    <circle
       r="41.310154"
       cy="139.79012"
       cx="116.68576"
       id="path3106"
       style="fill:none;stroke:#00ff00;stroke-width:0.89999998;stroke-miterlimit:4;stroke-dasharray:none;stroke-dashoffset:0;stroke-opacity:1" />
    <path
       style="fill:none;stroke:#00ff00;stroke-width:0.89999998;stroke-miterlimit:4;stroke-dasharray:none;stroke-dashoffset:0;stroke-opacity:1"
       d="m 488.97494,316.31405 22.0146,0 0,17.55067 218.72571,0 0,-17.55067 22.01459,0 0,-34.53352 -22.01459,0 0,-552.43313 22.01459,0 0,-34.53352 -22.01459,0 0,-17.96362 -218.72571,0 0,17.96362 -22.0146,0 0,34.53352 22.0146,0 0,552.43314 -22.0146,0 0,34.53353 z"
       id="rect6330"
       inkscape:connector-curvature="0" />
    <path
       sodipodi:nodetypes="ccccccccccccccccccccccccccccccccccccccccccccccccccccccccccccccccccccccccccccccccccccccccccccccccccc"
       inkscape:connector-curvature="0"
       d="m 505.98135,628.81194 47.51377,-0.17751 m -47.51377,-14.69067 47.51379,0.0116 m -47.51379,-14.61879 47.51379,0.0116 m -47.51379,-14.61881 47.51379,0.0116 m -47.51379,-14.61879 47.51379,0.0116 m -47.51379,-14.6188 47.51379,0.0116 m 21.92682,0.0316 53.19755,0.005 m -53.19755,14.60282 53.19755,0.005 m -53.19755,14.61274 53.19755,-0.005 m -53.19755,14.60281 53.19755,0.005 0,-2e-5 m -53.19755,14.60285 53.19755,0.005 0,0 m -53.19755,14.64316 53.19755,0.25008 m -111.51118,-7.67408 101.39601,-0.008 m -101.39601,-14.59901 101.39601,-0.008 m -101.39601,-58.42244 101.39601,-0.008 m -101.39601,14.61663 101.39601,-0.008 m -101.39601,14.61662 101.39601,-0.008 m -101.39601,14.61661 101.39601,-0.008 m -65.00922,-178.2015 -47.51377,0.0116 m 47.51379,14.66626 -47.51379,0.008 m 47.51379,14.59897 -47.51379,0.008 m 47.51379,14.59898 -47.51379,0.008 m 47.51379,14.59897 -47.51379,0.008 m 47.51379,14.59898 -47.51379,0.008 m 122.63816,-0.0519 -53.19755,0.0116 m 53.19755,-14.61935 -53.19755,0.0116 m 53.19755,-14.61935 -53.19755,0.002 m 53.19755,-14.60942 -53.19755,0.0116 m 53.19755,-14.61933 -53.19755,0.0116 m 53.19755,-14.78645 -53.19755,0.1396 m 43.0824,7.425 -101.39603,-0.005 m 101.39603,14.61223 -101.39603,-0.005 m 101.39603,58.43565 -101.39603,-0.005 m 101.39603,-14.60341 -101.39603,-0.005 m 101.39603,-14.60341 -101.39603,-0.005 m 101.39603,-14.6034 -101.39603,-0.005 m 111.63608,-69.08762 17.08805,0 0,-34.53746 -17.08805,0 -122.89371,0.002 -17.50105,0 0,34.53746 17.50105,0 0,121.76134 -17.79374,0.002 0,34.57638 17.79374,0 0,121.57938 -17.50105,0 0,34.53746 17.50105,0 122.89371,-0.002 17.08805,0 0,-34.53746 -17.08805,0 0,-121.57946 17.08805,8e-5 0,-34.57818 -17.08809,0.14538 z"
       style="fill:none;stroke:#00ff00;stroke-width:0.89999998;stroke-linecap:butt;stroke-linejoin:miter;stroke-miterlimit:4;stroke-dasharray:none;stroke-opacity:1"
       id="path4085-5-4-8-7-2" />
    <path
       sodipodi:nodetypes="ccccccccccccccccccccccccccccccccccccccccccccccccccccccccccccccccccccccccccccccccccccccccccccccccccc"
       inkscape:connector-curvature="0"
       d="m 670.36485,628.80854 47.51377,-0.17751 m -47.51377,-14.69067 47.51379,0.0116 m -47.51379,-14.61879 47.51379,0.0116 m -47.51379,-14.61881 47.51379,0.0116 m -47.51379,-14.61879 47.51379,0.0116 m -47.51379,-14.6188 47.51379,0.0116 m 21.92682,0.0316 53.19755,0.005 m -53.19755,14.60282 53.19755,0.005 m -53.19755,14.61274 53.19755,-0.005 m -53.19755,14.60281 53.19755,0.005 0,-2e-5 m -53.19755,14.60285 53.19755,0.005 0,0 m -53.19755,14.64316 53.19755,0.25008 m -111.51118,-7.67408 101.39601,-0.008 m -101.39601,-14.59901 101.39601,-0.008 m -101.39601,-58.42244 101.39601,-0.008 m -101.39601,14.61663 101.39601,-0.008 m -101.39601,14.61662 101.39601,-0.008 m -101.39601,14.61661 101.39601,-0.008 m -65.00922,-178.2015 -47.51377,0.0116 m 47.51379,14.66626 -47.51379,0.008 m 47.51379,14.59897 -47.51379,0.008 m 47.51379,14.59898 -47.51379,0.008 m 47.51379,14.59897 -47.51379,0.008 m 47.51379,14.59898 -47.51379,0.008 m 122.63816,-0.0519 -53.19755,0.0116 m 53.19755,-14.61935 -53.19755,0.0116 m 53.19755,-14.61935 -53.19755,0.002 m 53.19755,-14.60942 -53.19755,0.0116 m 53.19755,-14.61933 -53.19755,0.0116 m 53.19755,-14.78645 -53.19755,0.1396 m 43.0824,7.425 -101.39603,-0.005 m 101.39603,14.61223 -101.39603,-0.005 m 101.39603,58.43565 -101.39603,-0.005 m 101.39603,-14.60341 -101.39603,-0.005 m 101.39603,-14.60341 -101.39603,-0.005 m 101.39603,-14.6034 -101.39603,-0.005 m 111.63608,-69.08762 17.08805,0 0,-34.53746 -17.08805,0 -122.89371,0.002 -17.50105,0 0,34.53746 17.50105,0 0,121.76134 -17.79374,0.002 0,34.57638 17.79374,0 0,121.57938 -17.50105,0 0,34.53746 17.50105,0 122.89371,-0.002 17.08805,0 0,-34.53746 -17.08805,0 0,-121.57946 17.08805,8e-5 0,-34.57818 -17.08809,0.14538 z"
       style="fill:none;stroke:#00ff00;stroke-width:0.89999998;stroke-linecap:butt;stroke-linejoin:miter;stroke-miterlimit:4;stroke-dasharray:none;stroke-opacity:1"
       id="path4085-5-4-8-7-2-5" />
    <path
       inkscape:connector-curvature="0"
       id="rect5925-2-0"
       d="m 345.68844,-104.55424 0,-67.40989 -0.82533,0 0,-22.67 0.82533,0 0,-67.40991 -39.35804,0 0,67.40991 0.82534,0 0,22.67 -0.82534,0 0,67.40989 11.19357,0 0,-78.54487 16.91932,0 0,78.54487 11.24515,0 z"
       style="fill:none;stroke:#00ff00;stroke-width:0.90000004;stroke-miterlimit:4;stroke-dasharray:none;stroke-dashoffset:0;stroke-opacity:1" />
    <path
       id="rect5925-2-0-0"
       d="m 388.60573,-104.55424 0,-67.40989 -0.82534,0 0,-22.67 0.82534,0 0,-67.40991 -39.35804,0 0,67.40991 0.82532,0 0,22.67 -0.82532,0 0,67.40989 11.19357,0 0,-78.54487 16.9193,0 0,78.54487 11.24517,0 z"
       style="fill:none;stroke:#00ff00;stroke-width:0.90000004;stroke-miterlimit:4;stroke-dasharray:none;stroke-dashoffset:0;stroke-opacity:1"
       inkscape:connector-curvature="0" />
    <circle
       r="23.101168"
       cy="285.4957"
       cx="-283.16446"
       transform="matrix(-0.99859787,0.05293675,-0.05293675,-0.99859787,0,0)"
       id="path4956-2-2-5-6-2"
       style="fill:none;stroke:#00ff00;stroke-width:0.90000004;stroke-miterlimit:4;stroke-dasharray:none;stroke-dashoffset:0;stroke-opacity:1" />
    <circle
       r="23.101168"
       cy="231.06808"
       cx="-280.27917"
       transform="matrix(-0.99859787,0.05293675,-0.05293675,-0.99859787,0,0)"
       id="path4956-2-2-6-0-2"
       style="fill:none;stroke:#00ff00;stroke-width:0.90000004;stroke-miterlimit:4;stroke-dasharray:none;stroke-dashoffset:0;stroke-opacity:1" />
    <circle
       r="41.310154"
       cy="597.07172"
       cx="460.19217"
       style="fill:none;stroke:#00ff00;stroke-width:0.89999998;stroke-miterlimit:4;stroke-dasharray:none;stroke-dashoffset:0;stroke-opacity:1"
       id="path8250-2-7" />
    <circle
       r="41.310154"
       cy="537.51953"
       cx="58.67746"
       style="fill:none;stroke:#00ff00;stroke-width:0.89999998;stroke-miterlimit:4;stroke-dasharray:none;stroke-dashoffset:0;stroke-opacity:1"
       id="path8250-2-7-9" />
    <path
       id="path3440-2-3"
       style="color:#000000;display:inline;overflow:visible;visibility:visible;fill:none;stroke:#00ff00;stroke-width:0.89999998;stroke-linecap:butt;stroke-linejoin:miter;stroke-miterlimit:4;stroke-dasharray:none;stroke-dashoffset:0;stroke-opacity:1;marker:none;enable-background:accumulate"
       d="m 64.51663,263.29537 271.3861,-248.2543 c 0,0 0.98538,-0.90149 1.47807,-1.35216 3.04801,-2.78825 3.01809,-8.37828 3.01809,-8.37828 0,0 0.0299,-5.59004 -3.01809,-8.37829 -0.49269,-0.45066 -1.47807,-1.35199 -1.47807,-1.35199 l -271.3861,-248.2543 0,257.98458 z m -58.2858,-586.50212 20.5369,0 37.7489,0 326.26687,298.60329 c 0,0 9.64058,8.82317 14.46087,13.23483 6.06988,5.55518 6.67945,16.67926 6.67945,16.67926 0,0 -0.60957,11.12407 -6.67945,16.67942 -4.82029,4.4115 -14.46087,13.23466 -14.46087,13.23466 l -326.26687,298.60346 -37.7489,0 -20.5369,0 0,-328.51754 z"
       inkscape:connector-curvature="0"
       sodipodi:nodetypes="cccccccccccccscccccccc" />
    <circle
       r="23.389738"
       cy="240.93208"
       cx="319.15216"
       transform="matrix(0.99806438,0.06218914,-0.06218914,0.99806438,0,0)"
       id="path4956-2-2-8-6"
       style="fill:none;stroke:#ff0000;stroke-width:0.89999998;stroke-miterlimit:4;stroke-dasharray:none;stroke-dashoffset:0;stroke-opacity:1" />
    <circle
       r="7.6599865"
       cy="446.29675"
       cx="-452.73697"
       style="fill:none;stroke:#ff0000;stroke-width:0.89999998;stroke-miterlimit:4;stroke-dasharray:none;stroke-dashoffset:0;stroke-opacity:1"
       id="path5885-5-0"
       transform="matrix(-0.05293675,-0.99859787,0.99859787,-0.05293675,0,0)" />
    <circle
       r="23.101168"
       cy="446.34738"
       cx="76.174995"
       transform="matrix(-0.05293675,-0.99859787,0.99859787,-0.05293675,0,0)"
       id="path4956-2-2"
       style="fill:none;stroke:#ff0000;stroke-width:0.89999998;stroke-miterlimit:4;stroke-dasharray:none;stroke-dashoffset:0;stroke-opacity:1" />
    <path
       style="fill:none;stroke:#ff0000;stroke-width:0.89999998;stroke-miterlimit:4;stroke-dasharray:none;stroke-dashoffset:0;stroke-opacity:1"
       d="m 450.03351,-301.93197 -0.076,10.89266 10.84095,0.0757 -0.12258,17.55204 -10.8409,-0.0757 -0.0762,10.89259 -17.55205,-0.12258 0.076,-10.89262 -10.8926,-0.076 0.12258,-17.55203 10.89261,0.076 0.076,-10.89266 17.55209,0.12258 z"
       id="rect6104-8-2-4-0"
       inkscape:connector-curvature="0" />
    <path
       style="fill:none;stroke:#ff0000;stroke-width:0.89999998;stroke-miterlimit:4;stroke-dasharray:none;stroke-dashoffset:0;stroke-opacity:1"
       d="m 165.10938,414.02829 -10.89266,-0.076 -0.0757,10.84095 -17.55204,-0.12258 0.0757,-10.8409 -10.89259,-0.0762 0.12258,-17.55205 10.89263,0.076 0.076,-10.89259 17.55202,0.12257 -0.076,10.89261 10.89266,0.076 -0.12258,17.55208 z"
       id="rect6104-8-2"
       inkscape:connector-curvature="0" />
    <path
       style="fill:none;stroke:#ff0000;stroke-width:0.89999998;stroke-miterlimit:4;stroke-dasharray:none;stroke-dashoffset:0;stroke-opacity:1"
       d="m 253.04527,-3.62274 10.89266,0.076 0.0757,-10.84095 17.55204,0.12258 -0.0757,10.8409 10.8926,0.0762 -0.12258,17.55205 -10.89263,-0.076 -0.076,10.89259 -17.55202,-0.12258 0.076,-10.89261 -10.89266,-0.076 0.12258,-17.55209 z"
       id="rect6104-8-2-5"
       inkscape:connector-curvature="0" />
    <circle
       r="23.389738"
       cy="-141.43819"
       cx="106.33232"
       style="fill:none;stroke:#ff0000;stroke-width:0.89999998;stroke-miterlimit:4;stroke-dasharray:none;stroke-dashoffset:0;stroke-opacity:1"
       id="path3092"
       transform="matrix(0.99806438,0.06218914,-0.06218914,0.99806438,0,0)" />
    <circle
       r="23.389738"
       cy="526.29517"
       cx="339.96655"
       style="fill:none;stroke:#ff0000;stroke-width:0.89999998;stroke-miterlimit:4;stroke-dasharray:none;stroke-dashoffset:0;stroke-opacity:1"
       id="path3098"
       transform="matrix(0.99806438,0.06218914,-0.06218914,0.99806438,0,0)" />
    <circle
       r="23.389738"
       cy="132.26295"
       cx="125.15334"
       style="fill:none;stroke:#ff0000;stroke-width:0.89999998;stroke-miterlimit:4;stroke-dasharray:none;stroke-dashoffset:0;stroke-opacity:1"
       id="path3104"
       transform="matrix(0.99806438,0.06218914,-0.06218914,0.99806438,0,0)" />
    <path
       style="fill:none;stroke:#ff0000;stroke-width:0.89999998;stroke-miterlimit:4;stroke-dasharray:none;stroke-dashoffset:0;stroke-opacity:1"
       d="m 479.79951,606.01092 -10.89266,-0.076 -0.0757,10.84096 -17.55202,-0.12258 0.0757,-10.8409 -10.89259,-0.0762 0.12258,-17.55206 10.89264,0.076 0.076,-10.8926 17.552,0.12258 -0.076,10.89261 10.89267,0.076 -0.12258,17.55209 z"
       id="rect6104-8-2-1"
       inkscape:connector-curvature="0" />
    <path
       style="fill:none;stroke:#ff0000;stroke-width:0.89999998;stroke-miterlimit:4;stroke-dasharray:none;stroke-dashoffset:0;stroke-opacity:1"
       d="m 78.28481,546.45874 -10.89266,-0.076 -0.0757,10.84096 -17.55202,-0.12258 0.0757,-10.8409 -10.89259,-0.0762 0.12258,-17.55206 10.89264,0.076 0.076,-10.8926 17.55201,0.12258 -0.076,10.89261 10.89267,0.076 -0.12258,17.55209 z"
       id="rect6104-8-2-1-0"
       inkscape:connector-curvature="0" />
    <path
       style="fill:none;stroke:#ff0000;stroke-width:0.89999998;stroke-miterlimit:4;stroke-dasharray:none;stroke-dashoffset:0;stroke-opacity:1"
       d="m 384.99527,25.48257 -7.64854,-7.75601 -7.7192,7.6122 -12.32449,-12.49783 7.71917,-7.61216 -7.64836,-7.75609 12.49784,-12.3245 7.64853,7.75601 7.75596,-7.6485 12.32446,12.49781 -7.75595,7.64851 7.64852,7.75601 -12.49787,12.32451 z"
       id="rect6104-8-2-17"
       inkscape:connector-curvature="0" />
    <rect
       transform="scale(-1,1)"
       y="-304.9324"
       x="-43.638062"
       height="34.566589"
       width="16.87035"
       id="rect5024-94-2-6-6"
       style="fill:none;stroke:#ff0000;stroke-width:0.89999998;stroke-miterlimit:4;stroke-dasharray:none;stroke-dashoffset:0;stroke-opacity:1" />
    <rect
       transform="scale(-1,-1)"
       y="-315.55392"
       x="-43.638062"
       height="34.566589"
       width="16.87035"
       id="rect5024-94-2-6-5-2"
       style="fill:none;stroke:#ff0000;stroke-width:0.89999998;stroke-miterlimit:4;stroke-dasharray:none;stroke-dashoffset:0;stroke-opacity:1" />
    <path
       style="fill:none;stroke:#ff0000;stroke-width:0.89999998;stroke-miterlimit:4;stroke-dasharray:none;stroke-dashoffset:0;stroke-opacity:1"
       d="m 33.15933,425.26665 7.64855,-7.756 7.7192,7.6122 12.32448,-12.4978 -7.71917,-7.6122 7.64837,-7.7561 -12.49785,-12.3245 -7.64853,7.756 -7.75595,-7.6485 -12.32447,12.4978 7.75596,7.6485 -7.64853,7.756 12.49788,12.3246 z"
       id="rect6104-8-2-17-6"
       inkscape:connector-curvature="0" />
    <rect
       y="94.851677"
       x="374.51654"
       height="34.566589"
       width="16.87035"
       id="rect5024-94-2-6-6-8"
       style="fill:none;stroke:#ff0000;stroke-width:0.89999998;stroke-miterlimit:4;stroke-dasharray:none;stroke-dashoffset:0;stroke-opacity:1" />
    <rect
       transform="scale(1,-1)"
       y="-715.33801"
       x="374.51654"
       height="34.566589"
       width="16.87035"
       id="rect5024-94-2-6-5-2-9"
       style="fill:none;stroke:#ff0000;stroke-width:0.89999998;stroke-miterlimit:4;stroke-dasharray:none;stroke-dashoffset:0;stroke-opacity:1" />
    <path
       id="path3440-2-3-2"
       style="color:#000000;display:inline;overflow:visible;visibility:visible;fill:none;stroke:#00ff00;stroke-width:0.89999998;stroke-linecap:butt;stroke-linejoin:miter;stroke-miterlimit:4;stroke-dasharray:none;stroke-dashoffset:0;stroke-opacity:1;marker:none;enable-background:accumulate"
       d="M 353.63794,663.07949 82.25184,414.82517 c 0,0 -0.98538,-0.90149 -1.47807,-1.35216 -3.04801,-2.78825 -3.01809,-8.37828 -3.01809,-8.37828 0,0 -0.0299,-5.59004 3.01809,-8.37829 0.49269,-0.45066 1.47807,-1.35199 1.47807,-1.35199 l 271.3861,-248.2543 0,257.98458 z m 58.2858,-586.50214 -20.5369,0 -37.7489,0 -326.26687,298.60329 c 0,0 -9.64058,8.82317 -14.46087,13.23483 -6.06988,5.55518 -6.67945,16.67926 -6.67945,16.67926 0,0 0.60957,11.12407 6.67945,16.67942 4.82029,4.4115 14.46087,13.23466 14.46087,13.23466 l 326.26687,298.60348 37.7489,0 20.5369,0 0,-328.51756 z"
       inkscape:connector-curvature="0"
       sodipodi:nodetypes="cccccccccccccscccccccc" />
    <circle
       r="23.101168"
       cy="288.22348"
       cx="-231.70749"
       transform="matrix(-0.99859787,0.05293675,-0.05293675,-0.99859787,0,0)"
       id="path4956-2-2-5-6-2-9"
       style="fill:none;stroke:#00ff00;stroke-width:0.90000004;stroke-miterlimit:4;stroke-dasharray:none;stroke-dashoffset:0;stroke-opacity:1" />
    <circle
       r="23.101168"
       cy="233.79588"
       cx="-228.82224"
       transform="matrix(-0.99859787,0.05293675,-0.05293675,-0.99859787,0,0)"
       id="path4956-2-2-6-0-2-5"
       style="fill:none;stroke:#00ff00;stroke-width:0.90000004;stroke-miterlimit:4;stroke-dasharray:none;stroke-dashoffset:0;stroke-opacity:1" />
    <circle
       r="23.101168"
       cy="-334.53619"
       cx="-282.7724"
       transform="matrix(0.05293675,0.99859787,-0.99859787,0.05293675,0,0)"
       id="path4956-2-2-5-6-2-3"
       style="fill:none;stroke:#00ff00;stroke-width:0.90000004;stroke-miterlimit:4;stroke-dasharray:none;stroke-dashoffset:0;stroke-opacity:1" />
    <circle
       r="23.101168"
       cy="-388.96381"
       cx="-279.88715"
       transform="matrix(0.05293675,0.99859787,-0.99859787,0.05293675,0,0)"
       id="path4956-2-2-6-0-2-1"
       style="fill:none;stroke:#00ff00;stroke-width:0.90000004;stroke-miterlimit:4;stroke-dasharray:none;stroke-dashoffset:0;stroke-opacity:1" />
    <path
       id="rect5925"
       d="m 738.00878,-84.420461 1.52011,0 0,81.5158747 39.235,0 0,-81.5158747 1.43537,0 0,-99.532999 -1.43537,0 0,-81.5675 -11.20263,0 0,131.02425 -16.82975,0 0,-131.02425 -11.20262,0 0,81.5675 -1.52011,0 z"
       style="fill:none;stroke:#00ff00;stroke-width:0.90000004;stroke-miterlimit:4;stroke-dasharray:none;stroke-dashoffset:0;stroke-opacity:1"
       inkscape:connector-curvature="0"
       sodipodi:nodetypes="ccccccccccccccccc" />
    <path
       id="rect5925-2"
       d="m 780.19924,80.921446 -1.52008,0 0,-81.515892 -39.23502,0 0,81.515892 -1.43537,0 0,99.532984 1.43537,0 0,81.5675 11.20263,0 0,-131.02425 16.82976,0 0,131.02425 11.20263,0 0,-81.5675 1.52008,0 z"
       style="fill:none;stroke:#00ff00;stroke-width:0.90000004;stroke-miterlimit:4;stroke-dasharray:none;stroke-dashoffset:0;stroke-opacity:1"
       inkscape:connector-curvature="0"
       sodipodi:nodetypes="ccccccccccccccccc" />
  </g>
</svg>
