<?xml version="1.0" encoding="UTF-8" standalone="no"?>
<svg
   xmlns:dc="http://purl.org/dc/elements/1.1/"
   xmlns:cc="http://creativecommons.org/ns#"
   xmlns:rdf="http://www.w3.org/1999/02/22-rdf-syntax-ns#"
   xmlns:svg="http://www.w3.org/2000/svg"
   xmlns="http://www.w3.org/2000/svg"
   xmlns:xlink="http://www.w3.org/1999/xlink"
   xmlns:sodipodi="http://sodipodi.sourceforge.net/DTD/sodipodi-0.dtd"
   xmlns:inkscape="http://www.inkscape.org/namespaces/inkscape"
   version="1.1"
   width="210mm"
   height="297mm"
   viewBox="0 0 210 297"
   preserveAspectRatio="xMinYMin"
   style="cursor:pointer;"
   id="svg2"
   inkscape:version="0.91 r13725"
   sodipodi:docname="SumoBot_Jr_MCB.pdf">
  <metadata
     id="metadata151">
    <rdf:RDF>
      <cc:Work
         rdf:about="">
        <dc:format>image/svg+xml</dc:format>
        <dc:type
           rdf:resource="http://purl.org/dc/dcmitype/StillImage" />
        <dc:title></dc:title>
      </cc:Work>
    </rdf:RDF>
  </metadata>
  <defs
     id="defs149" />
  <sodipodi:namedview
     pagecolor="#ffffff"
     bordercolor="#666666"
     borderopacity="1"
     objecttolerance="10"
     gridtolerance="10"
     guidetolerance="10"
     inkscape:pageopacity="0"
     inkscape:pageshadow="2"
     inkscape:window-width="1920"
     inkscape:window-height="1018"
     id="namedview147"
     showgrid="false"
     inkscape:zoom="0.89702955"
     inkscape:cx="422.33458"
     inkscape:cy="573.29247"
     inkscape:window-x="-8"
     inkscape:window-y="-8"
     inkscape:window-maximized="1"
     inkscape:current-layer="svg2">
    <inkscape:grid
       type="xygrid"
       id="grid4961"
       units="mm"
       spacingx="1"
       spacingy="0.28222001" />
  </sodipodi:namedview>
  <desc
     id="desc4">A laser cuttable robotics platform.</desc>
  <g
     id="g4843">
    <path
       stroke-miterlimit="10"
       points="     5.875,-2.814657115489913     65.875,-2.814657115489913     65.875, 5     71.75, 5     71.75, 14.875     65.875, 14.875     65.875, 60.125     71.75, 60.125     71.75, 70     65.875, 70     65.875, 75     5.875, 75     5.875, 70     0, 70     0, 60.125     5.875, 60.125     5.875, 14.875     0, 14.875     0, 5     5.875, 5     5.875,-2.814657115489913   "
       d="m 7.875,2 60,0 0,7.8146571 5.875,0 0,9.8749999 -5.875,0 0,45.25 5.875,0 0,9.875 -5.875,0 0,5 -60,0 0,-5 -5.875,0 0,-9.875 5.875,0 0,-45.25 -5.875,0 0,-9.8749999 5.875,0 L 7.875,2"
       id="path7"
       style="fill:none;stroke:#0000ff;stroke-width:0.0254;stroke-miterlimit:10;stroke-dasharray:none"
       inkscape:connector-curvature="0" />
    <g
       id="arduino_mounts"
       transform="translate(13.725,15.014657)"
       style="stroke:#ff0000;stroke-width:0.0254;stroke-miterlimit:10;stroke-dasharray:none;stroke-opacity:1">
      <circle
         stroke-miterlimit="10"
         cx="15.2"
         cy="0"
         r="0.80000001"
         id="circle10"
         style="fill:none;stroke:#ff0000;stroke-width:0.0254;stroke-miterlimit:10;stroke-dasharray:none;stroke-opacity:1" />
      <circle
         stroke-miterlimit="10"
         cx="43.099998"
         cy="0"
         r="0.80000001"
         id="circle12"
         style="fill:none;stroke:#ff0000;stroke-width:0.0254;stroke-miterlimit:10;stroke-dasharray:none;stroke-opacity:1" />
      <circle
         stroke-miterlimit="10"
         cx="0"
         cy="50.799999"
         r="0.80000001"
         id="circle14"
         style="fill:none;stroke:#ff0000;stroke-width:0.0254;stroke-miterlimit:10;stroke-dasharray:none;stroke-opacity:1" />
      <circle
         stroke-miterlimit="10"
         cx="48.299999"
         cy="52.099998"
         r="0.80000001"
         id="circle16"
         style="fill:none;stroke:#ff0000;stroke-width:0.0254;stroke-miterlimit:10;stroke-dasharray:none;stroke-opacity:1" />
    </g>
    <g
       transform="translate(37.875,42.314657)"
       id="g18"
       style="stroke:#000000;stroke-width:0.254;stroke-miterlimit:10;stroke-dasharray:none;stroke-opacity:1">
      <path
         d="m -0.675,2.673 0,2.569 c 0.003,0.096 -0.007,0.192 -0.03,0.286 -0.023,0.095 -0.062,0.179 -0.114,0.251 -0.052,0.072 -0.122,0.132 -0.209,0.177 -0.087,0.045 -0.192,0.067 -0.312,0.067 l -2.527,0 C -4.013,6.023 -4.131,6 -4.221,5.954 -4.312,5.907 -4.381,5.847 -4.431,5.772 -4.481,5.697 -4.515,5.614 -4.535,5.521 -4.555,5.428 -4.567,5.335 -4.57,5.242 l 0,-2.569 0,2.569 c 0.003,0.093 0.015,0.186 0.035,0.279 0.02,0.093 0.055,0.177 0.104,0.251 0.05,0.074 0.119,0.135 0.21,0.182 0.09,0.046 0.208,0.069 0.354,0.069 l 2.527,0 c 0.12,0 0.225,-0.022 0.312,-0.067 0.087,-0.045 0.156,-0.104 0.209,-0.177 0.053,-0.073 0.091,-0.157 0.114,-0.251 0.023,-0.094 0.033,-0.19 0.03,-0.286 l 0,-2.569 z"
         id="path20"
         style="stroke:#000000;stroke-width:0.254;stroke-miterlimit:10;stroke-dasharray:none;stroke-opacity:1"
         inkscape:connector-curvature="0" />
      <path
         d="m 0.735,2.678 3.229,0 c 0.078,0 0.153,0.019 0.227,0.056 C 4.264,2.771 4.328,2.82 4.384,2.882 4.44,2.944 4.485,3.018 4.519,3.103 4.553,3.188 4.57,3.279 4.57,3.375 l 0,0.479 C 4.57,3.95 4.553,4.04 4.521,4.124 4.488,4.208 4.445,4.282 4.391,4.344 4.337,4.406 4.273,4.455 4.202,4.49 4.131,4.525 4.057,4.543 3.979,4.543 L 1.774,4.584 3.979,4.543 C 4.056,4.543 4.13,4.525 4.202,4.49 4.274,4.455 4.337,4.406 4.39,4.344 4.445,4.282 4.488,4.209 4.521,4.125 4.554,4.041 4.57,3.951 4.57,3.855 l 0,-0.48 C 4.57,3.279 4.552,3.188 4.518,3.103 4.484,3.018 4.439,2.944 4.384,2.882 4.329,2.82 4.264,2.77 4.192,2.733 4.118,2.696 4.043,2.678 3.965,2.678 l -3.23,0 0,3.351 0,-3.351 z"
         id="path22"
         style="stroke:#000000;stroke-width:0.254;stroke-miterlimit:10;stroke-dasharray:none;stroke-opacity:1"
         inkscape:connector-curvature="0" />
      <path
         d="M 0,0.229 0,-6.029 2.831,-3.35 0,-6.028 -2.831,-3.35 0,-6.028 0,0.229 Z"
         id="path24"
         style="stroke:#000000;stroke-width:0.254;stroke-miterlimit:10;stroke-dasharray:none;stroke-opacity:1"
         inkscape:connector-curvature="0" />
    </g>
  </g>
  <g
     id="g4864">
    <path
       stroke-miterlimit="10"
       points="     5.875,0     65.875,0     65.875, 5     71.75, 5     71.75, 14.875     65.875, 14.875     65.875, 72.78440874740743     71.75, 72.78440874740743     71.75, 82.65940874740743     65.875, 82.65940874740743     65.875, 87.65940874740743     5.875, 87.65940874740743     5.875, 82.65940874740743     0, 82.65940874740743     0, 72.78440874740743     5.875, 72.78440874740743     5.875, 14.875     0, 14.875     0, 5     5.875, 5     5.875,0   "
       d="m 7.875,81.814657 60,0 0,5 5.875,0 0,9.875 -5.875,0 0,57.909413 5.875,0 0,9.875 -5.875,0 0,5 -60,0 0,-5 -5.875,0 0,-9.875 5.875,0 0,-57.909413 -5.875,0 0,-9.875 5.875,0 0,-5"
       id="path27"
       style="fill:none;stroke:#0000ff;stroke-width:0.0254;stroke-miterlimit:10;stroke-dasharray:none"
       inkscape:connector-curvature="0" />
    <g
       id="caster_mounts"
       transform="translate(25.375,96.814657)"
       style="stroke:#ff0000;stroke-width:0.0254;stroke-miterlimit:10;stroke-dasharray:none;stroke-opacity:1">
      <circle
         stroke-miterlimit="10"
         cx="0"
         cy="0"
         r="0.80000001"
         id="circle30"
         style="fill:none;stroke:#ff0000;stroke-width:0.0254;stroke-miterlimit:10;stroke-dasharray:none;stroke-opacity:1" />
      <circle
         stroke-miterlimit="10"
         cx="25"
         cy="0"
         r="0.80000001"
         id="circle32"
         style="fill:none;stroke:#ff0000;stroke-width:0.0254;stroke-miterlimit:10;stroke-dasharray:none;stroke-opacity:1" />
    </g>
    <rect
       x="12.875"
       y="106.04906"
       stroke-miterlimit="10"
       width="5"
       height="2.5"
       id="rect34"
       style="fill:none;stroke:#ff0000;stroke-width:0.0254;stroke-miterlimit:10;stroke-dasharray:none;stroke-opacity:1" />
    <rect
       x="57.875"
       y="106.04906"
       stroke-miterlimit="10"
       width="5"
       height="2.5"
       id="rect36"
       style="fill:none;stroke:#ff0000;stroke-width:0.0254;stroke-miterlimit:10;stroke-dasharray:none;stroke-opacity:1" />
    <rect
       x="12.875"
       y="149.59906"
       stroke-miterlimit="10"
       width="5"
       height="2.5"
       id="rect38"
       style="fill:none;stroke:#ff0000;stroke-width:0.0254;stroke-miterlimit:10;stroke-dasharray:none;stroke-opacity:1" />
    <rect
       x="57.875"
       y="149.59906"
       stroke-miterlimit="10"
       width="5"
       height="2.5"
       id="rect40"
       style="fill:none;stroke:#ff0000;stroke-width:0.0254;stroke-miterlimit:10;stroke-dasharray:none;stroke-opacity:1" />
    <path
       d="m 37.875,128.77336 0,-6.258 2.831,2.679 -2.831,-2.679 -2.831,2.679 2.831,-2.679 0,6.258 z"
       id="path42"
       style="stroke:#000000;stroke-width:0.254;stroke-miterlimit:10;stroke-dasharray:none;stroke-opacity:1"
       inkscape:connector-curvature="0" />
  </g>
  <g
     id="g4792"
     style="stroke-width:0.0254;stroke-miterlimit:10;stroke-dasharray:none">
    <rect
       x="2"
       y="172.28873"
       stroke-miterlimit="10"
       width="105"
       height="45"
       id="rect45"
       style="fill:none;stroke:#0000ff;stroke-width:0.0254;stroke-miterlimit:10;stroke-dasharray:none" />
    <rect
       x="18.625"
       y="189.85123"
       stroke-miterlimit="10"
       width="5.875"
       height="9.875"
       id="rect47"
       style="fill:none;stroke:#ff0000;stroke-width:0.0254;stroke-miterlimit:10;stroke-dasharray:none;stroke-opacity:1" />
    <rect
       x="84.5"
       y="189.85123"
       stroke-miterlimit="10"
       width="5.875"
       height="9.875"
       id="rect49"
       style="fill:none;stroke:#ff0000;stroke-width:0.0254;stroke-miterlimit:10;stroke-dasharray:none;stroke-opacity:1" />
    <g
       id="grill"
       transform="translate(32.8,177.28872)"
       style="stroke-width:0.0254;stroke-miterlimit:10;stroke-dasharray:none;stroke:#ff0000;stroke-opacity:1">
      <rect
         x="0"
         y="0"
         stroke-miterlimit="10"
         width="1.6"
         height="35"
         rx="0.80000001"
         ry="0.80000001"
         id="rect52"
         style="fill:none;stroke:#ff0000;stroke-width:0.0254;stroke-miterlimit:10;stroke-dasharray:none;stroke-opacity:1" />
      <rect
         x="5"
         y="0"
         stroke-miterlimit="10"
         width="1.6"
         height="35"
         rx="0.80000001"
         ry="0.80000001"
         id="rect54"
         style="fill:none;stroke:#ff0000;stroke-width:0.0254;stroke-miterlimit:10;stroke-dasharray:none;stroke-opacity:1" />
      <rect
         x="10"
         y="0"
         stroke-miterlimit="10"
         width="1.6"
         height="35"
         rx="0.80000001"
         ry="0.80000001"
         id="rect56"
         style="fill:none;stroke:#ff0000;stroke-width:0.0254;stroke-miterlimit:10;stroke-dasharray:none;stroke-opacity:1" />
      <rect
         x="15"
         y="0"
         stroke-miterlimit="10"
         width="1.6"
         height="35"
         rx="0.80000001"
         ry="0.80000001"
         id="rect58"
         style="fill:none;stroke:#ff0000;stroke-width:0.0254;stroke-miterlimit:10;stroke-dasharray:none;stroke-opacity:1" />
      <rect
         x="20"
         y="0"
         stroke-miterlimit="10"
         width="1.6"
         height="35"
         rx="0.80000001"
         ry="0.80000001"
         id="rect60"
         style="fill:none;stroke:#ff0000;stroke-width:0.0254;stroke-miterlimit:10;stroke-dasharray:none;stroke-opacity:1" />
      <rect
         x="25"
         y="0"
         stroke-miterlimit="10"
         width="1.6"
         height="35"
         rx="0.80000001"
         ry="0.80000001"
         id="rect62"
         style="fill:none;stroke:#ff0000;stroke-width:0.0254;stroke-miterlimit:10;stroke-dasharray:none;stroke-opacity:1" />
      <rect
         x="30"
         y="0"
         stroke-miterlimit="10"
         width="1.6"
         height="35"
         rx="0.80000001"
         ry="0.80000001"
         id="rect64"
         style="fill:none;stroke:#ff0000;stroke-width:0.0254;stroke-miterlimit:10;stroke-dasharray:none;stroke-opacity:1" />
      <rect
         x="35"
         y="0"
         stroke-miterlimit="10"
         width="1.6"
         height="35"
         rx="0.80000001"
         ry="0.80000001"
         id="rect66"
         style="fill:none;stroke:#ff0000;stroke-width:0.0254;stroke-miterlimit:10;stroke-dasharray:none;stroke-opacity:1" />
      <rect
         x="40"
         y="0"
         stroke-miterlimit="10"
         width="1.6"
         height="35"
         rx="0.80000001"
         ry="0.80000001"
         id="rect68"
         style="fill:none;stroke:#ff0000;stroke-width:0.0254;stroke-miterlimit:10;stroke-dasharray:none;stroke-opacity:1" />
    </g>
    <g
       transform="translate(11.9375,182.22622)"
       id="g70"
       style="stroke-width:0.0254;stroke-miterlimit:10;stroke-dasharray:none;stroke:#ff0000;stroke-opacity:1">
      <path
         id="accessory_hole"
         stroke-miterlimit="10"
         points="       -4.9375, -2.9375       -2.9375, -2.9375       -2.9375, -4.9375       2.9375, -4.9375       2.9375, -2.9375       4.9375, -2.9375       4.9375, 2.9375       2.9375, 2.9375       2.9375, 4.9375       -2.9375, 4.9375       -2.9375, 2.9375       -4.9375, 2.9375       -4.9375, -2.9375     "
         d="m -4.9375,-2.9375 2,0 0,-2 5.875,0 0,2 2,0 0,5.875 -2,0 0,2 -5.875,0 0,-2 -2,0 0,-5.875"
         style="fill:none;stroke:#ff0000;stroke-width:0.0254;stroke-miterlimit:10;stroke-dasharray:none;stroke-opacity:1"
         inkscape:connector-curvature="0" />
    </g>
    <use
       xlink:href="#accessory_hole"
       transform="translate(97.0625,182.22622)"
       id="use73"
       style="stroke-width:0.0254;stroke-miterlimit:10;stroke-dasharray:none;stroke:#ff0000;stroke-opacity:1"
       x="0"
       y="0"
       width="100%"
       height="100%" />
  </g>
  <g
     inkscape:groupmode="layer"
     id="layer1"
     inkscape:label="Internal"
     style="display:inline" />
  <g
     id="g4704"
     transform="translate(-59.148306,4.7192797)"
     style="stroke-width:0.0254;stroke-miterlimit:10;stroke-dasharray:none">
    <path
       stroke-miterlimit="10"
       points="    57.75, 90.47406586289733    0,             90.47406586289733     0,             15.474065862897335    30.02676980483088, 7.428417142377683    28.506207914853572, 1.7536029129294066    38.04472544945812, -0.8022351574579858    39.56528733943543, 4.87257907199029    57.75, 0    57.75, 90.47406586289733 "
       d="m 197.55296,87.552456 57.75,0 0,-75 -30.02677,-8.0456487 1.52056,-5.6748142 -9.53851,-2.5558381 -1.52057,5.6748143 -18.18471,-4.8725791 0,90.4740658"
       id="path4589"
       style="fill:none;stroke:#0000ff;stroke-width:0.0254;stroke-miterlimit:10;stroke-dasharray:none"
       inkscape:connector-curvature="0" />
    <rect
       transform="scale(-1,1)"
       x="-229.42796"
       y="26.627457"
       stroke-miterlimit="10"
       width="21"
       height="41.049999"
       id="rect4591"
       style="fill:none;stroke:#00ff00;stroke-width:0.0254;stroke-miterlimit:10;stroke-dasharray:none;stroke-opacity:1" />
    <g
       transform="matrix(-1,0,0,1,223.92796,21.627456)"
       id="g4593"
       style="stroke:#ff0000;stroke-width:0.0254;stroke-miterlimit:10;stroke-dasharray:none;stroke-opacity:1">
      <circle
         stroke-miterlimit="10"
         cx="0"
         cy="0"
         r="0.80000001"
         id="circle4595"
         style="fill:none;stroke:#ff0000;stroke-width:0.0254;stroke-miterlimit:10;stroke-dasharray:none;stroke-opacity:1" />
      <circle
         stroke-miterlimit="10"
         cx="10"
         cy="0"
         r="0.80000001"
         id="circle4597"
         style="fill:none;stroke:#ff0000;stroke-width:0.0254;stroke-miterlimit:10;stroke-dasharray:none;stroke-opacity:1" />
    </g>
    <g
       transform="matrix(-1,0,0,1,223.92796,72.677456)"
       id="g4599"
       style="stroke:#ff0000;stroke-width:0.0254;stroke-miterlimit:10;stroke-dasharray:none;stroke-opacity:1">
      <circle
         stroke-miterlimit="10"
         cx="0"
         cy="0"
         r="0.80000001"
         id="circle4601"
         style="fill:none;stroke:#ff0000;stroke-width:0.0254;stroke-miterlimit:10;stroke-dasharray:none;stroke-opacity:1" />
      <circle
         stroke-miterlimit="10"
         cx="10"
         cy="0"
         r="0.80000001"
         id="circle4603"
         style="fill:none;stroke:#ff0000;stroke-width:0.0254;stroke-miterlimit:10;stroke-dasharray:none;stroke-opacity:1" />
    </g>
    <circle
       transform="scale(-1,1)"
       stroke-miterlimit="10"
       cx="-218.92796"
       cy="67.67746"
       r="3.5"
       id="circle4605"
       style="fill:none;stroke:#ff0000;stroke-width:0.0254;stroke-miterlimit:10;stroke-dasharray:none;stroke-opacity:1" />
    <rect
       transform="scale(-1,1)"
       x="-250.30296"
       y="17.552456"
       stroke-miterlimit="10"
       width="5.875"
       height="9.875"
       id="rect4607"
       style="fill:none;stroke:#ff0000;stroke-width:0.0254;stroke-miterlimit:10;stroke-dasharray:none;stroke-opacity:1" />
    <rect
       transform="scale(-1,1)"
       x="-250.30296"
       y="72.67746"
       stroke-miterlimit="10"
       width="5.875"
       height="9.875"
       id="rect4609"
       style="fill:none;stroke:#ff0000;stroke-width:0.0254;stroke-miterlimit:10;stroke-dasharray:none;stroke-opacity:1" />
    <rect
       transform="scale(-1,1)"
       x="-208.42796"
       y="4.8930473"
       stroke-miterlimit="10"
       width="5.875"
       height="9.875"
       id="rect4611"
       style="fill:none;stroke:#ff0000;stroke-width:0.0254;stroke-miterlimit:10;stroke-dasharray:none;stroke-opacity:1" />
    <rect
       transform="scale(-1,1)"
       x="-208.42796"
       y="72.67746"
       stroke-miterlimit="10"
       width="5.875"
       height="9.875"
       id="rect4613"
       style="fill:none;stroke:#ff0000;stroke-width:0.0254;stroke-miterlimit:10;stroke-dasharray:none;stroke-opacity:1" />
    <use
       xlink:href="#accessory_hole"
       transform="matrix(-1,0,0,1,234.49046,16.913263)"
       id="use4615"
       style="stroke-width:0.0254;stroke-miterlimit:10;stroke-dasharray:none"
       x="0"
       y="0"
       width="100%"
       height="100%" />
  </g>
  <g
     id="g4720"
     transform="translate(-9.1239408,4.404661)"
     style="stroke-width:0.0254;stroke-miterlimit:10;stroke-dasharray:none">
    <path
       stroke-miterlimit="10"
       points="    57.75, 90.47406586289733    0,             90.47406586289733     0,             15.474065862897335    30.02676980483088, 7.428417142377683    28.506207914853572, 1.7536029129294066    38.04472544945812, -0.8022351574579858    39.56528733943543, 4.87257907199029    57.75, 0    57.75, 90.47406586289733 "
       d="m 144.55719,88.181693 -57.749996,0 0,-75 30.026766,-8.0456486 -1.52056,-5.6748142 9.53852,-2.5558381 1.52056,5.6748143 18.18471,-4.8725791 0,90.4740657"
       id="path4619"
       style="fill:none;stroke:#0000ff;stroke-width:0.0254;stroke-miterlimit:10;stroke-dasharray:none"
       inkscape:connector-curvature="0" />
    <rect
       x="112.6822"
       y="27.256695"
       stroke-miterlimit="10"
       width="21"
       height="41.049999"
       id="rect4621"
       style="fill:none;stroke:#00ff00;stroke-width:0.0254;stroke-miterlimit:10;stroke-dasharray:none;stroke-opacity:1" />
    <g
       transform="translate(118.18219,22.256693)"
       id="g4623"
       style="stroke:#ff0000;stroke-width:0.0254;stroke-miterlimit:10;stroke-dasharray:none;stroke-opacity:1">
      <circle
         stroke-miterlimit="10"
         cx="0"
         cy="0"
         r="0.80000001"
         id="circle4625"
         style="fill:none;stroke:#ff0000;stroke-width:0.0254;stroke-miterlimit:10;stroke-dasharray:none;stroke-opacity:1" />
      <circle
         stroke-miterlimit="10"
         cx="10"
         cy="0"
         r="0.80000001"
         id="circle4627"
         style="fill:none;stroke:#ff0000;stroke-width:0.0254;stroke-miterlimit:10;stroke-dasharray:none;stroke-opacity:1" />
    </g>
    <g
       transform="translate(118.18219,73.306693)"
       id="g4629"
       style="stroke:#ff0000;stroke-width:0.0254;stroke-miterlimit:10;stroke-dasharray:none;stroke-opacity:1">
      <circle
         stroke-miterlimit="10"
         cx="0"
         cy="0"
         r="0.80000001"
         id="circle4631"
         style="fill:none;stroke:#ff0000;stroke-width:0.0254;stroke-miterlimit:10;stroke-dasharray:none;stroke-opacity:1" />
      <circle
         stroke-miterlimit="10"
         cx="10"
         cy="0"
         r="0.80000001"
         id="circle4633"
         style="fill:none;stroke:#ff0000;stroke-width:0.0254;stroke-miterlimit:10;stroke-dasharray:none;stroke-opacity:1" />
    </g>
    <circle
       stroke-miterlimit="10"
       cx="123.1822"
       cy="68.306694"
       r="3.5"
       id="circle4635"
       style="fill:none;stroke:#ff0000;stroke-width:0.0254;stroke-miterlimit:10;stroke-dasharray:none;stroke-opacity:1" />
    <rect
       x="91.807198"
       y="18.181694"
       stroke-miterlimit="10"
       width="5.875"
       height="9.875"
       id="rect4637"
       style="fill:none;stroke:#ff0000;stroke-width:0.0254;stroke-miterlimit:10;stroke-dasharray:none;stroke-opacity:1" />
    <rect
       x="91.807198"
       y="73.306694"
       stroke-miterlimit="10"
       width="5.875"
       height="9.875"
       id="rect4639"
       style="fill:none;stroke:#ff0000;stroke-width:0.0254;stroke-miterlimit:10;stroke-dasharray:none;stroke-opacity:1" />
    <rect
       x="133.68219"
       y="5.5222845"
       stroke-miterlimit="10"
       width="5.875"
       height="9.875"
       id="rect4641"
       style="fill:none;stroke:#ff0000;stroke-width:0.0254;stroke-miterlimit:10;stroke-dasharray:none;stroke-opacity:1" />
    <rect
       x="133.68219"
       y="73.306694"
       stroke-miterlimit="10"
       width="5.875"
       height="9.875"
       id="rect4643"
       style="fill:none;stroke:#ff0000;stroke-width:0.0254;stroke-miterlimit:10;stroke-dasharray:none;stroke-opacity:1" />
    <use
       xlink:href="#accessory_hole"
       transform="translate(107.61969,17.5425)"
       id="use4645"
       style="stroke-width:0.0254;stroke-miterlimit:10;stroke-dasharray:none"
       x="0"
       y="0"
       width="100%"
       height="100%" />
    <text
       transform="matrix(0,-1,1,0,0,0)"
       sodipodi:linespacing="125%"
       id="text4700"
       y="107.60826"
       x="-68.153061"
       style="font-style:normal;font-weight:normal;font-size:11.28888893px;line-height:125%;font-family:sans-serif;letter-spacing:0px;word-spacing:0px;fill:#000000;fill-opacity:1;stroke:none;stroke-width:0.0254;stroke-linecap:butt;stroke-linejoin:miter;stroke-opacity:1;stroke-miterlimit:10;stroke-dasharray:none"
       xml:space="preserve"><tspan
         style="font-size:7.05555582px;stroke-width:0.0254;stroke-miterlimit:10;stroke-dasharray:none"
         y="107.60826"
         x="-68.153061"
         id="tspan4702"
         sodipodi:role="line">MCBurbage</tspan></text>
  </g>
  <g
     id="g4963">
    <circle
       transform="matrix(0.70710678,0.70710678,-0.70710678,0.70710678,0,0)"
       style="fill:none;stroke:#0000ff;stroke-width:0.0254;stroke-miterlimit:10;stroke-dasharray:none"
       id="circle77"
       r="35"
       cy="-10.271383"
       cx="193.37537"
       stroke-miterlimit="10" />
    <path
       id="path323"
       d="m 146.83108,153.50464 c -0.43535,-0.0513 -0.77483,-0.38327 -0.81714,-0.79839 l 0,0 c -0.62718,-6.13208 -1.2312,-12.26913 -1.79319,-18.40886 l 0,0 c -0.91647,1.90464 -1.95021,3.77706 -3.0897,5.53393 l 0,0 c -0.24632,0.38085 -0.50188,0.76515 -0.77498,1.14358 l 0,0 c -0.81727,1.14064 -1.76721,2.09672 -2.96628,2.9151 l 0,0 c -1.32036,0.89889 -2.94258,1.50722 -4.60297,1.51092 l 0,0 c -0.0158,0 -0.022,-2.6e-4 -0.0202,-2.6e-4 l 0,0 c -0.007,0 -0.008,-2.5e-4 -0.008,-2.5e-4 l 0,0 c -1.43964,4.5e-4 -2.91796,-0.50823 -4.03282,-1.68428 l 0,0 c -1.1822,-1.23643 -1.76253,-2.76696 -1.76253,-4.3068 l 0,0 c 1.4e-4,-8.4e-4 0,-0.002 0,-0.004 l 0,0 c 0,-4.5e-4 0,-0.002 0,-0.003 l 0,0 c 2.7e-4,0 -2.7e-4,-0.003 2.7e-4,-0.008 l 0,0 c 8.2e-4,-1.05517 0.26774,-2.11354 0.77337,-3.1026 l 0,0 c 0.14524,-0.28252 0.30481,-0.58746 0.49532,-0.8943 l 0,0 c -0.36279,-0.0768 -0.70323,-0.17334 -1.01621,-0.26506 l 0,0 c -2.72478,-0.78259 -4.79856,-2.92299 -5.04059,-5.74511 l 0,0 c -0.0138,-0.15323 -0.0208,-0.30392 -0.0208,-0.44531 l 0,0 c 0,-0.003 0,-0.006 2.6e-4,-0.002 l 0,0 c -4.7e-4,-0.009 -2.6e-4,-0.0131 -2.6e-4,-0.017 l 0,0 c 0,-8.5e-4 -2.7e-4,-0.003 -2.7e-4,-0.007 l 0,0 c 0,-1.58887 0.77457,-2.92095 1.86855,-3.85831 l 0,0 c 1.09546,-0.94423 2.50189,-1.54327 3.926,-1.81407 l 0,0 c 0.785,-0.1489 1.55316,-0.22112 2.32036,-0.22112 l 0,0 c 0.64565,0 1.29024,0.0508 1.94659,0.14647 l 0,0 c 0.47591,0.0693 0.94512,0.1526 1.40617,0.24023 l 0,0 c 0.49225,0.0939 0.98515,0.19603 1.47805,0.30558 l 0,0 c -0.0684,-0.068 -0.13641,-0.13629 -0.20414,-0.20456 l 0,0 c -0.32357,-0.32596 -0.64593,-0.6607 -0.95891,-1.0078 l 0,0 c -0.94767,-1.04575 -1.6707,-2.16626 -2.18944,-3.47886 l 0,0 c -0.36024,-0.90945 -0.56599,-1.8961 -0.5668,-2.88287 l 0,0 c 4.7e-4,-0.97531 0.20322,-1.95839 0.68822,-2.84352 l 0,0 c 0.48407,-0.88692 1.26065,-1.66071 2.32317,-2.17328 l 0,0 c 0.99144,-0.48096 2.04151,-0.71355 3.07632,-0.71368 l 0,0 c 0.002,-2.5e-4 0.004,-2.5e-4 0.007,-2.5e-4 l 0,0 c 0,0 0.007,0 0.007,2.5e-4 l 0,0 c 1.71607,0.003 3.37244,0.63573 4.71395,1.74097 l 0,0 c 0.24873,0.20749 0.51767,0.43383 0.78073,0.68935 l 0,0 c 0.17323,-0.31411 0.36118,-0.60274 0.53655,-0.86794 l 0,0 c 1.29666,-1.95839 3.45839,-3.22997 5.90806,-3.23074 l 0,0 c 0.002,0 0.002,-1.2e-4 0.004,0 l 0,0 8.3e-4,0 c 8.2e-4,0 0.002,0 0.002,0 l 0,0 c 0.002,0 0.003,1.4e-4 0.006,1.4e-4 l 0,0 c 8.2e-4,0 0.004,0 0.006,2.5e-4 l 0,0 c 0.40552,4.5e-4 0.81717,0.0355 1.23002,0.10649 l 0,0 c 1.65636,0.27856 2.90015,1.21477 3.65919,2.38943 l 0,0 c 0.76333,1.17248 1.09613,2.5685 1.09773,3.92734 l 0,0 c -2.6e-4,0.19374 -0.007,0.38671 -0.0205,0.57867 l 0,0 c -0.1,1.39743 -0.45314,2.66812 -1.04136,3.929 l 0,0 c -0.19532,0.42046 -0.40308,0.82972 -0.61367,1.22841 l 0,0 c -0.0752,0.14367 -0.15167,0.28697 -0.22878,0.43014 l 0,0 c 0.53575,-0.2978 1.07471,-0.58528 1.61635,-0.8608 l 0,0 c 0.41526,-0.21157 0.83882,-0.42021 1.27523,-0.617 l 0,0 c 1.31166,-0.59536 2.63844,-0.96627 4.10485,-1.09937 l 0,0 c 0.28929,-0.0268 0.58033,-0.0398 0.87176,-0.0398 l 0,0 c 1.3889,0.002 2.81059,0.29997 4.01327,0.99417 l 0,0 c 1.20604,0.69202 2.17619,1.82452 2.50644,3.34053 l 0,0 c 0.10215,0.45804 0.15194,0.9138 0.15168,1.36266 l 0,0 0,0.003 0,4.5e-4 c 0,2.25619 -1.26453,4.26744 -3.23282,5.52017 l 0,0 c -0.27376,0.17425 -0.57122,0.36009 -0.89585,0.5332 l 0,0 c 0.27577,0.24188 0.52155,0.49051 0.74699,0.72208 l 0,0 c 1.24646,1.28636 1.97029,2.91435 1.97056,4.61327 l 0,0 c 0,0.92563 -0.21674,1.86705 -0.66627,2.76505 l 0,0 c -0.52798,1.06154 -1.36078,1.83687 -2.32089,2.31835 l 0,0 c -0.95958,0.48263 -2.03134,0.68426 -3.0944,0.68452 l 0,0 c -0.96533,-2.6e-4 -1.93013,-0.16547 -2.82867,-0.45881 l 0,0 c -1.3925,-0.45371 -2.59412,-1.10638 -3.72452,-1.97558 l 0,0 c -0.37309,-0.28762 -0.7336,-0.58274 -1.08808,-0.88144 l 0,0 c -1.63147,-1.37731 -3.19627,-2.89486 -4.65719,-4.47558 l 0,0 c 0.87014,3.57949 1.77631,7.14599 2.77912,10.68332 l 0,0 c 0.0218,0.0765 0.0322,0.1545 0.032,0.23182 l 0,0 c 2.6e-4,0.10318 -0.0192,0.20418 -0.0549,0.30239 l 0,0 c -0.99893,2.64188 -2.00081,5.28249 -2.99894,7.92425 l 0,0 c -0.13535,0.35652 -0.4893,0.58949 -0.88087,0.58923 l 0,0 -0.006,0 c -0.0118,0 -0.0237,-2.5e-4 -0.0356,-8.4e-4 l 0,0 0,0.003 -0.0754,-0.009 0,0 z"
       style="fill:none;stroke:#000000;stroke-width:1.26999998;stroke-miterlimit:10;stroke-dasharray:none;stroke-opacity:1"
       inkscape:connector-curvature="0" />
    <circle
       stroke-miterlimit="10"
       cx="193.32428"
       cy="-9.1144876"
       r="2.4386094"
       id="circle4959"
       style="fill:#ffffff;stroke:#ff0000;stroke-width:0.07742584;stroke-miterlimit:10;stroke-dasharray:none;stroke-opacity:1"
       transform="matrix(0.7113262,0.70286203,-0.7113262,0.70286203,0,0)" />
  </g>
  <g
     id="g4968"
     transform="translate(0.44493795,71.523777)">
    <circle
       stroke-miterlimit="10"
       cx="193.37537"
       cy="-10.271383"
       r="35"
       id="circle4970"
       style="fill:none;stroke:#0000ff;stroke-width:0.0254;stroke-miterlimit:10;stroke-dasharray:none"
       transform="matrix(0.70710678,0.70710678,-0.70710678,0.70710678,0,0)" />
    <path
       inkscape:connector-curvature="0"
       style="fill:none;stroke:#000000;stroke-width:1.26999998;stroke-miterlimit:10;stroke-dasharray:none;stroke-opacity:1"
       d="m 146.83108,153.50464 c -0.43535,-0.0513 -0.77483,-0.38327 -0.81714,-0.79839 l 0,0 c -0.62718,-6.13208 -1.2312,-12.26913 -1.79319,-18.40886 l 0,0 c -0.91647,1.90464 -1.95021,3.77706 -3.0897,5.53393 l 0,0 c -0.24632,0.38085 -0.50188,0.76515 -0.77498,1.14358 l 0,0 c -0.81727,1.14064 -1.76721,2.09672 -2.96628,2.9151 l 0,0 c -1.32036,0.89889 -2.94258,1.50722 -4.60297,1.51092 l 0,0 c -0.0158,0 -0.022,-2.6e-4 -0.0202,-2.6e-4 l 0,0 c -0.007,0 -0.008,-2.5e-4 -0.008,-2.5e-4 l 0,0 c -1.43964,4.5e-4 -2.91796,-0.50823 -4.03282,-1.68428 l 0,0 c -1.1822,-1.23643 -1.76253,-2.76696 -1.76253,-4.3068 l 0,0 c 1.4e-4,-8.4e-4 0,-0.002 0,-0.004 l 0,0 c 0,-4.5e-4 0,-0.002 0,-0.003 l 0,0 c 2.7e-4,0 -2.7e-4,-0.003 2.7e-4,-0.008 l 0,0 c 8.2e-4,-1.05517 0.26774,-2.11354 0.77337,-3.1026 l 0,0 c 0.14524,-0.28252 0.30481,-0.58746 0.49532,-0.8943 l 0,0 c -0.36279,-0.0768 -0.70323,-0.17334 -1.01621,-0.26506 l 0,0 c -2.72478,-0.78259 -4.79856,-2.92299 -5.04059,-5.74511 l 0,0 c -0.0138,-0.15323 -0.0208,-0.30392 -0.0208,-0.44531 l 0,0 c 0,-0.003 0,-0.006 2.6e-4,-0.002 l 0,0 c -4.7e-4,-0.009 -2.6e-4,-0.0131 -2.6e-4,-0.017 l 0,0 c 0,-8.5e-4 -2.7e-4,-0.003 -2.7e-4,-0.007 l 0,0 c 0,-1.58887 0.77457,-2.92095 1.86855,-3.85831 l 0,0 c 1.09546,-0.94423 2.50189,-1.54327 3.926,-1.81407 l 0,0 c 0.785,-0.1489 1.55316,-0.22112 2.32036,-0.22112 l 0,0 c 0.64565,0 1.29024,0.0508 1.94659,0.14647 l 0,0 c 0.47591,0.0693 0.94512,0.1526 1.40617,0.24023 l 0,0 c 0.49225,0.0939 0.98515,0.19603 1.47805,0.30558 l 0,0 c -0.0684,-0.068 -0.13641,-0.13629 -0.20414,-0.20456 l 0,0 c -0.32357,-0.32596 -0.64593,-0.6607 -0.95891,-1.0078 l 0,0 c -0.94767,-1.04575 -1.6707,-2.16626 -2.18944,-3.47886 l 0,0 c -0.36024,-0.90945 -0.56599,-1.8961 -0.5668,-2.88287 l 0,0 c 4.7e-4,-0.97531 0.20322,-1.95839 0.68822,-2.84352 l 0,0 c 0.48407,-0.88692 1.26065,-1.66071 2.32317,-2.17328 l 0,0 c 0.99144,-0.48096 2.04151,-0.71355 3.07632,-0.71368 l 0,0 c 0.002,-2.5e-4 0.004,-2.5e-4 0.007,-2.5e-4 l 0,0 c 0,0 0.007,0 0.007,2.5e-4 l 0,0 c 1.71607,0.003 3.37244,0.63573 4.71395,1.74097 l 0,0 c 0.24873,0.20749 0.51767,0.43383 0.78073,0.68935 l 0,0 c 0.17323,-0.31411 0.36118,-0.60274 0.53655,-0.86794 l 0,0 c 1.29666,-1.95839 3.45839,-3.22997 5.90806,-3.23074 l 0,0 c 0.002,0 0.002,-1.2e-4 0.004,0 l 0,0 8.3e-4,0 c 8.2e-4,0 0.002,0 0.002,0 l 0,0 c 0.002,0 0.003,1.4e-4 0.006,1.4e-4 l 0,0 c 8.2e-4,0 0.004,0 0.006,2.5e-4 l 0,0 c 0.40552,4.5e-4 0.81717,0.0355 1.23002,0.10649 l 0,0 c 1.65636,0.27856 2.90015,1.21477 3.65919,2.38943 l 0,0 c 0.76333,1.17248 1.09613,2.5685 1.09773,3.92734 l 0,0 c -2.6e-4,0.19374 -0.007,0.38671 -0.0205,0.57867 l 0,0 c -0.1,1.39743 -0.45314,2.66812 -1.04136,3.929 l 0,0 c -0.19532,0.42046 -0.40308,0.82972 -0.61367,1.22841 l 0,0 c -0.0752,0.14367 -0.15167,0.28697 -0.22878,0.43014 l 0,0 c 0.53575,-0.2978 1.07471,-0.58528 1.61635,-0.8608 l 0,0 c 0.41526,-0.21157 0.83882,-0.42021 1.27523,-0.617 l 0,0 c 1.31166,-0.59536 2.63844,-0.96627 4.10485,-1.09937 l 0,0 c 0.28929,-0.0268 0.58033,-0.0398 0.87176,-0.0398 l 0,0 c 1.3889,0.002 2.81059,0.29997 4.01327,0.99417 l 0,0 c 1.20604,0.69202 2.17619,1.82452 2.50644,3.34053 l 0,0 c 0.10215,0.45804 0.15194,0.9138 0.15168,1.36266 l 0,0 0,0.003 0,4.5e-4 c 0,2.25619 -1.26453,4.26744 -3.23282,5.52017 l 0,0 c -0.27376,0.17425 -0.57122,0.36009 -0.89585,0.5332 l 0,0 c 0.27577,0.24188 0.52155,0.49051 0.74699,0.72208 l 0,0 c 1.24646,1.28636 1.97029,2.91435 1.97056,4.61327 l 0,0 c 0,0.92563 -0.21674,1.86705 -0.66627,2.76505 l 0,0 c -0.52798,1.06154 -1.36078,1.83687 -2.32089,2.31835 l 0,0 c -0.95958,0.48263 -2.03134,0.68426 -3.0944,0.68452 l 0,0 c -0.96533,-2.6e-4 -1.93013,-0.16547 -2.82867,-0.45881 l 0,0 c -1.3925,-0.45371 -2.59412,-1.10638 -3.72452,-1.97558 l 0,0 c -0.37309,-0.28762 -0.7336,-0.58274 -1.08808,-0.88144 l 0,0 c -1.63147,-1.37731 -3.19627,-2.89486 -4.65719,-4.47558 l 0,0 c 0.87014,3.57949 1.77631,7.14599 2.77912,10.68332 l 0,0 c 0.0218,0.0765 0.0322,0.1545 0.032,0.23182 l 0,0 c 2.6e-4,0.10318 -0.0192,0.20418 -0.0549,0.30239 l 0,0 c -0.99893,2.64188 -2.00081,5.28249 -2.99894,7.92425 l 0,0 c -0.13535,0.35652 -0.4893,0.58949 -0.88087,0.58923 l 0,0 -0.006,0 c -0.0118,0 -0.0237,-2.5e-4 -0.0356,-8.4e-4 l 0,0 0,0.003 -0.0754,-0.009 0,0 z"
       id="path4972" />
    <circle
       transform="matrix(0.7113262,0.70286203,-0.7113262,0.70286203,0,0)"
       style="fill:#ffffff;stroke:#ff0000;stroke-width:0.07742584;stroke-miterlimit:10;stroke-dasharray:none;stroke-opacity:1"
       id="circle4974"
       r="2.4386094"
       cy="-9.1144876"
       cx="193.32428"
       stroke-miterlimit="10" />
  </g>
</svg>
