<?xml version="1.0" encoding="UTF-8" standalone="no"?>
<!-- Created with Inkscape (http://www.inkscape.org/) -->

<svg
   xmlns:osb="http://www.openswatchbook.org/uri/2009/osb"
   xmlns:dc="http://purl.org/dc/elements/1.1/"
   xmlns:cc="http://creativecommons.org/ns#"
   xmlns:rdf="http://www.w3.org/1999/02/22-rdf-syntax-ns#"
   xmlns:svg="http://www.w3.org/2000/svg"
   xmlns="http://www.w3.org/2000/svg"
   xmlns:xlink="http://www.w3.org/1999/xlink"
   xmlns:sodipodi="http://sodipodi.sourceforge.net/DTD/sodipodi-0.dtd"
   xmlns:inkscape="http://www.inkscape.org/namespaces/inkscape"
   width="24in"
   height="12in"
   id="svg2"
   version="1.1"
   inkscape:version="0.91 r13725"
   sodipodi:docname="Ademir.svg">
  <defs
     id="defs4">
    <linearGradient
       inkscape:collect="always"
       id="linearGradient4189">
      <stop
         style="stop-color:#000000;stop-opacity:1;"
         offset="0"
         id="stop4191" />
      <stop
         style="stop-color:#000000;stop-opacity:0;"
         offset="1"
         id="stop4193" />
    </linearGradient>
    <circle
       style="fill:none;stroke:#00ffff;stroke-width:1;stroke-linecap:round;stroke-linejoin:round;stroke-miterlimit:4;stroke-dasharray:none;stroke-dashoffset:0;stroke-opacity:1"
       id="path3837-1"
       transform="translate(-22.5,-9)"
       cx="-499.5"
       cy="66.862183"
       r="76.5" />
    <ellipse
       style="fill:none;stroke:#00ffff;stroke-width:1;stroke-linecap:round;stroke-linejoin:round;stroke-miterlimit:4;stroke-dasharray:none;stroke-dashoffset:0;stroke-opacity:1"
       id="path3876-7"
       cx="-315"
       cy="21.862183"
       rx="63"
       ry="67.5" />
    <ellipse
       style="fill:none;stroke:#00ffff;stroke-width:1;stroke-linecap:round;stroke-linejoin:round;stroke-miterlimit:4;stroke-dasharray:none;stroke-dashoffset:0;stroke-opacity:1"
       id="path3876-1"
       cx="-315"
       cy="21.862183"
       rx="63"
       ry="67.5" />
    <circle
       style="fill:none;stroke:#00ffff;stroke-width:1;stroke-linecap:round;stroke-linejoin:round;stroke-miterlimit:4;stroke-dasharray:none;stroke-dashoffset:0;stroke-opacity:1"
       id="path3837-7"
       transform="translate(-22.5,-9)"
       cx="-499.5"
       cy="66.862183"
       r="76.5" />
    <circle
       style="fill:none;stroke:#00ffff;stroke-width:1;stroke-linecap:round;stroke-linejoin:round;stroke-miterlimit:4;stroke-dasharray:none;stroke-dashoffset:0;stroke-opacity:1"
       id="path3837-3"
       transform="translate(-22.5,-9)"
       cx="-499.5"
       cy="66.862183"
       r="76.5" />
    <circle
       style="fill:none;stroke:#00ffff;stroke-width:1;stroke-linecap:round;stroke-linejoin:round;stroke-miterlimit:4;stroke-dasharray:none;stroke-dashoffset:0;stroke-opacity:1"
       id="path3837-3-9"
       transform="translate(-22.5,-9)"
       cx="-499.5"
       cy="66.862183"
       r="76.5" />
    <path
       sodipodi:type="spiral"
       style="fill:none;stroke:#00ffff;stroke-width:1px;stroke-linecap:butt;stroke-linejoin:miter;stroke-opacity:1"
       id="path3733-0"
       sodipodi:cx="180"
       sodipodi:cy="782.36218"
       sodipodi:expansion="1"
       sodipodi:revolution="5"
       sodipodi:radius="99.408249"
       sodipodi:argument="-7.2669492"
       sodipodi:t0="0.1"
       d="m 174.49385,790.63879 c -6.94975,-1.98988 -9.38646,-10.29498 -6.90877,-16.53583 3.63612,-9.1587 14.88657,-12.20267 23.42722,-8.294 11.38335,5.20964 15.04593,19.49721 9.67923,30.3186 -6.75345,13.61762 -24.11676,17.90299 -37.20998,11.06446 -15.85765,-8.28239 -20.76802,-28.74129 -12.44969,-44.10137 9.80286,-18.10132 33.36891,-23.63802 50.99274,-13.83491 20.34742,11.31807 26.51137,37.9986 15.22015,57.88412 -12.82979,22.5952 -42.62975,29.38703 -64.7755,16.60538 -24.8442,-14.33908 -32.2644,-47.26196 -17.99061,-71.66689 15.8466,-27.09409 51.89497,-35.14302 78.55827,-19.37584 29.34469,17.35281 38.02262,56.5286 20.76107,85.44965 -18.85801,31.59583 -61.16272,40.903 -92.34104,22.1463 -33.84739,-20.3624 -43.783974,-65.79722 -23.53153,-99.23241 21.86617,-36.09931 70.43206,-46.66545 106.1238,-24.91676 38.3515,23.36942 49.54733,75.06715 26.30199,113.01518 -24.87225,40.60394 -79.70247,52.42956 -119.90656,27.68722 -42.856573,-26.37473 -55.312067,-84.33797 -29.07245,-126.79794 27.8769,-45.10937 88.97362,-58.19482 133.68932,-30.45769"
       transform="matrix(1.2960494,0,0,1.2960494,-56.378841,-226.80267)" />
    <circle
       style="fill:none;stroke:#00ffff;stroke-width:1;stroke-linecap:round;stroke-linejoin:round;stroke-miterlimit:4;stroke-dasharray:none;stroke-dashoffset:0;stroke-opacity:1"
       id="path3837-7-0"
       transform="translate(-22.5,-9)"
       cx="-499.5"
       cy="66.862183"
       r="76.5" />
    <pattern
       y="0"
       x="0"
       height="6"
       width="6"
       patternUnits="userSpaceOnUse"
       id="EMFhbasepattern" />
    <linearGradient
       inkscape:collect="always"
       xlink:href="#linearGradient4189"
       id="linearGradient4195"
       x1="92.826901"
       y1="-542.18592"
       x2="339.05058"
       y2="-542.18592"
       gradientUnits="userSpaceOnUse" />
    <linearGradient
       gradientTransform="matrix(3.5157594,0,0,3.7545286,-5364.3549,-264.21518)"
       inkscape:collect="always"
       xlink:href="#linearGradient6178"
       id="linearGradient6226"
       x1="-0.5"
       y1="227.97427"
       x2="374.70996"
       y2="227.97427"
       gradientUnits="userSpaceOnUse" />
    <linearGradient
       id="linearGradient6178"
       osb:paint="solid">
      <stop
         style="stop-color:#fffdff;stop-opacity:1;"
         offset="0"
         id="stop6180" />
    </linearGradient>
    <linearGradient
       inkscape:collect="always"
       xlink:href="#linearGradient6178"
       id="linearGradient6239"
       x1="-0.5"
       y1="227.97427"
       x2="374.70996"
       y2="227.97427"
       gradientUnits="userSpaceOnUse" />
    <linearGradient
       inkscape:collect="always"
       xlink:href="#linearGradient6178"
       id="linearGradient4288"
       gradientUnits="userSpaceOnUse"
       gradientTransform="matrix(3.5157594,0,0,3.7545286,-5364.3549,-264.21518)"
       x1="-0.5"
       y1="227.97427"
       x2="374.70996"
       y2="227.97427" />
    <linearGradient
       inkscape:collect="always"
       xlink:href="#linearGradient6178"
       id="linearGradient4290"
       gradientUnits="userSpaceOnUse"
       gradientTransform="matrix(3.5157594,0,0,3.7545286,-5364.3549,-264.21518)"
       x1="-0.5"
       y1="227.97427"
       x2="374.70996"
       y2="227.97427" />
    <linearGradient
       inkscape:collect="always"
       xlink:href="#linearGradient6178"
       id="linearGradient4292"
       gradientUnits="userSpaceOnUse"
       gradientTransform="matrix(3.5157594,0,0,3.7545286,-5364.3549,-264.21518)"
       x1="-0.5"
       y1="227.97427"
       x2="374.70996"
       y2="227.97427" />
    <linearGradient
       inkscape:collect="always"
       xlink:href="#linearGradient6178"
       id="linearGradient4294"
       gradientUnits="userSpaceOnUse"
       gradientTransform="matrix(3.5157594,0,0,3.7545286,-5364.3549,-264.21518)"
       x1="-0.5"
       y1="227.97427"
       x2="374.70996"
       y2="227.97427" />
    <linearGradient
       inkscape:collect="always"
       xlink:href="#linearGradient6178"
       id="linearGradient4296"
       gradientUnits="userSpaceOnUse"
       gradientTransform="matrix(3.5157594,0,0,3.7545286,-5364.3549,-264.21518)"
       x1="-0.5"
       y1="227.97427"
       x2="374.70996"
       y2="227.97427" />
    <linearGradient
       inkscape:collect="always"
       xlink:href="#linearGradient6178"
       id="linearGradient4298"
       gradientUnits="userSpaceOnUse"
       gradientTransform="matrix(3.5157594,0,0,3.7545286,-5364.3549,-264.21518)"
       x1="-0.5"
       y1="227.97427"
       x2="374.70996"
       y2="227.97427" />
    <linearGradient
       inkscape:collect="always"
       xlink:href="#linearGradient6178"
       id="linearGradient4300"
       gradientUnits="userSpaceOnUse"
       gradientTransform="matrix(3.5157594,0,0,3.7545286,-5364.3549,-264.21518)"
       x1="-0.5"
       y1="227.97427"
       x2="374.70996"
       y2="227.97427" />
    <linearGradient
       inkscape:collect="always"
       xlink:href="#linearGradient6178"
       id="linearGradient4302"
       gradientUnits="userSpaceOnUse"
       gradientTransform="matrix(3.5157594,0,0,3.7545286,-5364.3549,-264.21518)"
       x1="-0.5"
       y1="227.97427"
       x2="374.70996"
       y2="227.97427" />
    <linearGradient
       inkscape:collect="always"
       xlink:href="#linearGradient6178"
       id="linearGradient4304"
       gradientUnits="userSpaceOnUse"
       gradientTransform="matrix(3.5157594,0,0,3.7545286,-5364.3549,-264.21518)"
       x1="-0.5"
       y1="227.97427"
       x2="374.70996"
       y2="227.97427" />
    <linearGradient
       inkscape:collect="always"
       xlink:href="#linearGradient6178"
       id="linearGradient4306"
       gradientUnits="userSpaceOnUse"
       gradientTransform="matrix(3.5157594,0,0,3.7545286,-5364.3549,-264.21518)"
       x1="-0.5"
       y1="227.97427"
       x2="374.70996"
       y2="227.97427" />
    <linearGradient
       inkscape:collect="always"
       xlink:href="#linearGradient6178"
       id="linearGradient4308"
       gradientUnits="userSpaceOnUse"
       gradientTransform="matrix(3.5157594,0,0,3.7545286,-5364.3549,-264.21518)"
       x1="-0.5"
       y1="227.97427"
       x2="374.70996"
       y2="227.97427" />
    <linearGradient
       inkscape:collect="always"
       xlink:href="#linearGradient6178"
       id="linearGradient4310"
       gradientUnits="userSpaceOnUse"
       gradientTransform="matrix(3.5157594,0,0,3.7545286,-5364.3549,-264.21518)"
       x1="-0.5"
       y1="227.97427"
       x2="374.70996"
       y2="227.97427" />
    <linearGradient
       inkscape:collect="always"
       xlink:href="#linearGradient6178"
       id="linearGradient4312"
       gradientUnits="userSpaceOnUse"
       gradientTransform="matrix(3.5157594,0,0,3.7545286,-5364.3549,-264.21518)"
       x1="-0.5"
       y1="227.97427"
       x2="374.70996"
       y2="227.97427" />
  </defs>
  <sodipodi:namedview
     id="base"
     pagecolor="#ffffff"
     bordercolor="#666666"
     borderopacity="1.0"
     inkscape:pageopacity="0.0"
     inkscape:pageshadow="2"
     inkscape:zoom="1.4142136"
     inkscape:cx="1561.125"
     inkscape:cy="947.16999"
     inkscape:document-units="in"
     inkscape:current-layer="g4711"
     showgrid="true"
     objecttolerance="20"
     inkscape:window-width="1920"
     inkscape:window-height="1018"
     inkscape:window-x="-8"
     inkscape:window-y="-8"
     inkscape:window-maximized="1"
     units="in">
    <inkscape:grid
       type="xygrid"
       id="grid2985"
       units="in"
       empspacing="5"
       visible="true"
       enabled="true"
       snapvisiblegridlinesonly="true"
       spacingx="45"
       spacingy="45" />
  </sodipodi:namedview>
  <metadata
     id="metadata7">
    <rdf:RDF>
      <cc:Work
         rdf:about="">
        <dc:format>image/svg+xml</dc:format>
        <dc:type
           rdf:resource="http://purl.org/dc/dcmitype/StillImage" />
        <dc:title />
      </cc:Work>
    </rdf:RDF>
  </metadata>
  <g
     inkscape:label="Layer 1"
     inkscape:groupmode="layer"
     id="layer1"
     transform="translate(0,27.637815)">
    <flowRoot
       xml:space="preserve"
       id="flowRoot3753"
       style="font-style:normal;font-weight:normal;font-size:24px;line-height:125%;font-family:Sans;letter-spacing:0px;word-spacing:0px;fill:#000000;fill-opacity:1;stroke:none;stroke-width:1px;stroke-linecap:butt;stroke-linejoin:miter;stroke-opacity:1"><flowRegion
         id="flowRegion3755"><rect
           id="rect3757"
           width="122.85714"
           height="82.85714"
           x="394.28571"
           y="735.2193" /></flowRegion><flowPara
         id="flowPara3759" /></flowRoot>    <flowRoot
       xml:space="preserve"
       id="flowRoot3767"
       style="font-style:normal;font-weight:normal;font-size:24px;line-height:125%;font-family:Sans;letter-spacing:0px;word-spacing:0px;fill:#000000;fill-opacity:1;stroke:none;stroke-width:1px;stroke-linecap:butt;stroke-linejoin:miter;stroke-opacity:1"><flowRegion
         id="flowRegion3769"><rect
           id="rect3771"
           width="97.85714"
           height="111.42857"
           x="-629.64288"
           y="157.36218" /></flowRegion><flowPara
         id="flowPara3773" /></flowRoot>    <text
       xml:space="preserve"
       style="font-style:normal;font-weight:normal;font-size:24px;line-height:125%;font-family:Sans;letter-spacing:0px;word-spacing:0px;fill:#000000;fill-opacity:1;stroke:none"
       x="-384.82144"
       y="21.112181"
       id="text3881"
       sodipodi:linespacing="125%"><tspan
         sodipodi:role="line"
         id="tspan3883"
         x="-384.82144"
         y="21.112181" /></text>
    <flowRoot
       xml:space="preserve"
       id="flowRoot3857-7"
       style="font-style:normal;font-weight:normal;font-size:24px;line-height:125%;font-family:Sans;letter-spacing:0px;word-spacing:0px;fill:#000000;fill-opacity:1;stroke:none"
       transform="matrix(1.2548699,0,0,1.2548699,401.30836,94.076471)"><flowRegion
         id="flowRegion3859-2"><rect
           id="rect3861-6"
           width="175.82764"
           height="154.49779"
           x="-778.82764"
           y="-191.1356" /></flowRegion><flowPara
         id="flowPara3863-0" /></flowRoot>    <flowRoot
       xml:space="preserve"
       id="flowRoot4294"
       style="fill:black;stroke:none;stroke-opacity:1;stroke-width:1px;stroke-linejoin:miter;stroke-linecap:butt;fill-opacity:1;font-family:sans-serif;font-style:normal;font-weight:normal;font-size:40px;line-height:125%;letter-spacing:0px;word-spacing:0px"><flowRegion
         id="flowRegion4296"><rect
           id="rect4298"
           width="100"
           height="110"
           x="400"
           y="750" /></flowRegion><flowPara
         id="flowPara4300" /></flowRoot>    <g
       id="g4711"
       transform="translate(1400.2375,624.06768)">
      <text
         xml:space="preserve"
         style="font-style:normal;font-variant:normal;font-weight:bold;font-stretch:normal;font-size:74.34249863px;line-height:125%;font-family:Garamond;-inkscape-font-specification:'Garamond, Bold';text-align:center;letter-spacing:0px;word-spacing:0px;writing-mode:lr;text-anchor:middle;fill:none;fill-opacity:1;stroke:#000000;stroke-width:0.09;stroke-linecap:butt;stroke-linejoin:miter;stroke-opacity:1;stroke-miterlimit:4;stroke-dasharray:none;"
         x="214.83159"
         y="-560.78973"
         id="text4488-9"
         sodipodi:linespacing="125%"
         transform="scale(1.0419982,0.95969456)"><tspan
           sodipodi:role="line"
           id="tspan3398"
           x="214.83159"
           y="-560.78973"
           style="fill-opacity:1;fill:none;-inkscape-font-specification:'Garamond, Bold';font-family:Garamond;font-weight:bold;font-style:normal;font-stretch:normal;font-variant:normal;font-size:74.34249863px;text-anchor:middle;text-align:center;writing-mode:lr;line-height:125%;stroke-width:0.09;stroke-miterlimit:4;stroke-dasharray:none;stroke:#000000;stroke-opacity:1;">Ademir</tspan><tspan
           sodipodi:role="line"
           id="tspan3400"
           x="214.83159"
           y="-467.86145"
           style="fill-opacity:1;fill:none;-inkscape-font-specification:'Garamond, Bold';font-family:Garamond;font-weight:bold;font-style:normal;font-stretch:normal;font-variant:normal;font-size:74.34249863px;text-anchor:middle;text-align:center;writing-mode:lr;line-height:125%;stroke-width:0.09;stroke-miterlimit:4;stroke-dasharray:none;stroke:#000000;stroke-opacity:1;">Toledo</tspan></text>
      <text
         xml:space="preserve"
         style="font-style:normal;font-weight:normal;font-size:40px;line-height:125%;font-family:sans-serif;letter-spacing:0px;word-spacing:0px;fill:#000000;fill-opacity:1;stroke:none;stroke-width:1px;stroke-linecap:butt;stroke-linejoin:miter;stroke-opacity:1"
         x="439.76251"
         y="-576.70551"
         id="text4257"
         sodipodi:linespacing="125%"><tspan
           sodipodi:role="line"
           id="tspan4259"
           x="439.76251"
           y="-576.70551" /><tspan
           sodipodi:role="line"
           x="439.76251"
           y="-526.70551"
           id="tspan4261" /></text>
      <rect
         style="fill:none;stroke:#0000ff;stroke-width:0.11039163;stroke-miterlimit:4;stroke-dasharray:none;stroke-opacity:1"
         id="rect4267"
         width="708.55103"
         height="189.12175"
         x="-104.58728"
         y="-610.73096"
         ry="16.210445"
         rx="16.210445" />
      <flowRoot
         xml:space="preserve"
         id="flowRoot4269"
         style="fill:black;stroke:none;stroke-opacity:1;stroke-width:1px;stroke-linejoin:miter;stroke-linecap:butt;fill-opacity:1;font-family:sans-serif;font-style:normal;font-weight:normal;font-size:40px;line-height:125%;letter-spacing:0px;word-spacing:0px"><flowRegion
           id="flowRegion4271"><rect
             id="rect4273"
             width="145"
             height="70"
             x="1815"
             y="50" /></flowRegion><flowPara
           id="flowPara4275" /></flowRoot>      <g
         id="g3125"
         transform="matrix(0.25013951,0,0,0.23423189,-48.127926,-578.40885)"
         style="fill:url(#linearGradient6226);fill-opacity:1;stroke:#000000;stroke-width:0.37181624;stroke-miterlimit:4;stroke-dasharray:none;stroke-opacity:1">
        <path
           id="path3095"
           d="M 374.20996,169.29639 374.20996,0 0,0 0,169.29639 C 2.0698242,295.38379 64.42334,390.94238 187.14844,455.88281 309.78613,390.94238 372.22656,295.38379 374.20996,169.29639 l 0,0 z"
           inkscape:connector-curvature="0"
           style="clip-rule:evenodd;fill:url(#linearGradient4288);fill-opacity:1;fill-rule:evenodd;stroke:#000000;stroke-width:0.37181624;stroke-miterlimit:4;stroke-dasharray:none;stroke-opacity:1" />
        <path
           id="path3097"
           d="m 366.62012,169.29639 0,-1.63916 -358.9433622,0 0,1.63916 c 0.3447266,18.80078 1.9833984,36.91162 5.0878902,54.33349 l 348.766602,0 c 3.01953,-17.42187 4.74414,-35.53271 5.08887,-54.33349 l 0,0 z"
           inkscape:connector-curvature="0"
           style="clip-rule:evenodd;fill:url(#linearGradient4290);fill-opacity:1;fill-rule:evenodd;stroke:#000000;stroke-width:0.37181624;stroke-miterlimit:4;stroke-dasharray:none;stroke-opacity:1" />
        <polygon
           id="polygon3099"
           points="190.94336,111.77197 366.62012,111.77197 366.62012,111.77197 366.62012,55.886719 190.94336,55.886719 "
           style="clip-rule:evenodd;fill:url(#linearGradient4292);fill-opacity:1;fill-rule:evenodd;stroke:#000000;stroke-width:0.37181624;stroke-miterlimit:4;stroke-dasharray:none;stroke-opacity:1" />
        <polygon
           id="polygon3101"
           points="183.354,7.5893555 7.6767578,7.5893555 7.6767578,7.5893555 7.6767578,160.06787 183.354,160.06787 "
           style="clip-rule:evenodd;fill:url(#linearGradient4294);fill-opacity:1;fill-rule:evenodd;stroke:#000000;stroke-width:0.37181624;stroke-miterlimit:4;stroke-dasharray:none;stroke-opacity:1" />
        <path
           id="path3103"
           d="m 28.287598,279.51367 c 7.675781,19.75098 17.421875,38.29395 29.322754,55.88672 l 259.076168,0 c 11.90137,-17.50684 21.64649,-36.13574 29.32129,-55.88672 l -317.720212,0 0,0 z"
           inkscape:connector-curvature="0"
           style="clip-rule:evenodd;fill:url(#linearGradient4296);fill-opacity:1;fill-rule:evenodd;stroke:#000000;stroke-width:0.37181624;stroke-miterlimit:4;stroke-dasharray:none;stroke-opacity:1" />
        <path
           id="path3105"
           d="m 106.59766,391.28711 c 22.85449,20.69824 49.76269,39.32715 80.55078,55.96973 30.78808,-16.64258 57.69824,-35.27149 80.55176,-55.96973 l -161.10254,0 0,0 z"
           inkscape:connector-curvature="0"
           style="clip-rule:evenodd;fill:url(#linearGradient4298);fill-opacity:1;fill-rule:evenodd;stroke:#000000;stroke-width:0.37181624;stroke-miterlimit:4;stroke-dasharray:none;stroke-opacity:1" />
        <path
           id="path3107"
           d="M 77.446289,19.231934 C 63.734375,12.246582 54.765625,11.297852 50.539062,16.299805 c 9.486817,1.897461 14.057618,7.676758 13.539551,17.335449 l 0,83.915036 c 3.708496,1.81104 7.848145,2.93213 12.505371,3.3628 1.035645,0.0869 1.984375,0.17334 2.933106,0.25927 l 0,-20.958 c 16.988769,1.46679 28.63232,9.83252 35.01465,25.26953 6.46826,15.43847 13.53955,23.28613 21.21533,23.71826 7.67676,0.43017 12.59082,-6.29639 14.83398,-20.18213 -11.29785,12.07471 -20.69824,8.79639 -28.11523,-9.91846 C 114.9624,100.30176 100.646,90.125 79.51709,88.313477 l 0,-61.664551 c 3.104492,-1.034668 6.382324,-1.637696 9.91748,-1.811035 8.796387,-0.344727 16.64551,2.587402 23.45801,8.797363 6.81299,6.294922 10.43554,13.97168 10.78027,22.94043 0.3457,7.589355 -2.06982,14.489746 -7.24365,20.698242 l 0,9.314453 3.53613,0 c 2.84473,-1.638672 5.60596,-3.62207 8.10596,-5.950195 4.91699,-4.312989 8.10742,-9.14209 9.66016,-14.317383 0.86279,-3.276856 2.41455,-5.778321 4.56982,-7.589356 -2.15527,-2.155761 -3.53613,-5.08789 -4.2251,-8.710449 -1.7251,-8.882324 -5.95019,-16.817383 -12.76465,-23.716309 -7.50293,-7.761718 -16.90381,-11.55664 -28.37402,-11.55664 -7.071289,0 -13.625488,1.465332 -19.491211,4.483887 l 0,0 z"
           inkscape:connector-curvature="0"
           style="clip-rule:evenodd;fill:url(#linearGradient4300);fill-opacity:1;fill-rule:evenodd;stroke:#000000;stroke-width:0.37181624;stroke-miterlimit:4;stroke-dasharray:none;stroke-opacity:1" />
        <path
           id="path3109"
           d="M 93.487305,28.459961 C 90.038574,27.511719 86.330078,27.597656 82.363281,28.71875 l 0,29.754395 c 1.55127,3.105468 4.139161,3.966796 7.675293,2.845703 4.484864,-1.465332 5.518555,-4.3125 3.276856,-8.624024 -2.672852,-5.08789 -2.586426,-13.195312 0.171875,-24.234863 l 0,0 z"
           inkscape:connector-curvature="0"
           style="clip-rule:evenodd;fill:url(#linearGradient4302);fill-opacity:1;fill-rule:evenodd;stroke:#000000;stroke-width:0.37181624;stroke-miterlimit:4;stroke-dasharray:none;stroke-opacity:1" />
        <path
           id="path3111"
           d="m 92.539062,42.949707 c 3.709473,1.121094 5.605469,3.535156 5.605469,7.331055 l 0,39.412109 c 7.245119,2.933594 13.369139,7.416992 18.284669,13.282719 l 17.24805,0 c 2.67382,0.25683 3.79492,1.81103 3.44921,4.74316 -0.43066,2.84473 -3.27539,6.03662 -8.45068,9.57275 12.07422,1.20704 17.42041,-4.65722 16.12695,-17.680172 -1.29296,-12.936523 2.06983,-22.165039 10.00391,-27.51123 -7.33008,-2.156739 -14.23047,3.622558 -20.61133,17.334472 l -20.6123,0 0,-36.309082 6.89892,0 c -0.77636,-4.483886 -2.3291,-8.624023 -5.00146,-12.331543 l -18.887208,0 c -2.415528,0.170899 -3.794922,0.861328 -4.0542,2.155762 l 0,0 z"
           inkscape:connector-curvature="0"
           style="clip-rule:evenodd;fill:url(#linearGradient4304);fill-opacity:1;fill-rule:evenodd;stroke:#000000;stroke-width:0.37181624;stroke-miterlimit:4;stroke-dasharray:none;stroke-opacity:1" />
        <path
           id="path3113"
           d="m 61.23291,33.635254 c 0,0 0,0 0,-0.08594 0,-0.863769 0,-1.725097 0,-2.501464 -6.036621,2.329101 -11.384277,5.864257 -16.299805,10.435058 -9.832519,9.228516 -16.731445,21.561035 -20.698242,36.913574 -0.604492,2.2417 -1.63916,4.051758 -2.932129,5.259766 1.466797,2.155762 2.5,4.571289 3.104493,7.330078 2.329101,9.918464 8.019531,19.491214 17.075683,28.805664 8.970215,9.22803 20.095703,13.79932 33.463379,13.71192 7.847656,0 14.574219,-1.11963 20.352539,-3.3628 l 0,-9.40039 c -4.743652,2.84571 -11.039551,3.88184 -18.973633,3.01953 -11.728515,-1.20849 -20.438476,-6.03808 -26.217773,-14.4038 -5.77832,-8.45166 -8.624512,-18.024421 -8.624512,-28.978034 0,-10.865723 2.846192,-20.094238 8.452149,-27.855957 3.363769,-4.570801 7.072265,-7.935059 11.297851,-10.004394 l 0,-8.882813 0,0 z"
           inkscape:connector-curvature="0"
           style="clip-rule:evenodd;fill:url(#linearGradient4306);fill-opacity:1;fill-rule:evenodd;stroke:#000000;stroke-width:0.37181624;stroke-miterlimit:4;stroke-dasharray:none;stroke-opacity:1" />
        <path
           id="path3115"
           d="m 98.144531,109.18457 0,26.21777 c -0.171875,8.53809 -1.80957,13.71192 -5.001464,15.52344 5.950195,0.51807 11.039553,-0.77539 15.264643,-3.88086 4.65723,2.75977 9.83252,4.05322 15.52442,3.88086 -5.51953,-4.91553 -8.88379,-11.55615 -10.0044,-19.83496 -0.69043,-1.38037 -1.29345,-2.93311 -1.98339,-4.48584 -3.19092,-7.67578 -7.76172,-13.45361 -13.799809,-17.42041 l 0,0 z"
           inkscape:connector-curvature="0"
           style="clip-rule:evenodd;fill:url(#linearGradient4308);fill-opacity:1;fill-rule:evenodd;stroke:#000000;stroke-width:0.37181624;stroke-miterlimit:4;stroke-dasharray:none;stroke-opacity:1" />
        <path
           id="path3117"
           d="m 74.946289,136.35107 c -3.880859,0.0864 -7.589355,-0.25976 -11.125977,-1.03466 -0.862304,7.15722 -4.311523,13.45361 -10.004394,18.97314 8.106934,-0.34424 14.40332,-2.67334 18.973144,-6.98633 4.916993,4.22657 10.953614,6.38233 17.939942,6.46826 -5.433594,-4.39746 -8.883789,-10.26269 -10.436524,-17.59375 -1.724121,0.17334 -3.449218,0.17334 -5.346191,0.17334 l 0,0 z"
           inkscape:connector-curvature="0"
           style="clip-rule:evenodd;fill:url(#linearGradient4310);fill-opacity:1;fill-rule:evenodd;stroke:#000000;stroke-width:0.37181624;stroke-miterlimit:4;stroke-dasharray:none;stroke-opacity:1" />
        <path
           id="path3119"
           d="m 140.83594,49.50293 c 0.2583,1.294433 0.60302,2.501465 1.12109,3.622558 l 10.26172,0 c 3.36426,0.776368 5.86572,3.794434 7.50439,8.969727 2.50049,7.761719 6.81299,11.988281 13.10938,12.678711 -6.72803,-8.883789 -8.79785,-18.28418 -6.12402,-28.116699 2.5874,-9.917481 0.69043,-18.283204 -5.6919,-24.923829 1.7251,12.590821 -0.17236,18.973145 -5.77832,19.060547 l -16.90381,0 c 1.1211,2.844727 1.89746,5.690918 2.50147,8.708985 l 0,0 z"
           inkscape:connector-curvature="0"
           style="clip-rule:evenodd;fill:url(#linearGradient4312);fill-opacity:1;fill-rule:evenodd;stroke:#000000;stroke-width:0.37181624;stroke-miterlimit:4;stroke-dasharray:none;stroke-opacity:1" />
      </g>
      <path
         inkscape:connector-curvature="0"
         style="fill:none;fill-opacity:1;stroke:#000000;stroke-width:0.09;stroke-opacity:1;stroke-miterlimit:4;stroke-dasharray:none"
         d="m 457.8819,-462.73777 12.06525,-0.1788 5.20737,-20.39022 -29.06369,0.15003 0,-11.25663 11.48078,0 0,-76.44035 -10.83625,0 -0.17909,-10.99534 36.45924,6.2e-4 0,10.99484 -11.79108,0 0,75.91679 7.08859,0 15.49028,-54.31977 21.08716,-0.0887 15.46252,54.27761 7.73926,0 0.163,-18.71741 14.87633,0 0.16496,30.62859 -19.39322,-9e-5 5.46904,20.2881 11.59698,0.14244 0,11.76864 -38.16584,0 0,-11.78019 11.86347,0 -5.54516,-20.2881 -29.4991,-0.13592 -5.57262,20.41972 11.68738,0.004 0,11.78019 -37.85556,0 0,-11.78019 z m 57.78812,-32.34881 -11.25507,-40.95015 -11.47011,40.95724 c 0,0.19095 22.49879,0.18393 22.72518,-0.007 z"
         id="path2161"
         sodipodi:nodetypes="ccccccccccccccccccccccccccccccccccccccc" />
    </g>
  </g>
</svg>
