<?xml version="1.0" encoding="UTF-8" standalone="no"?>
<!-- Created with Inkscape (http://www.inkscape.org/) -->
<svg
   xmlns:dc="http://purl.org/dc/elements/1.1/"
   xmlns:cc="http://creativecommons.org/ns#"
   xmlns:rdf="http://www.w3.org/1999/02/22-rdf-syntax-ns#"
   xmlns:svg="http://www.w3.org/2000/svg"
   xmlns="http://www.w3.org/2000/svg"
   xmlns:sodipodi="http://sodipodi.sourceforge.net/DTD/sodipodi-0.dtd"
   xmlns:inkscape="http://www.inkscape.org/namespaces/inkscape"
   width="366.42569"
   height="398.73093"
   id="svg2468"
   sodipodi:version="0.32"
   inkscape:version="0.46"
   version="1.0"
   sodipodi:docname="de_1.svg"
   inkscape:output_extension="org.inkscape.output.svg.inkscape">
  <defs
     id="defs2470">
    <filter
       inkscape:collect="always"
       id="filter4143">
      <feGaussianBlur
         inkscape:collect="always"
         stdDeviation="3.5642357"
         id="feGaussianBlur4145" />
    </filter>
    <inkscape:perspective
       sodipodi:type="inkscape:persp3d"
       inkscape:vp_x="0 : 526.18109 : 1"
       inkscape:vp_y="0 : 1000 : 0"
       inkscape:vp_z="744.09448 : 526.18109 : 1"
       inkscape:persp3d-origin="372.04724 : 350.78739 : 1"
       id="perspective2476" />
  </defs>
  <sodipodi:namedview
     id="base"
     pagecolor="#ffffff"
     bordercolor="#666666"
     borderopacity="1.0"
     inkscape:pageopacity="0.0"
     inkscape:pageshadow="2"
     inkscape:zoom="0.35"
     inkscape:cx="350"
     inkscape:cy="520"
     inkscape:document-units="px"
     inkscape:current-layer="layer1"
     showgrid="false"
     inkscape:window-width="640"
     inkscape:window-height="676"
     inkscape:window-x="632"
     inkscape:window-y="38" />
  <metadata
     id="metadata2473">
    <rdf:RDF>
      <cc:Work
         rdf:about="">
        <dc:format>image/svg+xml</dc:format>
        <dc:type
           rdf:resource="http://purl.org/dc/dcmitype/StillImage" />
      </cc:Work>
    </rdf:RDF>
  </metadata>
  <g
     inkscape:label="Capa 1"
     inkscape:groupmode="layer"
     id="layer1"
     transform="translate(-208.21573,-201.56815)">
    <g
       id="g4071"
       transform="matrix(0.5809568,0,0,0.5809568,273.37288,201.70678)"
       style="fill:#eeeeec;stroke:none;filter:url(#filter4143)"
       inkscape:export-xdpi="90"
       inkscape:export-ydpi="90">
      <path
         style="opacity:1;fill:#eeeeec;fill-opacity:1;fill-rule:nonzero;stroke:none;stroke-width:1.99999988;stroke-linecap:round;stroke-linejoin:bevel;marker:none;marker-start:none;marker-mid:none;marker-end:none;stroke-miterlimit:4;stroke-dasharray:none;stroke-dashoffset:0;stroke-opacity:1;visibility:visible;display:inline;overflow:visible;enable-background:accumulate"
         d="M 220.90625,676.3551 C 212.92019,676.1394 206.10576,674.5887 198.5625,671.3864 C 194.05183,669.4715 193.27921,668.9808 185.5,662.8239 C 178.13764,656.9969 176.92399,655.8819 174.25,652.4176 C 161.20397,635.516 155.17149,615.9587 156.6875,595.5739 C 158.10182,576.5565 167.07842,556.4671 180.5625,542.1051 C 197.45606,524.11163 221.52527,512.01595 246.25,509.10512 C 254.19962,508.20845 262.61154,504.66716 265.1875,503.98012 C 291.09683,491.76198 310.8636,474.38287 326.4375,450.10512 C 330.78297,443.33115 334.54368,436.39028 337.71875,429.29262 C 336.91088,429.00845 336.35868,428.79731 336.375,428.73012 C 336.43307,428.4911 337.39886,427.66316 338.875,426.57387 C 346.37149,408.89369 350.30315,390.23555 350.625,370.60512 C 331.4896,387.22204 306.64543,397.85982 281.6875,399.94887 C 259.71866,401.78776 235.87427,395.70615 218.21875,383.73012 C 199.29364,370.89292 186.36857,352.00482 180.625,328.82387 C 179.44776,324.07257 179.30031,322.233 179.3125,311.73012 C 179.32536,300.63262 179.41654,299.63965 180.875,294.35512 C 183.66235,284.25516 187.73925,276.47595 194.53125,268.23012 C 198.48528,263.42975 201.02682,261.21344 207,257.35512 C 222.18116,247.54908 240.68405,245.37103 254.15625,251.82387 C 259.554,254.40927 266.40554,260.96721 268.53125,265.60512 C 270.78233,270.51652 271.4228,276.66327 270.3125,282.29262 C 269.3955,286.94191 267.07361,291.73081 265.46875,292.26137 C 264.94033,292.43608 265.0741,291.97859 265.875,290.85512 C 269.88991,285.22309 269.6813,271.90841 265.46875,265.79262 C 262.90167,262.06573 257.07518,257.02016 253.3125,255.26137 C 237.97569,248.09257 215.31317,253.4939 201.59375,267.57387 C 192.44532,276.96276 186.37425,290.42427 185.21875,303.85512 C 184.72946,309.54225 185.40181,320.04924 186.59375,325.16762 C 190.19948,340.6514 197.32288,353.41332 208.6875,364.69887 C 222.48055,378.39601 239.22019,386.42928 258.875,388.82387 C 266.71342,389.77883 281.45545,389.24722 289.28125,387.69887 C 310.71784,383.45763 330.44063,372.68551 346.375,356.57387 L 349.96875,352.94887 C 349.9585,352.83378 349.94798,352.72028 349.9375,352.60512 C 348.6497,338.45072 342.0678,312.78771 336.375,299.60512 C 320.7812,263.49513 294.38807,232.84321 259.96875,210.91762 L 249,203.91762 C 244.01665,201.06339 238.48389,197.71311 233.59375,194.54262 C 229.39309,191.81913 225.28709,188.91708 221.28125,185.88637 L 221.15625,185.91762 L 208.0625,176.41762 C 175.03178,152.45127 136.84454,139.1344 97.53125,137.88637 C 83.17922,137.43076 56.8576,140.76285 43.21875,144.76137 C 9.01947,154.78767 -18.34384,174.01806 -38.8125,202.41762 C -55.67742,225.81706 -64.58445,250.58196 -66.4375,279.16762 C -67.05008,288.61702 -65.16506,307.51312 -62.625,317.48012 C -56.62631,341.01858 -41.91099,363.16118 -22.90625,377.16762 C 5.59416,398.17234 47.46529,401.1016 72.59375,383.85512 C 78.75865,379.62394 87.59906,368.95306 91.0625,361.57387 C 96.74597,349.46459 93.22217,325.75189 84.4375,316.91762 C 82.68512,315.15539 82.29154,314.3559 83.28125,314.51137 C 86.28705,314.98362 91.84913,322.82748 94.84375,330.82387 C 98.46966,340.50587 99.08545,351.61901 96.53125,361.01137 C 94.11928,369.88063 83.91933,383.54942 75.09375,389.73012 C 53.0661,405.15656 19.55896,406.73872 -10.28125,393.76137 C -22.02217,388.65527 -27.19284,385.47872 -35.625,378.10512 C -50.10931,365.43912 -59.61356,352.80533 -67.53125,335.66762 C -71.67407,326.7008 -72.12235,324.95565 -75.40625,305.23012 C -78.5142,286.56154 -78.81934,283.24134 -78.125,274.44887 C -74.73745,231.55157 -57.30359,194.16974 -27.46875,165.79262 C 0.36463,139.31919 40.9162,121.47175 80.46875,118.29262 C 110.21636,115.90157 140.96417,120.20811 169.625,130.32387 C 158.65638,113.50486 150.00754,95.28587 144.25,76.38637 C 136.85733,52.11947 134.88372,25.27867 138.1875,-0.23863 L 155.40625,-0.23863 C 154.26985,10.21677 154.18332,20.97447 155.1875,32.01137 C 156.47532,46.16577 163.02599,71.86003 168.71875,85.04262 C 181.5328,114.71566 201.66382,140.71054 227.53125,161.19887 C 227.56062,161.22214 227.59561,161.23812 227.625,161.26137 C 229.6244,162.74672 231.60999,164.27659 233.5625,165.79262 C 237.31698,168.55006 241.1845,171.20005 245.15625,173.73012 L 256.03125,180.66762 C 261.04321,183.53548 266.60426,186.91077 271.53125,190.10512 C 292.31437,203.57986 310.81245,220.95851 325.96875,240.82387 L 333.28125,239.01137 C 359.42221,232.58705 382.40001,219.0159 399.78125,199.73012 C 406.12657,192.68949 415.66969,177.99936 419.46875,169.41762 C 428.99488,147.89891 430.98087,125.91731 425.40625,103.48012 C 420.81313,84.99336 412.13239,69.92486 398.53125,56.79262 C 394.03522,52.45157 383.72508,45.32787 377.625,42.35517 C 363.21886,35.33477 345.80612,33.31407 330.65625,36.91757 C 307.93682,42.32207 288.61962,62.17187 286.59375,82.19887 C 286.09676,87.1122 287.69846,96.1165 289.9375,101.01137 C 293.61161,109.04373 307.0591,117.38887 315.25,116.73012 C 316.88391,116.59874 317.43752,116.76633 316.9375,117.19887 C 315.41886,118.51269 309.11422,117.94524 303.8125,116.04262 C 297.39317,113.73899 291.54617,109.33813 287.90625,104.04262 C 284.46906,99.04198 281.91316,88.03544 282.5625,80.94887 C 284.18331,63.2617 297.68829,45.70397 316.9375,36.19887 C 324.5113,32.45897 328.31966,31.20937 335.625,30.10517 C 348.17371,28.20807 358.56089,28.81477 370.5625,32.13637 C 376.84208,33.87427 377.92028,34.37447 389.25,41.13637 C 399.97268,47.53577 401.77577,48.81577 405.90625,52.91757 C 426.05833,72.93043 437.428,97.64345 439,124.79262 C 440.46654,150.12055 432.19193,178.18459 416.9375,199.48012 C 397.82599,226.16034 368.19786,246.32436 336.125,254.48012 C 335.98247,254.51636 335.83135,254.56895 335.6875,254.60512 C 346.56839,271.34526 355.14982,289.4682 360.875,308.26137 C 365.04407,321.94646 367.46976,336.44833 368.21875,351.07387 C 368.50584,351.12326 368.6875,351.15666 368.6875,351.19887 C 368.6875,351.31344 368.52747,351.61727 368.28125,351.98012 C 369.25929,373.07211 366.72007,394.40237 360.71875,413.82387 C 377.93491,406.37693 397.45548,403.72498 415.71875,406.57387 C 433.71356,409.38088 451.66179,418.92631 463.5,431.98012 C 476.18952,445.97262 482.87817,463.63062 482.96875,483.35512 C 482.98732,487.39797 482.74535,488.89677 480.6875,497.32387 C 478.51316,506.2281 478.26379,507.02315 476.0625,510.98012 C 471.85537,518.54284 467.06045,523.99871 460,529.29262 C 455.88969,532.37449 453.42252,533.64171 447.875,535.57387 C 433.77563,540.4845 418.49444,538.6293 408.9375,530.82387 C 405.10842,527.69655 400.89587,521.08562 400.09375,516.94887 C 399.24435,512.56817 399.9172,507.50044 401.90625,503.19887 C 403.54901,499.64617 406.3582,496.24929 407.75,496.13637 C 408.20827,496.09916 407.98704,496.48457 407.125,497.23012 C 402.80365,500.9676 400.40456,511.65667 402.59375,517.38637 C 403.92782,520.87799 407.60358,526.05378 410.28125,528.19887 C 421.19548,536.94243 440.45939,537.04343 454.21875,528.41762 C 463.39379,522.66571 470.89088,513.06557 474.4375,502.51137 C 475.93928,498.04232 477.42751,489.4767 477.46875,485.13637 C 477.59347,472.00631 474.36013,460.37834 467.4375,449.10512 C 459.03561,435.42294 447.15535,425.67127 431.84375,419.91762 C 425.73741,417.62306 413.8031,415.2006 407.21875,414.91762 C 389.18276,414.14247 371.24613,418.9368 355.3125,428.76137 L 355.1875,428.82387 C 339.5126,465.69596 314.22665,501.44279 273.875,513.10512 L 246.84375,520.91762 C 227.38962,526.5402 208.21482,530.98184 193.34375,543.6364 C 187.91482,548.2561 179.33902,558.2419 175.65625,564.2614 C 166.42174,579.3551 162.7834,595.5549 164.71875,612.8239 C 166.31333,627.0524 171.28279,639.1335 180.125,650.2614 C 183.04792,653.9399 190.02669,660.2566 194.28125,663.0739 C 204.329,669.7271 217.12696,672.951 228.78125,671.7614 C 246.25855,669.9773 262.63122,657.1091 266.125,642.3864 C 266.98215,638.7744 266.68496,631.9109 265.5,628.0426 C 263.55547,621.6948 254.36077,614.1417 248.1875,613.8239 C 246.95604,613.7605 246.55304,613.5968 246.96875,613.3239 C 248.23127,612.4949 252.89106,613.5078 256.65625,615.4489 C 261.2151,617.7991 265.12255,621.675 267.3125,625.9801 C 269.3805,630.0455 270.18596,638.4826 269,643.6989 C 266.04001,656.7181 254.23308,668.4853 238.9375,673.6676 C 232.91931,675.7066 229.96328,676.2534 224.40625,676.3551 C 223.21305,676.3769 222.04712,676.3859 220.90625,676.3551 z"
         id="path4073" />
      <path
         id="path4075"
         d="M 458.43278,248.17868 C 458.43278,247.92155 459.15196,246.59038 460.03099,245.22054 C 464.3382,238.50845 468.98123,226.58807 470.87666,217.37609 C 475.46727,195.06549 469.576,173.06751 455.3703,159.47516 C 451.20989,155.49441 449.49724,154.36858 445.05391,152.69374 C 441.95294,151.52491 440.65043,151.32998 436.97139,151.4842 C 433.30644,151.63784 432.02794,151.95572 429.19324,153.41814 C 425.60863,155.26745 425.26083,154.9329 427.67363,151.95666 C 430.47776,148.49776 435.41616,146.47254 441.09022,146.4546 C 447.98017,146.43283 454.42637,149.63829 461.38565,156.54677 C 472.92166,167.99866 477.96154,181.6415 477.24638,199.48135 C 476.78014,211.11133 474.05304,221.16518 468.20914,232.79881 C 464.62496,239.93383 458.43278,249.67522 458.43278,248.17868 L 458.43278,248.17868 z"
         style="opacity:1;fill:#eeeeec;fill-opacity:1;fill-rule:nonzero;stroke:none;stroke-width:20;stroke-linecap:round;stroke-linejoin:bevel;marker:none;marker-start:none;marker-mid:none;marker-end:none;stroke-miterlimit:4;stroke-dasharray:none;stroke-dashoffset:0;stroke-opacity:1;visibility:visible;display:inline;overflow:visible;enable-background:accumulate" />
      <path
         style="opacity:1;fill:#eeeeec;fill-opacity:1;fill-rule:nonzero;stroke:none;stroke-width:20;stroke-linecap:round;stroke-linejoin:bevel;marker:none;marker-start:none;marker-mid:none;marker-end:none;stroke-miterlimit:4;stroke-dasharray:none;stroke-dashoffset:0;stroke-opacity:1;visibility:visible;display:inline;overflow:visible;enable-background:accumulate"
         d="M 39.735363,237.03778 C 39.814982,236.79189 40.914927,235.74158 42.17971,234.7038 C 48.37708,229.61874 56.508324,219.65698 61.17339,211.43447 C 72.47181,191.5203 73.649605,168.6594 64.273521,151.26229 C 61.527551,146.16723 60.238349,144.56028 56.507803,141.58276 C 53.904268,139.50482 52.719036,138.91508 49.153016,137.92335 C 45.600649,136.93544 44.279587,136.84355 41.115929,137.3643 C 37.115331,138.02282 36.886323,137.59521 40.115268,135.49614 C 43.867897,133.05669 49.217594,132.64913 54.649257,134.38893 C 61.24486,136.50156 66.416804,141.56298 70.93277,150.32451 C 78.418616,164.84803 79.013782,179.45529 72.805812,196.29409 C 68.758756,207.27148 63.03768,216.04154 53.846835,225.35722 C 48.209942,231.07063 39.271962,238.46892 39.735363,237.03778 L 39.735363,237.03778 z"
         id="path4077" />
      <path
         id="path4079"
         d="M -24.804286,71.503954 C -24.883906,71.749844 -25.983856,72.800154 -27.248636,73.837934 C -33.446006,78.922994 -41.57725,88.88475 -46.242316,97.10726 C -57.54074,117.02143 -58.71853,139.88233 -49.342447,157.27944 C -46.596477,162.3745 -45.307275,163.98145 -41.576729,166.95897 C -38.973194,169.03691 -37.787962,169.62665 -34.221942,170.61838 C -30.669576,171.60629 -29.348516,171.69818 -26.184856,171.17743 C -22.184256,170.51891 -21.955246,170.94652 -25.184196,173.04559 C -28.936826,175.48504 -34.28652,175.8926 -39.718183,174.1528 C -46.313786,172.04017 -51.48573,166.97875 -56.0017,158.21722 C -63.48754,143.6937 -64.08271,129.08644 -57.87474,112.24764 C -53.827682,101.27025 -48.106606,92.50019 -38.915761,83.184514 C -33.278868,77.471104 -24.340886,70.072814 -24.804286,71.503954 L -24.804286,71.503954 z"
         style="opacity:1;fill:#eeeeec;fill-opacity:1;fill-rule:nonzero;stroke:none;stroke-width:20;stroke-linecap:round;stroke-linejoin:bevel;marker:none;marker-start:none;marker-mid:none;marker-end:none;stroke-miterlimit:4;stroke-dasharray:none;stroke-dashoffset:0;stroke-opacity:1;visibility:visible;display:inline;overflow:visible;enable-background:accumulate" />
      <path
         style="opacity:1;fill:#eeeeec;fill-opacity:1;fill-rule:nonzero;stroke:none;stroke-width:20;stroke-linecap:round;stroke-linejoin:bevel;marker:none;marker-start:none;marker-mid:none;marker-end:none;stroke-miterlimit:4;stroke-dasharray:none;stroke-dashoffset:0;stroke-opacity:1;visibility:visible;display:inline;overflow:visible;enable-background:accumulate"
         d="M 261.19571,83.503954 C 261.11609,83.749844 260.01614,84.800154 258.75136,85.837934 C 252.55399,90.922994 244.42275,100.88475 239.75768,109.10726 C 228.45926,129.02143 227.28147,151.88233 236.65755,169.27944 C 239.40352,174.3745 240.69272,175.98145 244.42327,178.95897 C 247.02681,181.03691 248.21204,181.62665 251.77806,182.61838 C 255.33042,183.60629 256.65148,183.69818 259.81514,183.17743 C 263.81574,182.51891 264.04475,182.94652 260.8158,185.04559 C 257.06317,187.48504 251.71348,187.8926 246.28182,186.1528 C 239.68621,184.04017 234.51427,178.97875 229.9983,170.21722 C 222.51246,155.6937 221.91729,141.08644 228.12526,124.24764 C 232.17232,113.27025 237.89339,104.50019 247.08424,95.184514 C 252.72113,89.471104 261.65911,82.072814 261.19571,83.503954 L 261.19571,83.503954 z"
         id="path4081" />
      <path
         id="path4083"
         d="M 518.24497,477.58465 C 518.08464,477.38193 517.82159,475.88398 517.66045,474.25589 C 516.87092,466.2783 513.0985,453.98511 508.84871,445.54047 C 498.55611,425.08832 480.19453,411.41863 460.51924,409.56042 C 454.75696,409.01622 452.70469,409.19655 448.15722,410.64676 C 444.9836,411.65888 443.83514,412.31737 441.03075,414.73303 C 438.23711,417.13945 437.42736,418.18728 436.10438,421.10783 C 434.4314,424.80102 433.94859,424.75414 433.995,420.90316 C 434.04898,416.42764 436.67957,411.75161 441.14182,408.19939 C 446.56028,403.88598 453.64122,402.39361 463.43573,403.5008 C 479.67156,405.33615 492.15204,412.94954 502.71228,427.46042 C 509.59661,436.92022 513.71566,446.54716 516.3625,459.36309 C 517.9858,467.22327 519.17814,478.76452 518.24497,477.58465 L 518.24497,477.58465 z"
         style="opacity:1;fill:#eeeeec;fill-opacity:1;fill-rule:nonzero;stroke:none;stroke-width:20;stroke-linecap:round;stroke-linejoin:bevel;marker:none;marker-start:none;marker-mid:none;marker-end:none;stroke-miterlimit:4;stroke-dasharray:none;stroke-dashoffset:0;stroke-opacity:1;visibility:visible;display:inline;overflow:visible;enable-background:accumulate" />
      <path
         style="opacity:1;fill:#eeeeec;fill-opacity:1;fill-rule:nonzero;stroke:none;stroke-width:20;stroke-linecap:round;stroke-linejoin:bevel;marker:none;marker-start:none;marker-mid:none;marker-end:none;stroke-miterlimit:4;stroke-dasharray:none;stroke-dashoffset:0;stroke-opacity:1;visibility:visible;display:inline;overflow:visible;enable-background:accumulate"
         d="M 81.82716,585.65035 C 82.03842,585.50144 82.71567,584.13969 83.33212,582.62422 C 86.35266,575.19848 93.45797,564.48082 99.92908,557.58899 C 115.60153,540.8976 137.08701,532.99935 156.48096,536.7999 C 162.16085,537.91298 164.07762,538.66819 168.02675,541.34904 C 170.78278,543.22001 171.69721,544.17729 173.70097,547.28936 C 175.69704,550.38951 176.17622,551.62404 176.61619,554.79993 C 177.17256,558.81601 177.64883,558.90805 178.69695,555.20216 C 179.91502,550.89525 178.71925,545.66501 175.44824,540.9927 C 171.47628,535.31919 165.10975,531.87909 155.4036,530.16182 C 139.31425,527.31521 125.18653,531.07467 110.94313,541.99301 C 101.65771,549.11079 94.97651,557.17343 88.80222,568.71171 C 85.01548,575.7883 80.59758,586.51696 81.82716,585.65035 L 81.82716,585.65035 z"
         id="path4085" />
    </g>
    <g
       id="g4062"
       transform="matrix(0.5809568,0,0,0.5809568,254.78227,206.35443)"
       inkscape:export-filename="/home/roger/mis-dibujos/open/g4071.png"
       inkscape:export-xdpi="90"
       inkscape:export-ydpi="90">
      <path
         id="path3423"
         d="M 220.90625,676.3551 C 212.92019,676.1394 206.10576,674.5887 198.5625,671.3864 C 194.05183,669.4715 193.27921,668.9808 185.5,662.8239 C 178.13764,656.9969 176.92399,655.8819 174.25,652.4176 C 161.20397,635.516 155.17149,615.9587 156.6875,595.5739 C 158.10182,576.5565 167.07842,556.4671 180.5625,542.1051 C 197.45606,524.11163 221.52527,512.01595 246.25,509.10512 C 254.19962,508.20845 262.61154,504.66716 265.1875,503.98012 C 291.09683,491.76198 310.8636,474.38287 326.4375,450.10512 C 330.78297,443.33115 334.54368,436.39028 337.71875,429.29262 C 336.91088,429.00845 336.35868,428.79731 336.375,428.73012 C 336.43307,428.4911 337.39886,427.66316 338.875,426.57387 C 346.37149,408.89369 350.30315,390.23555 350.625,370.60512 C 331.4896,387.22204 306.64543,397.85982 281.6875,399.94887 C 259.71866,401.78776 235.87427,395.70615 218.21875,383.73012 C 199.29364,370.89292 186.36857,352.00482 180.625,328.82387 C 179.44776,324.07257 179.30031,322.233 179.3125,311.73012 C 179.32536,300.63262 179.41654,299.63965 180.875,294.35512 C 183.66235,284.25516 187.73925,276.47595 194.53125,268.23012 C 198.48528,263.42975 201.02682,261.21344 207,257.35512 C 222.18116,247.54908 240.68405,245.37103 254.15625,251.82387 C 259.554,254.40927 266.40554,260.96721 268.53125,265.60512 C 270.78233,270.51652 271.4228,276.66327 270.3125,282.29262 C 269.3955,286.94191 267.07361,291.73081 265.46875,292.26137 C 264.94033,292.43608 265.0741,291.97859 265.875,290.85512 C 269.88991,285.22309 269.6813,271.90841 265.46875,265.79262 C 262.90167,262.06573 257.07518,257.02016 253.3125,255.26137 C 237.97569,248.09257 215.31317,253.4939 201.59375,267.57387 C 192.44532,276.96276 186.37425,290.42427 185.21875,303.85512 C 184.72946,309.54225 185.40181,320.04924 186.59375,325.16762 C 190.19948,340.6514 197.32288,353.41332 208.6875,364.69887 C 222.48055,378.39601 239.22019,386.42928 258.875,388.82387 C 266.71342,389.77883 281.45545,389.24722 289.28125,387.69887 C 310.71784,383.45763 330.44063,372.68551 346.375,356.57387 L 349.96875,352.94887 C 349.9585,352.83378 349.94798,352.72028 349.9375,352.60512 C 348.6497,338.45072 342.0678,312.78771 336.375,299.60512 C 320.7812,263.49513 294.38807,232.84321 259.96875,210.91762 L 249,203.91762 C 244.01665,201.06339 238.48389,197.71311 233.59375,194.54262 C 229.39309,191.81913 225.28709,188.91708 221.28125,185.88637 L 221.15625,185.91762 L 208.0625,176.41762 C 175.03178,152.45127 136.84454,139.1344 97.53125,137.88637 C 83.17922,137.43076 56.8576,140.76285 43.21875,144.76137 C 9.01947,154.78767 -18.34384,174.01806 -38.8125,202.41762 C -55.67742,225.81706 -64.58445,250.58196 -66.4375,279.16762 C -67.05008,288.61702 -65.16506,307.51312 -62.625,317.48012 C -56.62631,341.01858 -41.91099,363.16118 -22.90625,377.16762 C 5.59416,398.17234 47.46529,401.1016 72.59375,383.85512 C 78.75865,379.62394 87.59906,368.95306 91.0625,361.57387 C 96.74597,349.46459 93.22217,325.75189 84.4375,316.91762 C 82.68512,315.15539 82.29154,314.3559 83.28125,314.51137 C 86.28705,314.98362 91.84913,322.82748 94.84375,330.82387 C 98.46966,340.50587 99.08545,351.61901 96.53125,361.01137 C 94.11928,369.88063 83.91933,383.54942 75.09375,389.73012 C 53.0661,405.15656 19.55896,406.73872 -10.28125,393.76137 C -22.02217,388.65527 -27.19284,385.47872 -35.625,378.10512 C -50.10931,365.43912 -59.61356,352.80533 -67.53125,335.66762 C -71.67407,326.7008 -72.12235,324.95565 -75.40625,305.23012 C -78.5142,286.56154 -78.81934,283.24134 -78.125,274.44887 C -74.73745,231.55157 -57.30359,194.16974 -27.46875,165.79262 C 0.36463,139.31919 40.9162,121.47175 80.46875,118.29262 C 110.21636,115.90157 140.96417,120.20811 169.625,130.32387 C 158.65638,113.50486 150.00754,95.28587 144.25,76.38637 C 136.85733,52.11947 134.88372,25.27867 138.1875,-0.23863 L 155.40625,-0.23863 C 154.26985,10.21677 154.18332,20.97447 155.1875,32.01137 C 156.47532,46.16577 163.02599,71.86003 168.71875,85.04262 C 181.5328,114.71566 201.66382,140.71054 227.53125,161.19887 C 227.56062,161.22214 227.59561,161.23812 227.625,161.26137 C 229.6244,162.74672 231.60999,164.27659 233.5625,165.79262 C 237.31698,168.55006 241.1845,171.20005 245.15625,173.73012 L 256.03125,180.66762 C 261.04321,183.53548 266.60426,186.91077 271.53125,190.10512 C 292.31437,203.57986 310.81245,220.95851 325.96875,240.82387 L 333.28125,239.01137 C 359.42221,232.58705 382.40001,219.0159 399.78125,199.73012 C 406.12657,192.68949 415.66969,177.99936 419.46875,169.41762 C 428.99488,147.89891 430.98087,125.91731 425.40625,103.48012 C 420.81313,84.99336 412.13239,69.92486 398.53125,56.79262 C 394.03522,52.45157 383.72508,45.32787 377.625,42.35517 C 363.21886,35.33477 345.80612,33.31407 330.65625,36.91757 C 307.93682,42.32207 288.61962,62.17187 286.59375,82.19887 C 286.09676,87.1122 287.69846,96.1165 289.9375,101.01137 C 293.61161,109.04373 307.0591,117.38887 315.25,116.73012 C 316.88391,116.59874 317.43752,116.76633 316.9375,117.19887 C 315.41886,118.51269 309.11422,117.94524 303.8125,116.04262 C 297.39317,113.73899 291.54617,109.33813 287.90625,104.04262 C 284.46906,99.04198 281.91316,88.03544 282.5625,80.94887 C 284.18331,63.2617 297.68829,45.70397 316.9375,36.19887 C 324.5113,32.45897 328.31966,31.20937 335.625,30.10517 C 348.17371,28.20807 358.56089,28.81477 370.5625,32.13637 C 376.84208,33.87427 377.92028,34.37447 389.25,41.13637 C 399.97268,47.53577 401.77577,48.81577 405.90625,52.91757 C 426.05833,72.93043 437.428,97.64345 439,124.79262 C 440.46654,150.12055 432.19193,178.18459 416.9375,199.48012 C 397.82599,226.16034 368.19786,246.32436 336.125,254.48012 C 335.98247,254.51636 335.83135,254.56895 335.6875,254.60512 C 346.56839,271.34526 355.14982,289.4682 360.875,308.26137 C 365.04407,321.94646 367.46976,336.44833 368.21875,351.07387 C 368.50584,351.12326 368.6875,351.15666 368.6875,351.19887 C 368.6875,351.31344 368.52747,351.61727 368.28125,351.98012 C 369.25929,373.07211 366.72007,394.40237 360.71875,413.82387 C 377.93491,406.37693 397.45548,403.72498 415.71875,406.57387 C 433.71356,409.38088 451.66179,418.92631 463.5,431.98012 C 476.18952,445.97262 482.87817,463.63062 482.96875,483.35512 C 482.98732,487.39797 482.74535,488.89677 480.6875,497.32387 C 478.51316,506.2281 478.26379,507.02315 476.0625,510.98012 C 471.85537,518.54284 467.06045,523.99871 460,529.29262 C 455.88969,532.37449 453.42252,533.64171 447.875,535.57387 C 433.77563,540.4845 418.49444,538.6293 408.9375,530.82387 C 405.10842,527.69655 400.89587,521.08562 400.09375,516.94887 C 399.24435,512.56817 399.9172,507.50044 401.90625,503.19887 C 403.54901,499.64617 406.3582,496.24929 407.75,496.13637 C 408.20827,496.09916 407.98704,496.48457 407.125,497.23012 C 402.80365,500.9676 400.40456,511.65667 402.59375,517.38637 C 403.92782,520.87799 407.60358,526.05378 410.28125,528.19887 C 421.19548,536.94243 440.45939,537.04343 454.21875,528.41762 C 463.39379,522.66571 470.89088,513.06557 474.4375,502.51137 C 475.93928,498.04232 477.42751,489.4767 477.46875,485.13637 C 477.59347,472.00631 474.36013,460.37834 467.4375,449.10512 C 459.03561,435.42294 447.15535,425.67127 431.84375,419.91762 C 425.73741,417.62306 413.8031,415.2006 407.21875,414.91762 C 389.18276,414.14247 371.24613,418.9368 355.3125,428.76137 L 355.1875,428.82387 C 339.5126,465.69596 314.22665,501.44279 273.875,513.10512 L 246.84375,520.91762 C 227.38962,526.5402 208.21482,530.98184 193.34375,543.6364 C 187.91482,548.2561 179.33902,558.2419 175.65625,564.2614 C 166.42174,579.3551 162.7834,595.5549 164.71875,612.8239 C 166.31333,627.0524 171.28279,639.1335 180.125,650.2614 C 183.04792,653.9399 190.02669,660.2566 194.28125,663.0739 C 204.329,669.7271 217.12696,672.951 228.78125,671.7614 C 246.25855,669.9773 262.63122,657.1091 266.125,642.3864 C 266.98215,638.7744 266.68496,631.9109 265.5,628.0426 C 263.55547,621.6948 254.36077,614.1417 248.1875,613.8239 C 246.95604,613.7605 246.55304,613.5968 246.96875,613.3239 C 248.23127,612.4949 252.89106,613.5078 256.65625,615.4489 C 261.2151,617.7991 265.12255,621.675 267.3125,625.9801 C 269.3805,630.0455 270.18596,638.4826 269,643.6989 C 266.04001,656.7181 254.23308,668.4853 238.9375,673.6676 C 232.91931,675.7066 229.96328,676.2534 224.40625,676.3551 C 223.21305,676.3769 222.04712,676.3859 220.90625,676.3551 z"
         style="opacity:1;fill:#000000;fill-opacity:1;fill-rule:nonzero;stroke:#000000;stroke-width:3.44259667;stroke-linecap:round;stroke-linejoin:bevel;marker:none;marker-start:none;marker-mid:none;marker-end:none;stroke-miterlimit:4;stroke-dasharray:none;stroke-dashoffset:0;stroke-opacity:1;visibility:visible;display:inline;overflow:visible;enable-background:accumulate" />
      <path
         style="opacity:1;fill:#2e3436;fill-opacity:1;fill-rule:nonzero;stroke:none;stroke-width:20;stroke-linecap:round;stroke-linejoin:bevel;marker:none;marker-start:none;marker-mid:none;marker-end:none;stroke-miterlimit:4;stroke-dasharray:none;stroke-dashoffset:0;stroke-opacity:1;visibility:visible;display:inline;overflow:visible;enable-background:accumulate"
         d="M 458.43278,248.17868 C 458.43278,247.92155 459.15196,246.59038 460.03099,245.22054 C 464.3382,238.50845 468.98123,226.58807 470.87666,217.37609 C 475.46727,195.06549 469.576,173.06751 455.3703,159.47516 C 451.20989,155.49441 449.49724,154.36858 445.05391,152.69374 C 441.95294,151.52491 440.65043,151.32998 436.97139,151.4842 C 433.30644,151.63784 432.02794,151.95572 429.19324,153.41814 C 425.60863,155.26745 425.26083,154.9329 427.67363,151.95666 C 430.47776,148.49776 435.41616,146.47254 441.09022,146.4546 C 447.98017,146.43283 454.42637,149.63829 461.38565,156.54677 C 472.92166,167.99866 477.96154,181.6415 477.24638,199.48135 C 476.78014,211.11133 474.05304,221.16518 468.20914,232.79881 C 464.62496,239.93383 458.43278,249.67522 458.43278,248.17868 L 458.43278,248.17868 z"
         id="path4050" />
      <path
         id="path4052"
         d="M 39.735363,237.03778 C 39.814982,236.79189 40.914927,235.74158 42.17971,234.7038 C 48.37708,229.61874 56.508324,219.65698 61.17339,211.43447 C 72.47181,191.5203 73.649605,168.6594 64.273521,151.26229 C 61.527551,146.16723 60.238349,144.56028 56.507803,141.58276 C 53.904268,139.50482 52.719036,138.91508 49.153016,137.92335 C 45.600649,136.93544 44.279587,136.84355 41.115929,137.3643 C 37.115331,138.02282 36.886323,137.59521 40.115268,135.49614 C 43.867897,133.05669 49.217594,132.64913 54.649257,134.38893 C 61.24486,136.50156 66.416804,141.56298 70.93277,150.32451 C 78.418616,164.84803 79.013782,179.45529 72.805812,196.29409 C 68.758756,207.27148 63.03768,216.04154 53.846835,225.35722 C 48.209942,231.07063 39.271962,238.46892 39.735363,237.03778 L 39.735363,237.03778 z"
         style="opacity:1;fill:#2e3436;fill-opacity:1;fill-rule:nonzero;stroke:none;stroke-width:20;stroke-linecap:round;stroke-linejoin:bevel;marker:none;marker-start:none;marker-mid:none;marker-end:none;stroke-miterlimit:4;stroke-dasharray:none;stroke-dashoffset:0;stroke-opacity:1;visibility:visible;display:inline;overflow:visible;enable-background:accumulate" />
      <path
         style="opacity:1;fill:#2e3436;fill-opacity:1;fill-rule:nonzero;stroke:none;stroke-width:20;stroke-linecap:round;stroke-linejoin:bevel;marker:none;marker-start:none;marker-mid:none;marker-end:none;stroke-miterlimit:4;stroke-dasharray:none;stroke-dashoffset:0;stroke-opacity:1;visibility:visible;display:inline;overflow:visible;enable-background:accumulate"
         d="M -24.804286,71.503954 C -24.883906,71.749844 -25.983856,72.800154 -27.248636,73.837934 C -33.446006,78.922994 -41.57725,88.88475 -46.242316,97.10726 C -57.54074,117.02143 -58.71853,139.88233 -49.342447,157.27944 C -46.596477,162.3745 -45.307275,163.98145 -41.576729,166.95897 C -38.973194,169.03691 -37.787962,169.62665 -34.221942,170.61838 C -30.669576,171.60629 -29.348516,171.69818 -26.184856,171.17743 C -22.184256,170.51891 -21.955246,170.94652 -25.184196,173.04559 C -28.936826,175.48504 -34.28652,175.8926 -39.718183,174.1528 C -46.313786,172.04017 -51.48573,166.97875 -56.0017,158.21722 C -63.48754,143.6937 -64.08271,129.08644 -57.87474,112.24764 C -53.827682,101.27025 -48.106606,92.50019 -38.915761,83.184514 C -33.278868,77.471104 -24.340886,70.072814 -24.804286,71.503954 L -24.804286,71.503954 z"
         id="path4054" />
      <path
         id="path4056"
         d="M 261.19571,83.503954 C 261.11609,83.749844 260.01614,84.800154 258.75136,85.837934 C 252.55399,90.922994 244.42275,100.88475 239.75768,109.10726 C 228.45926,129.02143 227.28147,151.88233 236.65755,169.27944 C 239.40352,174.3745 240.69272,175.98145 244.42327,178.95897 C 247.02681,181.03691 248.21204,181.62665 251.77806,182.61838 C 255.33042,183.60629 256.65148,183.69818 259.81514,183.17743 C 263.81574,182.51891 264.04475,182.94652 260.8158,185.04559 C 257.06317,187.48504 251.71348,187.8926 246.28182,186.1528 C 239.68621,184.04017 234.51427,178.97875 229.9983,170.21722 C 222.51246,155.6937 221.91729,141.08644 228.12526,124.24764 C 232.17232,113.27025 237.89339,104.50019 247.08424,95.184514 C 252.72113,89.471104 261.65911,82.072814 261.19571,83.503954 L 261.19571,83.503954 z"
         style="opacity:1;fill:#2e3436;fill-opacity:1;fill-rule:nonzero;stroke:none;stroke-width:20;stroke-linecap:round;stroke-linejoin:bevel;marker:none;marker-start:none;marker-mid:none;marker-end:none;stroke-miterlimit:4;stroke-dasharray:none;stroke-dashoffset:0;stroke-opacity:1;visibility:visible;display:inline;overflow:visible;enable-background:accumulate" />
      <path
         style="opacity:1;fill:#2e3436;fill-opacity:1;fill-rule:nonzero;stroke:none;stroke-width:20;stroke-linecap:round;stroke-linejoin:bevel;marker:none;marker-start:none;marker-mid:none;marker-end:none;stroke-miterlimit:4;stroke-dasharray:none;stroke-dashoffset:0;stroke-opacity:1;visibility:visible;display:inline;overflow:visible;enable-background:accumulate"
         d="M 518.24497,477.58465 C 518.08464,477.38193 517.82159,475.88398 517.66045,474.25589 C 516.87092,466.2783 513.0985,453.98511 508.84871,445.54047 C 498.55611,425.08832 480.19453,411.41863 460.51924,409.56042 C 454.75696,409.01622 452.70469,409.19655 448.15722,410.64676 C 444.9836,411.65888 443.83514,412.31737 441.03075,414.73303 C 438.23711,417.13945 437.42736,418.18728 436.10438,421.10783 C 434.4314,424.80102 433.94859,424.75414 433.995,420.90316 C 434.04898,416.42764 436.67957,411.75161 441.14182,408.19939 C 446.56028,403.88598 453.64122,402.39361 463.43573,403.5008 C 479.67156,405.33615 492.15204,412.94954 502.71228,427.46042 C 509.59661,436.92022 513.71566,446.54716 516.3625,459.36309 C 517.9858,467.22327 519.17814,478.76452 518.24497,477.58465 L 518.24497,477.58465 z"
         id="path4058" />
      <path
         id="path4060"
         d="M 81.82716,585.65035 C 82.03842,585.50144 82.71567,584.13969 83.33212,582.62422 C 86.35266,575.19848 93.45797,564.48082 99.92908,557.58899 C 115.60153,540.8976 137.08701,532.99935 156.48096,536.7999 C 162.16085,537.91298 164.07762,538.66819 168.02675,541.34904 C 170.78278,543.22001 171.69721,544.17729 173.70097,547.28936 C 175.69704,550.38951 176.17622,551.62404 176.61619,554.79993 C 177.17256,558.81601 177.64883,558.90805 178.69695,555.20216 C 179.91502,550.89525 178.71925,545.66501 175.44824,540.9927 C 171.47628,535.31919 165.10975,531.87909 155.4036,530.16182 C 139.31425,527.31521 125.18653,531.07467 110.94313,541.99301 C 101.65771,549.11079 94.97651,557.17343 88.80222,568.71171 C 85.01548,575.7883 80.59758,586.51696 81.82716,585.65035 L 81.82716,585.65035 z"
         style="opacity:1;fill:#2e3436;fill-opacity:1;fill-rule:nonzero;stroke:none;stroke-width:20;stroke-linecap:round;stroke-linejoin:bevel;marker:none;marker-start:none;marker-mid:none;marker-end:none;stroke-miterlimit:4;stroke-dasharray:none;stroke-dashoffset:0;stroke-opacity:1;visibility:visible;display:inline;overflow:visible;enable-background:accumulate" />
    </g>
  </g>
</svg>
