<?xml version="1.0" encoding="utf-8"?>
<!-- Generator: Adobe Illustrator 15.0.0, SVG Export Plug-In . SVG Version: 6.00 Build 0)  -->
<!DOCTYPE svg PUBLIC "-//W3C//DTD SVG 1.1//EN" "http://www.w3.org/Graphics/SVG/1.1/DTD/svg11.dtd">
<svg version="1.1"
	 id="svg2" xmlns:dc="http://purl.org/dc/elements/1.1/" xmlns:cc="http://web.resource.org/cc/" xmlns:rdf="http://www.w3.org/1999/02/22-rdf-syntax-ns#" xmlns:svg="http://www.w3.org/2000/svg" xmlns:sodipodi="http://sodipodi.sourceforge.net/DTD/sodipodi-0.dtd" xmlns:inkscape="http://www.inkscape.org/namespaces/inkscape" inkscape:export-xdpi="28.183115" inkscape:export-ydpi="28.183115" sodipodi:version="0.32" inkscape:version="0.45.1" sodipodi:docname="Helicopter_outline.svg" sodipodi:docbase="C:\Dokumente und Einstellungen\Klaus\Eigene Dateien\Eigene Bilder\OpenClipartLibrary" inkscape:export-filename="C:\Dokumente und Einstellungen\Klaus\Eigene Dateien\Eigene Bilder\OpenClipartLibrary\Helicopter_outline.png" inkscape:output_extension="org.inkscape.output.svg.inkscape"
	 xmlns="http://www.w3.org/2000/svg" xmlns:xlink="http://www.w3.org/1999/xlink" x="0px" y="0px" width="1020.889px"
	 height="690.75px" viewBox="0 0 1020.889 690.75" enable-background="new 0 0 1020.889 690.75" xml:space="preserve">
<sodipodi:namedview  height="744.09448px" width="1052.3622px" inkscape:zoom="0.79130605" borderopacity="1.0" bordercolor="#666666" pagecolor="#ffffff" inkscape:cy="345.37429" inkscape:cx="510.44419" id="base" inkscape:window-y="-4" inkscape:window-x="-4" inkscape:window-height="977" inkscape:window-width="1280" inkscape:current-layer="layer1" inkscape:document-units="px" inkscape:pageshadow="2" inkscape:pageopacity="0.0">
	</sodipodi:namedview>
<path id="rect4057" fill="#FFFFFF" stroke="#000000" stroke-width="15" stroke-linecap="round" stroke-linejoin="round" d="
	M533.379,79.661c-44.04,3.528-93.235,8.732-145.024,15.544c-184.142,24.219-331.523,59.657-328.967,79.093
	c2.396,18.219,135.703,15.96,304.056-4.344c0.772,5.125,1.599,9.728,2.462,13.596c-94.466,13.638-164.115,83.553-158.23,160.48
	c3.083,40.308,25.492,75.354,59.463,99.818l-62.838,9.598c-15.836,2.419-26.632,17.107-24.213,32.944
	c2.418,15.836,17.107,26.632,32.943,24.214l56.485-8.618l16.926,7.946l-9.012,1.369c-17.944,2.742-30.172,19.387-27.433,37.332
	c2.741,17.944,19.389,30.203,37.333,27.462l354.304-54.114c17.942-2.74,30.171-19.386,27.431-37.328
	c-2.74-17.945-19.388-30.203-37.332-27.465l-71.239,10.889l-23.62-9.411c9.366-5.956,14.825-17.032,13.036-28.749
	c-0.91-5.955-3.531-11.2-7.32-15.297c16.702-18.991,28.255-41.039,33.072-64.617c52.671-43.154,109.255-76.715,174.021-97.066
	c18.271,31.25,53.295,51.09,91.795,48.145c53.732-4.109,94.003-51.053,89.893-104.785c-4.11-53.733-51.051-94.004-104.785-89.894
	c-39.317,3.008-71.438,28.956-84.227,63.711c-82.224,2.292-192.813,19.682-264.834,25.388c-16.23-6.301-33.818-10.697-52.286-12.843
	c0.195-4.63-0.243-12.031-1.206-20.615c171.596-24.019,304.971-57,302.539-75.496C724.733,72.579,645.927,70.646,533.379,79.661z"/>
<path id="rect4008" fill="#FFFFFF" stroke="#000000" stroke-width="4" stroke-linecap="round" stroke-linejoin="round" d="
	M204.299,453.447l312.672-47.754c15.787-2.41,30.54,8.433,32.951,24.219l0,0c2.411,15.789-8.433,30.54-24.221,32.952L213.03,510.617
	c-15.787,2.411-30.54-8.433-32.951-24.221l0,0C177.668,470.61,188.512,455.856,204.299,453.447z"/>
<path id="rect4010" sodipodi:nodetypes="cccccc" fill="#FFFFFF" stroke="#000000" stroke-width="4" stroke-linecap="round" stroke-linejoin="round" d="
	M251.1,464.838l240.766-24.096l121.351,48.326l-265.598,49.527l-92.996-43.6C259.276,485.652,257.356,475.509,251.1,464.838z"/>
<path id="path3938" fill="#FFFFFF" stroke="#000000" stroke-width="4" stroke-linecap="round" stroke-linejoin="round" d="
	M834.263,261.886c28.375-2.17,47.96-25.997,45.776-54.538c-2.183-28.541-25.283-50.698-53.659-48.527
	c-26.602,2.035-46.064,27.447-43.881,55.989C784.683,243.35,807.661,263.921,834.263,261.886z"/>
<path id="path3940" sodipodi:nodetypes="ccccc" fill="#FFFFFF" stroke="#000000" stroke-width="4" stroke-linecap="round" stroke-linejoin="round" d="
	M473.438,195.856c124.899-9.31,374.69-56.849,377.817,6.047c1.138,23.11-18.473,31.523-23.626,33.69
	c-123.44,16.752-217.674,76.889-304.698,161.768C488.118,371.553,447.493,233.343,473.438,195.856z"/>
<path id="path3942" fill="#FFFFFF" stroke="#000000" stroke-width="4" stroke-linecap="round" stroke-linejoin="round" d="
	M404.194,479.706c102.23-7.821,179.946-81.133,173.609-163.975c-6.2-81.078-94.164-141.718-196.393-133.898
	c-102.229,7.82-179.946,81.134-173.744,162.212C214.002,426.884,301.966,487.524,404.194,479.706z"/>
<path id="rect4038" fill="#FFFFFF" stroke="#000000" stroke-width="4" stroke-linecap="round" stroke-linejoin="round" d="
	M361.098,126.125l53.851-7.082c1.897-0.25,5.225,13.142,7.43,29.91l1.055,8.021c2.206,16.769,2.455,30.564,0.556,30.814
	l-53.851,7.083c-1.897,0.25-5.224-13.142-7.43-29.911l-1.055-8.021C359.448,140.172,359.2,126.375,361.098,126.125z"/>
<path id="path3944" fill="#FFFFFF" stroke="#000000" stroke-width="4" stroke-linecap="round" stroke-linejoin="round" d="
	M419.793,227.057c34.218,39.881,19.633,108.495-30.848,152.353c-50.292,46.344-120.905,49.246-155.123,9.367
	c-37.036-39.667-22.45-108.279,27.84-154.625C312.144,190.292,382.568,184.906,419.793,227.057z"/>
<path id="rect4006" fill="#FFFFFF" stroke="#000000" stroke-width="4" stroke-linecap="round" stroke-linejoin="round" d="
	M277.44,511.312l354.297-54.109c17.89-2.733,34.605,9.555,37.338,27.443l0,0c2.73,17.891-9.555,34.605-27.444,37.336
	l-354.296,54.109c-17.89,2.733-34.605-9.553-37.338-27.443l0,0C247.265,530.761,259.552,514.044,277.44,511.312z"/>
<path id="path4013" fill="#FFFFFF" d="M327.715,221.989c22.151,4.25,25.965,28.577,9.188,53.662
	c-16.305,25.799-48.825,43.043-70.977,38.793c-23.434-3.532-27.248-27.859-10.944-53.659
	C271.76,235.701,303.807,217.743,327.715,221.989z"/>
<path id="path4019" sodipodi:type="arc" sodipodi:cx="1343.6135" sodipodi:cy="126.82128" sodipodi:rx="429.30655" sodipodi:ry="429.30655" fill="#FFFFFF" stroke="#000000" stroke-width="17.3452" stroke-linecap="round" stroke-linejoin="round" d="
	M931.369,196.299c4.132,53.759-36.098,100.689-89.856,104.823c-53.76,4.132-100.689-36.099-104.822-89.858
	c-0.002-0.024-0.004-0.049-0.005-0.073c-4.133-53.759,36.097-100.689,89.855-104.822c53.76-4.132,100.69,36.097,104.821,89.857
	C931.366,196.25,931.367,196.274,931.369,196.299z"/>
<path id="path4021" sodipodi:type="arc" sodipodi:cx="1343.6135" sodipodi:cy="126.82128" sodipodi:rx="429.30655" sodipodi:ry="429.30655" fill="#FFFFFF" stroke="#000000" stroke-width="73.4992" stroke-linecap="round" stroke-linejoin="round" d="
	M856.999,201.988c0.975,12.686-8.519,23.762-21.206,24.737c-12.687,0.975-23.762-8.519-24.736-21.206
	c-0.001-0.006-0.001-0.011-0.001-0.017c-0.977-12.687,8.518-23.762,21.205-24.737c12.686-0.976,23.762,8.519,24.737,21.206
	C856.998,201.976,856.998,201.981,856.999,201.988z"/>
<path id="path4023" sodipodi:type="arc" sodipodi:cx="1343.6135" sodipodi:cy="126.82128" sodipodi:rx="429.30655" sodipodi:ry="429.30655" fill="#FFFFFF" stroke="#000000" stroke-width="15.4912" stroke-linecap="round" stroke-linejoin="round" d="
	M726.572,86.552c2.627,19.436-144.595,54.842-328.829,79.081c-184.233,24.239-335.715,28.132-338.342,8.695
	c-0.001-0.009-0.002-0.018-0.004-0.026c-2.626-19.437,144.595-54.843,328.83-79.082c184.234-24.239,335.715-28.131,338.342-8.694
	C726.57,86.534,726.571,86.543,726.572,86.552z"/>
<path id="path4030" fill="#FFFFFF" stroke="#000000" stroke-width="4" stroke-linecap="round" stroke-linejoin="round" d="
	M389.92,113.758c-28.597,3.762-53.879,14.525-72.875,29.414l150.877-19.844C445.723,113.857,418.517,109.997,389.92,113.758z"/>
</svg>
