<?xml version="1.0" encoding="UTF-8" standalone="no"?>
<!-- Created with Inkscape (http://www.inkscape.org/) -->

<svg
   xmlns:dc="http://purl.org/dc/elements/1.1/"
   xmlns:cc="http://creativecommons.org/ns#"
   xmlns:rdf="http://www.w3.org/1999/02/22-rdf-syntax-ns#"
   xmlns:svg="http://www.w3.org/2000/svg"
   xmlns="http://www.w3.org/2000/svg"
   xmlns:xlink="http://www.w3.org/1999/xlink"
   xmlns:sodipodi="http://sodipodi.sourceforge.net/DTD/sodipodi-0.dtd"
   xmlns:inkscape="http://www.inkscape.org/namespaces/inkscape"
   width="609.85406mm"
   height="305.05405mm"
   viewBox="0 0 2160.9002 1080.9002"
   id="svg4170"
   version="1.1"
   inkscape:version="0.91 r13725"
   sodipodi:docname="office building obstracle.svg">
  <sodipodi:namedview
     id="base"
     pagecolor="#ffffff"
     bordercolor="#666666"
     borderopacity="1.0"
     inkscape:pageopacity="0.0"
     inkscape:pageshadow="2"
     inkscape:zoom="1.4"
     inkscape:cx="580.72925"
     inkscape:cy="624.85605"
     inkscape:document-units="px"
     inkscape:current-layer="layer1"
     showgrid="false"
     inkscape:window-width="1920"
     inkscape:window-height="1018"
     inkscape:window-x="-8"
     inkscape:window-y="-8"
     inkscape:window-maximized="1"
     fit-margin-top="0"
     fit-margin-left="0"
     fit-margin-right="0"
     fit-margin-bottom="0" />
  <defs
     id="defs4172" />
  <metadata
     id="metadata4175">
    <rdf:RDF>
      <cc:Work
         rdf:about="">
        <dc:format>image/svg+xml</dc:format>
        <dc:type
           rdf:resource="http://purl.org/dc/dcmitype/StillImage" />
        <dc:title></dc:title>
      </cc:Work>
    </rdf:RDF>
  </metadata>
  <g
     transform="translate(183.30715,285.23067)"
     inkscape:label="Layer 1"
     inkscape:groupmode="layer"
     id="layer1">
    <rect
       y="-284.78067"
       x="-182.85715"
       height="1080"
       width="2160"
       id="rect4803"
       style="opacity:1;fill:none;fill-opacity:1;stroke:#000000;stroke-width:0.89999998;stroke-linejoin:round;stroke-miterlimit:4;stroke-dasharray:none;stroke-dashoffset:0;stroke-opacity:1" />
    <path
       id="path4813"
       d="M 3.5433070866,3.5433070866 L 42.7686489022,3.5433070866 L 42.7686489022,20.3385818661 L 81.5156442519,20.3385818661 L 81.5156442519,3.5433070866 L 120.900434889,3.5433070866 L 120.900434889,20.3385818661 L 159.647430239,20.3385818661 L 159.647430239,3.5433070866 L 199.032220877,3.5433070866 L 199.032220877,20.3385818661 L 237.779216226,20.3385818661 L 237.779216226,3.5433070866 L 277.164006864,3.5433070866 L 277.164006864,20.3385818661 L 315.911002214,20.3385818661 L 315.911002214,3.5433070866 L 355.295792851,3.5433070866 L 355.295792851,20.3385818661 L 394.042788201,20.3385818661 L 394.042788201,3.5433070866 L 433.427578838,3.5433070866 L 433.427578838,20.3385818661 L 472.174574188,20.3385818661 L 472.174574188,3.5433070866 L 511.559364826,3.5433070866 L 511.559364826,20.3385818661 L 550.306360175,20.3385818661 L 550.306360175,3.5433070866 L 589.691150813,3.5433070866 L 589.691150813,20.3385818661 L 628.438146163,20.3385818661 L 628.438146163,3.5433070866 L 667.8229368,3.5433070866 L 667.8229368,20.3385818661 L 706.56993215,20.3385818661 L 706.56993215,3.5433070866 L 745.795273966,3.5433070866 "
       style="stroke:#000000;fill:none"
       inkscape:label="part" />
    <path
       id="path4815"
       d="M 745.795273966,3.5433070866 L 745.795273966,52.9405508595 L 728.999999186,52.9405508595 L 728.999999186,101.859448167 L 745.795273966,101.859448167 L 745.795273966,151.416140762 L 728.999999186,151.416140762 L 728.999999186,200.335038069 L 745.795273966,200.335038069 L 745.795273966,249.732281842 "
       style="stroke:#000000;fill:none"
       inkscape:label="part" />
    <path
       id="path4817"
       d="M 745.795273966,249.732281842 L 706.56993215,249.732281842 L 706.56993215,232.937007062 L 667.8229368,232.937007062 L 667.8229368,249.732281842 L 628.438146163,249.732281842 L 628.438146163,232.937007062 L 589.691150813,232.937007062 L 589.691150813,249.732281842 L 550.306360175,249.732281842 L 550.306360175,232.937007062 L 511.559364826,232.937007062 L 511.559364826,249.732281842 L 472.174574188,249.732281842 L 472.174574188,232.937007062 L 433.427578838,232.937007062 L 433.427578838,249.732281842 L 394.042788201,249.732281842 L 394.042788201,232.937007062 L 355.295792851,232.937007062 L 355.295792851,249.732281842 L 315.911002214,249.732281842 L 315.911002214,232.937007062 L 277.164006864,232.937007062 L 277.164006864,249.732281842 L 237.779216226,249.732281842 L 237.779216226,232.937007062 L 199.032220877,232.937007062 L 199.032220877,249.732281842 L 159.647430239,249.732281842 L 159.647430239,232.937007062 L 120.900434889,232.937007062 L 120.900434889,249.732281842 L 81.5156442519,249.732281842 L 81.5156442519,232.937007062 L 42.7686489022,232.937007062 L 42.7686489022,249.732281842 L 3.5433070866,249.732281842 "
       style="stroke:#000000;fill:none"
       inkscape:label="part" />
    <path
       id="path4819"
       d="M 3.5433070866,249.732281842 L 3.5433070866,200.335038069 L 20.3385818661,200.335038069 L 20.3385818661,151.416140762 L 3.5433070866,151.416140762 L 3.5433070866,101.859448167 L 20.3385818661,101.859448167 L 20.3385818661,52.9405508595 L 3.5433070866,52.9405508595 L 3.5433070866,3.5433070866 "
       style="stroke:#000000;fill:none"
       inkscape:label="part" />
    <path
       id="path4821"
       d="M 749.338581052,3.5433070866 L 788.563922868,3.5433070866 L 788.563922868,20.3385818661 L 827.310918218,20.3385818661 L 827.310918218,3.5433070866 L 866.695708855,3.5433070866 L 866.695708855,20.3385818661 L 905.442704205,20.3385818661 L 905.442704205,3.5433070866 L 944.827494842,3.5433070866 L 944.827494842,20.3385818661 L 983.574490192,20.3385818661 L 983.574490192,3.5433070866 L 1022.95928083,3.5433070866 L 1022.95928083,20.3385818661 L 1061.70627618,20.3385818661 L 1061.70627618,3.5433070866 L 1101.09106682,3.5433070866 L 1101.09106682,20.3385818661 L 1139.83806217,20.3385818661 L 1139.83806217,3.5433070866 L 1179.2228528,3.5433070866 L 1179.2228528,20.3385818661 L 1217.96984815,20.3385818661 L 1217.96984815,3.5433070866 L 1257.35463879,3.5433070866 L 1257.35463879,20.3385818661 L 1296.10163414,20.3385818661 L 1296.10163414,3.5433070866 L 1335.48642478,3.5433070866 L 1335.48642478,20.3385818661 L 1374.23342013,20.3385818661 L 1374.23342013,3.5433070866 L 1413.61821077,3.5433070866 L 1413.61821077,20.3385818661 L 1452.36520612,20.3385818661 L 1452.36520612,3.5433070866 L 1491.59054793,3.5433070866 "
       style="stroke:#000000;fill:none"
       inkscape:label="part" />
    <path
       id="path4823"
       d="M 1491.59054793,3.5433070866 L 1491.59054793,52.9405508595 L 1474.79527315,52.9405508595 L 1474.79527315,101.859448167 L 1491.59054793,101.859448167 L 1491.59054793,151.416140762 L 1474.79527315,151.416140762 L 1474.79527315,200.335038069 L 1491.59054793,200.335038069 L 1491.59054793,249.732281842 "
       style="stroke:#000000;fill:none"
       inkscape:label="part" />
    <path
       id="path4825"
       d="M 1491.59054793,249.732281842 L 1452.36520612,249.732281842 L 1452.36520612,232.937007062 L 1413.61821077,232.937007062 L 1413.61821077,249.732281842 L 1374.23342013,249.732281842 L 1374.23342013,232.937007062 L 1335.48642478,232.937007062 L 1335.48642478,249.732281842 L 1296.10163414,249.732281842 L 1296.10163414,232.937007062 L 1257.35463879,232.937007062 L 1257.35463879,249.732281842 L 1217.96984815,249.732281842 L 1217.96984815,232.937007062 L 1179.2228528,232.937007062 L 1179.2228528,249.732281842 L 1139.83806217,249.732281842 L 1139.83806217,232.937007062 L 1101.09106682,232.937007062 L 1101.09106682,249.732281842 L 1061.70627618,249.732281842 L 1061.70627618,232.937007062 L 1022.95928083,232.937007062 L 1022.95928083,249.732281842 L 983.574490192,249.732281842 L 983.574490192,232.937007062 L 944.827494842,232.937007062 L 944.827494842,249.732281842 L 905.442704205,249.732281842 L 905.442704205,232.937007062 L 866.695708855,232.937007062 L 866.695708855,249.732281842 L 827.310918218,249.732281842 L 827.310918218,232.937007062 L 788.563922868,232.937007062 L 788.563922868,249.732281842 L 749.338581052,249.732281842 "
       style="stroke:#000000;fill:none"
       inkscape:label="part" />
    <path
       id="path4827"
       d="M 749.338581052,249.732281842 L 749.338581052,200.335038069 L 766.133855832,200.335038069 L 766.133855832,151.416140762 L 749.338581052,151.416140762 L 749.338581052,101.859448167 L 766.133855832,101.859448167 L 766.133855832,52.9405508595 L 749.338581052,52.9405508595 L 749.338581052,3.5433070866 "
       style="stroke:#000000;fill:none"
       inkscape:label="part" />
    <path
       id="path4829"
       d="M 1511.9291298,3.5433070866 L 1544.53109879,3.5433070866 L 1544.53109879,20.3385818661 L 1593.4499961,20.3385818661 L 1593.4499961,3.5433070866 L 1643.00668869,3.5433070866 L 1643.00668869,20.3385818661 L 1691.925586,20.3385818661 L 1691.925586,3.5433070866 L 1724.52755499,3.5433070866 "
       style="stroke:#000000;fill:none"
       inkscape:label="part" />
    <path
       id="path4831"
       d="M 1724.52755499,3.5433070866 L 1724.52755499,52.6216532157 L 1741.32282977,52.6216532157 L 1741.32282977,102.178345811 L 1724.52755499,102.178345811 L 1724.52755499,151.097243118 L 1741.32282977,151.097243118 L 1741.32282977,200.653935713 L 1724.52755499,200.653935713 L 1724.52755499,249.732281842 "
       style="stroke:#000000;fill:none"
       inkscape:label="part" />
    <path
       id="path4833"
       d="M 1724.52755499,249.732281842 L 1691.925586,249.732281842 L 1691.925586,232.937007062 L 1643.00668869,232.937007062 L 1643.00668869,249.732281842 L 1593.4499961,249.732281842 L 1593.4499961,232.937007062 L 1544.53109879,232.937007062 L 1544.53109879,249.732281842 L 1511.9291298,249.732281842 "
       style="stroke:#000000;fill:none"
       inkscape:label="part" />
    <path
       id="path4835"
       d="M 1511.9291298,249.732281842 L 1511.9291298,200.653935713 L 1495.13385502,200.653935713 L 1495.13385502,151.097243118 L 1511.9291298,151.097243118 L 1511.9291298,102.178345811 L 1495.13385502,102.178345811 L 1495.13385502,52.6216532157 L 1511.9291298,52.6216532157 L 1511.9291298,3.5433070866 "
       style="stroke:#000000;fill:none"
       inkscape:label="part" />
    <g
       transform="translate(-152.53303,386.88842)"
       id="g4900">
      <path
         inkscape:connector-curvature="0"
         inkscape:label="part"
         style="fill:none;stroke:#000000"
         d="m 1761.6614,3.5433071 32.602,0 0,16.7952749 48.9189,0 0,-16.7952749 49.5567,0 0,16.7952749 48.9189,0 0,-16.7952749 32.6019,0"
         id="path4837" />
      <path
         inkscape:connector-curvature="0"
         inkscape:label="part"
         style="fill:none;stroke:#000000"
         d="m 1974.2598,3.5433071 0,49.0783459 16.7953,0 0,49.556697 -16.7953,0 0,48.91889 16.7953,0 0,49.5567 -16.7953,0 0,49.07834"
         id="path4839" />
      <path
         inkscape:connector-curvature="0"
         inkscape:label="part"
         style="fill:none;stroke:#000000"
         d="m 1974.2598,249.73228 -32.6019,0 0,-16.79527 -48.9189,0 0,16.79527 -49.5567,0 0,-16.79527 -48.9189,0 0,16.79527 -32.602,0"
         id="path4841" />
      <path
         inkscape:connector-curvature="0"
         inkscape:label="part"
         style="fill:none;stroke:#000000"
         d="m 1761.6614,249.73228 0,-49.07834 -16.7953,0 0,-49.5567 16.7953,0 0,-48.91889 -16.7953,0 0,-49.556697 16.7953,0 0,-49.0783459"
         id="path4843" />
    </g>
    <rect
       y="387.56784"
       x="1588.5005"
       height="250.51784"
       width="251.52798"
       id="rect4906"
       style="opacity:1;fill:none;fill-opacity:1;stroke:#000000;stroke-width:0.89999998;stroke-linejoin:round;stroke-miterlimit:4;stroke-dasharray:none;stroke-dashoffset:0;stroke-opacity:1" />
    <rect
       y="46.136269"
       x="44.987328"
       height="11.58086"
       width="40.232788"
       id="rect4908"
       style="opacity:1;fill:none;fill-opacity:1;stroke:#000000;stroke-width:0.89999998;stroke-linejoin:round;stroke-miterlimit:4;stroke-dasharray:none;stroke-dashoffset:0;stroke-opacity:1"
       inkscape:tile-cx="246.9823"
       inkscape:tile-cy="338.94309"
       inkscape:tile-w="38.275645"
       inkscape:tile-h="16.052288"
       inkscape:tile-x0="227.84448"
       inkscape:tile-y0="330.91694" />
    <path
       id="path4845"
       d="M 2011.39369348,20.3385818661 L 2033.50486287,20.3385818661 L 2033.50486287,3.5433070866 L 2072.88965351,3.5433070866 L 2072.88965351,20.3385818661 L 2111.63664886,20.3385818661 L 2111.63664886,3.5433070866 L 2151.0214395,3.5433070866 L 2151.0214395,20.3385818661 L 2189.76843485,20.3385818661 L 2189.76843485,3.5433070866 L 2229.15322548,3.5433070866 L 2229.15322548,20.3385818661 L 2267.90022083,20.3385818661 L 2267.90022083,3.5433070866 L 2307.28501147,3.5433070866 L 2307.28501147,20.3385818661 L 2346.03200682,20.3385818661 L 2346.03200682,3.5433070866 L 2385.41679746,3.5433070866 L 2385.41679746,20.3385818661 L 2424.16379281,20.3385818661 L 2424.16379281,3.5433070866 L 2463.54858345,3.5433070866 L 2463.54858345,20.3385818661 L 2502.2955788,20.3385818661 L 2502.2955788,3.5433070866 L 2541.68036943,3.5433070866 L 2541.68036943,20.3385818661 L 2580.42736478,20.3385818661 L 2580.42736478,3.5433070866 L 2619.81215542,3.5433070866 L 2619.81215542,20.3385818661 L 2658.55915077,20.3385818661 L 2658.55915077,3.5433070866 L 2697.94394141,3.5433070866 L 2697.94394141,20.3385818661 L 2720.0551108,20.3385818661 "
       style="stroke:#000000;fill:none"
       inkscape:label="part" />
    <path
       id="path4847"
       d="M 2720.0551108,20.3385818661 L 2720.0551108,52.6216532157 L 2736.85038558,52.6216532157 L 2736.85038558,102.178345811 L 2720.0551108,102.178345811 L 2720.0551108,151.097243118 L 2736.85038558,151.097243118 L 2736.85038558,200.653935713 L 2720.0551108,200.653935713 L 2720.0551108,232.937007062 "
       style="stroke:#000000;fill:none"
       inkscape:label="part" />
    <path
       id="path4849"
       d="M 2720.0551108,232.937007062 L 2697.94394141,232.937007062 L 2697.94394141,249.732281842 L 2658.55915077,249.732281842 L 2658.55915077,232.937007062 L 2619.81215542,232.937007062 L 2619.81215542,249.732281842 L 2580.42736478,249.732281842 L 2580.42736478,232.937007062 L 2541.68036943,232.937007062 L 2541.68036943,249.732281842 L 2502.2955788,249.732281842 L 2502.2955788,232.937007062 L 2463.54858345,232.937007062 L 2463.54858345,249.732281842 L 2424.16379281,249.732281842 L 2424.16379281,232.937007062 L 2385.41679746,232.937007062 L 2385.41679746,249.732281842 L 2346.03200682,249.732281842 L 2346.03200682,232.937007062 L 2307.28501147,232.937007062 L 2307.28501147,249.732281842 L 2267.90022083,249.732281842 L 2267.90022083,232.937007062 L 2229.15322548,232.937007062 L 2229.15322548,249.732281842 L 2189.76843485,249.732281842 L 2189.76843485,232.937007062 L 2151.0214395,232.937007062 L 2151.0214395,249.732281842 L 2111.63664886,249.732281842 L 2111.63664886,232.937007062 L 2072.88965351,232.937007062 L 2072.88965351,249.732281842 L 2033.50486287,249.732281842 L 2033.50486287,232.937007062 L 2011.39369348,232.937007062 "
       style="stroke:#000000;fill:none"
       inkscape:label="part" />
    <path
       id="path4851"
       d="M 2011.39369348,232.937007062 L 2011.39369348,200.653935713 L 1994.5984187,200.653935713 L 1994.5984187,151.097243118 L 2011.39369348,151.097243118 L 2011.39369348,102.178345811 L 1994.5984187,102.178345811 L 1994.5984187,52.6216532157 L 2011.39369348,52.6216532157 L 2011.39369348,20.3385818661 "
       style="stroke:#000000;fill:none"
       inkscape:label="part" />
    <path
       id="path4853"
       d="M 2757.18896745,20.3385818661 L 2779.30013684,20.3385818661 L 2779.30013684,3.5433070866 L 2818.68492748,3.5433070866 L 2818.68492748,20.3385818661 L 2857.43192283,20.3385818661 L 2857.43192283,3.5433070866 L 2896.81671346,3.5433070866 L 2896.81671346,20.3385818661 L 2935.56370881,20.3385818661 L 2935.56370881,3.5433070866 L 2974.94849945,3.5433070866 L 2974.94849945,20.3385818661 L 3013.6954948,20.3385818661 L 3013.6954948,3.5433070866 L 3053.08028544,3.5433070866 L 3053.08028544,20.3385818661 L 3091.82728079,20.3385818661 L 3091.82728079,3.5433070866 L 3131.21207142,3.5433070866 L 3131.21207142,20.3385818661 L 3169.95906677,20.3385818661 L 3169.95906677,3.5433070866 L 3209.34385741,3.5433070866 L 3209.34385741,20.3385818661 L 3248.09085276,20.3385818661 L 3248.09085276,3.5433070866 L 3287.4756434,3.5433070866 L 3287.4756434,20.3385818661 L 3326.22263875,20.3385818661 L 3326.22263875,3.5433070866 L 3365.60742939,3.5433070866 L 3365.60742939,20.3385818661 L 3404.35442474,20.3385818661 L 3404.35442474,3.5433070866 L 3443.73921537,3.5433070866 L 3443.73921537,20.3385818661 L 3465.85038477,20.3385818661 "
       style="stroke:#000000;fill:none"
       inkscape:label="part" />
    <path
       id="path4855"
       d="M 3465.85038477,20.3385818661 L 3465.85038477,52.6216532157 L 3482.64565955,52.6216532157 L 3482.64565955,102.178345811 L 3465.85038477,102.178345811 L 3465.85038477,151.097243118 L 3482.64565955,151.097243118 L 3482.64565955,200.653935713 L 3465.85038477,200.653935713 L 3465.85038477,232.937007062 "
       style="stroke:#000000;fill:none"
       inkscape:label="part" />
    <path
       id="path4857"
       d="M 3465.85038477,232.937007062 L 3443.73921537,232.937007062 L 3443.73921537,249.732281842 L 3404.35442474,249.732281842 L 3404.35442474,232.937007062 L 3365.60742939,232.937007062 L 3365.60742939,249.732281842 L 3326.22263875,249.732281842 L 3326.22263875,232.937007062 L 3287.4756434,232.937007062 L 3287.4756434,249.732281842 L 3248.09085276,249.732281842 L 3248.09085276,232.937007062 L 3209.34385741,232.937007062 L 3209.34385741,249.732281842 L 3169.95906677,249.732281842 L 3169.95906677,232.937007062 L 3131.21207142,232.937007062 L 3131.21207142,249.732281842 L 3091.82728079,249.732281842 L 3091.82728079,232.937007062 L 3053.08028544,232.937007062 L 3053.08028544,249.732281842 L 3013.6954948,249.732281842 L 3013.6954948,232.937007062 L 2974.94849945,232.937007062 L 2974.94849945,249.732281842 L 2935.56370881,249.732281842 L 2935.56370881,232.937007062 L 2896.81671346,232.937007062 L 2896.81671346,249.732281842 L 2857.43192283,249.732281842 L 2857.43192283,232.937007062 L 2818.68492748,232.937007062 L 2818.68492748,249.732281842 L 2779.30013684,249.732281842 L 2779.30013684,232.937007062 L 2757.18896745,232.937007062 "
       style="stroke:#000000;fill:none"
       inkscape:label="part" />
    <path
       id="path4859"
       d="M 2757.18896745,232.937007062 L 2757.18896745,200.653935713 L 2740.39369267,200.653935713 L 2740.39369267,151.097243118 L 2757.18896745,151.097243118 L 2757.18896745,102.178345811 L 2740.39369267,102.178345811 L 2740.39369267,52.6216532157 L 2757.18896745,52.6216532157 L 2757.18896745,20.3385818661 "
       style="stroke:#000000;fill:none"
       inkscape:label="part" />
    <use
       x="0"
       y="0"
       inkscape:tiled-clone-of="#rect4908"
       xlink:href="#rect4908"
       id="use5027" />
    <use
       x="0"
       y="0"
       inkscape:tiled-clone-of="#rect4908"
       xlink:href="#rect4908"
       transform="translate(0,32.104577)"
       id="use5029" />
    <use
       x="0"
       y="0"
       inkscape:tiled-clone-of="#rect4908"
       xlink:href="#rect4908"
       transform="translate(0,64.209154)"
       id="use5031" />
    <use
       x="0"
       y="0"
       inkscape:tiled-clone-of="#rect4908"
       xlink:href="#rect4908"
       transform="translate(0,96.31373)"
       id="use5033" />
    <use
       x="0"
       y="0"
       inkscape:tiled-clone-of="#rect4908"
       xlink:href="#rect4908"
       transform="translate(0,128.41831)"
       id="use5035" />
    <use
       x="0"
       y="0"
       inkscape:tiled-clone-of="#rect4908"
       xlink:href="#rect4908"
       transform="translate(0,160.52288)"
       id="use5037" />
    <use
       x="0"
       y="0"
       inkscape:tiled-clone-of="#rect4908"
       xlink:href="#rect4908"
       transform="translate(76.551289,0)"
       id="use5039" />
    <use
       x="0"
       y="0"
       inkscape:tiled-clone-of="#rect4908"
       xlink:href="#rect4908"
       transform="translate(76.551289,32.104577)"
       id="use5041" />
    <use
       x="0"
       y="0"
       inkscape:tiled-clone-of="#rect4908"
       xlink:href="#rect4908"
       transform="translate(76.551289,64.209154)"
       id="use5043" />
    <use
       x="0"
       y="0"
       inkscape:tiled-clone-of="#rect4908"
       xlink:href="#rect4908"
       transform="translate(76.551289,96.31373)"
       id="use5045" />
    <use
       x="0"
       y="0"
       inkscape:tiled-clone-of="#rect4908"
       xlink:href="#rect4908"
       transform="translate(76.551289,128.41831)"
       id="use5047" />
    <use
       x="0"
       y="0"
       inkscape:tiled-clone-of="#rect4908"
       xlink:href="#rect4908"
       transform="translate(76.551289,160.52288)"
       id="use5049" />
    <use
       x="0"
       y="0"
       inkscape:tiled-clone-of="#rect4908"
       xlink:href="#rect4908"
       transform="translate(153.10258,0)"
       id="use5051" />
    <use
       x="0"
       y="0"
       inkscape:tiled-clone-of="#rect4908"
       xlink:href="#rect4908"
       transform="translate(153.10258,32.104577)"
       id="use5053" />
    <use
       x="0"
       y="0"
       inkscape:tiled-clone-of="#rect4908"
       xlink:href="#rect4908"
       transform="translate(153.10258,64.209154)"
       id="use5055" />
    <use
       x="0"
       y="0"
       inkscape:tiled-clone-of="#rect4908"
       xlink:href="#rect4908"
       transform="translate(153.10258,96.31373)"
       id="use5057" />
    <use
       x="0"
       y="0"
       inkscape:tiled-clone-of="#rect4908"
       xlink:href="#rect4908"
       transform="translate(153.10258,128.41831)"
       id="use5059" />
    <use
       x="0"
       y="0"
       inkscape:tiled-clone-of="#rect4908"
       xlink:href="#rect4908"
       transform="translate(153.10258,160.52288)"
       id="use5061" />
    <use
       x="0"
       y="0"
       inkscape:tiled-clone-of="#rect4908"
       xlink:href="#rect4908"
       transform="translate(229.65387,0)"
       id="use5063" />
    <use
       x="0"
       y="0"
       inkscape:tiled-clone-of="#rect4908"
       xlink:href="#rect4908"
       transform="translate(229.65387,32.104577)"
       id="use5065" />
    <use
       x="0"
       y="0"
       inkscape:tiled-clone-of="#rect4908"
       xlink:href="#rect4908"
       transform="translate(229.65387,64.209154)"
       id="use5067" />
    <use
       x="0"
       y="0"
       inkscape:tiled-clone-of="#rect4908"
       xlink:href="#rect4908"
       transform="translate(229.65387,96.31373)"
       id="use5069" />
    <use
       x="0"
       y="0"
       inkscape:tiled-clone-of="#rect4908"
       xlink:href="#rect4908"
       transform="translate(229.65387,128.41831)"
       id="use5071" />
    <use
       x="0"
       y="0"
       inkscape:tiled-clone-of="#rect4908"
       xlink:href="#rect4908"
       transform="translate(229.65387,160.52288)"
       id="use5073" />
    <use
       x="0"
       y="0"
       inkscape:tiled-clone-of="#rect4908"
       xlink:href="#rect4908"
       transform="translate(306.20516,0)"
       id="use5075" />
    <use
       x="0"
       y="0"
       inkscape:tiled-clone-of="#rect4908"
       xlink:href="#rect4908"
       transform="translate(306.20516,32.104577)"
       id="use5077" />
    <use
       x="0"
       y="0"
       inkscape:tiled-clone-of="#rect4908"
       xlink:href="#rect4908"
       transform="translate(306.20516,64.209154)"
       id="use5079" />
    <use
       x="0"
       y="0"
       inkscape:tiled-clone-of="#rect4908"
       xlink:href="#rect4908"
       transform="translate(306.20516,96.31373)"
       id="use5081" />
    <use
       x="0"
       y="0"
       inkscape:tiled-clone-of="#rect4908"
       xlink:href="#rect4908"
       transform="translate(306.20516,128.41831)"
       id="use5083" />
    <use
       x="0"
       y="0"
       inkscape:tiled-clone-of="#rect4908"
       xlink:href="#rect4908"
       transform="translate(306.20516,160.52288)"
       id="use5085" />
    <use
       x="0"
       y="0"
       inkscape:tiled-clone-of="#rect4908"
       xlink:href="#rect4908"
       transform="translate(382.75645,0)"
       id="use5087" />
    <use
       x="0"
       y="0"
       inkscape:tiled-clone-of="#rect4908"
       xlink:href="#rect4908"
       transform="translate(382.75645,32.104577)"
       id="use5089" />
    <use
       x="0"
       y="0"
       inkscape:tiled-clone-of="#rect4908"
       xlink:href="#rect4908"
       transform="translate(382.75645,64.209154)"
       id="use5091" />
    <use
       x="0"
       y="0"
       inkscape:tiled-clone-of="#rect4908"
       xlink:href="#rect4908"
       transform="translate(382.75645,96.31373)"
       id="use5093" />
    <use
       x="0"
       y="0"
       inkscape:tiled-clone-of="#rect4908"
       xlink:href="#rect4908"
       transform="translate(382.75645,128.41831)"
       id="use5095" />
    <use
       x="0"
       y="0"
       inkscape:tiled-clone-of="#rect4908"
       xlink:href="#rect4908"
       transform="translate(382.75645,160.52288)"
       id="use5097" />
    <use
       x="0"
       y="0"
       inkscape:tiled-clone-of="#rect4908"
       xlink:href="#rect4908"
       transform="translate(459.30774,0)"
       id="use5099" />
    <use
       x="0"
       y="0"
       inkscape:tiled-clone-of="#rect4908"
       xlink:href="#rect4908"
       transform="translate(459.30774,32.104577)"
       id="use5101" />
    <use
       x="0"
       y="0"
       inkscape:tiled-clone-of="#rect4908"
       xlink:href="#rect4908"
       transform="translate(459.30774,64.209154)"
       id="use5103" />
    <use
       x="0"
       y="0"
       inkscape:tiled-clone-of="#rect4908"
       xlink:href="#rect4908"
       transform="translate(459.30774,96.31373)"
       id="use5105" />
    <use
       x="0"
       y="0"
       inkscape:tiled-clone-of="#rect4908"
       xlink:href="#rect4908"
       transform="translate(459.30774,128.41831)"
       id="use5107" />
    <use
       x="0"
       y="0"
       inkscape:tiled-clone-of="#rect4908"
       xlink:href="#rect4908"
       transform="translate(459.30774,160.52288)"
       id="use5109" />
    <use
       x="0"
       y="0"
       inkscape:tiled-clone-of="#rect4908"
       xlink:href="#rect4908"
       transform="translate(535.85903,0)"
       id="use5111" />
    <use
       x="0"
       y="0"
       inkscape:tiled-clone-of="#rect4908"
       xlink:href="#rect4908"
       transform="translate(535.85903,32.104577)"
       id="use5113" />
    <use
       x="0"
       y="0"
       inkscape:tiled-clone-of="#rect4908"
       xlink:href="#rect4908"
       transform="translate(535.85903,64.209154)"
       id="use5115" />
    <use
       x="0"
       y="0"
       inkscape:tiled-clone-of="#rect4908"
       xlink:href="#rect4908"
       transform="translate(535.85903,96.31373)"
       id="use5117" />
    <use
       x="0"
       y="0"
       inkscape:tiled-clone-of="#rect4908"
       xlink:href="#rect4908"
       transform="translate(535.85903,128.41831)"
       id="use5119" />
    <use
       x="0"
       y="0"
       inkscape:tiled-clone-of="#rect4908"
       xlink:href="#rect4908"
       transform="translate(535.85903,160.52288)"
       id="use5121" />
    <use
       x="0"
       y="0"
       inkscape:tiled-clone-of="#rect4908"
       xlink:href="#rect4908"
       transform="translate(612.41031,0)"
       id="use5123" />
    <use
       x="0"
       y="0"
       inkscape:tiled-clone-of="#rect4908"
       xlink:href="#rect4908"
       transform="translate(612.41031,32.104577)"
       id="use5125" />
    <use
       x="0"
       y="0"
       inkscape:tiled-clone-of="#rect4908"
       xlink:href="#rect4908"
       transform="translate(612.41031,64.209154)"
       id="use5127" />
    <use
       x="0"
       y="0"
       inkscape:tiled-clone-of="#rect4908"
       xlink:href="#rect4908"
       transform="translate(612.41031,96.31373)"
       id="use5129" />
    <use
       x="0"
       y="0"
       inkscape:tiled-clone-of="#rect4908"
       xlink:href="#rect4908"
       transform="translate(612.41031,128.41831)"
       id="use5131" />
    <use
       x="0"
       y="0"
       inkscape:tiled-clone-of="#rect4908"
       xlink:href="#rect4908"
       transform="translate(612.41031,160.52288)"
       id="use5133" />
  </g>
  <g
     transform="translate(183.30715,285.23067)"
     inkscape:label="newlayer"
     inkscape:groupmode="layer"
     id="g4771" />
  <g
     id="g4862"
     inkscape:groupmode="layer"
     inkscape:label="newlayer" />
</svg>
