<?xml version="1.0"?><svg width="640" height="480" xmlns="http://www.w3.org/2000/svg">
 <metadata id="metadata7">image/svg+xml</metadata>
 <g>
  <title>Layer 1</title>
  <g id="layer1">
   <path fill="#000000" fill-rule="evenodd" id="path2816" d="m530.579651,76.096497c0.375122,0.500153 -7.639221,7.25589 -22.676636,19.15387c-15.037415,11.89798 -37.098541,28.938141 -64.764801,50.010956c-27.66626,21.072815 -60.937714,46.178162 -98.338318,74.210693c-37.400574,28.032471 -78.92984,58.992065 -123.05629,91.777222c0,0 -0.000015,0 -0.000015,0c-16.502396,-16.859741 -33.414642,-34.162659 -50.624512,-51.781921c-9.75354,-9.985535 -19.406921,-19.872131 -28.939819,-29.636475c0.000015,0 0.000031,0 0.000046,0c54.152267,-22.166382 105.462555,-43.106018 151.968735,-61.942139c46.506226,-18.83606 88.208282,-35.568054 123.159546,-49.394531c34.951263,-13.826508 63.151733,-24.74762 82.671234,-32.04184c19.519531,-7.29422 30.358215,-10.962372 30.60083,-10.355835c0.242615,0.606537 -10.13031,5.423035 -29.178833,13.55603c-19.048584,8.132996 -46.772614,19.581696 -81.247223,33.525543c-34.474609,13.943848 -75.699799,30.382813 -121.766998,48.57605c-46.067215,18.193237 -96.976563,38.141479 -150.835068,59.179443c-0.000015,0 -0.000031,0 -0.000031,0c8.96611,8.73468 18.03479,17.570129 27.192978,26.496338c16.159409,15.75 32.02597,31.225891 47.528427,46.370972c0.000015,0 0.000015,0 0.000031,0c43.202499,-32.711609 83.909195,-63.429016 120.739944,-91.070007c36.83075,-27.640991 69.786011,-52.205627 97.430328,-72.615784c27.644348,-20.410156 49.977692,-36.665802 65.50705,-47.692963c15.529419,-11.02713 24.254272,-16.825775 24.629395,-16.325623z"/>
   <path fill="#000000" fill-rule="evenodd" id="path2820" d="m529.151062,76.096497c0.160828,0.61673 -10.972412,4.148315 -31.467072,10.031189c-20.494659,5.882874 -50.351257,14.116791 -87.593475,24.153046c-37.242218,10.036194 -81.870087,21.874695 -131.859436,34.982788c-49.989334,13.108154 -105.339752,27.486084 -163.981277,42.616699c-0.000008,0 -0.000031,0 -0.000031,0c-12.446732,-16.835083 -25.124779,-34.011658 -37.982544,-51.440002c-4.558151,-6.178467 -9.092438,-12.325562 -13.600559,-18.437195c128.053974,-12.179047 243.50771,-22.996063 327.45528,-30.545349c83.947571,-7.549286 136.389282,-11.831116 139.024414,-11.412048c0.005005,0.050781 0.005005,0.050903 0.005005,0.050903c0,0 0,0.000092 0.005005,0.050903c-2.513428,0.894287 -54.726624,6.272919 -137.890839,14.149323c-83.164215,7.876434 -197.279007,18.250397 -324.200882,29.607574c4.360626,5.255371 8.744843,10.539001 13.150864,15.849854c12.428627,14.980957 24.673515,29.747803 36.694626,44.272949c0.000023,0 0.000031,0 0.000031,0c57.873047,-15.255737 112.476334,-29.553162 161.878098,-42.365662c49.401764,-12.812561 93.602417,-24.140076 130.62442,-33.471527c37.022003,-9.331482 66.865265,-16.666931 87.504425,-21.511566c20.63916,-4.844604 32.07373,-7.198578 32.234558,-6.581818l-0.00061,-0.000061z"/>
   <path fill="#000000" fill-rule="evenodd" id="path2852" d="m117.722496,181.81076c0.666481,0.178589 0.591331,2.975952 -0.21125,7.827209c-0.802582,4.851196 -2.333435,11.75592 -4.503983,20.190613c-2.170532,8.434753 -4.980789,18.399475 -8.261475,29.41571c-3.280685,11.016296 -7.030975,23.084534 -11.00724,35.7677c-1.603424,5.114441 -3.181679,10.135193 -4.716637,15.033691c0,0 0.000008,0 0.000008,0c7.293571,-8.713135 14.18367,-16.865356 20.506615,-24.131226c6.322952,-7.26593 12.079247,-13.645386 17.034523,-18.852356c4.955269,-5.20697 9.109383,-9.241638 12.154732,-11.858826c3.045349,-2.617188 4.981171,-3.817383 5.433289,-3.392517c0.452118,0.424927 -0.627487,2.433411 -3.092499,5.67981c-2.465012,3.246399 -6.316177,7.730164 -11.340622,13.142578c-5.024422,5.412476 -11.222275,11.753479 -18.307404,18.755127c-7.085114,7.001648 -15.057022,14.664185 -23.558884,22.758972c0,0 0,0 0,0c1.14241,-5.092712 2.312515,-10.328003 3.510651,-15.668152c2.971222,-13.242859 5.841187,-25.879395 8.582916,-37.337036c2.74173,-11.457642 5.356064,-21.735901 7.741653,-30.303345c2.38559,-8.567505 4.54245,-15.424255 6.288544,-20.083923c1.746086,-4.659607 3.080582,-7.12262 3.747063,-6.944031z"/>
   <path fill="#000000" fill-rule="evenodd" id="path2864" d="m88.279938,291.561615c-0.599113,-0.933899 17.858322,-9.592102 41.199692,-19.326355c23.341339,-9.734253 42.771286,-16.876587 43.370407,-15.942688c0.599136,0.933899 -17.858322,9.592102 -41.199677,19.326355c-23.341339,9.734253 -42.771294,16.876587 -43.370422,15.942688z"/>
  </g>
 </g>
</svg>