<?xml version="1.0" encoding="UTF-8" standalone="no"?>
<!-- Created with Inkscape (http://www.inkscape.org/) -->

<svg
   xmlns:dc="http://purl.org/dc/elements/1.1/"
   xmlns:cc="http://creativecommons.org/ns#"
   xmlns:rdf="http://www.w3.org/1999/02/22-rdf-syntax-ns#"
   xmlns:svg="http://www.w3.org/2000/svg"
   xmlns="http://www.w3.org/2000/svg"
   xmlns:sodipodi="http://sodipodi.sourceforge.net/DTD/sodipodi-0.dtd"
   xmlns:inkscape="http://www.inkscape.org/namespaces/inkscape"
   width="210mm"
   height="297mm"
   viewBox="0 0 744.09448819 1052.3622047"
   id="svg5315"
   version="1.1"
   inkscape:version="0.91 r13725"
   sodipodi:docname="Frame 3.svg">
  <defs
     id="defs5317" />
  <sodipodi:namedview
     id="base"
     pagecolor="#ffffff"
     bordercolor="#666666"
     borderopacity="1.0"
     inkscape:pageopacity="0.0"
     inkscape:pageshadow="2"
     inkscape:zoom="0.7"
     inkscape:cx="279.11492"
     inkscape:cy="600.8043"
     inkscape:document-units="px"
     inkscape:current-layer="layer1"
     showgrid="false"
     inkscape:window-width="1920"
     inkscape:window-height="1018"
     inkscape:window-x="-8"
     inkscape:window-y="-8"
     inkscape:window-maximized="1" />
  <metadata
     id="metadata5320">
    <rdf:RDF>
      <cc:Work
         rdf:about="">
        <dc:format>image/svg+xml</dc:format>
        <dc:type
           rdf:resource="http://purl.org/dc/dcmitype/StillImage" />
        <dc:title></dc:title>
      </cc:Work>
    </rdf:RDF>
  </metadata>
  <g
     inkscape:label="Layer 1"
     inkscape:groupmode="layer"
     id="layer1">
    <path
       id="path3539"
       d="m 36.785713,43.433636 35.969229,0 0,16.2992 34.640488,0 0,-16.2992 36.41215,0 0,16.2992 34.64049,0 0,-16.2992 36.41213,0 0,16.2992 34.64051,0 0,-16.2992 36.4121,0 0,16.2992 34.6405,0 0,-16.2992 36.4122,0 0,16.2992 34.6404,0 0,-16.2992 36.4122,0 0,16.2992 34.6405,0 0,-16.2992 36.4121,0 0,16.2992 34.6405,0 0,-16.2992 36.4122,0 0,16.2992 34.6404,0 0,-16.2992 36.4122,0 0,16.2992 34.6405,0 0,-16.2992 35.9692,0"
       style="fill:none;stroke:#0000ff;stroke-width:0.09;stroke-miterlimit:4;stroke-dasharray:none;stroke-opacity:1"
       inkscape:label="part"
       inkscape:connector-curvature="0" />
    <path
       id="path3541"
       d="m 711.78571,43.433636 0,35.9692 -16.2992,0 0,34.640504 16.2992,0 0,36.4121 -16.2992,0 0,34.6405 16.2992,0 0,36.4121 -16.2992,0 0,34.6405 16.2992,0 0,36.4122 -16.2992,0 0,34.6405 16.2992,0 0,36.4121 -16.2992,0 0,34.6405 16.2992,0 0,36.4121 -16.2992,0 0,34.6405 16.2992,0 0,36.4122 -16.2992,0 0,34.6405 16.2992,0 0,36.4121 -16.2992,0 0,34.64045 16.2992,0 0,36.4121 -16.2992,0 0,34.6405 16.2992,0 0,35.9693"
       style="fill:none;stroke:#0000ff;stroke-width:0.09;stroke-miterlimit:4;stroke-dasharray:none;stroke-opacity:1"
       inkscape:label="part"
       inkscape:connector-curvature="0" />
    <path
       id="path3543"
       d="m 711.78571,718.43359 -35.9692,0 0,-16.2993 -34.6405,0 0,16.2993 -36.4122,0 0,-16.2993 -34.6404,0 0,16.2993 -36.4122,0 0,-16.2993 -34.6405,0 0,16.2993 -36.4121,0 0,-16.2993 -34.6405,0 0,16.2993 -36.4122,0 0,-16.2993 -34.6404,0 0,16.2993 -36.4122,0 0,-16.2993 -34.6405,0 0,16.2993 -36.4121,0 0,-16.2993 -34.64051,0 0,16.2993 -36.41213,0 0,-16.2993 -34.64049,0 0,16.2993 -36.41215,0 0,-16.2993 -34.640488,0 0,16.2993 -35.969229,0"
       style="fill:none;stroke:#0000ff;stroke-width:0.09;stroke-miterlimit:4;stroke-dasharray:none;stroke-opacity:1"
       inkscape:label="part"
       inkscape:connector-curvature="0" />
    <path
       id="path3545"
       d="m 36.785713,718.43359 0,-35.9693 16.299209,0 0,-34.6405 -16.299209,0 0,-36.4121 16.299209,0 0,-34.64045 -16.299209,0 0,-36.4121 16.299209,0 0,-34.6405 -16.299209,0 0,-36.4122 16.299209,0 0,-34.6405 -16.299209,0 0,-36.4121 16.299209,0 0,-34.6405 -16.299209,0 0,-36.4121 16.299209,0 0,-34.6405 -16.299209,0 0,-36.4122 16.299209,0 0,-34.6405 -16.299209,0 0,-36.4121 16.299209,0 0,-34.6405 -16.299209,0 0,-36.4121 16.299209,0 0,-34.640504 -16.299209,0 0,-35.9692"
       style="fill:none;stroke:#0000ff;stroke-width:0.09;stroke-miterlimit:4;stroke-dasharray:none;stroke-opacity:1"
       inkscape:label="part"
       inkscape:connector-curvature="0" />
    <circle
       style="opacity:1;fill:none;stroke:#ff0000;stroke-width:0.09;stroke-miterlimit:4;stroke-dasharray:none;stroke-opacity:1"
       id="path4137"
       cx="374.28571"
       cy="380.93362"
       r="144.78627" />
  </g>
</svg>
