<?xml version="1.0" encoding="UTF-8" standalone="no"?>
<!-- Created with Inkscape (http://www.inkscape.org/) -->

<svg
   xmlns:dc="http://purl.org/dc/elements/1.1/"
   xmlns:cc="http://creativecommons.org/ns#"
   xmlns:rdf="http://www.w3.org/1999/02/22-rdf-syntax-ns#"
   xmlns:svg="http://www.w3.org/2000/svg"
   xmlns="http://www.w3.org/2000/svg"
   xmlns:sodipodi="http://sodipodi.sourceforge.net/DTD/sodipodi-0.dtd"
   xmlns:inkscape="http://www.inkscape.org/namespaces/inkscape"
   width="210mm"
   height="297mm"
   viewBox="0 0 744.09448819 1052.3622047"
   id="svg4743"
   version="1.1"
   inkscape:version="0.91 r13725"
   sodipodi:docname="Frame2.svg">
  <defs
     id="defs4745" />
  <sodipodi:namedview
     id="base"
     pagecolor="#ffffff"
     bordercolor="#666666"
     borderopacity="1.0"
     inkscape:pageopacity="0.0"
     inkscape:pageshadow="2"
     inkscape:zoom="0.98994949"
     inkscape:cx="143.28265"
     inkscape:cy="680.3123"
     inkscape:document-units="px"
     inkscape:current-layer="layer1"
     showgrid="false"
     inkscape:window-width="1920"
     inkscape:window-height="1018"
     inkscape:window-x="-8"
     inkscape:window-y="-8"
     inkscape:window-maximized="1" />
  <metadata
     id="metadata4748">
    <rdf:RDF>
      <cc:Work
         rdf:about="">
        <dc:format>image/svg+xml</dc:format>
        <dc:type
           rdf:resource="http://purl.org/dc/dcmitype/StillImage" />
        <dc:title></dc:title>
      </cc:Work>
    </rdf:RDF>
  </metadata>
  <g
     inkscape:label="Layer 1"
     inkscape:groupmode="layer"
     id="layer1">
    <path
       id="path3531"
       d="m 50.22778,79.732827 18.78419,0 0,-16.2992 36.41215,0 0,16.2992 34.64049,0 0,-16.2992 36.41214,0 0,16.2992 34.64049,0 0,-16.2992 36.41214,0 0,16.2992 34.64049,0 0,-16.2992 36.41214,0 0,16.2992 34.64049,0 0,-16.2992 36.41214,0 0,16.2992 34.64049,0 0,-16.2992 36.41214,0 0,16.2992 34.64049,0 0,-16.2992 36.41215,0 0,16.2992 34.64048,0 0,-16.2992 36.41215,0 0,16.2992 34.64049,0 0,-16.2992 36.41214,0 0,16.2992 18.78419,0"
       style="fill:none;stroke:#0000ff;stroke-width:0.09;stroke-miterlimit:4;stroke-dasharray:none;stroke-opacity:1"
       inkscape:label="part"
       inkscape:connector-curvature="0" />
    <path
       id="path3533"
       d="m 692.62936,79.732827 0,18.7842 16.29921,0 0,36.412103 -16.29921,0 0,34.64051 16.29921,0 0,36.4121 -16.29921,0 0,34.6405 16.29921,0 0,36.4122 -16.29921,0 0,34.6405 16.29921,0 0,36.4121 -16.29921,0 0,34.6405 16.29921,0 0,36.4121 -16.29921,0 0,34.6405 16.29921,0 0,36.4122 -16.29921,0 0,34.6404 16.29921,0 0,36.4122 -16.29921,0 0,34.6405 16.29921,0 0,36.4121 -16.29921,0 0,34.6405 16.29921,0 0,36.4122 -16.29921,0 0,18.7841"
       style="fill:none;stroke:#0000ff;stroke-width:0.09;stroke-miterlimit:4;stroke-dasharray:none;stroke-opacity:1"
       inkscape:label="part"
       inkscape:connector-curvature="0" />
    <path
       id="path3535"
       d="m 692.62936,722.13434 -18.78419,0 0,16.2993 -36.41214,0 0,-16.2993 -34.64049,0 0,16.2993 -36.41215,0 0,-16.2993 -34.64048,0 0,16.2993 -36.41215,0 0,-16.2993 -34.64049,0 0,16.2993 -36.41214,0 0,-16.2993 -34.64049,0 0,16.2993 -36.41214,0 0,-16.2993 -34.64049,0 0,16.2993 -36.41214,0 0,-16.2993 -34.64049,0 0,16.2993 -36.41214,0 0,-16.2993 -34.64049,0 0,16.2993 -36.41214,0 0,-16.2993 -34.64049,0 0,16.2993 -36.41215,0 0,-16.2993 -18.78419,0"
       style="fill:none;stroke:#0000ff;stroke-width:0.09;stroke-miterlimit:4;stroke-dasharray:none;stroke-opacity:1"
       inkscape:label="part"
       inkscape:connector-curvature="0" />
    <path
       id="path3537"
       d="m 50.22778,722.13434 0,-18.7841 -16.29921,0 0,-36.4122 16.29921,0 0,-34.6405 -16.29921,0 0,-36.4121 16.29921,0 0,-34.6405 -16.29921,0 0,-36.4122 16.29921,0 0,-34.6404 -16.29921,0 0,-36.4122 16.29921,0 0,-34.6405 -16.29921,0 0,-36.4121 16.29921,0 0,-34.6405 -16.29921,0 0,-36.4121 16.29921,0 0,-34.6405 -16.29921,0 0,-36.4122 16.29921,0 0,-34.6405 -16.29921,0 0,-36.4121 16.29921,0 0,-34.64051 -16.29921,0 0,-36.412103 16.29921,0 0,-18.7842"
       style="fill:none;stroke:#0000ff;stroke-width:0.09;stroke-miterlimit:4;stroke-dasharray:none;stroke-opacity:1"
       inkscape:label="part"
       inkscape:connector-curvature="0" />
    <circle
       style="opacity:1;fill:none;stroke:#ff0000;stroke-width:0.09;stroke-miterlimit:4;stroke-dasharray:none;stroke-opacity:1"
       id="path4137"
       cx="372.24118"
       cy="400.30872"
       r="144.78627" />
  </g>
</svg>
