<?xml version="1.0" encoding="UTF-8" standalone="no"?>
<!-- Created with Inkscape (http://www.inkscape.org/) -->

<svg
   xmlns:dc="http://purl.org/dc/elements/1.1/"
   xmlns:cc="http://creativecommons.org/ns#"
   xmlns:rdf="http://www.w3.org/1999/02/22-rdf-syntax-ns#"
   xmlns:svg="http://www.w3.org/2000/svg"
   xmlns="http://www.w3.org/2000/svg"
   xmlns:sodipodi="http://sodipodi.sourceforge.net/DTD/sodipodi-0.dtd"
   xmlns:inkscape="http://www.inkscape.org/namespaces/inkscape"
   width="210mm"
   height="297mm"
   viewBox="0 0 744.09448819 1052.3622047"
   id="svg7019"
   version="1.1"
   inkscape:version="0.91 r13725"
   sodipodi:docname="Frame6.svg">
  <defs
     id="defs7021" />
  <sodipodi:namedview
     id="base"
     pagecolor="#ffffff"
     bordercolor="#666666"
     borderopacity="1.0"
     inkscape:pageopacity="0.0"
     inkscape:pageshadow="2"
     inkscape:zoom="0.98994949"
     inkscape:cx="50.253916"
     inkscape:cy="646.20063"
     inkscape:document-units="px"
     inkscape:current-layer="layer1"
     showgrid="false"
     inkscape:window-width="1920"
     inkscape:window-height="1018"
     inkscape:window-x="-8"
     inkscape:window-y="-8"
     inkscape:window-maximized="1" />
  <metadata
     id="metadata7024">
    <rdf:RDF>
      <cc:Work
         rdf:about="">
        <dc:format>image/svg+xml</dc:format>
        <dc:type
           rdf:resource="http://purl.org/dc/dcmitype/StillImage" />
        <dc:title></dc:title>
      </cc:Work>
    </rdf:RDF>
  </metadata>
  <g
     inkscape:label="Layer 1"
     inkscape:groupmode="layer"
     id="layer1">
    <path
       id="path3523"
       d="m 36.07143,119.73282 35.0834,0 0,-16.2992 36.41215,0 0,16.2992 34.64049,0 0,-16.2992 36.41214,0 0,16.2992 34.64049,0 0,-16.2992 36.41213,0 0,16.2992 34.6405,0 0,-16.2992 36.4121,0 0,16.2992 34.6405,0 0,-16.2992 36.4122,0 0,16.2992 34.6405,0 0,-16.2992 36.4121,0 0,16.2992 34.6405,0 0,-16.2992 36.4121,0 0,16.2992 34.6405,0 0,-16.2992 36.4122,0 0,16.2992 34.6405,0 0,-16.2992 36.4121,0 0,16.2992 35.0834,0"
       style="fill:none;stroke:#0000ff;stroke-width:0.09;stroke-miterlimit:4;stroke-dasharray:none;stroke-opacity:1"
       inkscape:label="part"
       inkscape:connector-curvature="0" />
    <path
       id="path3525"
       d="m 711.07143,119.73282 0,19.6701 -16.2992,0 0,34.6404 16.2992,0 0,36.4122 -16.2992,0 0,34.6405 16.2992,0 0,36.4121 -16.2992,0 0,34.6405 16.2992,0 0,36.4122 -16.2992,0 0,34.6404 16.2992,0 0,36.4122 -16.2992,0 0,34.6405 16.2992,0 0,36.4121 -16.2992,0 0,34.6405 16.2992,0 0,36.41215 -16.2992,0 0,34.64048 16.2992,0 0,36.41215 -16.2992,0 0,34.64049 16.2992,0 0,36.41214 -16.2992,0 0,34.64049 16.2992,0 0,19.67001"
       style="fill:none;stroke:#0000ff;stroke-width:0.09;stroke-miterlimit:4;stroke-dasharray:none;stroke-opacity:1"
       inkscape:label="part"
       inkscape:connector-curvature="0" />
    <path
       id="path3527"
       d="m 711.07143,762.13443 -35.0834,0 0,16.29922 -36.4121,0 0,-16.29922 -34.6405,0 0,16.29922 -36.4122,0 0,-16.29922 -34.6405,0 0,16.29922 -36.4121,0 0,-16.29922 -34.6405,0 0,16.29922 -36.4121,0 0,-16.29922 -34.6405,0 0,16.29922 -36.4122,0 0,-16.29922 -34.6405,0 0,16.29922 -36.4121,0 0,-16.29922 -34.6405,0 0,16.29922 -36.41213,0 0,-16.29922 -34.64049,0 0,16.29922 -36.41214,0 0,-16.29922 -34.64049,0 0,16.29922 -36.41215,0 0,-16.29922 -35.0834,0"
       style="fill:none;stroke:#0000ff;stroke-width:0.09;stroke-miterlimit:4;stroke-dasharray:none;stroke-opacity:1"
       inkscape:label="part"
       inkscape:connector-curvature="0" />
    <path
       id="path3529"
       d="m 36.07143,762.13443 0,-19.67001 16.29921,0 0,-34.64049 -16.29921,0 0,-36.41214 16.29921,0 0,-34.64049 -16.29921,0 0,-36.41215 16.29921,0 0,-34.64048 -16.29921,0 0,-36.41215 16.29921,0 0,-34.6405 -16.29921,0 0,-36.4121 16.29921,0 0,-34.6405 -16.29921,0 0,-36.4122 16.29921,0 0,-34.6404 -16.29921,0 0,-36.4122 16.29921,0 0,-34.6405 -16.29921,0 0,-36.4121 16.29921,0 0,-34.6405 -16.29921,0 0,-36.4122 16.29921,0 0,-34.6404 -16.29921,0 0,-19.6701"
       style="fill:none;stroke:#0000ff;stroke-width:0.09;stroke-miterlimit:4;stroke-dasharray:none;stroke-opacity:1"
       inkscape:label="part"
       inkscape:connector-curvature="0" />
  </g>
</svg>
