<?xml version="1.0" encoding="UTF-8" standalone="no"?>
<!-- Created with Inkscape (http://www.inkscape.org/) -->

<svg
   xmlns:dc="http://purl.org/dc/elements/1.1/"
   xmlns:cc="http://creativecommons.org/ns#"
   xmlns:rdf="http://www.w3.org/1999/02/22-rdf-syntax-ns#"
   xmlns:svg="http://www.w3.org/2000/svg"
   xmlns="http://www.w3.org/2000/svg"
   xmlns:sodipodi="http://sodipodi.sourceforge.net/DTD/sodipodi-0.dtd"
   xmlns:inkscape="http://www.inkscape.org/namespaces/inkscape"
   width="210mm"
   height="297mm"
   viewBox="0 0 744.09448819 1052.3622047"
   id="svg6447"
   version="1.1"
   inkscape:version="0.91 r13725"
   sodipodi:docname="Frame 5.svg">
  <defs
     id="defs6449" />
  <sodipodi:namedview
     id="base"
     pagecolor="#ffffff"
     bordercolor="#666666"
     borderopacity="1.0"
     inkscape:pageopacity="0.0"
     inkscape:pageshadow="2"
     inkscape:zoom="0.98994949"
     inkscape:cx="272.42091"
     inkscape:cy="594.94107"
     inkscape:document-units="px"
     inkscape:current-layer="layer1"
     showgrid="false"
     inkscape:window-width="1920"
     inkscape:window-height="1018"
     inkscape:window-x="-8"
     inkscape:window-y="-8"
     inkscape:window-maximized="1" />
  <metadata
     id="metadata6452">
    <rdf:RDF>
      <cc:Work
         rdf:about="">
        <dc:format>image/svg+xml</dc:format>
        <dc:type
           rdf:resource="http://purl.org/dc/dcmitype/StillImage" />
        <dc:title></dc:title>
      </cc:Work>
    </rdf:RDF>
  </metadata>
  <g
     inkscape:label="Layer 1"
     inkscape:groupmode="layer"
     id="layer1">
    <path
       id="path3555"
       d="m 36.785709,154.86221 35.9693,0 0,16.2992 34.640501,0 0,-16.2992 36.41211,0 0,16.2992 34.6405,0 0,-16.2992 36.4121,0 0,16.2992 34.6405,0 0,-16.2992 36.4122,0 0,16.2992 34.6405,0 0,-16.2992 36.4121,0 0,16.2992 34.6405,0 0,-16.2992 36.41211,0 0,16.2992 34.6405,0 0,-16.2992 36.4122,0 0,16.2992 34.6405,0 0,-16.2992 36.4121,0 0,16.2992 34.6405,0 0,-16.2992 36.4121,0 0,16.2992 34.6405,0 0,-16.2992 35.9692,0"
       style="fill:none;stroke:#0000ff;stroke-width:0.09;stroke-miterlimit:4;stroke-dasharray:none;stroke-opacity:1"
       inkscape:label="part"
       inkscape:connector-curvature="0" />
    <path
       id="path3557"
       d="m 711.78573,154.86221 0,35.9692 -16.2992,0 0,34.6405 16.2992,0 0,36.4121 -16.2992,0 0,34.6405 16.2992,0 0,36.4121 -16.2992,0 0,34.6405 16.2992,0 0,36.4122 -16.2992,0 0,34.6405 16.2992,0 0,36.4121 -16.2992,0 0,34.6405 16.2992,0 0,36.4121 -16.2992,0 0,34.6405 16.2992,0 0,36.4122 -16.2992,0 0,34.6405 16.2992,0 0,36.4121 -16.2992,0 0,34.6405 16.2992,0 0,36.4121 -16.2992,0 0,34.6405 16.2992,0 0,35.9693"
       style="fill:none;stroke:#0000ff;stroke-width:0.09;stroke-miterlimit:4;stroke-dasharray:none;stroke-opacity:1"
       inkscape:label="part"
       inkscape:connector-curvature="0" />
    <path
       id="path3559"
       d="m 711.78573,829.86221 -35.9692,0 0,-16.2993 -34.6405,0 0,16.2993 -36.4121,0 0,-16.2993 -34.6405,0 0,16.2993 -36.4121,0 0,-16.2993 -34.6405,0 0,16.2993 -36.4122,0 0,-16.2993 -34.6405,0 0,16.2993 -36.41211,0 0,-16.2993 -34.6405,0 0,16.2993 -36.4121,0 0,-16.2993 -34.6405,0 0,16.2993 -36.4122,0 0,-16.2993 -34.6405,0 0,16.2993 -36.4121,0 0,-16.2993 -34.6405,0 0,16.2993 -36.41211,0 0,-16.2993 -34.640501,0 0,16.2993 -35.9693,0"
       style="fill:none;stroke:#0000ff;stroke-width:0.09;stroke-miterlimit:4;stroke-dasharray:none;stroke-opacity:1"
       inkscape:label="part"
       inkscape:connector-curvature="0" />
    <path
       id="path3561"
       d="m 36.785709,829.86221 0,-35.9693 16.2993,0 0,-34.6405 -16.2993,0 0,-36.4121 16.2993,0 0,-34.6405 -16.2993,0 0,-36.4121 16.2993,0 0,-34.6405 -16.2993,0 0,-36.4122 16.2993,0 0,-34.6405 -16.2993,0 0,-36.4121 16.2993,0 0,-34.6405 -16.2993,0 0,-36.4121 16.2993,0 0,-34.6405 -16.2993,0 0,-36.4122 16.2993,0 0,-34.6405 -16.2993,0 0,-36.4121 16.2993,0 0,-34.6405 -16.2993,0 0,-36.4121 16.2993,0 0,-34.6405 -16.2993,0 0,-35.9692"
       style="fill:none;stroke:#0000ff;stroke-width:0.09;stroke-miterlimit:4;stroke-dasharray:none;stroke-opacity:1"
       inkscape:label="part"
       inkscape:connector-curvature="0" />
    <circle
       style="opacity:1;fill:none;stroke:#ff0000;stroke-width:0.09;stroke-miterlimit:4;stroke-dasharray:none;stroke-opacity:1"
       id="path4137"
       cx="373.75644"
       cy="491.72754"
       r="144.78627" />
  </g>
</svg>
