<?xml version="1.0" encoding="UTF-8" standalone="no"?>
<!-- Created with Inkscape (http://www.inkscape.org/) -->

<svg
   xmlns:dc="http://purl.org/dc/elements/1.1/"
   xmlns:cc="http://creativecommons.org/ns#"
   xmlns:rdf="http://www.w3.org/1999/02/22-rdf-syntax-ns#"
   xmlns:svg="http://www.w3.org/2000/svg"
   xmlns="http://www.w3.org/2000/svg"
   xmlns:sodipodi="http://sodipodi.sourceforge.net/DTD/sodipodi-0.dtd"
   xmlns:inkscape="http://www.inkscape.org/namespaces/inkscape"
   width="841mm"
   height="1189mm"
   viewBox="0 0 2979.9213 4212.9921"
   id="svg3505"
   version="1.1"
   inkscape:version="0.91 r13725"
   sodipodi:docname="Frame_Project.svg">
  <sodipodi:namedview
     id="base"
     pagecolor="#ffffff"
     bordercolor="#666666"
     borderopacity="1.0"
     inkscape:pageopacity="0.0"
     inkscape:pageshadow="2"
     inkscape:zoom="0.3639757"
     inkscape:cx="1130.5204"
     inkscape:cy="3006.7439"
     inkscape:document-units="mm"
     inkscape:current-layer="layer1"
     showgrid="true"
     inkscape:window-width="1920"
     inkscape:window-height="1018"
     inkscape:window-x="-8"
     inkscape:window-y="-8"
     inkscape:window-maximized="1">
    <inkscape:grid
       id="grid3515"
       type="xygrid" />
  </sodipodi:namedview>
  <defs
     id="defs3507" />
  <metadata
     id="metadata3510">
    <rdf:RDF>
      <cc:Work
         rdf:about="">
        <dc:format>image/svg+xml</dc:format>
        <dc:type
           rdf:resource="http://purl.org/dc/dcmitype/StillImage" />
        <dc:title></dc:title>
      </cc:Work>
    </rdf:RDF>
  </metadata>
  <g
     transform="translate(0,3160.6299)"
     id="layer1"
     inkscape:groupmode="layer"
     inkscape:label="Layer 1">
    <path
       id="path3523"
       d="m 803.009,-1430.2591 35.0834,0 0,-16.2992 36.41215,0 0,16.2992 34.64049,0 0,-16.2992 36.41214,0 0,16.2992 34.64049,0 0,-16.2992 36.41213,0 0,16.2992 34.6405,0 0,-16.2992 36.4121,0 0,16.2992 34.6405,0 0,-16.2992 36.4122,0 0,16.2992 34.6405,0 0,-16.2992 36.4121,0 0,16.2992 34.6405,0 0,-16.2992 36.4121,0 0,16.2992 34.6405,0 0,-16.2992 36.4122,0 0,16.2992 34.6405,0 0,-16.2992 36.4121,0 0,16.2992 35.0834,0"
       style="fill:none;stroke:#000000;stroke-width:0.99921271;stroke-miterlimit:4;stroke-dasharray:none"
       inkscape:label="part"
       inkscape:connector-curvature="0" />
    <path
       id="path3525"
       d="m 1478.009,-1430.2591 0,19.6701 -16.2992,0 0,34.6404 16.2992,0 0,36.4122 -16.2992,0 0,34.6405 16.2992,0 0,36.4121 -16.2992,0 0,34.6405 16.2992,0 0,36.4122 -16.2992,0 0,34.6404 16.2992,0 0,36.4122 -16.2992,0 0,34.6405 16.2992,0 0,36.4121 -16.2992,0 0,34.6405 16.2992,0 0,36.41215 -16.2992,0 0,34.64048 16.2992,0 0,36.41215 -16.2992,0 0,34.64049 16.2992,0 0,36.41214 -16.2992,0 0,34.64049 16.2992,0 0,19.67001"
       style="fill:none;stroke:#000000;stroke-width:0.99921271;stroke-miterlimit:4;stroke-dasharray:none"
       inkscape:label="part"
       inkscape:connector-curvature="0" />
    <path
       id="path3527"
       d="m 1478.009,-787.85749 -35.0834,0 0,16.29922 -36.4121,0 0,-16.29922 -34.6405,0 0,16.29922 -36.4122,0 0,-16.29922 -34.6405,0 0,16.29922 -36.4121,0 0,-16.29922 -34.6405,0 0,16.29922 -36.4121,0 0,-16.29922 -34.6405,0 0,16.29922 -36.4122,0 0,-16.29922 -34.6405,0 0,16.29922 -36.4121,0 0,-16.29922 -34.6405,0 0,16.29922 -36.41213,0 0,-16.29922 -34.64049,0 0,16.29922 -36.41214,0 0,-16.29922 -34.64049,0 0,16.29922 -36.41215,0 0,-16.29922 -35.0834,0"
       style="fill:none;stroke:#000000;stroke-width:0.99921271;stroke-miterlimit:4;stroke-dasharray:none"
       inkscape:label="part"
       inkscape:connector-curvature="0" />
    <path
       id="path3529"
       d="m 803.009,-787.85749 0,-19.67001 16.29921,0 0,-34.64049 -16.29921,0 0,-36.41214 16.29921,0 0,-34.64049 -16.29921,0 0,-36.41215 16.29921,0 0,-34.64048 -16.29921,0 0,-36.41215 16.29921,0 0,-34.6405 -16.29921,0 0,-36.4121 16.29921,0 0,-34.6405 -16.29921,0 0,-36.4122 16.29921,0 0,-34.6404 -16.29921,0 0,-36.4122 16.29921,0 0,-34.6405 -16.29921,0 0,-36.4121 16.29921,0 0,-34.6405 -16.29921,0 0,-36.4122 16.29921,0 0,-34.6404 -16.29921,0 0,-19.6701"
       style="fill:none;stroke:#000000;stroke-width:0.99921271;stroke-miterlimit:4;stroke-dasharray:none"
       inkscape:label="part"
       inkscape:connector-curvature="0" />
    <path
       id="path3531"
       d="m 108.87514,-2140.6921 18.78419,0 0,-16.2992 36.41215,0 0,16.2992 34.64049,0 0,-16.2992 36.41214,0 0,16.2992 34.64049,0 0,-16.2992 36.41214,0 0,16.2992 34.64049,0 0,-16.2992 36.41214,0 0,16.2992 34.64049,0 0,-16.2992 36.41214,0 0,16.2992 34.64049,0 0,-16.2992 36.41214,0 0,16.2992 34.64049,0 0,-16.2992 36.41215,0 0,16.2992 34.64048,0 0,-16.2992 36.41215,0 0,16.2992 34.64049,0 0,-16.2992 36.41214,0 0,16.2992 18.78419,0"
       style="fill:none;stroke:#000000;stroke-width:0.99921271;stroke-miterlimit:4;stroke-dasharray:none"
       inkscape:label="part"
       inkscape:connector-curvature="0" />
    <path
       id="path3533"
       d="m 751.27672,-2140.6921 0,18.7842 16.29921,0 0,36.4121 -16.29921,0 0,34.6405 16.29921,0 0,36.4121 -16.29921,0 0,34.6405 16.29921,0 0,36.4122 -16.29921,0 0,34.6405 16.29921,0 0,36.4121 -16.29921,0 0,34.6405 16.29921,0 0,36.4121 -16.29921,0 0,34.6405 16.29921,0 0,36.4122 -16.29921,0 0,34.6404 16.29921,0 0,36.4122 -16.29921,0 0,34.6405 16.29921,0 0,36.4121 -16.29921,0 0,34.6405 16.29921,0 0,36.4122 -16.29921,0 0,18.7841"
       style="fill:none;stroke:#000000;stroke-width:0.99921271;stroke-miterlimit:4;stroke-dasharray:none"
       inkscape:label="part"
       inkscape:connector-curvature="0" />
    <path
       id="path3535"
       d="m 751.27672,-1498.2906 -18.78419,0 0,16.2993 -36.41214,0 0,-16.2993 -34.64049,0 0,16.2993 -36.41215,0 0,-16.2993 -34.64048,0 0,16.2993 -36.41215,0 0,-16.2993 -34.64049,0 0,16.2993 -36.41214,0 0,-16.2993 -34.64049,0 0,16.2993 -36.41214,0 0,-16.2993 -34.64049,0 0,16.2993 -36.41214,0 0,-16.2993 -34.64049,0 0,16.2993 -36.41214,0 0,-16.2993 -34.64049,0 0,16.2993 -36.41214,0 0,-16.2993 -34.64049,0 0,16.2993 -36.41215,0 0,-16.2993 -18.78419,0"
       style="fill:none;stroke:#000000;stroke-width:0.99921271;stroke-miterlimit:4;stroke-dasharray:none"
       inkscape:label="part"
       inkscape:connector-curvature="0" />
    <path
       id="path3537"
       d="m 108.87514,-1498.2906 0,-18.7841 -16.299209,0 0,-36.4122 16.299209,0 0,-34.6405 -16.299209,0 0,-36.4121 16.299209,0 0,-34.6405 -16.299209,0 0,-36.4122 16.299209,0 0,-34.6404 -16.299209,0 0,-36.4122 16.299209,0 0,-34.6405 -16.299209,0 0,-36.4121 16.299209,0 0,-34.6405 -16.299209,0 0,-36.4121 16.299209,0 0,-34.6405 -16.299209,0 0,-36.4122 16.299209,0 0,-34.6405 -16.299209,0 0,-36.4121 16.299209,0 0,-34.6405 -16.299209,0 0,-36.4121 16.299209,0 0,-18.7842"
       style="fill:none;stroke:#000000;stroke-width:0.99921271;stroke-miterlimit:4;stroke-dasharray:none"
       inkscape:label="part"
       inkscape:connector-curvature="0" />
    <path
       id="path3539"
       d="m 803.009,-2156.9913 35.96923,0 0,16.2992 34.64049,0 0,-16.2992 36.41214,0 0,16.2992 34.64049,0 0,-16.2992 36.41214,0 0,16.2992 34.64051,0 0,-16.2992 36.4121,0 0,16.2992 34.6405,0 0,-16.2992 36.4122,0 0,16.2992 34.6404,0 0,-16.2992 36.4122,0 0,16.2992 34.6405,0 0,-16.2992 36.4121,0 0,16.2992 34.6405,0 0,-16.2992 36.4122,0 0,16.2992 34.6404,0 0,-16.2992 36.4122,0 0,16.2992 34.6405,0 0,-16.2992 35.9692,0"
       style="fill:none;stroke:#000000;stroke-width:0.99921271;stroke-miterlimit:4;stroke-dasharray:none"
       inkscape:label="part"
       inkscape:connector-curvature="0" />
    <path
       id="path3541"
       d="m 1478.009,-2156.9913 0,35.9692 -16.2992,0 0,34.6405 16.2992,0 0,36.4121 -16.2992,0 0,34.6405 16.2992,0 0,36.4121 -16.2992,0 0,34.6405 16.2992,0 0,36.4122 -16.2992,0 0,34.6405 16.2992,0 0,36.4121 -16.2992,0 0,34.6405 16.2992,0 0,36.4121 -16.2992,0 0,34.6405 16.2992,0 0,36.4122 -16.2992,0 0,34.6405 16.2992,0 0,36.4121 -16.2992,0 0,34.6405 16.2992,0 0,36.4121 -16.2992,0 0,34.6405 16.2992,0 0,35.9693"
       style="fill:none;stroke:#000000;stroke-width:0.99921271;stroke-miterlimit:4;stroke-dasharray:none"
       inkscape:label="part"
       inkscape:connector-curvature="0" />
    <path
       id="path3543"
       d="m 1478.009,-1481.9913 -35.9692,0 0,-16.2993 -34.6405,0 0,16.2993 -36.4122,0 0,-16.2993 -34.6404,0 0,16.2993 -36.4122,0 0,-16.2993 -34.6405,0 0,16.2993 -36.4121,0 0,-16.2993 -34.6405,0 0,16.2993 -36.4122,0 0,-16.2993 -34.6404,0 0,16.2993 -36.4122,0 0,-16.2993 -34.6405,0 0,16.2993 -36.4121,0 0,-16.2993 -34.64051,0 0,16.2993 -36.41214,0 0,-16.2993 -34.64049,0 0,16.2993 -36.41214,0 0,-16.2993 -34.64049,0 0,16.2993 -35.96923,0"
       style="fill:none;stroke:#000000;stroke-width:0.99921271;stroke-miterlimit:4;stroke-dasharray:none"
       inkscape:label="part"
       inkscape:connector-curvature="0" />
    <path
       id="path3545"
       d="m 803.009,-1481.9913 0,-35.9693 16.29921,0 0,-34.6405 -16.29921,0 0,-36.4121 16.29921,0 0,-34.6405 -16.29921,0 0,-36.4121 16.29921,0 0,-34.6405 -16.29921,0 0,-36.4122 16.29921,0 0,-34.6405 -16.29921,0 0,-36.4121 16.29921,0 0,-34.6405 -16.29921,0 0,-36.4121 16.29921,0 0,-34.6405 -16.29921,0 0,-36.4122 16.29921,0 0,-34.6405 -16.29921,0 0,-36.4121 16.29921,0 0,-34.6405 -16.29921,0 0,-36.4121 16.29921,0 0,-34.6405 -16.29921,0 0,-35.9692"
       style="fill:none;stroke:#000000;stroke-width:0.99921271;stroke-miterlimit:4;stroke-dasharray:none"
       inkscape:label="part"
       inkscape:connector-curvature="0" />
    <path
       id="path3547"
       d="m 1529.7413,-2140.6921 18.7842,0 0,-16.2992 36.4121,0 0,16.2992 34.6405,0 0,-16.2992 36.4121,0 0,16.2992 34.6405,0 0,-16.2992 36.4122,0 0,16.2992 34.6405,0 0,-16.2992 36.4121,0 0,16.2992 34.6405,0 0,-16.2992 36.4121,0 0,16.2992 34.6405,0 0,-16.2992 36.4122,0 0,16.2992 34.6405,0 0,-16.2992 36.4121,0 0,16.2992 34.6405,0 0,-16.2992 36.4121,0 0,16.2992 34.6405,0 0,-16.2992 36.4122,0 0,16.2992 18.7842,0"
       style="fill:none;stroke:#000000;stroke-width:0.99921271;stroke-miterlimit:4;stroke-dasharray:none"
       inkscape:label="part"
       inkscape:connector-curvature="0" />
    <path
       id="path3549"
       d="m 2172.1429,-2140.6921 0,18.7842 16.2992,0 0,36.4121 -16.2992,0 0,34.6405 16.2992,0 0,36.4121 -16.2992,0 0,34.6405 16.2992,0 0,36.4122 -16.2992,0 0,34.6405 16.2992,0 0,36.4121 -16.2992,0 0,34.6405 16.2992,0 0,36.4121 -16.2992,0 0,34.6405 16.2992,0 0,36.4122 -16.2992,0 0,34.6404 16.2992,0 0,36.4122 -16.2992,0 0,34.6405 16.2992,0 0,36.4121 -16.2992,0 0,34.6405 16.2992,0 0,36.4122 -16.2992,0 0,18.7841"
       style="fill:none;stroke:#000000;stroke-width:0.99921271;stroke-miterlimit:4;stroke-dasharray:none"
       inkscape:label="part"
       inkscape:connector-curvature="0" />
    <path
       id="path3551"
       d="m 2172.1429,-1498.2906 -18.7842,0 0,16.2993 -36.4122,0 0,-16.2993 -34.6405,0 0,16.2993 -36.4121,0 0,-16.2993 -34.6405,0 0,16.2993 -36.4121,0 0,-16.2993 -34.6405,0 0,16.2993 -36.4122,0 0,-16.2993 -34.6405,0 0,16.2993 -36.4121,0 0,-16.2993 -34.6405,0 0,16.2993 -36.4121,0 0,-16.2993 -34.6405,0 0,16.2993 -36.4122,0 0,-16.2993 -34.6405,0 0,16.2993 -36.4121,0 0,-16.2993 -34.6405,0 0,16.2993 -36.4121,0 0,-16.2993 -18.7842,0"
       style="fill:none;stroke:#000000;stroke-width:0.99921271;stroke-miterlimit:4;stroke-dasharray:none"
       inkscape:label="part"
       inkscape:connector-curvature="0" />
    <path
       id="path3553"
       d="m 1529.7413,-1498.2906 0,-18.7841 -16.2992,0 0,-36.4122 16.2992,0 0,-34.6405 -16.2992,0 0,-36.4121 16.2992,0 0,-34.6405 -16.2992,0 0,-36.4122 16.2992,0 0,-34.6404 -16.2992,0 0,-36.4122 16.2992,0 0,-34.6405 -16.2992,0 0,-36.4121 16.2992,0 0,-34.6405 -16.2992,0 0,-36.4121 16.2992,0 0,-34.6405 -16.2992,0 0,-36.4122 16.2992,0 0,-34.6405 -16.2992,0 0,-36.4121 16.2992,0 0,-34.6405 -16.2992,0 0,-36.4121 16.2992,0 0,-18.7842"
       style="fill:none;stroke:#000000;stroke-width:0.99921271;stroke-miterlimit:4;stroke-dasharray:none"
       inkscape:label="part"
       inkscape:connector-curvature="0" />
    <path
       id="path3555"
       d="m 2223.8751,-2156.9913 35.9693,0 0,16.2992 34.6405,0 0,-16.2992 36.4121,0 0,16.2992 34.6405,0 0,-16.2992 36.4121,0 0,16.2992 34.6405,0 0,-16.2992 36.4122,0 0,16.2992 34.6405,0 0,-16.2992 36.4121,0 0,16.2992 34.6405,0 0,-16.2992 36.4121,0 0,16.2992 34.6405,0 0,-16.2992 36.4122,0 0,16.2992 34.6405,0 0,-16.2992 36.4121,0 0,16.2992 34.6405,0 0,-16.2992 36.4121,0 0,16.2992 34.6405,0 0,-16.2992 35.9692,0"
       style="fill:none;stroke:#000000;stroke-width:0.99921271;stroke-miterlimit:4;stroke-dasharray:none"
       inkscape:label="part"
       inkscape:connector-curvature="0" />
    <path
       id="path3557"
       d="m 2898.8751,-2156.9913 0,35.9692 -16.2992,0 0,34.6405 16.2992,0 0,36.4121 -16.2992,0 0,34.6405 16.2992,0 0,36.4121 -16.2992,0 0,34.6405 16.2992,0 0,36.4122 -16.2992,0 0,34.6405 16.2992,0 0,36.4121 -16.2992,0 0,34.6405 16.2992,0 0,36.4121 -16.2992,0 0,34.6405 16.2992,0 0,36.4122 -16.2992,0 0,34.6405 16.2992,0 0,36.4121 -16.2992,0 0,34.6405 16.2992,0 0,36.4121 -16.2992,0 0,34.6405 16.2992,0 0,35.9693"
       style="fill:none;stroke:#000000;stroke-width:0.99921271;stroke-miterlimit:4;stroke-dasharray:none"
       inkscape:label="part"
       inkscape:connector-curvature="0" />
    <path
       id="path3559"
       d="m 2898.8751,-1481.9913 -35.9692,0 0,-16.2993 -34.6405,0 0,16.2993 -36.4121,0 0,-16.2993 -34.6405,0 0,16.2993 -36.4121,0 0,-16.2993 -34.6405,0 0,16.2993 -36.4122,0 0,-16.2993 -34.6405,0 0,16.2993 -36.4121,0 0,-16.2993 -34.6405,0 0,16.2993 -36.4121,0 0,-16.2993 -34.6405,0 0,16.2993 -36.4122,0 0,-16.2993 -34.6405,0 0,16.2993 -36.4121,0 0,-16.2993 -34.6405,0 0,16.2993 -36.4121,0 0,-16.2993 -34.6405,0 0,16.2993 -35.9693,0"
       style="fill:none;stroke:#000000;stroke-width:0.99921271;stroke-miterlimit:4;stroke-dasharray:none"
       inkscape:label="part"
       inkscape:connector-curvature="0" />
    <path
       id="path3561"
       d="m 2223.8751,-1481.9913 0,-35.9693 16.2993,0 0,-34.6405 -16.2993,0 0,-36.4121 16.2993,0 0,-34.6405 -16.2993,0 0,-36.4121 16.2993,0 0,-34.6405 -16.2993,0 0,-36.4122 16.2993,0 0,-34.6405 -16.2993,0 0,-36.4121 16.2993,0 0,-34.6405 -16.2993,0 0,-36.4121 16.2993,0 0,-34.6405 -16.2993,0 0,-36.4122 16.2993,0 0,-34.6405 -16.2993,0 0,-36.4121 16.2993,0 0,-34.6405 -16.2993,0 0,-36.4121 16.2993,0 0,-34.6405 -16.2993,0 0,-35.9692"
       style="fill:none;stroke:#000000;stroke-width:0.99921271;stroke-miterlimit:4;stroke-dasharray:none"
       inkscape:label="part"
       inkscape:connector-curvature="0" />
    <path
       id="path3563"
       d="m 803.009,-2851.1252 35.0834,0 0,-16.2992 36.41215,0 0,16.2992 34.64049,0 0,-16.2992 36.41214,0 0,16.2992 34.64049,0 0,-16.2992 36.41213,0 0,16.2992 34.6405,0 0,-16.2992 36.4121,0 0,16.2992 34.6405,0 0,-16.2992 36.4122,0 0,16.2992 34.6405,0 0,-16.2992 36.4121,0 0,16.2992 34.6405,0 0,-16.2992 36.4121,0 0,16.2992 34.6405,0 0,-16.2992 36.4122,0 0,16.2992 34.6405,0 0,-16.2992 36.4121,0 0,16.2992 35.0834,0"
       style="fill:none;stroke:#000000;stroke-width:0.99921271;stroke-miterlimit:4;stroke-dasharray:none"
       inkscape:label="part"
       inkscape:connector-curvature="0" />
    <path
       id="path3565"
       d="m 1478.009,-2851.1252 0,19.67 -16.2992,0 0,34.6405 16.2992,0 0,36.4121 -16.2992,0 0,34.6405 16.2992,0 0,36.4122 -16.2992,0 0,34.6405 16.2992,0 0,36.4121 -16.2992,0 0,34.6405 16.2992,0 0,36.4121 -16.2992,0 0,34.6405 16.2992,0 0,36.4122 -16.2992,0 0,34.6405 16.2992,0 0,36.4121 -16.2992,0 0,34.6405 16.2992,0 0,36.4121 -16.2992,0 0,34.6405 16.2992,0 0,36.4122 -16.2992,0 0,34.6405 16.2992,0 0,19.67"
       style="fill:none;stroke:#000000;stroke-width:0.99921271;stroke-miterlimit:4;stroke-dasharray:none"
       inkscape:label="part"
       inkscape:connector-curvature="0" />
    <path
       id="path3567"
       d="m 1478.009,-2208.7236 -35.0834,0 0,16.2992 -36.4121,0 0,-16.2992 -34.6405,0 0,16.2992 -36.4122,0 0,-16.2992 -34.6405,0 0,16.2992 -36.4121,0 0,-16.2992 -34.6405,0 0,16.2992 -36.4121,0 0,-16.2992 -34.6405,0 0,16.2992 -36.4122,0 0,-16.2992 -34.6405,0 0,16.2992 -36.4121,0 0,-16.2992 -34.6405,0 0,16.2992 -36.41213,0 0,-16.2992 -34.64049,0 0,16.2992 -36.41214,0 0,-16.2992 -34.64049,0 0,16.2992 -36.41215,0 0,-16.2992 -35.0834,0"
       style="fill:none;stroke:#000000;stroke-width:0.99921271;stroke-miterlimit:4;stroke-dasharray:none"
       inkscape:label="part"
       inkscape:connector-curvature="0" />
    <path
       id="path3569"
       d="m 803.009,-2208.7236 0,-19.67 16.29921,0 0,-34.6405 -16.29921,0 0,-36.4122 16.29921,0 0,-34.6405 -16.29921,0 0,-36.4121 16.29921,0 0,-34.6405 -16.29921,0 0,-36.4121 16.29921,0 0,-34.6405 -16.29921,0 0,-36.4122 16.29921,0 0,-34.6405 -16.29921,0 0,-36.4121 16.29921,0 0,-34.6405 -16.29921,0 0,-36.4121 16.29921,0 0,-34.6405 -16.29921,0 0,-36.4122 16.29921,0 0,-34.6405 -16.29921,0 0,-36.4121 16.29921,0 0,-34.6405 -16.29921,0 0,-19.67"
       style="fill:none;stroke:#000000;stroke-width:0.99921271;stroke-miterlimit:4;stroke-dasharray:none"
       inkscape:label="part"
       inkscape:connector-curvature="0" />
  </g>
  <g
     id="g3571"
     inkscape:groupmode="layer"
     inkscape:label="newlayer" />
</svg>
