<?xml version="1.0" encoding="UTF-8" standalone="no"?>
<!-- Created with Inkscape (http://www.inkscape.org/) -->

<svg
   xmlns:dc="http://purl.org/dc/elements/1.1/"
   xmlns:cc="http://creativecommons.org/ns#"
   xmlns:rdf="http://www.w3.org/1999/02/22-rdf-syntax-ns#"
   xmlns:svg="http://www.w3.org/2000/svg"
   xmlns="http://www.w3.org/2000/svg"
   xmlns:sodipodi="http://sodipodi.sourceforge.net/DTD/sodipodi-0.dtd"
   xmlns:inkscape="http://www.inkscape.org/namespaces/inkscape"
   width="609.8822mm"
   height="305.08221mm"
   viewBox="0 0 2160.9999 1081"
   id="svg2"
   version="1.1"
   inkscape:version="0.91 r13725"
   sodipodi:docname="HBox.svg">
  <sodipodi:namedview
     id="base"
     pagecolor="#ffffff"
     bordercolor="#666666"
     borderopacity="1.0"
     inkscape:pageopacity="0.0"
     inkscape:pageshadow="2"
     inkscape:zoom="0.70710678"
     inkscape:cx="801.67839"
     inkscape:cy="511.9917"
     inkscape:document-units="px"
     inkscape:current-layer="layer1"
     showgrid="false"
     fit-margin-top="0"
     fit-margin-left="0"
     fit-margin-right="0"
     fit-margin-bottom="0"
     inkscape:window-width="1920"
     inkscape:window-height="1018"
     inkscape:window-x="-8"
     inkscape:window-y="-8"
     inkscape:window-maximized="1"
     showguides="false" />
  <defs
     id="defs4">
    <pattern
       y="0"
       x="0"
       height="6"
       width="6"
       patternUnits="userSpaceOnUse"
       id="EMFhbasepattern" />
    <pattern
       y="0"
       x="0"
       height="6"
       width="6"
       patternUnits="userSpaceOnUse"
       id="EMFhbasepattern-2" />
  </defs>
  <metadata
     id="metadata7">
    <rdf:RDF>
      <cc:Work
         rdf:about="">
        <dc:format>image/svg+xml</dc:format>
        <dc:type
           rdf:resource="http://purl.org/dc/dcmitype/StillImage" />
        <dc:title></dc:title>
      </cc:Work>
    </rdf:RDF>
  </metadata>
  <g
     inkscape:label="Layer 1"
     inkscape:groupmode="layer"
     id="layer1"
     transform="translate(6.2142878,-1.862201)">
    <rect
       style="opacity:1;fill:none;stroke:#0000ff;stroke-width:0.9;stroke-miterlimit:4;stroke-dasharray:none;stroke-opacity:1"
       id="rect4136"
       width="2160"
       height="1080"
       x="-5.7142878"
       y="2.362201" />
    <path
       id="path4352"
       d="m 81.543307,63.543307 40.942913,0 0,16.051182 35.11417,0 0,-16.051182 41.10237,0 0,16.051182 35.11417,0 0,-16.051182 41.10236,0 0,16.051182 35.11418,0 0,-16.051182 41.10236,0 0,16.051182 35.11417,0 0,-16.051182 41.10236,0 0,16.051182 35.11418,0 0,-16.051182 40.94291,0"
       style="fill:none;stroke:#000000;stroke-width:0.09;stroke-miterlimit:4;stroke-dasharray:none"
       inkscape:label="part"
       inkscape:connector-curvature="0" />
    <path
       id="path4354"
       d="m 503.40945,63.543307 0,40.942913 -16.05118,0 0,35.11417 16.05118,0 0,41.10237 -16.05118,0 0,35.11417 16.05118,0 0,41.10236 -16.05118,0 0,35.11418 16.05118,0 0,41.10236 -16.05118,0 0,35.11417 16.05118,0 0,41.10236 -16.05118,0 0,35.11418 16.05118,0 0,40.94291"
       style="fill:none;stroke:#000000;stroke-width:0.09;stroke-miterlimit:4;stroke-dasharray:none"
       inkscape:label="part"
       inkscape:connector-curvature="0" />
    <path
       id="path4356"
       d="m 503.40945,485.40945 -40.94291,0 0,-16.05118 -35.11418,0 0,16.05118 -41.10236,0 0,-16.05118 -35.11417,0 0,16.05118 -41.10236,0 0,-16.05118 -35.11418,0 0,16.05118 -41.10236,0 0,-16.05118 -35.11417,0 0,16.05118 -41.10237,0 0,-16.05118 -35.11417,0 0,16.05118 -40.942913,0"
       style="fill:none;stroke:#000000;stroke-width:0.09;stroke-miterlimit:4;stroke-dasharray:none"
       inkscape:label="part"
       inkscape:connector-curvature="0" />
    <path
       id="path4358"
       d="m 81.543307,485.40945 0,-40.94291 16.051182,0 0,-35.11418 -16.051182,0 0,-41.10236 16.051182,0 0,-35.11417 -16.051182,0 0,-41.10236 16.051182,0 0,-35.11418 -16.051182,0 0,-41.10236 16.051182,0 0,-35.11417 -16.051182,0 0,-41.10237 16.051182,0 0,-35.11417 -16.051182,0 0,-40.942913"
       style="fill:none;stroke:#000000;stroke-width:0.09;stroke-miterlimit:4;stroke-dasharray:none"
       inkscape:label="part"
       inkscape:connector-curvature="0" />
    <path
       id="path4360"
       d="m 506.95276,63.543307 40.94291,0 0,16.051182 35.11417,0 0,-16.051182 41.10237,0 0,16.051182 35.11417,0 0,-16.051182 41.10236,0 0,16.051182 35.11418,0 0,-16.051182 41.10236,0 0,16.051182 35.11417,0 0,-16.051182 41.10236,0 0,16.051182 35.11418,0 0,-16.051182 40.94291,0"
       style="fill:none;stroke:#000000;stroke-width:0.09;stroke-miterlimit:4;stroke-dasharray:none"
       inkscape:label="part"
       inkscape:connector-curvature="0" />
    <path
       id="path4362"
       d="m 928.8189,63.543307 0,40.942913 -16.05118,0 0,35.11417 16.05118,0 0,41.10237 -16.05118,0 0,35.11417 16.05118,0 0,41.10236 -16.05118,0 0,35.11418 16.05118,0 0,41.10236 -16.05118,0 0,35.11417 16.05118,0 0,41.10236 -16.05118,0 0,35.11418 16.05118,0 0,40.94291"
       style="fill:none;stroke:#000000;stroke-width:0.09;stroke-miterlimit:4;stroke-dasharray:none"
       inkscape:label="part"
       inkscape:connector-curvature="0" />
    <path
       id="path4364"
       d="m 928.8189,485.40945 -40.94291,0 0,-16.05118 -35.11418,0 0,16.05118 -41.10236,0 0,-16.05118 -35.11417,0 0,16.05118 -41.10236,0 0,-16.05118 -35.11418,0 0,16.05118 -41.10236,0 0,-16.05118 -35.11417,0 0,16.05118 -41.10237,0 0,-16.05118 -35.11417,0 0,16.05118 -40.94291,0"
       style="fill:none;stroke:#000000;stroke-width:0.09;stroke-miterlimit:4;stroke-dasharray:none"
       inkscape:label="part"
       inkscape:connector-curvature="0" />
    <path
       id="path4366"
       d="m 506.95276,485.40945 0,-40.94291 16.05118,0 0,-35.11418 -16.05118,0 0,-41.10236 16.05118,0 0,-35.11417 -16.05118,0 0,-41.10236 16.05118,0 0,-35.11418 -16.05118,0 0,-41.10236 16.05118,0 0,-35.11417 -16.05118,0 0,-41.10237 16.05118,0 0,-35.11417 -16.05118,0 0,-40.942913"
       style="fill:none;stroke:#000000;stroke-width:0.09;stroke-miterlimit:4;stroke-dasharray:none"
       inkscape:label="part"
       inkscape:connector-curvature="0" />
    <path
       id="path4368"
       d="m 948.41339,63.543307 36.4252,0 0,16.051182 35.11421,0 0,-16.051182 52.6358,0 0,16.051182 35.1142,0 0,-16.051182 52.6358,0 0,16.051182 35.1142,0 0,-16.051182 36.4252,0"
       style="fill:none;stroke:#000000;stroke-width:0.09;stroke-miterlimit:4;stroke-dasharray:none"
       inkscape:label="part"
       inkscape:connector-curvature="0" />
    <path
       id="path4370"
       d="m 1231.878,63.543307 0,40.624013 16.0511,0 0,35.75197 -16.0511,0 0,40.46457 16.0511,0 0,35.75197 -16.0511,0 0,40.46456 16.0511,0 0,35.75197 -16.0511,0 0,40.46457 16.0511,0 0,35.75197 -16.0511,0 0,40.46457 16.0511,0 0,35.75196 -16.0511,0 0,40.62402"
       style="fill:none;stroke:#000000;stroke-width:0.09;stroke-miterlimit:4;stroke-dasharray:none"
       inkscape:label="part"
       inkscape:connector-curvature="0" />
    <path
       id="path4372"
       d="m 1231.878,485.40945 -36.4252,0 0,-16.05118 -35.1142,0 0,16.05118 -52.6358,0 0,-16.05118 -35.1142,0 0,16.05118 -52.6358,0 0,-16.05118 -35.11421,0 0,16.05118 -36.4252,0"
       style="fill:none;stroke:#000000;stroke-width:0.09;stroke-miterlimit:4;stroke-dasharray:none"
       inkscape:label="part"
       inkscape:connector-curvature="0" />
    <path
       id="path4374"
       d="m 948.41339,485.40945 0,-40.62402 -16.05118,0 0,-35.75196 16.05118,0 0,-40.46457 -16.05118,0 0,-35.75197 16.05118,0 0,-40.46457 -16.05118,0 0,-35.75197 16.05118,0 0,-40.46456 -16.05118,0 0,-35.75197 16.05118,0 0,-40.46457 -16.05118,0 0,-35.75197 16.05118,0 0,-40.624013"
       style="fill:none;stroke:#000000;stroke-width:0.09;stroke-miterlimit:4;stroke-dasharray:none"
       inkscape:label="part"
       inkscape:connector-curvature="0" />
    <path
       id="path4376"
       d="m 1267.5236,63.543307 36.4252,0 0,16.051182 35.1142,0 0,-16.051182 52.6358,0 0,16.051182 35.1142,0 0,-16.051182 52.6358,0 0,16.051182 35.1142,0 0,-16.051182 36.4252,0"
       style="fill:none;stroke:#000000;stroke-width:0.09;stroke-miterlimit:4;stroke-dasharray:none"
       inkscape:label="part"
       inkscape:connector-curvature="0" />
    <path
       id="path4378"
       d="m 1550.9882,63.543307 0,40.624013 16.0512,0 0,35.75197 -16.0512,0 0,40.46457 16.0512,0 0,35.75197 -16.0512,0 0,40.46456 16.0512,0 0,35.75197 -16.0512,0 0,40.46457 16.0512,0 0,35.75197 -16.0512,0 0,40.46457 16.0512,0 0,35.75196 -16.0512,0 0,40.62402"
       style="fill:none;stroke:#000000;stroke-width:0.09;stroke-miterlimit:4;stroke-dasharray:none"
       inkscape:label="part"
       inkscape:connector-curvature="0" />
    <path
       id="path4380"
       d="m 1550.9882,485.40945 -36.4252,0 0,-16.05118 -35.1142,0 0,16.05118 -52.6358,0 0,-16.05118 -35.1142,0 0,16.05118 -52.6358,0 0,-16.05118 -35.1142,0 0,16.05118 -36.4252,0"
       style="fill:none;stroke:#000000;stroke-width:0.09;stroke-miterlimit:4;stroke-dasharray:none"
       inkscape:label="part"
       inkscape:connector-curvature="0" />
    <path
       id="path4382"
       d="m 1267.5236,485.40945 0,-40.62402 -16.0512,0 0,-35.75196 16.0512,0 0,-40.46457 -16.0512,0 0,-35.75197 16.0512,0 0,-40.46457 -16.0512,0 0,-35.75197 16.0512,0 0,-40.46456 -16.0512,0 0,-35.75197 16.0512,0 0,-40.46457 -16.0512,0 0,-35.75197 16.0512,0 0,-40.624013"
       style="fill:none;stroke:#000000;stroke-width:0.09;stroke-miterlimit:4;stroke-dasharray:none"
       inkscape:label="part"
       inkscape:connector-curvature="0" />
    <path
       id="path4384"
       d="m 1586.6339,79.594489 24.5728,0 0,-16.051182 35.752,0 0,16.051182 40.4645,0 0,-16.051182 35.752,0 0,16.051182 40.4646,0 0,-16.051182 35.7519,0 0,16.051182 40.4646,0 0,-16.051182 35.752,0 0,16.051182 40.4645,0 0,-16.051182 35.752,0 0,16.051182 24.5728,0"
       style="fill:none;stroke:#000000;stroke-width:0.09;stroke-miterlimit:4;stroke-dasharray:none"
       inkscape:label="part"
       inkscape:connector-curvature="0" />
    <path
       id="path4386"
       d="m 1976.3976,79.594489 0,36.106301 16.0512,0 0,35.75197 -16.0512,0 0,51.99803 16.0512,0 0,35.75197 -16.0512,0 0,51.99803 16.0512,0 0,35.75197 -16.0512,0 0,36.1063"
       style="fill:none;stroke:#000000;stroke-width:0.09;stroke-miterlimit:4;stroke-dasharray:none"
       inkscape:label="part"
       inkscape:connector-curvature="0" />
    <path
       id="path4388"
       d="m 1976.3976,363.05906 -24.5728,0 0,16.05118 -35.752,0 0,-16.05118 -40.4645,0 0,16.05118 -35.752,0 0,-16.05118 -40.4646,0 0,16.05118 -35.7519,0 0,-16.05118 -40.4646,0 0,16.05118 -35.752,0 0,-16.05118 -40.4645,0 0,16.05118 -35.752,0 0,-16.05118 -24.5728,0"
       style="fill:none;stroke:#000000;stroke-width:0.09;stroke-miterlimit:4;stroke-dasharray:none"
       inkscape:label="part"
       inkscape:connector-curvature="0" />
    <path
       id="path4390"
       d="m 1586.6339,363.05906 0,-36.1063 -16.0512,0 0,-35.75197 16.0512,0 0,-51.99803 -16.0512,0 0,-35.75197 16.0512,0 0,-51.99803 -16.0512,0 0,-35.75197 16.0512,0 0,-36.106301"
       style="fill:none;stroke:#000000;stroke-width:0.09;stroke-miterlimit:4;stroke-dasharray:none"
       inkscape:label="part"
       inkscape:connector-curvature="0" />
    <path
       id="path4392"
       d="m 1633.0341,441.63316 24.5728,0 0,-16.05118 35.752,0 0,16.05118 40.4645,0 0,-16.05118 35.752,0 0,16.05118 40.4646,0 0,-16.05118 35.752,0 0,16.05118 40.4645,0 0,-16.05118 35.752,0 0,16.05118 40.4646,0 0,-16.05118 35.7519,0 0,16.05118 24.5729,0"
       style="fill:none;stroke:#000000;stroke-width:0.09;stroke-miterlimit:4;stroke-dasharray:none"
       inkscape:label="part"
       inkscape:connector-curvature="0" />
    <path
       id="path4394"
       d="m 2022.7979,441.63316 0,36.1063 16.0511,0 0,35.75197 -16.0511,0 0,51.99803 16.0511,0 0,35.75197 -16.0511,0 0,51.99803 16.0511,0 0,35.75197 -16.0511,0 0,36.1063"
       style="fill:none;stroke:#000000;stroke-width:0.09;stroke-miterlimit:4;stroke-dasharray:none"
       inkscape:label="part"
       inkscape:connector-curvature="0" />
    <path
       id="path4396"
       d="m 2022.7979,725.09773 -24.5729,0 0,16.05118 -35.7519,0 0,-16.05118 -40.4646,0 0,16.05118 -35.752,0 0,-16.05118 -40.4645,0 0,16.05118 -35.752,0 0,-16.05118 -40.4646,0 0,16.05118 -35.752,0 0,-16.05118 -40.4645,0 0,16.05118 -35.752,0 0,-16.05118 -24.5728,0"
       style="fill:none;stroke:#000000;stroke-width:0.09;stroke-miterlimit:4;stroke-dasharray:none"
       inkscape:label="part"
       inkscape:connector-curvature="0" />
    <path
       id="path4398"
       d="m 1633.0341,725.09773 0,-36.1063 -16.0512,0 0,-35.75197 16.0512,0 0,-51.99803 -16.0512,0 0,-35.75197 16.0512,0 0,-51.99803 -16.0512,0 0,-35.75197 16.0512,0 0,-36.1063"
       style="fill:none;stroke:#000000;stroke-width:0.09;stroke-miterlimit:4;stroke-dasharray:none"
       inkscape:label="part"
       inkscape:connector-curvature="0" />
    <path
       inkscape:connector-curvature="0"
       id="path4438"
       d="m 1144.7613,262.86198 c 0,35.39691 -28.2258,64.12902 -62.9759,64.12902 -34.75,0 -62.9752,-28.73211 -62.9752,-64.12902 0,-35.39663 28.2252,-64.12889 62.9752,-64.12889 34.7501,0 62.9759,28.73226 62.9759,64.12889 z"
       style="fill:none;stroke:#ff0000;stroke-width:0.09;stroke-linecap:butt;stroke-linejoin:miter;stroke-miterlimit:4;stroke-dasharray:none;stroke-opacity:1" />
    <path
       inkscape:connector-curvature="0"
       id="path4438-5"
       d="m 1374.5108,280.86216 c 0,18.69968 -16.0121,33.87845 -35.7252,33.87845 -19.7131,0 -35.7249,-15.17877 -35.7249,-33.87845 0,-18.69954 16.0118,-33.87839 35.7249,-33.87839 19.7131,0 35.7252,15.17885 35.7252,33.87839 z"
       style="fill:none;stroke:#ff0000;stroke-width:0.09;stroke-linecap:butt;stroke-linejoin:miter;stroke-miterlimit:4;stroke-dasharray:none;stroke-opacity:1" />
    <path
       inkscape:connector-curvature="0"
       id="path4438-5-9"
       d="m 1500.6262,280.86215 c 0,18.2114 -15.6156,32.99382 -34.8407,32.99382 -19.2249,0 -34.8402,-14.78242 -34.8402,-32.99382 0,-18.21126 15.6153,-32.99376 34.8402,-32.99376 19.2251,0 34.8407,14.7825 34.8407,32.99376 z"
       style="fill:none;stroke:#ff0000;stroke-width:0.09;stroke-linecap:butt;stroke-linejoin:miter;stroke-miterlimit:4;stroke-dasharray:none;stroke-opacity:1" />
    <circle
       r="4.7029095"
       cy="337.2876"
       cx="1623.797"
       id="path10778-8-2-3"
       style="opacity:1;fill:none;stroke:#ff0000;stroke-width:0.09;stroke-miterlimit:4;stroke-dasharray:none;stroke-opacity:1" />
    <circle
       r="4.7029095"
       cy="115.08145"
       cx="1623.2909"
       id="path10778-8-2-3-1"
       style="opacity:1;fill:none;stroke:#ff0000;stroke-width:0.09;stroke-miterlimit:4;stroke-dasharray:none;stroke-opacity:1" />
    <circle
       r="4.7029095"
       cy="337.7348"
       cx="1904.908"
       id="path10778-8-2-3-5"
       style="opacity:1;fill:none;stroke:#ff0000;stroke-width:0.09;stroke-miterlimit:4;stroke-dasharray:none;stroke-opacity:1" />
    <circle
       r="4.7029095"
       cy="115.89259"
       cx="1904.7554"
       id="path10778-8-2-3-1-6"
       style="opacity:1;fill:none;stroke:#ff0000;stroke-width:0.09;stroke-miterlimit:4;stroke-dasharray:none;stroke-opacity:1" />
    <path
       inkscape:connector-curvature="0"
       id="path4438-5-91"
       d="m 1883.5108,512.86214 c 0,18.69968 -16.0121,33.87845 -35.7252,33.87845 -19.7131,0 -35.7249,-15.17877 -35.7249,-33.87845 0,-18.69954 16.0118,-33.87839 35.7249,-33.87839 19.7131,0 35.7252,15.17885 35.7252,33.87839 z"
       style="fill:none;stroke:#ff0000;stroke-width:0.09;stroke-linecap:butt;stroke-linejoin:miter;stroke-miterlimit:4;stroke-dasharray:none;stroke-opacity:1" />
    <path
       inkscape:connector-curvature="0"
       id="path4438-5-9-0"
       d="m 1758.6262,646.86214 c 0,18.2114 -15.6156,32.99382 -34.8407,32.99382 -19.2249,0 -34.8402,-14.78242 -34.8402,-32.99382 0,-18.21126 15.6153,-32.99376 34.8402,-32.99376 19.2251,0 34.8407,14.7825 34.8407,32.99376 z"
       style="fill:none;stroke:#ff0000;stroke-width:0.09;stroke-linecap:butt;stroke-linejoin:miter;stroke-miterlimit:4;stroke-dasharray:none;stroke-opacity:1" />
  </g>
  <g
     inkscape:label="newlayer"
     inkscape:groupmode="layer"
     id="g9232" />
  <g
     id="g4401"
     inkscape:groupmode="layer"
     inkscape:label="newlayer" />
</svg>
