<?xml version="1.0" encoding="UTF-8" standalone="no"?>
<!-- Created with Inkscape (http://www.inkscape.org/) -->

<svg
   xmlns:osb="http://www.openswatchbook.org/uri/2009/osb"
   xmlns:dc="http://purl.org/dc/elements/1.1/"
   xmlns:cc="http://creativecommons.org/ns#"
   xmlns:rdf="http://www.w3.org/1999/02/22-rdf-syntax-ns#"
   xmlns:svg="http://www.w3.org/2000/svg"
   xmlns="http://www.w3.org/2000/svg"
   xmlns:sodipodi="http://sodipodi.sourceforge.net/DTD/sodipodi-0.dtd"
   xmlns:inkscape="http://www.inkscape.org/namespaces/inkscape"
   width="609.8822mm"
   height="305.08221mm"
   viewBox="0 0 2160.9999 1081"
   id="svg2"
   version="1.1"
   inkscape:version="0.91 r13725"
   sodipodi:docname="HieuBox.svg">
  <sodipodi:namedview
     id="base"
     pagecolor="#ffffff"
     bordercolor="#666666"
     borderopacity="1.0"
     inkscape:pageopacity="0.0"
     inkscape:pageshadow="2"
     inkscape:zoom="0.35355339"
     inkscape:cx="278.07799"
     inkscape:cy="1078.6696"
     inkscape:document-units="px"
     inkscape:current-layer="svg2"
     showgrid="false"
     fit-margin-top="0"
     fit-margin-left="0"
     fit-margin-right="0"
     fit-margin-bottom="0"
     inkscape:window-width="1920"
     inkscape:window-height="1018"
     inkscape:window-x="-8"
     inkscape:window-y="-8"
     inkscape:window-maximized="1"
     showguides="true" />
  <defs
     id="defs4">
    <linearGradient
       id="linearGradient6301"
       osb:paint="solid">
      <stop
         style="stop-color:#0000ff;stop-opacity:1;"
         offset="0"
         id="stop6303" />
    </linearGradient>
  </defs>
  <metadata
     id="metadata7">
    <rdf:RDF>
      <cc:Work
         rdf:about="">
        <dc:format>image/svg+xml</dc:format>
        <dc:type
           rdf:resource="http://purl.org/dc/dcmitype/StillImage" />
        <dc:title></dc:title>
      </cc:Work>
    </rdf:RDF>
  </metadata>
  <g
     transform="translate(6.2142878,-1.862201)"
     id="layer1"
     inkscape:groupmode="layer"
     inkscape:label="Layer 1">
    <rect
       y="2.362201"
       x="-5.7142878"
       height="1080"
       width="2160"
       id="rect4136"
       style="opacity:1;fill:none;stroke:#0000ff;stroke-width:0.9;stroke-miterlimit:4;stroke-dasharray:none;stroke-opacity:1" />
  </g>
  <g
     id="g9232"
     inkscape:groupmode="layer"
     inkscape:label="newlayer" />
  <g
     inkscape:label="newlayer"
     inkscape:groupmode="layer"
     id="g4401" />
  <g
     id="g4758"
     inkscape:groupmode="layer"
     inkscape:label="newlayer" />
  <path
     id="path4760"
     d="m 1067.2498,61.495727 33.8386,0 0,-35.433071 38.622,0 0,35.433071 32.2441,0 0,-35.433071 38.6221,0 0,35.433071 32.2441,0 0,-35.433071 38.622,0 0,35.433071 32.2441,0 0,-35.433071 38.6221,0 0,35.433071 32.2441,0 0,-35.433071 38.622,0 0,35.433071 32.2441,0 0,-35.433071 38.622,0 0,35.433071 33.8386,0"
     style="fill:none;stroke:#000000"
     inkscape:label="part"
     inkscape:connector-curvature="0" />
  <path
     id="path4762"
     d="m 1527.8797,61.495727 0,8.681102 -35.433,0 0,32.244091 35.433,0 0,45.70867 -35.433,0 0,32.24409 35.433,0 0,45.70866 -35.433,0 0,32.2441 35.433,0 0,45.70866 -35.433,0 0,32.24409 35.433,0 0,8.6811"
     style="fill:none;stroke:#000000"
     inkscape:label="part"
     inkscape:connector-curvature="0" />
  <path
     id="path4764"
     d="m 1527.8797,344.96029 -33.8386,0 0,35.43307 -38.622,0 0,-35.43307 -32.2441,0 0,35.43307 -38.622,0 0,-35.43307 -32.2441,0 0,35.43307 -38.6221,0 0,-35.43307 -32.2441,0 0,35.43307 -38.622,0 0,-35.43307 -32.2441,0 0,35.43307 -38.6221,0 0,-35.43307 -32.2441,0 0,35.43307 -38.622,0 0,-35.43307 -33.8386,0"
     style="fill:none;stroke:#000000"
     inkscape:label="part"
     inkscape:connector-curvature="0" />
  <path
     id="path4766"
     d="m 1067.2498,344.96029 0,-8.6811 35.4331,0 0,-32.24409 -35.4331,0 0,-45.70866 35.4331,0 0,-32.2441 -35.4331,0 0,-45.70866 35.4331,0 0,-32.24409 -35.4331,0 0,-45.70867 35.4331,0 0,-32.244091 -35.4331,0 0,-8.681102"
     style="fill:none;stroke:#000000"
     inkscape:label="part"
     inkscape:connector-curvature="0" />
  <path
     id="path4768"
     d="M 70.866141732,460.629921258 L 76.3582676859,460.629921258 L 76.3582676859,425.196850392 L 114.980314991,425.196850392 L 114.980314991,460.629921258 L 154.311023591,460.629921258 L 154.311023591,425.196850392 L 192.933070896,425.196850392 L 192.933070896,460.629921258 L 232.263779496,460.629921258 L 232.263779496,425.196850392 L 270.885826801,425.196850392 L 270.885826801,460.629921258 L 310.216535401,460.629921258 L 310.216535401,425.196850392 L 348.838582706,425.196850392 L 348.838582706,460.629921258 L 354.33070866,460.629921258 "
     style="stroke:#000000;fill:none"
     inkscape:label="part" />
  <path
     id="path4770"
     d="M 354.33070866,460.629921258 L 354.33070866,459.035433039 L 389.763779526,459.035433039 L 389.763779526,497.657480343 L 354.33070866,497.657480343 L 354.33070866,529.901574771 L 389.763779526,529.901574771 L 389.763779526,568.523622075 L 354.33070866,568.523622075 L 354.33070866,600.767716503 L 389.763779526,600.767716503 L 389.763779526,639.389763807 L 354.33070866,639.389763807 L 354.33070866,671.633858235 L 389.763779526,671.633858235 L 389.763779526,710.255905539 L 354.33070866,710.255905539 L 354.33070866,742.499999967 L 389.763779526,742.499999967 L 389.763779526,781.122047271 L 354.33070866,781.122047271 L 354.33070866,813.366141699 L 389.763779526,813.366141699 L 389.763779526,851.988189003 L 354.33070866,851.988189003 L 354.33070866,850.393700784 "
     style="stroke:#000000;fill:none"
     inkscape:label="part" />
  <path
     id="path4772"
     d="M 354.33070866,850.393700784 L 348.838582706,850.393700784 L 348.838582706,885.82677165 L 310.216535401,885.82677165 L 310.216535401,850.393700784 L 270.885826801,850.393700784 L 270.885826801,885.82677165 L 232.263779496,885.82677165 L 232.263779496,850.393700784 L 192.933070896,850.393700784 L 192.933070896,885.82677165 L 154.311023591,885.82677165 L 154.311023591,850.393700784 L 114.980314991,850.393700784 L 114.980314991,885.82677165 L 76.3582676859,885.82677165 L 76.3582676859,850.393700784 L 70.866141732,850.393700784 "
     style="stroke:#000000;fill:none"
     inkscape:label="part" />
  <path
     id="path4774"
     d="M 70.866141732,850.393700784 L 70.866141732,851.988189003 L 35.433070866,851.988189003 L 35.433070866,813.366141699 L 70.866141732,813.366141699 L 70.866141732,781.122047271 L 35.433070866,781.122047271 L 35.433070866,742.499999967 L 70.866141732,742.499999967 L 70.866141732,710.255905539 L 35.433070866,710.255905539 L 35.433070866,671.633858235 L 70.866141732,671.633858235 L 70.866141732,639.389763807 L 35.433070866,639.389763807 L 35.433070866,600.767716503 L 70.866141732,600.767716503 L 70.866141732,568.523622075 L 35.433070866,568.523622075 L 35.433070866,529.901574771 L 70.866141732,529.901574771 L 70.866141732,497.657480343 L 35.433070866,497.657480343 L 35.433070866,459.035433039 L 70.866141732,459.035433039 L 70.866141732,460.629921258 "
     style="stroke:#000000;fill:none"
     inkscape:label="part" />
  <path
     id="path4776"
     d="M 425.196850392,425.196850392 L 462.224409477,425.196850392 L 462.224409477,460.629921258 L 494.468503905,460.629921258 L 494.468503905,425.196850392 L 533.090551209,425.196850392 L 533.090551209,460.629921258 L 565.334645637,460.629921258 L 565.334645637,425.196850392 L 603.956692941,425.196850392 L 603.956692941,460.629921258 L 636.200787369,460.629921258 L 636.200787369,425.196850392 L 674.822834673,425.196850392 L 674.822834673,460.629921258 L 707.066929101,460.629921258 L 707.066929101,425.196850392 L 745.688976405,425.196850392 L 745.688976405,460.629921258 L 777.933070833,460.629921258 L 777.933070833,425.196850392 L 816.555118137,425.196850392 L 816.555118137,460.629921258 L 848.799212565,460.629921258 L 848.799212565,425.196850392 L 885.82677165,425.196850392 "
     style="stroke:#000000;fill:none"
     inkscape:label="part" />
  <path
     id="path4778"
     d="M 885.82677165,425.196850392 L 885.82677165,462.224409477 L 850.393700784,462.224409477 L 850.393700784,494.468503905 L 885.82677165,494.468503905 L 885.82677165,533.090551209 L 850.393700784,533.090551209 L 850.393700784,565.334645637 L 885.82677165,565.334645637 L 885.82677165,603.956692941 L 850.393700784,603.956692941 L 850.393700784,636.200787369 L 885.82677165,636.200787369 L 885.82677165,674.822834673 L 850.393700784,674.822834673 L 850.393700784,707.066929101 L 885.82677165,707.066929101 L 885.82677165,745.688976405 L 850.393700784,745.688976405 L 850.393700784,777.933070833 L 885.82677165,777.933070833 L 885.82677165,816.555118137 L 850.393700784,816.555118137 L 850.393700784,848.799212565 L 885.82677165,848.799212565 L 885.82677165,885.82677165 "
     style="stroke:#000000;fill:none"
     inkscape:label="part" />
  <path
     id="path4780"
     d="M 885.82677165,885.82677165 L 848.799212565,885.82677165 L 848.799212565,850.393700784 L 816.555118137,850.393700784 L 816.555118137,885.82677165 L 777.933070833,885.82677165 L 777.933070833,850.393700784 L 745.688976405,850.393700784 L 745.688976405,885.82677165 L 707.066929101,885.82677165 L 707.066929101,850.393700784 L 674.822834673,850.393700784 L 674.822834673,885.82677165 L 636.200787369,885.82677165 L 636.200787369,850.393700784 L 603.956692941,850.393700784 L 603.956692941,885.82677165 L 565.334645637,885.82677165 L 565.334645637,850.393700784 L 533.090551209,850.393700784 L 533.090551209,885.82677165 L 494.468503905,885.82677165 L 494.468503905,850.393700784 L 462.224409477,850.393700784 L 462.224409477,885.82677165 L 425.196850392,885.82677165 "
     style="stroke:#000000;fill:none"
     inkscape:label="part" />
  <path
     id="path4782"
     d="M 425.196850392,885.82677165 L 425.196850392,848.799212565 L 460.629921258,848.799212565 L 460.629921258,816.555118137 L 425.196850392,816.555118137 L 425.196850392,777.933070833 L 460.629921258,777.933070833 L 460.629921258,745.688976405 L 425.196850392,745.688976405 L 425.196850392,707.066929101 L 460.629921258,707.066929101 L 460.629921258,674.822834673 L 425.196850392,674.822834673 L 425.196850392,636.200787369 L 460.629921258,636.200787369 L 460.629921258,603.956692941 L 425.196850392,603.956692941 L 425.196850392,565.334645637 L 460.629921258,565.334645637 L 460.629921258,533.090551209 L 425.196850392,533.090551209 L 425.196850392,494.468503905 L 460.629921258,494.468503905 L 460.629921258,462.224409477 L 425.196850392,462.224409477 L 425.196850392,425.196850392 "
     style="stroke:#000000;fill:none"
     inkscape:label="part" />
  <path
     id="path4784"
     d="M 956.692913382,460.629921258 L 962.185039336,460.629921258 L 962.185039336,425.196850392 L 1000.80708664,425.196850392 L 1000.80708664,460.629921258 L 1040.13779524,460.629921258 L 1040.13779524,425.196850392 L 1078.75984255,425.196850392 L 1078.75984255,460.629921258 L 1118.09055115,460.629921258 L 1118.09055115,425.196850392 L 1156.71259845,425.196850392 L 1156.71259845,460.629921258 L 1196.04330705,460.629921258 L 1196.04330705,425.196850392 L 1234.66535436,425.196850392 L 1234.66535436,460.629921258 L 1240.15748031,460.629921258 "
     style="stroke:#000000;fill:none"
     inkscape:label="part" />
  <path
     id="path4786"
     d="M 1240.15748031,460.629921258 L 1240.15748031,459.035433039 L 1275.59055118,459.035433039 L 1275.59055118,497.657480343 L 1240.15748031,497.657480343 L 1240.15748031,529.901574771 L 1275.59055118,529.901574771 L 1275.59055118,568.523622075 L 1240.15748031,568.523622075 L 1240.15748031,600.767716503 L 1275.59055118,600.767716503 L 1275.59055118,639.389763807 L 1240.15748031,639.389763807 L 1240.15748031,671.633858235 L 1275.59055118,671.633858235 L 1275.59055118,710.255905539 L 1240.15748031,710.255905539 L 1240.15748031,742.499999967 L 1275.59055118,742.499999967 L 1275.59055118,781.122047271 L 1240.15748031,781.122047271 L 1240.15748031,813.366141699 L 1275.59055118,813.366141699 L 1275.59055118,851.988189003 L 1240.15748031,851.988189003 L 1240.15748031,850.393700784 "
     style="stroke:#000000;fill:none"
     inkscape:label="part" />
  <path
     id="path4788"
     d="M 1240.15748031,850.393700784 L 1234.66535436,850.393700784 L 1234.66535436,885.82677165 L 1196.04330705,885.82677165 L 1196.04330705,850.393700784 L 1156.71259845,850.393700784 L 1156.71259845,885.82677165 L 1118.09055115,885.82677165 L 1118.09055115,850.393700784 L 1078.75984255,850.393700784 L 1078.75984255,885.82677165 L 1040.13779524,885.82677165 L 1040.13779524,850.393700784 L 1000.80708664,850.393700784 L 1000.80708664,885.82677165 L 962.185039336,885.82677165 L 962.185039336,850.393700784 L 956.692913382,850.393700784 "
     style="stroke:#000000;fill:none"
     inkscape:label="part" />
  <path
     id="path4790"
     d="M 956.692913382,850.393700784 L 956.692913382,851.988189003 L 921.259842516,851.988189003 L 921.259842516,813.366141699 L 956.692913382,813.366141699 L 956.692913382,781.122047271 L 921.259842516,781.122047271 L 921.259842516,742.499999967 L 956.692913382,742.499999967 L 956.692913382,710.255905539 L 921.259842516,710.255905539 L 921.259842516,671.633858235 L 956.692913382,671.633858235 L 956.692913382,639.389763807 L 921.259842516,639.389763807 L 921.259842516,600.767716503 L 956.692913382,600.767716503 L 956.692913382,568.523622075 L 921.259842516,568.523622075 L 921.259842516,529.901574771 L 956.692913382,529.901574771 L 956.692913382,497.657480343 L 921.259842516,497.657480343 L 921.259842516,459.035433039 L 956.692913382,459.035433039 L 956.692913382,460.629921258 "
     style="stroke:#000000;fill:none"
     inkscape:label="part" />
  <path
     id="path4792"
     d="M 1311.02362204,425.196850392 L 1348.05118113,425.196850392 L 1348.05118113,460.629921258 L 1380.29527555,460.629921258 L 1380.29527555,425.196850392 L 1418.91732286,425.196850392 L 1418.91732286,460.629921258 L 1451.16141729,460.629921258 L 1451.16141729,425.196850392 L 1489.78346459,425.196850392 L 1489.78346459,460.629921258 L 1522.02755902,460.629921258 L 1522.02755902,425.196850392 L 1560.64960632,425.196850392 L 1560.64960632,460.629921258 L 1592.89370075,460.629921258 L 1592.89370075,425.196850392 L 1631.51574806,425.196850392 L 1631.51574806,460.629921258 L 1663.75984248,460.629921258 L 1663.75984248,425.196850392 L 1702.38188979,425.196850392 L 1702.38188979,460.629921258 L 1734.62598421,460.629921258 L 1734.62598421,425.196850392 L 1771.6535433,425.196850392 "
     style="stroke:#000000;fill:none"
     inkscape:label="part" />
  <path
     id="path4794"
     d="M 1771.6535433,425.196850392 L 1771.6535433,462.224409477 L 1736.22047243,462.224409477 L 1736.22047243,494.468503905 L 1771.6535433,494.468503905 L 1771.6535433,533.090551209 L 1736.22047243,533.090551209 L 1736.22047243,565.334645637 L 1771.6535433,565.334645637 L 1771.6535433,603.956692941 L 1736.22047243,603.956692941 L 1736.22047243,636.200787369 L 1771.6535433,636.200787369 L 1771.6535433,674.822834673 L 1736.22047243,674.822834673 L 1736.22047243,707.066929101 L 1771.6535433,707.066929101 L 1771.6535433,745.688976405 L 1736.22047243,745.688976405 L 1736.22047243,777.933070833 L 1771.6535433,777.933070833 L 1771.6535433,816.555118137 L 1736.22047243,816.555118137 L 1736.22047243,848.799212565 L 1771.6535433,848.799212565 L 1771.6535433,885.82677165 "
     style="stroke:#000000;fill:none"
     inkscape:label="part" />
  <path
     id="path4796"
     d="M 1771.6535433,885.82677165 L 1734.62598421,885.82677165 L 1734.62598421,850.393700784 L 1702.38188979,850.393700784 L 1702.38188979,885.82677165 L 1663.75984248,885.82677165 L 1663.75984248,850.393700784 L 1631.51574806,850.393700784 L 1631.51574806,885.82677165 L 1592.89370075,885.82677165 L 1592.89370075,850.393700784 L 1560.64960632,850.393700784 L 1560.64960632,885.82677165 L 1522.02755902,885.82677165 L 1522.02755902,850.393700784 L 1489.78346459,850.393700784 L 1489.78346459,885.82677165 L 1451.16141729,885.82677165 L 1451.16141729,850.393700784 L 1418.91732286,850.393700784 L 1418.91732286,885.82677165 L 1380.29527555,885.82677165 L 1380.29527555,850.393700784 L 1348.05118113,850.393700784 L 1348.05118113,885.82677165 L 1311.02362204,885.82677165 "
     style="stroke:#000000;fill:none"
     inkscape:label="part" />
  <path
     id="path4798"
     d="M 1311.02362204,885.82677165 L 1311.02362204,848.799212565 L 1346.45669291,848.799212565 L 1346.45669291,816.555118137 L 1311.02362204,816.555118137 L 1311.02362204,777.933070833 L 1346.45669291,777.933070833 L 1346.45669291,745.688976405 L 1311.02362204,745.688976405 L 1311.02362204,707.066929101 L 1346.45669291,707.066929101 L 1346.45669291,674.822834673 L 1311.02362204,674.822834673 L 1311.02362204,636.200787369 L 1346.45669291,636.200787369 L 1346.45669291,603.956692941 L 1311.02362204,603.956692941 L 1311.02362204,565.334645637 L 1346.45669291,565.334645637 L 1346.45669291,533.090551209 L 1311.02362204,533.090551209 L 1311.02362204,494.468503905 L 1346.45669291,494.468503905 L 1346.45669291,462.224409477 L 1311.02362204,462.224409477 L 1311.02362204,425.196850392 "
     style="stroke:#000000;fill:none"
     inkscape:label="part" />
  <path
     id="path4800"
     d="M 425.196850392,70.866141732 L 459.035433039,70.866141732 L 459.035433039,35.433070866 L 497.657480343,35.433070866 L 497.657480343,70.866141732 L 529.901574771,70.866141732 L 529.901574771,35.433070866 L 568.523622075,35.433070866 L 568.523622075,70.866141732 L 600.767716503,70.866141732 L 600.767716503,35.433070866 L 639.389763807,35.433070866 L 639.389763807,70.866141732 L 671.633858235,70.866141732 L 671.633858235,35.433070866 L 710.255905539,35.433070866 L 710.255905539,70.866141732 L 742.499999967,70.866141732 L 742.499999967,35.433070866 L 781.122047271,35.433070866 L 781.122047271,70.866141732 L 813.366141699,70.866141732 L 813.366141699,35.433070866 L 851.988189003,35.433070866 L 851.988189003,70.866141732 L 885.82677165,70.866141732 "
     style="stroke:#000000;fill:none"
     inkscape:label="part" />
  <path
     id="path4802"
     d="M 885.82677165,70.866141732 L 885.82677165,79.5472441245 L 850.393700784,79.5472441245 L 850.393700784,111.791338552 L 885.82677165,111.791338552 L 885.82677165,157.50000003 L 850.393700784,157.50000003 L 850.393700784,189.744094457 L 885.82677165,189.744094457 L 885.82677165,235.452755935 L 850.393700784,235.452755935 L 850.393700784,267.696850362 L 885.82677165,267.696850362 L 885.82677165,313.40551184 L 850.393700784,313.40551184 L 850.393700784,345.649606267 L 885.82677165,345.649606267 L 885.82677165,354.33070866 "
     style="stroke:#000000;fill:none"
     inkscape:label="part" />
  <path
     id="path4804"
     d="M 885.82677165,354.33070866 L 851.988189003,354.33070866 L 851.988189003,389.763779526 L 813.366141699,389.763779526 L 813.366141699,354.33070866 L 781.122047271,354.33070866 L 781.122047271,389.763779526 L 742.499999967,389.763779526 L 742.499999967,354.33070866 L 710.255905539,354.33070866 L 710.255905539,389.763779526 L 671.633858235,389.763779526 L 671.633858235,354.33070866 L 639.389763807,354.33070866 L 639.389763807,389.763779526 L 600.767716503,389.763779526 L 600.767716503,354.33070866 L 568.523622075,354.33070866 L 568.523622075,389.763779526 L 529.901574771,389.763779526 L 529.901574771,354.33070866 L 497.657480343,354.33070866 L 497.657480343,389.763779526 L 459.035433039,389.763779526 L 459.035433039,354.33070866 L 425.196850392,354.33070866 "
     style="stroke:#000000;fill:none"
     inkscape:label="part" />
  <path
     id="path4806"
     d="M 425.196850392,354.33070866 L 425.196850392,345.649606267 L 460.629921258,345.649606267 L 460.629921258,313.40551184 L 425.196850392,313.40551184 L 425.196850392,267.696850362 L 460.629921258,267.696850362 L 460.629921258,235.452755935 L 425.196850392,235.452755935 L 425.196850392,189.744094457 L 460.629921258,189.744094457 L 460.629921258,157.50000003 L 425.196850392,157.50000003 L 425.196850392,111.791338552 L 460.629921258,111.791338552 L 460.629921258,79.5472441245 L 425.196850392,79.5472441245 L 425.196850392,70.866141732 "
     style="stroke:#000000;fill:none"
     inkscape:label="part" />
  <ellipse
     style="opacity:1;fill:none;stroke:#0000ff;stroke-width:0.09;stroke-miterlimit:4;stroke-dasharray:none;stroke-opacity:0"
     id="path4853"
     cx="156.2706"
     cy="623.50189"
     rx="16.263456"
     ry="30.405592" />
  <ellipse
     cy="654.41614"
     cx="134.04163"
     id="path10778-8-2"
     style="opacity:1;fill:none;stroke:#ff0000;stroke-width:8.83156776;stroke-miterlimit:4;stroke-dasharray:none;stroke-opacity:1"
     rx="35.463364"
     ry="32.463364" />
  <ellipse
     cy="653"
     cx="278"
     id="path10778-8-2-2"
     style="opacity:1;fill:none;stroke:#ff0000;stroke-width:8.83156776;stroke-miterlimit:4;stroke-dasharray:none;stroke-opacity:1"
     rx="35.463364"
     ry="32.463364" />
  <ellipse
     cy="655"
     cx="1096"
     id="path10778-8-2-6"
     style="opacity:1;fill:none;stroke:#ff0000;stroke-width:18.27176666;stroke-miterlimit:4;stroke-dasharray:none;stroke-opacity:1"
     rx="72.743263"
     ry="67.743263" />
  <circle
     r="3.4577327"
     cy="815.65814"
     cx="550.26166"
     id="path10778-8-2-3-0"
     style="opacity:1;fill:none;stroke:#ff0000;stroke-width:0.89999998;stroke-miterlimit:4;stroke-dasharray:none;stroke-opacity:1" />
  <g
     id="g6761">
    <g
       id="g6757">
      <circle
         r="4.7029095"
         cy="320.79889"
         cx="483.91333"
         id="path10778-8-2-3"
         style="opacity:1;fill:none;stroke:#ff0000;stroke-width:1.22410226;stroke-miterlimit:4;stroke-dasharray:none;stroke-opacity:1" />
      <circle
         r="4.7029095"
         cy="92.592735"
         cx="483.40723"
         id="path10778-8-2-3-1"
         style="opacity:1;fill:none;stroke:#ff0000;stroke-width:1.22410226;stroke-miterlimit:4;stroke-dasharray:none;stroke-opacity:1" />
    </g>
    <g
       transform="translate(8,0)"
       id="g6744">
      <circle
         r="4.7029095"
         cy="320.19583"
         cx="748.66028"
         id="path10778-8-2-3-5"
         style="opacity:1;fill:none;stroke:#ff0000;stroke-width:1.22410226;stroke-miterlimit:4;stroke-dasharray:none;stroke-opacity:1" />
      <circle
         r="4.7029095"
         cy="91.989662"
         cx="748.15417"
         id="path10778-8-2-3-1-6"
         style="opacity:1;fill:none;stroke:#ff0000;stroke-width:1.22410226;stroke-miterlimit:4;stroke-dasharray:none;stroke-opacity:1" />
    </g>
  </g>
  <ellipse
     cy="136.99997"
     cx="1298"
     id="path10778-8-2-2-8"
     style="opacity:1;fill:none;stroke:#ff0000;stroke-width:8.83156776;stroke-miterlimit:4;stroke-dasharray:none;stroke-opacity:1"
     rx="35.463364"
     ry="32.463364" />
  <ellipse
     cy="270.99997"
     cx="1188"
     id="path10778-8-2-2-8-7"
     style="opacity:1;fill:none;stroke:#ff0000;stroke-width:8.83156776;stroke-miterlimit:4;stroke-dasharray:none;stroke-opacity:1"
     rx="35.463364"
     ry="32.463364" />
</svg>
